<svg width="64" height="64" viewBox="0 0 64 64" fill="none" xmlns="http://www.w3.org/2000/svg">
<g clip-path="url(#clip0_23_93)">
<path d="M11.3333 5.07914e-06H52.6667C54.1554 -0.00141188 55.6297 0.293657 57.0054 0.868326C58.3811 1.44299 59.631 2.28598 60.6837 3.34904C61.7363 4.4121 62.5711 5.67436 63.1402 7.06358C63.7092 8.4528 64.0014 9.94171 64 11.4451V51.5703C64.0014 53.0737 63.7092 54.5626 63.1402 55.9518C62.5711 57.341 61.7363 58.6033 60.6837 59.6663C59.631 60.7294 58.3811 61.5724 57.0054 62.1471C55.6297 62.7217 54.1554 63.0168 52.6667 63.0154H11.3333C9.84463 63.0168 8.37026 62.7217 6.9946 62.1471C5.61894 61.5724 4.36901 60.7294 3.31633 59.6663C2.26366 58.6033 1.4289 57.341 0.859846 55.9518C0.29079 54.5626 -0.00139809 53.0737 5.02953e-06 51.5703V11.4451C-0.00139809 9.94171 0.29079 8.4528 0.859846 7.06358C1.4289 5.67436 2.26366 4.4121 3.31633 3.34904C4.36901 2.28598 5.61894 1.44299 6.9946 0.868326C8.37026 0.293657 9.84463 -0.00141188 11.3333 5.07914e-06Z" fill="#88C0D0"/>
<path d="M11.3333 5.07914e-06H52.6667C54.1554 -0.00141188 55.6297 0.293657 57.0054 0.868326C58.3811 1.44299 59.631 2.28598 60.6837 3.34904C61.7363 4.4121 62.5711 5.67436 63.1402 7.06358C63.7092 8.4528 64.0014 9.94171 64 11.4451V51.5703C64.0014 53.0737 63.7092 54.5626 63.1402 55.9518C62.5711 57.341 61.7363 58.6033 60.6837 59.6663C59.631 60.7294 58.3811 61.5724 57.0054 62.1471C55.6297 62.7217 54.1554 63.0168 52.6667 63.0154H11.3333C9.84463 63.0168 8.37026 62.7217 6.9946 62.1471C5.61894 61.5724 4.36901 60.7294 3.31633 59.6663C2.26366 58.6033 1.4289 57.341 0.859846 55.9518C0.29079 54.5626 -0.00139809 53.0737 5.02953e-06 51.5703V11.4451C-0.00139809 9.94171 0.29079 8.4528 0.859846 7.06358C1.4289 5.67436 2.26366 4.4121 3.31633 3.34904C4.36901 2.28598 5.61894 1.44299 6.9946 0.868326C8.37026 0.293657 9.84463 -0.00141188 11.3333 5.07914e-06Z" fill="black" fill-opacity="0.7"/>
<path d="M9.00099 45.6085V18.4769C8.99434 18.3927 9.02142 18.3093 9.07635 18.2447C9.13128 18.1802 9.20961 18.1399 9.29432 18.1325H9.32099C9.74766 18.106 10.3877 18.0795 11.2143 18.0795C12.041 18.0795 13.0277 18.053 14.121 18.0265C15.2143 18 16.4143 18 17.6943 18C21.1343 18 23.9877 18.5829 26.2277 19.7487C28.3678 20.8083 30.1411 22.4781 31.321 24.5444C32.4805 26.703 33.0678 29.1194 33.0277 31.5658C33.0569 33.4136 32.759 35.2521 32.1477 36.9974C31.6072 38.4927 30.7936 39.876 29.7477 41.0778C28.7489 42.1976 27.5791 43.1543 26.281 43.9128C24.9938 44.6691 23.6009 45.2316 22.1477 45.582C20.7253 45.9309 19.266 46.1088 17.801 46.112H14.601C13.481 46.112 12.4143 46.112 11.4543 46.0855C10.4943 46.059 9.74766 46.059 9.26766 46.0325C9.08099 46.0325 9.00099 45.8735 9.00099 45.6085ZM14.921 23.2462V40.9188C15.2057 40.9131 15.4905 40.9219 15.7743 40.9453C16.041 40.9718 16.3077 40.9718 16.5743 40.9983C16.841 41.0248 17.161 41.0248 17.5077 41.0248C18.8052 41.049 20.0966 40.8426 21.321 40.4154C22.4242 40.0449 23.4276 39.4286 24.2543 38.6137C25.0957 37.7838 25.7422 36.7795 26.1477 35.6726C26.6081 34.3983 26.8339 33.0521 26.8143 31.6983C26.8428 30.4238 26.6256 29.1557 26.1743 27.9624C25.7804 26.9328 25.1396 26.0142 24.3077 25.2863C23.4717 24.5455 22.4781 24.0021 21.401 23.6966C20.198 23.3441 18.9484 23.1744 17.6943 23.1932C17.1343 23.1932 16.6543 23.1932 16.2543 23.2197C15.8097 23.2027 15.3645 23.2116 14.921 23.2462Z" fill="#88C0D0"/>
<path d="M35.6143 45.635V29.7641C35.6143 29.2872 35.6143 28.7308 35.5877 28.1479C35.561 27.565 35.561 26.9821 35.5343 26.4521C35.5077 25.9222 35.481 25.4983 35.4543 25.1803C35.4385 25.1355 35.4351 25.0872 35.4444 25.0406C35.4538 24.994 35.4757 24.9507 35.5077 24.9154C35.5859 24.8616 35.6792 24.8338 35.7743 24.8359H40.201C40.3471 24.8342 40.4921 24.8612 40.6277 24.9154C40.6832 24.9447 40.7312 24.9861 40.7682 25.0366C40.8052 25.0871 40.8301 25.1453 40.841 25.2068C40.8943 25.3658 40.9743 25.5778 41.0277 25.7897C41.1065 26.049 41.1601 26.3152 41.1877 26.5846C42.0189 25.8673 42.9775 25.3102 44.0143 24.9419C45.0543 24.5945 46.1438 24.4156 47.241 24.412C48.0926 24.4103 48.9389 24.5445 49.7477 24.8094C50.6806 25.1107 51.5313 25.621 52.2341 26.3009C52.9369 26.9809 53.473 27.8122 53.801 28.7308C54.2277 29.8171 54.441 31.2479 54.441 32.9701V45.635C54.441 45.9 54.3343 46.006 54.0943 46.006H48.8943C48.8451 46.0142 48.7948 46.0124 48.7463 46.0007C48.6978 45.989 48.6523 45.9677 48.6123 45.9379C48.5724 45.9082 48.539 45.8707 48.5142 45.8278C48.4893 45.7848 48.4735 45.7373 48.4677 45.688V33.4735C48.4914 32.7317 48.3645 31.9928 48.0943 31.3009C47.8609 30.7358 47.4548 30.2579 46.9332 29.9346C46.4117 29.6113 45.8011 29.459 45.1877 29.4992C44.4941 29.4887 43.8053 29.6148 43.161 29.8701C42.574 30.113 42.0329 30.4535 41.561 30.8769V45.635C41.561 45.9 41.4543 46.006 41.2143 46.006H35.9877C35.9438 46.0119 35.8991 46.009 35.8564 45.9975C35.8137 45.9859 35.7737 45.966 35.7389 45.9388C35.7041 45.9116 35.6751 45.8777 35.6537 45.8392C35.6323 45.8007 35.6189 45.7583 35.6143 45.7145V45.635Z" fill="#88C0D0"/>
</g>
<defs>
<clipPath id="clip0_23_93">
<rect width="64" height="64" fill="white"/>
</clipPath>
</defs>
</svg>
