<svg width="64" height="64" viewBox="0 0 64 64" fill="none" xmlns="http://www.w3.org/2000/svg">
<g clip-path="url(#clip0_23_194)">
<path d="M11.3333 5.07914e-06H52.6667C54.1554 -0.00141188 55.6297 0.293657 57.0054 0.868326C58.3811 1.44299 59.631 2.28598 60.6837 3.34904C61.7363 4.4121 62.5711 5.67436 63.1402 7.06358C63.7092 8.4528 64.0014 9.94171 64 11.4451V51.5703C64.0014 53.0737 63.7092 54.5626 63.1402 55.9518C62.5711 57.341 61.7363 58.6033 60.6837 59.6663C59.631 60.7294 58.3811 61.5724 57.0054 62.1471C55.6297 62.7217 54.1554 63.0168 52.6667 63.0154H11.3333C9.84463 63.0168 8.37026 62.7217 6.9946 62.1471C5.61894 61.5724 4.36901 60.7294 3.31633 59.6663C2.26366 58.6033 1.4289 57.341 0.859846 55.9518C0.29079 54.5626 -0.00139809 53.0737 5.02953e-06 51.5703V11.4451C-0.00139809 9.94171 0.29079 8.4528 0.859846 7.06358C1.4289 5.67436 2.26366 4.4121 3.31633 3.34904C4.36901 2.28598 5.61894 1.44299 6.9946 0.868326C8.37026 0.293657 9.84463 -0.00141188 11.3333 5.07914e-06Z" fill="#88C0D0"/>
<path d="M11.3333 5.07914e-06H52.6667C54.1554 -0.00141188 55.6297 0.293657 57.0054 0.868326C58.3811 1.44299 59.631 2.28598 60.6837 3.34904C61.7363 4.4121 62.5711 5.67436 63.1402 7.06358C63.7092 8.4528 64.0014 9.94171 64 11.4451V51.5703C64.0014 53.0737 63.7092 54.5626 63.1402 55.9518C62.5711 57.341 61.7363 58.6033 60.6837 59.6663C59.631 60.7294 58.3811 61.5724 57.0054 62.1471C55.6297 62.7217 54.1554 63.0168 52.6667 63.0154H11.3333C9.84463 63.0168 8.37026 62.7217 6.9946 62.1471C5.61894 61.5724 4.36901 60.7294 3.31633 59.6663C2.26366 58.6033 1.4289 57.341 0.859846 55.9518C0.29079 54.5626 -0.00139809 53.0737 5.02953e-06 51.5703V11.4451C-0.00139809 9.94171 0.29079 8.4528 0.859846 7.06358C1.4289 5.67436 2.26366 4.4121 3.31633 3.34904C4.36901 2.28598 5.61894 1.44299 6.9946 0.868326C8.37026 0.293657 9.84463 -0.00141188 11.3333 5.07914e-06Z" fill="black" fill-opacity="0.7"/>
<path d="M13.0267 45.635L13 18.5564C13 18.2915 13.08 18.159 13.2667 18.1325C13.7467 18.106 14.4933 18.0795 15.5067 18.0795C16.52 18.0795 17.48 18.053 18.6533 18.0265C19.8267 18 20.8933 18 21.88 18C24.2267 18 26.1467 18.159 27.5333 18.6889C28.733 19.0859 29.8269 19.7471 30.7333 20.6231C31.4472 21.3087 31.9865 22.1534 32.3067 23.0872C32.5516 23.8497 32.6775 24.6449 32.68 25.4453C32.6716 26.2999 32.4996 27.1451 32.1733 27.9359C31.9385 28.5937 31.5862 29.2041 31.1333 29.7376C30.8117 30.1505 30.4243 30.5085 29.9867 30.7974C30.5977 31.1213 31.1702 31.5123 31.6933 31.9632C32.3662 32.5543 32.9106 33.2756 33.2933 34.0829C33.8034 35.0839 34.0598 36.1936 34.04 37.3154C34.0485 38.9627 33.5251 40.5693 32.5467 41.8991C31.4896 43.2858 30.0554 44.3431 28.4133 44.9462C26.3686 45.7465 24.1838 46.1339 21.9867 46.0855H19.16C18.2533 46.0855 17.5067 46.0855 16.7333 46.059C15.96 46.0325 15.32 46.0325 14.76 46.006C14.2 45.9795 13.72 45.9795 13.32 45.9795C13.1067 45.9795 13.0267 45.847 13.0267 45.635ZM18.8133 23.0342L18.84 28.9427H21.64C22.4133 28.9427 23.16 28.9692 23.9067 28.9957C24.444 28.9961 24.9799 29.0494 25.5067 29.1547C25.8817 28.8313 26.1974 28.4459 26.44 28.0154C26.7269 27.5153 26.8742 26.9482 26.8667 26.3726C26.8674 25.6683 26.6433 24.9818 26.2267 24.412C25.8081 23.9061 25.2531 23.5293 24.6267 23.3256C23.7448 23.0649 22.8261 22.9485 21.9067 22.9812H20.6533C20.28 22.9812 20.04 22.9812 19.7467 23.0077C19.4533 23.0342 19.16 23.0342 18.8133 23.0342ZM18.84 33.8974V40.9983C19.32 41.0248 19.6933 41.0513 20.2 41.0513C20.7067 41.0513 21.2667 41.0778 21.96 41.0778C23.0124 41.1 24.0626 40.9751 25.08 40.7068C25.8595 40.5176 26.5649 40.1026 27.1067 39.5145C27.6119 38.9607 27.9046 38.2478 27.9333 37.5009C27.9096 36.7716 27.6579 36.0678 27.2133 35.4872C26.84 34.9308 26.1467 34.4538 25.16 34.1889C24.774 34.0927 24.382 34.0219 23.9867 33.9769C23.4639 33.924 22.9388 33.8975 22.4133 33.8974H18.84Z" fill="#88C0D0"/>
<path d="M37.8533 24.6504H42.52C42.6464 24.6535 42.7686 24.6961 42.8691 24.7722C42.9697 24.8484 43.0435 24.9541 43.08 25.0744C43.1902 25.2618 43.2627 25.4688 43.2933 25.6838C43.3466 25.9487 43.4 26.2402 43.4266 26.5051C43.4533 26.7701 43.48 27.2205 43.48 27.565C44.277 26.6041 45.244 25.7959 46.3333 25.1804C47.48 24.5445 48.7066 24.3855 50.2 24.3855C50.2438 24.3796 50.2885 24.3825 50.3312 24.394C50.3739 24.4056 50.4139 24.4255 50.4487 24.4527C50.4835 24.4799 50.5125 24.5138 50.5339 24.5523C50.5553 24.5908 50.5687 24.6332 50.5733 24.6769V29.8701C50.5733 30.0821 50.44 30.1616 50.1466 30.1616C49.2357 30.1045 48.3212 30.1669 47.4266 30.347C46.6563 30.505 45.9053 30.7449 45.1866 31.0624C44.6059 31.2901 44.0725 31.6225 43.6133 32.0428V45.4761C43.6133 45.741 43.5066 45.847 43.2666 45.847H38.2C38.1508 45.8553 38.1004 45.8535 38.0519 45.8418C38.0035 45.8301 37.9579 45.8087 37.918 45.779C37.8781 45.7492 37.8447 45.7118 37.8198 45.6688C37.7949 45.6258 37.7791 45.5783 37.7733 45.5291V30.8504C37.7733 30.2146 37.7733 29.5522 37.7466 28.8633C37.72 28.1744 37.72 27.4855 37.6933 26.7966C37.6666 26.1872 37.6133 25.5513 37.5333 24.9419C37.5262 24.9106 37.5254 24.8782 37.531 24.8466C37.5366 24.8149 37.5484 24.7847 37.5657 24.7576C37.583 24.7306 37.6056 24.7072 37.6321 24.6888C37.6585 24.6704 37.6884 24.6573 37.72 24.6504H37.8533Z" fill="#88C0D0"/>
</g>
<defs>
<clipPath id="clip0_23_194">
<rect width="64" height="64" fill="white"/>
</clipPath>
</defs>
</svg>
