<svg width="64" height="64" viewBox="0 0 64 64" fill="none" xmlns="http://www.w3.org/2000/svg">
<g clip-path="url(#clip0_23_100)">
<path d="M11.3333 5.07914e-06H52.6667C54.1554 -0.00141188 55.6297 0.293657 57.0054 0.868326C58.3811 1.44299 59.631 2.28598 60.6837 3.34904C61.7363 4.4121 62.5711 5.67436 63.1402 7.06358C63.7092 8.4528 64.0014 9.94171 64 11.4451V51.5703C64.0014 53.0737 63.7092 54.5626 63.1402 55.9518C62.5711 57.341 61.7363 58.6033 60.6837 59.6663C59.631 60.7294 58.3811 61.5724 57.0054 62.1471C55.6297 62.7217 54.1554 63.0168 52.6667 63.0154H11.3333C9.84463 63.0168 8.37026 62.7217 6.9946 62.1471C5.61894 61.5724 4.36901 60.7294 3.31633 59.6663C2.26366 58.6033 1.4289 57.341 0.859846 55.9518C0.29079 54.5626 -0.00139809 53.0737 5.02953e-06 51.5703V11.4451C-0.00139809 9.94171 0.29079 8.4528 0.859846 7.06358C1.4289 5.67436 2.26366 4.4121 3.31633 3.34904C4.36901 2.28598 5.61894 1.44299 6.9946 0.868326C8.37026 0.293657 9.84463 -0.00141188 11.3333 5.07914e-06Z" fill="#88C0D0"/>
<path d="M11.3333 5.07914e-06H52.6667C54.1554 -0.00141188 55.6297 0.293657 57.0054 0.868326C58.3811 1.44299 59.631 2.28598 60.6837 3.34904C61.7363 4.4121 62.5711 5.67436 63.1402 7.06358C63.7092 8.4528 64.0014 9.94171 64 11.4451V51.5703C64.0014 53.0737 63.7092 54.5626 63.1402 55.9518C62.5711 57.341 61.7363 58.6033 60.6837 59.6663C59.631 60.7294 58.3811 61.5724 57.0054 62.1471C55.6297 62.7217 54.1554 63.0168 52.6667 63.0154H11.3333C9.84463 63.0168 8.37026 62.7217 6.9946 62.1471C5.61894 61.5724 4.36901 60.7294 3.31633 59.6663C2.26366 58.6033 1.4289 57.341 0.859846 55.9518C0.29079 54.5626 -0.00139809 53.0737 5.02953e-06 51.5703V11.4451C-0.00139809 9.94171 0.29079 8.4528 0.859846 7.06358C1.4289 5.67436 2.26366 4.4121 3.31633 3.34904C4.36901 2.28598 5.61894 1.44299 6.9946 0.868326C8.37026 0.293657 9.84463 -0.00141188 11.3333 5.07914e-06Z" fill="black" fill-opacity="0.7"/>
<path d="M33.3301 19.7047L25.3301 32.8201L33.8634 46.7304C33.9196 46.8264 33.9386 46.9394 33.9168 47.0483C33.8901 47.1543 33.7834 47.0748 33.6234 47.1013H27.5168C27.0901 47.1013 26.7968 47.0748 26.6101 46.8099C26.0501 45.697 25.4634 44.6107 24.9034 43.4979C24.3434 42.3851 23.7301 41.2987 23.0901 40.1594C22.4501 39.0201 21.8101 37.8808 21.1701 36.715H21.1168C20.5568 37.8543 19.9434 38.9936 19.3301 40.1329C18.7168 41.2722 18.1034 42.4116 17.5168 43.5244C16.9301 44.6372 16.2901 45.7765 15.6768 46.8628C15.5701 47.1278 15.3568 47.1543 15.0634 47.1543H9.19677C9.0901 47.1543 9.0101 47.2073 9.0101 47.0748C8.9982 47.0252 8.9968 46.9737 9.00598 46.9235C9.01516 46.8733 9.03473 46.8256 9.06344 46.7834L17.3568 33.2705L9.27677 19.6782C9.19677 19.5722 9.1701 19.4663 9.22344 19.4133C9.25595 19.3755 9.2972 19.3461 9.34364 19.3277C9.39009 19.3092 9.44034 19.3022 9.4901 19.3073H15.5434C15.6696 19.31 15.7949 19.3278 15.9168 19.3603C16.0236 19.4174 16.1151 19.4992 16.1834 19.5987C16.6901 20.7381 17.2768 21.8774 17.8901 23.0167C18.5034 24.156 19.1434 25.2688 19.8101 26.3816C20.4768 27.4945 21.0368 28.6073 21.5968 29.7466H21.6501C22.2101 28.5808 22.7968 27.4415 23.3834 26.3287C23.9701 25.2158 24.5834 24.103 25.1968 22.9902C25.8101 21.8774 26.3968 20.7381 26.9834 19.6517C27.0037 19.5474 27.0603 19.4536 27.1434 19.3868C27.249 19.3289 27.3719 19.3101 27.4901 19.3338H33.1168C33.1483 19.3268 33.1809 19.326 33.2127 19.3315C33.2445 19.337 33.275 19.3487 33.3022 19.366C33.3295 19.3832 33.353 19.4056 33.3715 19.4319C33.3901 19.4582 33.4032 19.4879 33.4101 19.5193C33.4368 19.5457 33.3834 19.6517 33.3301 19.7047Z" fill="#88C0D0"/>
<path d="M45.6501 47.6577C43.6734 47.6899 41.7145 47.2826 39.9168 46.4654C38.2442 45.6883 36.8424 44.4338 35.8901 42.862C34.9035 41.2457 34.4235 39.2321 34.4235 36.821C34.3964 34.8602 34.9032 32.9285 35.8901 31.2304C36.9021 29.5044 38.3678 28.0847 40.1301 27.1235C41.9968 26.0902 44.2368 25.5868 46.8768 25.5868C47.0638 25.5847 47.2508 25.5935 47.4368 25.6133C47.6768 25.6398 47.9434 25.6398 48.2634 25.6663V17.2936C48.2634 17.1081 48.3434 17.0022 48.5301 17.0022H53.9434C54.0032 16.9941 54.0639 17.0087 54.1133 17.0431C54.1627 17.0775 54.1973 17.1291 54.2101 17.1876V42.4645C54.2101 42.9415 54.2368 43.4714 54.2634 44.0543C54.2901 44.6372 54.3435 45.1406 54.3701 45.591C54.3758 45.6805 54.3531 45.7695 54.3053 45.8456C54.2575 45.9216 54.1869 45.9808 54.1035 46.015C52.7067 46.5982 51.2488 47.0248 49.7568 47.2868C48.4015 47.5296 47.0273 47.6537 45.6501 47.6577ZM48.2634 42.3586V30.7004C48.026 30.6435 47.7857 30.5993 47.5435 30.568C47.2501 30.5415 46.9568 30.515 46.6634 30.515C45.6182 30.5033 44.5851 30.7394 43.6501 31.2039C42.7389 31.655 41.9587 32.3299 41.3834 33.1646C40.7968 34.0124 40.5035 35.1517 40.5035 36.5295C40.4802 37.4594 40.634 38.3854 40.9568 39.2586C41.2147 39.9647 41.6242 40.6066 42.1568 41.1398C42.6709 41.6272 43.2915 41.99 43.9701 42.1996C44.6844 42.432 45.4318 42.5484 46.1834 42.544C46.5834 42.544 46.9568 42.5175 47.3035 42.491C47.6293 42.5141 47.9563 42.469 48.2634 42.3586Z" fill="#88C0D0"/>
</g>
<defs>
<clipPath id="clip0_23_100">
<rect width="64" height="64" fill="white"/>
</clipPath>
</defs>
</svg>
