<svg width="64" height="64" viewBox="0 0 64 64" fill="none" xmlns="http://www.w3.org/2000/svg">
<g clip-path="url(#clip0_23_115)">
<path d="M11.3333 5.07914e-06H52.6667C54.1554 -0.00141188 55.6297 0.293657 57.0054 0.868326C58.3811 1.44299 59.631 2.28598 60.6837 3.34904C61.7363 4.4121 62.5711 5.67436 63.1402 7.06358C63.7092 8.4528 64.0014 9.94171 64 11.4451V51.5703C64.0014 53.0737 63.7092 54.5626 63.1402 55.9518C62.5711 57.341 61.7363 58.6033 60.6837 59.6663C59.631 60.7294 58.3811 61.5724 57.0054 62.1471C55.6297 62.7217 54.1554 63.0168 52.6667 63.0154H11.3333C9.84463 63.0168 8.37026 62.7217 6.9946 62.1471C5.61894 61.5724 4.36901 60.7294 3.31633 59.6663C2.26366 58.6033 1.4289 57.341 0.859846 55.9518C0.29079 54.5626 -0.00139809 53.0737 5.02953e-06 51.5703V11.4451C-0.00139809 9.94171 0.29079 8.4528 0.859846 7.06358C1.4289 5.67436 2.26366 4.4121 3.31633 3.34904C4.36901 2.28598 5.61894 1.44299 6.9946 0.868326C8.37026 0.293657 9.84463 -0.00141188 11.3333 5.07914e-06Z" fill="#88C0D0"/>
<path d="M11.3333 5.07914e-06H52.6667C54.1554 -0.00141188 55.6297 0.293657 57.0054 0.868326C58.3811 1.44299 59.631 2.28598 60.6837 3.34904C61.7363 4.4121 62.5711 5.67436 63.1402 7.06358C63.7092 8.4528 64.0014 9.94171 64 11.4451V51.5703C64.0014 53.0737 63.7092 54.5626 63.1402 55.9518C62.5711 57.341 61.7363 58.6033 60.6837 59.6663C59.631 60.7294 58.3811 61.5724 57.0054 62.1471C55.6297 62.7217 54.1554 63.0168 52.6667 63.0154H11.3333C9.84463 63.0168 8.37026 62.7217 6.9946 62.1471C5.61894 61.5724 4.36901 60.7294 3.31633 59.6663C2.26366 58.6033 1.4289 57.341 0.859846 55.9518C0.29079 54.5626 -0.00139809 53.0737 5.02953e-06 51.5703V11.4451C-0.00139809 9.94171 0.29079 8.4528 0.859846 7.06358C1.4289 5.67436 2.26366 4.4121 3.31633 3.34904C4.36901 2.28598 5.61894 1.44299 6.9946 0.868326C8.37026 0.293657 9.84463 -0.00141188 11.3333 5.07914e-06Z" fill="black" fill-opacity="0.7"/>
<path d="M19.0174 42.7612C17.5548 42.7746 16.0947 42.6388 14.6601 42.3558C13.5263 42.142 12.423 41.7914 11.3747 41.3119C11.1454 41.198 11.0307 40.9569 11.0307 40.5859V35.5067C11.0272 35.462 11.0352 35.4172 11.0538 35.3765C11.0725 35.3357 11.1012 35.3003 11.1374 35.2735C11.1802 35.2549 11.2269 35.2471 11.2734 35.2508C11.32 35.2545 11.3648 35.2696 11.4041 35.2947C13.7412 36.7266 16.4291 37.4936 19.1747 37.5124C20.8067 37.5124 21.973 37.2634 22.6734 36.7652C22.9943 36.5707 23.2604 36.2986 23.447 35.9743C23.6335 35.65 23.7343 35.284 23.7401 34.9105C23.747 34.4538 23.628 34.004 23.3961 33.6096C23.0859 33.1474 22.6748 32.7607 22.1934 32.4782C21.4445 32.0228 20.6544 31.6378 19.8334 31.3283L17.7001 30.4301C15.9543 29.6918 14.5872 28.9031 13.5987 28.064C12.7014 27.3452 12 26.4142 11.5587 25.3562C11.1824 24.3602 10.9935 23.3041 11.0014 22.2403C10.9724 20.7307 11.393 19.2462 12.2105 17.9734C13.028 16.7006 14.2059 15.6962 15.5961 15.0864C17.1125 14.364 19.0014 14.0019 21.2627 14.0001C22.5484 13.9964 23.8326 14.0849 25.1054 14.2651C26.0946 14.3736 27.0594 14.6421 27.9614 15.0599C28.059 15.1152 28.1388 15.1968 28.1917 15.2953C28.2446 15.3937 28.2683 15.5051 28.2601 15.6164V20.4492C28.256 20.4864 28.2445 20.5225 28.2262 20.5553C28.2078 20.588 28.1831 20.6168 28.1534 20.6399C28.0814 20.7115 27.9881 20.7062 27.8867 20.6187C26.9367 20.1346 25.9261 19.7782 24.8814 19.5589C23.7039 19.2997 22.5008 19.1726 21.2947 19.18C20.5873 19.167 19.8808 19.239 19.1907 19.3946C18.702 19.5016 18.2319 19.6802 17.7961 19.9246C17.4578 20.1145 17.1805 20.3956 16.9961 20.7353C16.8262 21.0425 16.7346 21.3864 16.7294 21.7369C16.723 22.1727 16.8576 22.599 17.1134 22.953C17.4682 23.3873 17.9059 23.7475 18.4014 24.0128C19.2135 24.4761 20.0493 24.8971 20.9054 25.274L22.5054 25.8729C24.3934 26.6412 25.8672 27.4582 26.9267 28.3237C27.8891 29.0693 28.6551 30.0358 29.1587 31.1402C29.5933 32.1739 29.8128 33.2843 29.8041 34.4045C29.8354 35.981 29.362 37.5267 28.4521 38.8187C27.4992 40.1207 26.1972 41.1306 24.6947 41.7332C23.0859 42.4185 21.1934 42.7612 19.0174 42.7612Z" fill="#88C0D0"/>
<path d="M41.5614 20.7062C43.2199 20.666 44.8696 20.9579 46.4121 21.5646C47.6875 22.084 48.8314 22.8775 49.7614 23.8883C50.6369 24.8508 51.3145 25.9741 51.7561 27.195C52.205 28.4402 52.4306 29.754 52.4228 31.0766C52.4656 32.8446 52.0902 34.598 51.3268 36.1956C50.6238 37.6195 49.6065 38.8676 48.3508 39.8467C47.0892 40.8306 45.6566 41.576 44.1241 42.0458C42.5591 42.5259 40.9299 42.7671 39.2921 42.7612C39.178 42.7604 39.0641 42.7534 38.9508 42.74C38.8068 42.74 38.5214 42.7188 38.3481 42.7188V49.9681C38.3578 50.0594 38.3307 50.1508 38.2727 50.2223C38.2148 50.2938 38.1306 50.3396 38.0388 50.3496H38.0068C37.5774 50.3787 37.2068 50.4211 36.6094 50.4768C36.0121 50.5324 35.4574 50.5907 34.9134 50.649C34.3694 50.7073 33.8974 50.747 33.4974 50.7762C33.252 50.7856 33.0077 50.8139 32.7668 50.861C32.5961 50.861 32.5001 50.747 32.5001 50.5218V25.4834C32.5001 25.2846 32.5001 24.9985 32.4788 24.6302C32.4574 24.2619 32.4494 23.8989 32.4334 23.5412C32.4262 23.263 32.4048 22.9853 32.3694 22.7093C32.3589 22.6515 32.371 22.5919 32.4032 22.5426C32.4354 22.4934 32.4853 22.4582 32.5428 22.4443C33.2539 22.1882 34.0761 21.932 35.0094 21.6759C35.9401 21.411 36.9561 21.1937 38.0601 20.9923C39.2162 20.7928 40.388 20.697 41.5614 20.7062ZM41.0441 25.7404C40.5981 25.7376 40.1525 25.7668 39.7108 25.8278C39.3108 25.8834 38.7561 25.8278 38.3268 25.9417V37.5999C38.5884 37.686 38.8557 37.7541 39.1268 37.8039C39.3934 37.8039 39.6201 37.8251 39.7934 37.8251C40.84 37.8225 41.8751 37.6088 42.8361 37.1971C43.8379 36.7733 44.6946 36.0702 45.3028 35.1728C45.9623 34.2314 46.2921 32.9949 46.2921 31.4634C46.2921 29.6423 45.8334 28.2345 44.9161 27.24C43.9988 26.2456 42.7108 25.7448 41.0521 25.7377L41.0441 25.7404Z" fill="#88C0D0"/>
</g>
<defs>
<clipPath id="clip0_23_115">
<rect width="64" height="64" fill="white"/>
</clipPath>
</defs>
</svg>
