<svg width="64" height="64" viewBox="0 0 64 64" fill="none" xmlns="http://www.w3.org/2000/svg">
<g clip-path="url(#clip0_23_22)">
<path d="M11.3333 5.07914e-06H52.6667C54.1554 -0.00141188 55.6297 0.293657 57.0054 0.868326C58.3811 1.44299 59.631 2.28598 60.6837 3.34904C61.7363 4.4121 62.5711 5.67436 63.1402 7.06358C63.7092 8.4528 64.0014 9.94171 64 11.4451V51.5703C64.0014 53.0737 63.7092 54.5626 63.1402 55.9518C62.5711 57.341 61.7363 58.6033 60.6837 59.6663C59.631 60.7294 58.3811 61.5724 57.0054 62.1471C55.6297 62.7217 54.1554 63.0168 52.6667 63.0154H11.3333C9.84463 63.0168 8.37026 62.7217 6.9946 62.1471C5.61894 61.5724 4.36901 60.7294 3.31633 59.6663C2.26366 58.6033 1.4289 57.341 0.859846 55.9518C0.29079 54.5626 -0.00139809 53.0737 5.02953e-06 51.5703V11.4451C-0.00139809 9.94171 0.29079 8.4528 0.859846 7.06358C1.4289 5.67436 2.26366 4.4121 3.31633 3.34904C4.36901 2.28598 5.61894 1.44299 6.9946 0.868326C8.37026 0.293657 9.84463 -0.00141188 11.3333 5.07914e-06Z" fill="#88C0D0"/>
<path d="M11.3333 5.07914e-06H52.6667C54.1554 -0.00141188 55.6297 0.293657 57.0054 0.868326C58.3811 1.44299 59.631 2.28598 60.6837 3.34904C61.7363 4.4121 62.5711 5.67436 63.1402 7.06358C63.7092 8.4528 64.0014 9.94171 64 11.4451V51.5703C64.0014 53.0737 63.7092 54.5626 63.1402 55.9518C62.5711 57.341 61.7363 58.6033 60.6837 59.6663C59.631 60.7294 58.3811 61.5724 57.0054 62.1471C55.6297 62.7217 54.1554 63.0168 52.6667 63.0154H11.3333C9.84463 63.0168 8.37026 62.7217 6.9946 62.1471C5.61894 61.5724 4.36901 60.7294 3.31633 59.6663C2.26366 58.6033 1.4289 57.341 0.859846 55.9518C0.29079 54.5626 -0.00139809 53.0737 5.02953e-06 51.5703V11.4451C-0.00139809 9.94171 0.29079 8.4528 0.859846 7.06358C1.4289 5.67436 2.26366 4.4121 3.31633 3.34904C4.36901 2.28598 5.61894 1.44299 6.9946 0.868326C8.37026 0.293657 9.84463 -0.00141188 11.3333 5.07914e-06Z" fill="black" fill-opacity="0.7"/>
<path d="M50.8564 37.0051C47.8964 33.8786 39.7097 35.1504 37.7897 35.4684C35.649 33.3415 33.8099 30.9347 32.3231 28.3145C33.4164 25.2991 34.0457 22.137 34.1897 18.935C34.1897 16.0735 33.0431 13 29.8431 13C29.2981 13.0146 28.7656 13.1655 28.2948 13.4387C27.824 13.712 27.4302 14.0987 27.1497 14.5632C25.7897 16.8949 26.3231 21.7171 28.5097 26.5923C27.2297 30.1692 25.3897 35.3359 22.9631 39.5222C19.6831 40.8205 12.7231 44 12.0564 47.5239C11.9552 48.0346 11.9906 48.5627 12.1591 49.0555C12.3275 49.5484 12.6231 49.9887 13.0164 50.3325C13.7944 51.0148 14.8059 51.3751 15.8431 51.3393C20.0297 51.3393 24.2164 45.5633 27.0431 40.6085C30.2999 39.5044 33.6331 38.6366 37.0164 38.012C41.4431 41.8538 45.3897 42.4368 47.3897 42.4368C50.1097 42.4368 51.1231 41.2709 51.4964 40.2906C51.6932 39.7359 51.7377 39.139 51.6252 38.5616C51.5127 37.9841 51.2473 37.4468 50.8564 37.0051ZM47.9764 39.0188C47.8431 39.7872 46.8564 40.5556 45.0164 40.1581C42.885 39.6271 40.8993 38.6315 39.2031 37.2436C40.6431 37.0051 44.0031 36.6872 46.3764 37.1376C47.2297 37.2966 48.2164 37.7735 47.9764 39.0188ZM28.8831 15.5701C28.9705 15.3977 29.1036 15.2523 29.2681 15.1495C29.4326 15.0468 29.6222 14.9907 29.8164 14.9872C30.8297 14.9872 31.0431 16.206 31.0431 17.2128C30.8771 19.6144 30.4296 21.9886 29.7097 24.2872C28.0031 19.7829 28.2431 16.6564 28.8831 15.5701ZM28.6431 37.588C29.6311 35.5323 30.5123 33.4276 31.2831 31.2821C32.3486 32.958 33.5623 34.5363 34.9097 35.9983C32.7936 36.4159 30.7017 36.9466 28.6431 37.588ZM21.9497 42.1453C19.2564 46.4376 16.6164 49.1402 15.0697 49.1402C14.8179 49.1422 14.5731 49.058 14.3764 48.9017C14.2327 48.7864 14.1242 48.6336 14.0629 48.4605C14.0017 48.2873 13.9902 48.1006 14.0297 47.9214C14.3231 46.3846 17.3897 44.159 21.9497 42.1453Z" fill="#88C0D0"/>
</g>
<defs>
<clipPath id="clip0_23_22">
<rect width="64" height="64" fill="white"/>
</clipPath>
</defs>
</svg>
