<svg width="64" height="64" viewBox="0 0 64 64" fill="none" xmlns="http://www.w3.org/2000/svg">
<g clip-path="url(#clip0_23_78)">
<path d="M11.3333 5.07914e-06H52.6667C54.1554 -0.00141188 55.6297 0.293657 57.0054 0.868326C58.3811 1.44299 59.631 2.28598 60.6837 3.34904C61.7363 4.4121 62.5711 5.67436 63.1402 7.06358C63.7092 8.4528 64.0014 9.94171 64 11.4451V51.5703C64.0014 53.0737 63.7092 54.5626 63.1402 55.9518C62.5711 57.341 61.7363 58.6033 60.6837 59.6663C59.631 60.7294 58.3811 61.5724 57.0054 62.1471C55.6297 62.7217 54.1554 63.0168 52.6667 63.0154H11.3333C9.84463 63.0168 8.37026 62.7217 6.9946 62.1471C5.61894 61.5724 4.36901 60.7294 3.31633 59.6663C2.26366 58.6033 1.4289 57.341 0.859846 55.9518C0.29079 54.5626 -0.00139809 53.0737 5.02953e-06 51.5703V11.4451C-0.00139809 9.94171 0.29079 8.4528 0.859846 7.06358C1.4289 5.67436 2.26366 4.4121 3.31633 3.34904C4.36901 2.28598 5.61894 1.44299 6.9946 0.868326C8.37026 0.293657 9.84463 -0.00141188 11.3333 5.07914e-06Z" fill="#88C0D0"/>
<path d="M11.3333 5.07914e-06H52.6667C54.1554 -0.00141188 55.6297 0.293657 57.0054 0.868326C58.3811 1.44299 59.631 2.28598 60.6837 3.34904C61.7363 4.4121 62.5711 5.67436 63.1402 7.06358C63.7092 8.4528 64.0014 9.94171 64 11.4451V51.5703C64.0014 53.0737 63.7092 54.5626 63.1402 55.9518C62.5711 57.341 61.7363 58.6033 60.6837 59.6663C59.631 60.7294 58.3811 61.5724 57.0054 62.1471C55.6297 62.7217 54.1554 63.0168 52.6667 63.0154H11.3333C9.84463 63.0168 8.37026 62.7217 6.9946 62.1471C5.61894 61.5724 4.36901 60.7294 3.31633 59.6663C2.26366 58.6033 1.4289 57.341 0.859846 55.9518C0.29079 54.5626 -0.00139809 53.0737 5.02953e-06 51.5703V11.4451C-0.00139809 9.94171 0.29079 8.4528 0.859846 7.06358C1.4289 5.67436 2.26366 4.4121 3.31633 3.34904C4.36901 2.28598 5.61894 1.44299 6.9946 0.868326C8.37026 0.293657 9.84463 -0.00141188 11.3333 5.07914e-06Z" fill="black" fill-opacity="0.7"/>
<path d="M14 45.7145V18.4504C14 18.265 14.08 18.159 14.2667 18.159C14.72 18.159 15.1467 18.159 15.76 18.1325C16.3733 18.106 17.0667 18.106 17.7867 18.0795C18.5067 18.053 19.28 18.053 20.1067 18.0265C20.9333 18 21.7333 18 22.5333 18C24.72 18 26.5333 18.265 28.0267 18.8214C29.3653 19.2731 30.586 20.0152 31.6 20.994C32.4593 21.8506 33.1232 22.8807 33.5467 24.0145C33.9503 25.1187 34.1579 26.2842 34.16 27.459C34.16 29.7376 33.6267 31.6188 32.56 33.1026C31.4884 34.5843 29.9922 35.7108 28.2667 36.335C26.4533 36.9974 24.4533 37.2359 22.2667 37.2359C21.6267 37.2359 21.2 37.2359 20.9333 37.2094C20.6667 37.1829 20.2933 37.1829 19.7867 37.1829V45.688C19.7926 45.7316 19.7897 45.776 19.7781 45.8184C19.7665 45.8609 19.7464 45.9006 19.719 45.9352C19.6917 45.9698 19.6576 45.9986 19.6188 46.0198C19.58 46.0411 19.5374 46.0544 19.4933 46.059H14.32C14.1067 46.059 14 45.953 14 45.7145ZM19.8133 23.2727V32.1752C20.1867 32.2017 20.5333 32.2282 20.8533 32.2282H22.2667C23.3077 32.2294 24.3425 32.0685 25.3333 31.7513C26.1834 31.5029 26.9429 31.0151 27.52 30.347C28.08 29.6846 28.3467 28.7838 28.3467 27.618C28.3718 26.79 28.159 25.972 27.7333 25.2598C27.2887 24.5719 26.6348 24.0428 25.8667 23.7496C24.8656 23.36 23.7944 23.1796 22.72 23.2197C22.0267 23.2197 21.4133 23.2197 20.9067 23.2462C20.5422 23.2225 20.1762 23.2313 19.8133 23.2727Z" fill="#88C0D0"/>
<path d="M37.8933 24.8094H42.56C42.6864 24.8124 42.8086 24.855 42.9092 24.9312C43.0097 25.0073 43.0835 25.1131 43.12 25.2333C43.2014 25.4465 43.2552 25.6691 43.28 25.8957C43.3333 26.1607 43.3867 26.4521 43.4133 26.7171C43.44 26.982 43.4667 27.3265 43.4667 27.6709C44.2674 26.7422 45.2349 25.9695 46.32 25.3923C47.5596 24.7082 48.9554 24.3523 50.3733 24.359C50.4172 24.3531 50.4619 24.356 50.5046 24.3675C50.5473 24.3791 50.5873 24.399 50.6221 24.4262C50.6569 24.4534 50.6859 24.4872 50.7073 24.5257C50.7287 24.5643 50.7421 24.6067 50.7467 24.6504V29.9231C50.7467 30.135 50.6133 30.2145 50.32 30.2145C49.3526 30.1831 48.3851 30.2721 47.44 30.4795C46.6697 30.6375 45.9187 30.8773 45.2 31.1949C44.6841 31.426 44.2213 31.7596 43.84 32.1752V45.688C43.84 45.953 43.7333 46.059 43.4934 46.059H38.24C38.1908 46.0672 38.1405 46.0654 38.092 46.0537C38.0435 46.042 37.9979 46.0207 37.958 45.9909C37.9181 45.9612 37.8847 45.9237 37.8599 45.8807C37.835 45.8378 37.8192 45.7902 37.8133 45.741V30.9564C37.8133 30.3205 37.8133 29.6581 37.7867 28.9692C37.76 28.2803 37.76 27.5914 37.7333 26.9026C37.7333 26.2932 37.68 25.7103 37.6267 25.1009C37.6196 25.0695 37.6188 25.0371 37.6244 25.0055C37.6299 24.9739 37.6417 24.9437 37.6591 24.9166C37.6764 24.8895 37.699 24.8661 37.7255 24.8477C37.7519 24.8293 37.7818 24.8163 37.8133 24.8094C37.8133 24.7829 37.8667 24.7829 37.8933 24.8094Z" fill="#88C0D0"/>
</g>
<defs>
<clipPath id="clip0_23_78">
<rect width="64" height="64" fill="white"/>
</clipPath>
</defs>
</svg>
