<svg width="64" height="64" viewBox="0 0 64 64" fill="none" xmlns="http://www.w3.org/2000/svg">
<g clip-path="url(#clip0_23_107)">
<path d="M11.3333 5.07914e-06H52.6667C54.1554 -0.00141188 55.6297 0.293657 57.0054 0.868326C58.3811 1.44299 59.631 2.28598 60.6837 3.34904C61.7363 4.4121 62.5711 5.67436 63.1402 7.06358C63.7092 8.4528 64.0014 9.94171 64 11.4451V51.5703C64.0014 53.0737 63.7092 54.5626 63.1402 55.9518C62.5711 57.341 61.7363 58.6033 60.6837 59.6663C59.631 60.7294 58.3811 61.5724 57.0054 62.1471C55.6297 62.7217 54.1554 63.0168 52.6667 63.0154H11.3333C9.84463 63.0168 8.37026 62.7217 6.9946 62.1471C5.61894 61.5724 4.36901 60.7294 3.31633 59.6663C2.26366 58.6033 1.4289 57.341 0.859846 55.9518C0.29079 54.5626 -0.00139809 53.0737 5.02953e-06 51.5703V11.4451C-0.00139809 9.94171 0.29079 8.4528 0.859846 7.06358C1.4289 5.67436 2.26366 4.4121 3.31633 3.34904C4.36901 2.28598 5.61894 1.44299 6.9946 0.868326C8.37026 0.293657 9.84463 -0.00141188 11.3333 5.07914e-06Z" fill="#88C0D0"/>
<path d="M11.3333 5.07914e-06H52.6667C54.1554 -0.00141188 55.6297 0.293657 57.0054 0.868326C58.3811 1.44299 59.631 2.28598 60.6837 3.34904C61.7363 4.4121 62.5711 5.67436 63.1402 7.06358C63.7092 8.4528 64.0014 9.94171 64 11.4451V51.5703C64.0014 53.0737 63.7092 54.5626 63.1402 55.9518C62.5711 57.341 61.7363 58.6033 60.6837 59.6663C59.631 60.7294 58.3811 61.5724 57.0054 62.1471C55.6297 62.7217 54.1554 63.0168 52.6667 63.0154H11.3333C9.84463 63.0168 8.37026 62.7217 6.9946 62.1471C5.61894 61.5724 4.36901 60.7294 3.31633 59.6663C2.26366 58.6033 1.4289 57.341 0.859846 55.9518C0.29079 54.5626 -0.00139809 53.0737 5.02953e-06 51.5703V11.4451C-0.00139809 9.94171 0.29079 8.4528 0.859846 7.06358C1.4289 5.67436 2.26366 4.4121 3.31633 3.34904C4.36901 2.28598 5.61894 1.44299 6.9946 0.868326C8.37026 0.293657 9.84463 -0.00141188 11.3333 5.07914e-06Z" fill="black" fill-opacity="0.7"/>
<path d="M6.0015 45.6085V18.4769C5.99365 18.3966 6.01684 18.3163 6.06636 18.2524C6.11588 18.1884 6.18802 18.1456 6.26816 18.1325H6.29483C6.69483 18.106 7.30816 18.0795 8.0815 18.0795C8.85483 18.0795 9.78816 18.053 10.8548 18.0265C11.9215 18 13.0415 18 14.2415 18C17.4948 18 20.2148 18.5829 22.3482 19.7487C24.4013 20.8347 26.0818 22.5045 27.1748 24.5444C28.2415 26.5846 28.7748 28.9162 28.7748 31.5658C28.8089 33.4097 28.5294 35.246 27.9482 36.9974C27.4399 38.4849 26.6628 39.8676 25.6548 41.0778C24.7172 42.1872 23.6105 43.1438 22.3748 43.9128C21.1572 44.6565 19.8365 45.2189 18.4548 45.582C17.114 45.9307 15.7341 46.1088 14.3482 46.112H11.3348C10.2682 46.112 9.25483 46.112 8.34816 46.0855C7.4415 46.059 6.7215 46.059 6.26816 46.0325C6.0815 46.0325 6.0015 45.8735 6.0015 45.6085ZM11.6282 23.2462V40.9188C11.9215 40.9188 12.1882 40.9188 12.4548 40.9453C12.7215 40.9718 12.9615 40.9718 13.2015 40.9983C13.4415 41.0248 13.7615 41.0248 14.0815 41.0248C15.3179 41.0467 16.5477 40.84 17.7082 40.4154C18.7713 40.0423 19.7307 39.425 20.5082 38.6137C21.3065 37.77 21.9155 36.7676 22.2948 35.6726C22.7211 34.3905 22.9371 33.0486 22.9348 31.6983C22.9592 30.4264 22.7514 29.1607 22.3215 27.9624C21.9536 26.9417 21.3492 26.0212 20.557 25.2756C19.7648 24.5299 18.8072 23.9799 17.7615 23.6701C16.6225 23.3179 15.4343 23.1479 14.2415 23.1667C13.7082 23.1667 13.2548 23.1667 12.8815 23.1932C12.5082 23.2197 12.0815 23.2197 11.6282 23.2462Z" fill="#88C0D0"/>
<path d="M52.6682 46.0325H47.6815C47.6235 46.0417 47.5641 46.0368 47.5084 46.0184C47.4527 45.9999 47.4023 45.9684 47.3615 45.9265C47.2873 45.8322 47.2329 45.7241 47.2015 45.6085C46.6948 43.4889 46.2682 41.5812 45.9215 39.965C45.5748 38.3487 45.2815 36.9444 45.0682 35.8051C44.8548 34.6658 44.6682 33.712 44.5082 32.9171C44.3482 32.1222 44.2415 31.4598 44.1615 30.9034H44.1348C43.8682 32.0692 43.6282 33.2085 43.3882 34.2949C43.1482 35.3812 42.9082 36.494 42.6415 37.6068C42.3748 38.7197 42.0815 39.9385 41.7348 41.2632C41.3882 42.588 41.0415 44.0453 40.6415 45.6085C40.5882 45.9 40.4548 46.0325 40.2148 46.0325H35.2282C35.0983 46.0475 34.9671 46.0195 34.8548 45.953C34.7775 45.8663 34.7145 45.7679 34.6682 45.6615L29.4682 25.1803C29.3882 24.9419 29.4948 24.8359 29.7882 24.8359H34.8282C35.0682 24.8359 35.2015 24.9154 35.2282 25.1008C35.7615 27.4325 36.2148 29.4461 36.5615 31.1419C36.9082 32.8376 37.2015 34.2684 37.3882 35.4607C37.5748 36.653 37.7615 37.6333 37.8948 38.3752C38.0282 39.1171 38.1348 39.753 38.2148 40.2299H38.2948C38.3482 39.806 38.4015 39.4085 38.4815 38.9846C38.5882 38.4812 38.7215 37.8188 38.8815 36.9974C39.0415 36.1761 39.2282 35.2222 39.4682 34.1094C39.7082 32.9966 39.9748 31.7248 40.2948 30.241C40.6148 28.7573 41.0148 27.1145 41.5215 25.2333C41.5323 25.1123 41.5686 24.995 41.6282 24.8889C41.6548 24.8359 41.7615 24.8094 41.9215 24.8094H47.1482C47.3082 24.8094 47.3882 24.9154 47.4148 25.1008C47.8682 27.035 48.2415 28.7308 48.5615 30.188C48.8815 31.6453 49.1215 32.9436 49.3615 34.0829C49.6015 35.2222 49.7615 36.1761 49.8682 36.9709C49.9748 37.7658 50.1082 38.4547 50.2148 39.0111C50.3032 39.4576 50.3655 39.9088 50.4015 40.3624H50.4815C50.6148 39.8325 50.7215 39.1966 50.8282 38.4812C50.9348 37.7658 51.0682 36.9709 51.2548 36.0701C51.4415 35.1692 51.6015 34.1889 51.8148 33.1026C52.0282 32.0162 52.2682 30.8239 52.5615 29.4726C52.8548 28.1214 53.1748 26.6906 53.5482 25.1273C53.6015 24.8889 53.7082 24.7829 53.8948 24.7829H58.5615C58.8015 24.7829 58.8815 24.9154 58.8282 25.1538L53.0682 45.582C53.042 45.6917 52.9867 45.7923 52.9082 45.8735C52.9082 46.006 52.8015 46.059 52.6682 46.0325Z" fill="#88C0D0"/>
</g>
<defs>
<clipPath id="clip0_23_107">
<rect width="64" height="64" fill="white"/>
</clipPath>
</defs>
</svg>
