<svg width="64" height="64" viewBox="0 0 64 64" fill="none" xmlns="http://www.w3.org/2000/svg">
<g clip-path="url(#clip0_23_63)">
<path d="M11.3333 5.07914e-06H52.6667C54.1554 -0.00141188 55.6297 0.293657 57.0054 0.868326C58.3811 1.44299 59.631 2.28598 60.6837 3.34904C61.7363 4.4121 62.5711 5.67436 63.1402 7.06358C63.7092 8.4528 64.0014 9.94171 64 11.4451V51.5703C64.0014 53.0737 63.7092 54.5626 63.1402 55.9518C62.5711 57.341 61.7363 58.6033 60.6837 59.6663C59.631 60.7294 58.3811 61.5724 57.0054 62.1471C55.6297 62.7217 54.1554 63.0168 52.6667 63.0154H11.3333C9.84463 63.0168 8.37026 62.7217 6.9946 62.1471C5.61894 61.5724 4.36901 60.7294 3.31633 59.6663C2.26366 58.6033 1.4289 57.341 0.859846 55.9518C0.29079 54.5626 -0.00139809 53.0737 5.02953e-06 51.5703V11.4451C-0.00139809 9.94171 0.29079 8.4528 0.859846 7.06358C1.4289 5.67436 2.26366 4.4121 3.31633 3.34904C4.36901 2.28598 5.61894 1.44299 6.9946 0.868326C8.37026 0.293657 9.84463 -0.00141188 11.3333 5.07914e-06Z" fill="#88C0D0"/>
<path d="M11.3333 5.07914e-06H52.6667C54.1554 -0.00141188 55.6297 0.293657 57.0054 0.868326C58.3811 1.44299 59.631 2.28598 60.6837 3.34904C61.7363 4.4121 62.5711 5.67436 63.1402 7.06358C63.7092 8.4528 64.0014 9.94171 64 11.4451V51.5703C64.0014 53.0737 63.7092 54.5626 63.1402 55.9518C62.5711 57.341 61.7363 58.6033 60.6837 59.6663C59.631 60.7294 58.3811 61.5724 57.0054 62.1471C55.6297 62.7217 54.1554 63.0168 52.6667 63.0154H11.3333C9.84463 63.0168 8.37026 62.7217 6.9946 62.1471C5.61894 61.5724 4.36901 60.7294 3.31633 59.6663C2.26366 58.6033 1.4289 57.341 0.859846 55.9518C0.29079 54.5626 -0.00139809 53.0737 5.02953e-06 51.5703V11.4451C-0.00139809 9.94171 0.29079 8.4528 0.859846 7.06358C1.4289 5.67436 2.26366 4.4121 3.31633 3.34904C4.36901 2.28598 5.61894 1.44299 6.9946 0.868326C8.37026 0.293657 9.84463 -0.00141188 11.3333 5.07914e-06Z" fill="black" fill-opacity="0.7"/>
<path d="M50.8993 36.2797H42.5686C42.6902 37.1404 42.9832 37.9677 43.43 38.7122C43.9023 39.4206 44.5707 39.9747 45.3527 40.3062C46.431 40.7922 47.6001 41.0415 48.782 41.0376C49.5739 41.0566 50.3656 40.9937 51.1447 40.85C51.9949 40.6979 52.8251 40.4489 53.6193 40.108C53.7598 39.9954 53.83 40.066 53.83 40.3196V44.3542C53.8368 44.4642 53.8147 44.5742 53.766 44.673C53.7179 44.7498 53.6532 44.8148 53.5767 44.8632C52.7008 45.2794 51.7775 45.5862 50.8273 45.7767C49.6934 45.9373 48.5462 45.9821 47.4033 45.9107C45.6797 45.9683 43.9638 45.6541 42.3713 44.9891C41.0923 44.4228 39.9627 43.5642 39.0726 42.4816C38.2414 41.4621 37.6229 40.2849 37.254 39.0203C36.8892 37.7717 36.7042 36.4772 36.7047 35.1759C36.7042 33.7506 36.9301 32.3344 37.374 30.9806C37.7953 29.6626 38.4622 28.437 39.3393 27.3693C40.204 26.3137 41.2856 25.4584 42.51 24.8618C43.887 24.2235 45.3913 23.911 46.9073 23.9483C48.3837 23.9279 49.8479 24.2181 51.206 24.8002C52.292 25.2941 53.2427 26.0451 53.9766 26.9889C54.6665 27.8884 55.1928 28.9033 55.5313 29.9867C55.8641 31.0303 56.035 32.1191 56.038 33.2149C56.038 33.8382 56.0167 34.4044 55.974 34.9134C55.9385 35.2166 55.8842 35.5172 55.8113 35.8135C55.8002 35.9073 55.7553 35.9937 55.685 36.0564C55.6147 36.1191 55.524 36.1538 55.43 36.1538C55.262 36.1538 54.9713 36.1752 54.5633 36.2181C54.1553 36.2609 53.4273 36.2449 52.822 36.2582C52.2166 36.2716 51.5767 36.2797 50.8993 36.2797ZM42.5447 32.9041H48.0833C48.7607 32.9041 49.2611 32.897 49.5846 32.8827C49.7908 32.8827 49.9963 32.8611 50.198 32.8184V32.5505C50.2225 32.0425 50.193 31.5333 50.11 31.0315C49.8783 30.31 49.4185 29.6841 48.8006 29.249C48.1826 28.8138 47.4402 28.5931 46.686 28.6204C45.9746 28.5775 45.2661 28.7432 44.6468 29.0976C44.0275 29.452 43.5241 29.9796 43.198 30.6163C42.8794 31.3462 42.6597 32.1156 42.5447 32.9041Z" fill="#88C0D0"/>
<path d="M8.46199 18.2715C8.46397 18.2332 8.47365 18.1957 8.49045 18.1613C8.50724 18.1268 8.5308 18.0962 8.55971 18.0712C8.58861 18.0461 8.62226 18.0272 8.65863 18.0156C8.695 18.004 8.73333 17.9999 8.77132 18.0036H16.1767C16.2738 17.9905 16.3724 18.0135 16.4539 18.0683C16.5354 18.123 16.5942 18.2057 16.6193 18.3009C16.806 19.0377 17.0353 19.5708 17.302 20.6022C17.5687 21.6336 17.8567 22.7909 18.174 24.0367L19.1073 27.8596C19.4291 29.1616 19.7438 30.4288 20.0513 31.6611C20.3589 32.8934 20.622 34.0267 20.8407 35.0607C21.054 36.0948 21.2318 36.9512 21.374 37.6299H21.414C21.5207 37.0352 21.7082 36.2422 21.9767 35.251C22.2451 34.2597 22.5535 33.1479 22.902 31.9156C23.2575 30.6833 23.6131 29.4161 23.9687 28.1141C24.3242 26.8121 24.6798 25.5235 25.0353 24.2483C25.3909 22.9731 25.7189 21.7908 26.0193 20.7013C26.3287 19.611 26.574 19.0511 26.7633 18.3143C26.777 18.2287 26.8215 18.1511 26.8883 18.0963C26.9552 18.0415 27.0398 18.0133 27.126 18.017H34.326C34.409 18.0054 34.4931 18.027 34.5604 18.0771C34.6277 18.1272 34.6728 18.2018 34.686 18.2849C34.686 18.2849 34.686 18.3009 34.686 18.309L35.6513 44.9195C35.6649 44.9655 35.6666 45.0141 35.6563 45.061C35.6461 45.1078 35.6242 45.1513 35.5927 45.1874C35.5584 45.2233 35.5169 45.2515 35.4709 45.27C35.4249 45.2885 35.3755 45.2968 35.326 45.2945H30.0753C30.0033 45.2967 29.9327 45.274 29.8753 45.2302C29.8454 45.1999 29.8227 45.1632 29.8088 45.1229C29.795 45.0825 29.7904 45.0395 29.7953 44.9971C29.7953 43.5532 29.7953 42.2217 29.774 40.6357C29.7527 39.0498 29.7393 37.4558 29.7127 35.8564C29.686 34.257 29.686 32.7193 29.7127 31.2485C29.7393 29.7778 29.7527 28.4168 29.7527 27.1711C29.7527 25.9254 29.7527 24.8431 29.774 23.9215C29.7953 22.9999 29.7927 22.3141 29.7953 21.8613H29.7553C29.5935 22.5757 29.3793 23.5036 29.1127 24.6448C28.846 25.7861 28.5313 27.0747 28.1687 28.5106C27.8131 29.9394 27.4247 31.4191 27.0033 32.9497C26.582 34.4803 26.1802 35.9984 25.798 37.504C25.4087 39.006 25.0335 40.408 24.6727 41.71C24.31 43.012 24.0113 43.9764 23.7687 44.9677C23.7449 45.0668 23.6879 45.1546 23.6073 45.2166C23.5267 45.2785 23.4274 45.3107 23.326 45.3079H18.7927C18.6843 45.3232 18.5742 45.2965 18.4846 45.2334C18.395 45.1702 18.3326 45.0753 18.31 44.9677C18.07 43.9764 17.7927 43.012 17.486 41.71C17.1793 40.408 16.8647 39.0471 16.542 37.6326C16.2193 36.2181 15.878 34.7661 15.518 33.2792C15.158 31.7924 14.814 30.3538 14.494 28.966C14.174 27.5783 13.8833 26.287 13.63 25.0574C13.3767 23.8277 13.1367 22.7534 12.9233 21.8265H12.8407V25.1833C12.8407 26.4871 12.8202 27.9248 12.7793 29.4965C12.7384 31.0681 12.6984 32.7104 12.6593 34.4231C12.6202 36.1377 12.5731 37.9076 12.518 39.7329C12.4647 41.56 12.398 43.1808 12.318 44.965C12.318 45.1927 12.2113 45.3052 11.998 45.3052H7.33932C7.24611 45.3101 7.15349 45.2878 7.07265 45.2409C7.0051 45.1981 6.98465 45.0918 7.01132 44.9221L8.46199 18.2715Z" fill="#88C0D0"/>
</g>
<defs>
<clipPath id="clip0_23_63">
<rect width="64" height="64" fill="white"/>
</clipPath>
</defs>
</svg>
