<svg width="64" height="64" viewBox="0 0 64 64" fill="none" xmlns="http://www.w3.org/2000/svg">
<g clip-path="url(#clip0_23_201)">
<path d="M11.3333 5.07914e-06H52.6667C54.1554 -0.00141188 55.6297 0.293657 57.0054 0.868326C58.3811 1.44299 59.631 2.28598 60.6837 3.34904C61.7363 4.4121 62.5711 5.67436 63.1402 7.06358C63.7092 8.4528 64.0014 9.94171 64 11.4451V51.5703C64.0014 53.0737 63.7092 54.5626 63.1402 55.9518C62.5711 57.341 61.7363 58.6033 60.6837 59.6663C59.631 60.7294 58.3811 61.5724 57.0054 62.1471C55.6297 62.7217 54.1554 63.0168 52.6667 63.0154H11.3333C9.84463 63.0168 8.37026 62.7217 6.9946 62.1471C5.61894 61.5724 4.36901 60.7294 3.31633 59.6663C2.26366 58.6033 1.4289 57.341 0.859846 55.9518C0.29079 54.5626 -0.00139809 53.0737 5.02953e-06 51.5703V11.4451C-0.00139809 9.94171 0.29079 8.4528 0.859846 7.06358C1.4289 5.67436 2.26366 4.4121 3.31633 3.34904C4.36901 2.28598 5.61894 1.44299 6.9946 0.868326C8.37026 0.293657 9.84463 -0.00141188 11.3333 5.07914e-06Z" fill="#88C0D0"/>
<path d="M11.3333 5.07914e-06H52.6667C54.1554 -0.00141188 55.6297 0.293657 57.0054 0.868326C58.3811 1.44299 59.631 2.28598 60.6837 3.34904C61.7363 4.4121 62.5711 5.67436 63.1402 7.06358C63.7092 8.4528 64.0014 9.94171 64 11.4451V51.5703C64.0014 53.0737 63.7092 54.5626 63.1402 55.9518C62.5711 57.341 61.7363 58.6033 60.6837 59.6663C59.631 60.7294 58.3811 61.5724 57.0054 62.1471C55.6297 62.7217 54.1554 63.0168 52.6667 63.0154H11.3333C9.84463 63.0168 8.37026 62.7217 6.9946 62.1471C5.61894 61.5724 4.36901 60.7294 3.31633 59.6663C2.26366 58.6033 1.4289 57.341 0.859846 55.9518C0.29079 54.5626 -0.00139809 53.0737 5.02953e-06 51.5703V11.4451C-0.00139809 9.94171 0.29079 8.4528 0.859846 7.06358C1.4289 5.67436 2.26366 4.4121 3.31633 3.34904C4.36901 2.28598 5.61894 1.44299 6.9946 0.868326C8.37026 0.293657 9.84463 -0.00141188 11.3333 5.07914e-06Z" fill="black" fill-opacity="0.7"/>
<path d="M10 45.635V18.5564C10 18.2915 10.08 18.159 10.2667 18.1325C10.7467 18.106 11.4933 18.0795 12.5067 18.0795C13.52 18.0795 14.5867 18.053 15.76 18.0265C16.9333 18 18 18 18.9867 18C21.3333 18 23.2 18.265 24.5867 18.7684C25.7863 19.1654 26.8802 19.8266 27.7867 20.7026C28.477 21.3924 28.9893 22.2377 29.28 23.1667C29.5249 23.9292 29.6508 24.7244 29.6533 25.5248C29.6723 26.3744 29.5275 27.2198 29.2267 28.0154C28.9919 28.6732 28.6396 29.2836 28.1867 29.8171C27.865 30.23 27.4777 30.5879 27.04 30.8769C27.6511 31.2008 28.2235 31.5918 28.7467 32.0427C29.4195 32.6338 29.964 33.3551 30.3467 34.1624C30.8281 35.1903 31.0653 36.3144 31.04 37.4479C31.0632 39.0727 30.5582 40.6617 29.6 41.9786C28.543 43.3653 27.1088 44.4225 25.4667 45.0256C23.68 45.741 21.5467 46.112 19.04 46.112H16.2133C15.3067 46.112 14.48 46.112 13.7333 46.0855C12.9867 46.059 12.32 46.059 11.76 46.0325C11.2 46.006 10.72 46.006 10.32 46.006C10.1067 46.006 10 45.8735 10 45.635ZM15.7867 23.0872V29.0222H18.6933C19.4667 29.0222 20.2133 29.0487 20.96 29.0752C21.4973 29.0756 22.0333 29.1288 22.56 29.2342C22.935 28.9108 23.2508 28.5254 23.4933 28.0949C23.7489 27.5662 23.8768 26.9856 23.8667 26.3991C23.8959 25.7276 23.6988 25.0656 23.3067 24.5179C22.8881 24.0121 22.3331 23.6352 21.7067 23.4316C20.835 23.164 19.9254 23.0387 19.0133 23.0607H17.76C17.3867 23.0607 17.04 23.0607 16.7467 23.0872C16.4533 23.0607 16.1333 23.0872 15.7867 23.0872ZM15.7867 34.0299V41.0778C16.2667 41.1043 16.7467 41.1308 17.2533 41.1308C17.76 41.1308 18.32 41.1573 19.0133 41.1573C20.0657 41.1794 21.116 41.0546 22.1333 40.7863C22.9128 40.5971 23.6182 40.1821 24.16 39.594C24.627 39.0273 24.8731 38.3125 24.8533 37.5803C24.8703 36.869 24.6754 36.1685 24.2933 35.5667C23.92 35.0103 23.2267 34.5863 22.24 34.3214C21.854 34.2251 21.462 34.1543 21.0667 34.1094C20.5439 34.0565 20.0188 34.03 19.4933 34.0299H15.7867Z" fill="#88C0D0"/>
<path d="M48.2933 36.9974H39.84C39.9419 37.8003 40.2244 38.57 40.6667 39.2496C41.1379 39.9637 41.8169 40.5182 42.6133 40.8393C43.6946 41.2811 44.8582 41.4888 46.0267 41.4487C46.9563 41.4494 47.8843 41.3696 48.8 41.2103C49.6607 41.0561 50.5014 40.8073 51.3067 40.4684C51.44 40.3624 51.52 40.4154 51.52 40.6803V44.7342C51.5153 44.8419 51.4974 44.9487 51.4667 45.0521C51.4185 45.1265 51.3548 45.1897 51.28 45.2376C50.3874 45.6569 49.4473 45.9682 48.48 46.165C47.2326 46.4033 45.9633 46.5099 44.6933 46.4829C42.6667 46.4829 40.96 46.165 39.5733 45.5556C38.2685 44.9928 37.1168 44.1301 36.2133 43.0385C35.369 42.0177 34.743 40.8367 34.3733 39.5675C33.5919 36.9242 33.6291 34.1084 34.48 31.4863C34.9052 30.1597 35.5843 28.9272 36.48 27.8564C37.3619 26.7976 38.4622 25.9392 39.7067 25.3393C41.1027 24.7035 42.6245 24.3866 44.16 24.412C45.5819 24.3792 46.9935 24.6597 48.2933 25.2333C49.3945 25.7264 50.3563 26.4817 51.0933 27.4325C51.8022 28.3374 52.3439 29.3601 52.6933 30.453C53.0324 31.4973 53.2034 32.5882 53.2 33.6855C53.2 34.3214 53.1733 34.8778 53.1467 35.3812C53.12 35.8846 53.0667 36.2556 53.04 36.494C53.0282 36.5858 52.9844 36.6706 52.9162 36.7335C52.848 36.7965 52.7596 36.8336 52.6667 36.8385C52.5067 36.8385 52.2133 36.865 51.7867 36.8915C51.2732 36.9494 50.7567 36.9759 50.24 36.9709C49.6267 36.9709 48.9867 36.9974 48.2933 36.9974ZM39.84 32.8376H45.4667C46.16 32.8376 46.6667 32.8376 46.9867 32.8111C47.1921 32.8078 47.397 32.7901 47.6 32.7581V32.4932C47.6011 32.1599 47.547 31.8287 47.44 31.5128C47.2066 30.7878 46.7421 30.1579 46.1168 29.7182C45.4914 29.2785 44.7391 29.0528 43.9733 29.0752C43.2496 29.0349 42.5296 29.2036 41.9003 29.5609C41.2709 29.9182 40.7591 30.4489 40.4267 31.0889C40.1287 31.6328 39.93 32.2248 39.84 32.8376Z" fill="#88C0D0"/>
</g>
<defs>
<clipPath id="clip0_23_201">
<rect width="64" height="64" fill="white"/>
</clipPath>
</defs>
</svg>
