<svg width="64" height="64" viewBox="0 0 64 64" fill="none" xmlns="http://www.w3.org/2000/svg">
<g clip-path="url(#clip0_23_145)">
<path d="M11.3333 5.07914e-06H52.6667C54.1554 -0.00141188 55.6297 0.293657 57.0054 0.868326C58.3811 1.44299 59.631 2.28598 60.6837 3.34904C61.7363 4.4121 62.5711 5.67436 63.1402 7.06358C63.7092 8.4528 64.0014 9.94171 64 11.4451V51.5703C64.0014 53.0737 63.7092 54.5626 63.1402 55.9518C62.5711 57.341 61.7363 58.6033 60.6837 59.6663C59.631 60.7294 58.3811 61.5724 57.0054 62.1471C55.6297 62.7217 54.1554 63.0168 52.6667 63.0154H11.3333C9.84463 63.0168 8.37026 62.7217 6.9946 62.1471C5.61894 61.5724 4.36901 60.7294 3.31633 59.6663C2.26366 58.6033 1.4289 57.341 0.859846 55.9518C0.29079 54.5626 -0.00139809 53.0737 5.02953e-06 51.5703V11.4451C-0.00139809 9.94171 0.29079 8.4528 0.859846 7.06358C1.4289 5.67436 2.26366 4.4121 3.31633 3.34904C4.36901 2.28598 5.61894 1.44299 6.9946 0.868326C8.37026 0.293657 9.84463 -0.00141188 11.3333 5.07914e-06Z" fill="#88C0D0"/>
<path d="M11.3333 5.07914e-06H52.6667C54.1554 -0.00141188 55.6297 0.293657 57.0054 0.868326C58.3811 1.44299 59.631 2.28598 60.6837 3.34904C61.7363 4.4121 62.5711 5.67436 63.1402 7.06358C63.7092 8.4528 64.0014 9.94171 64 11.4451V51.5703C64.0014 53.0737 63.7092 54.5626 63.1402 55.9518C62.5711 57.341 61.7363 58.6033 60.6837 59.6663C59.631 60.7294 58.3811 61.5724 57.0054 62.1471C55.6297 62.7217 54.1554 63.0168 52.6667 63.0154H11.3333C9.84463 63.0168 8.37026 62.7217 6.9946 62.1471C5.61894 61.5724 4.36901 60.7294 3.31633 59.6663C2.26366 58.6033 1.4289 57.341 0.859846 55.9518C0.29079 54.5626 -0.00139809 53.0737 5.02953e-06 51.5703V11.4451C-0.00139809 9.94171 0.29079 8.4528 0.859846 7.06358C1.4289 5.67436 2.26366 4.4121 3.31633 3.34904C4.36901 2.28598 5.61894 1.44299 6.9946 0.868326C8.37026 0.293657 9.84463 -0.00141188 11.3333 5.07914e-06Z" fill="black" fill-opacity="0.7"/>
<path d="M20.9445 35.4635V45.9028C20.9509 45.943 20.9489 45.984 20.9388 46.0234C20.9287 46.0628 20.9106 46.0998 20.8857 46.132C20.8607 46.1642 20.8294 46.1911 20.7937 46.2109C20.7579 46.2307 20.7185 46.2431 20.6778 46.2473H15.3178C15.2696 46.2566 15.2198 46.2526 15.1737 46.2356C15.1277 46.2186 15.0873 46.1893 15.057 46.1509C15.0266 46.1126 15.0076 46.0666 15.0018 46.0182C14.9961 45.9697 15.0039 45.9206 15.0245 45.8763V18.6122C15.0245 18.2148 15.1312 18.0028 15.3178 18.0028H32.3312C32.432 17.9924 32.5338 18.0108 32.6245 18.0558C32.7186 18.2355 32.7645 18.4363 32.7578 18.6387L33.2378 23.2755C33.2488 23.3166 33.2497 23.3597 33.2405 23.4012C33.2312 23.4427 33.212 23.4814 33.1845 23.5139C33.1129 23.5825 33.0172 23.6205 32.9178 23.6199H20.9445V30.1114H31.6645C31.9312 30.1114 32.0378 30.2174 32.0378 30.4028V35.0926C32.0442 35.1327 32.0423 35.1738 32.0322 35.2132C32.022 35.2526 32.004 35.2895 31.979 35.3218C31.9541 35.354 31.9228 35.3808 31.887 35.4006C31.8513 35.4205 31.8119 35.4328 31.7712 35.437H31.6912L20.9445 35.4635Z" fill="#88C0D0"/>
<path d="M35.8245 25.0507H40.4911C40.6175 25.0537 40.7397 25.0963 40.8403 25.1725C40.9409 25.2486 41.0147 25.3544 41.0511 25.4746C41.1614 25.6621 41.2339 25.8691 41.2645 26.084C41.3178 26.349 41.3711 26.6404 41.3978 26.9054C41.4245 27.1704 41.4511 27.5148 41.4511 27.8592C42.2518 26.9305 43.2194 26.1578 44.3045 25.5806C45.5228 24.9244 46.8924 24.5956 48.2778 24.6268C48.3217 24.6208 48.3663 24.6237 48.409 24.6353C48.4518 24.6468 48.4917 24.6668 48.5266 24.694C48.5614 24.7212 48.5903 24.755 48.6117 24.7935C48.6331 24.8321 48.6465 24.8745 48.6511 24.9182V30.1909C48.6511 30.4028 48.5178 30.4823 48.2245 30.4823C46.4962 30.3795 44.7683 30.6883 43.1845 31.3832C42.6443 31.6128 42.155 31.9459 41.7445 32.3635V45.8763C41.7445 46.1413 41.6378 46.2473 41.3978 46.2473H36.2245C36.1753 46.2555 36.1249 46.2537 36.0764 46.242C36.028 46.2303 35.9824 46.209 35.9425 46.1792C35.9026 46.1495 35.8692 46.112 35.8443 46.069C35.8194 46.0261 35.8036 45.9785 35.7978 45.9293V31.1447C35.7978 30.5088 35.7978 29.8464 35.7711 29.1575C35.7445 28.4686 35.7445 27.7798 35.7178 27.0909C35.6911 26.508 35.6378 25.9251 35.5578 25.3421C35.5507 25.3108 35.55 25.2784 35.5555 25.2468C35.5611 25.2152 35.5729 25.185 35.5902 25.1579C35.6075 25.1308 35.6301 25.1074 35.6566 25.089C35.683 25.0706 35.7129 25.0576 35.7445 25.0507C35.7445 25.0242 35.7978 25.0242 35.8245 25.0507Z" fill="#88C0D0"/>
</g>
<defs>
<clipPath id="clip0_23_145">
<rect width="64" height="64" fill="white"/>
</clipPath>
</defs>
</svg>
