<svg width="64" height="64" viewBox="0 0 64 64" fill="none" xmlns="http://www.w3.org/2000/svg">
<g clip-path="url(#clip0_23_85)">
<path d="M11.3333 5.07914e-06H52.6667C54.1554 -0.00141188 55.6297 0.293657 57.0054 0.868326C58.3811 1.44299 59.631 2.28598 60.6837 3.34904C61.7363 4.4121 62.5711 5.67436 63.1402 7.06358C63.7092 8.4528 64.0014 9.94171 64 11.4451V51.5703C64.0014 53.0737 63.7092 54.5626 63.1402 55.9518C62.5711 57.341 61.7363 58.6033 60.6837 59.6663C59.631 60.7294 58.3811 61.5724 57.0054 62.1471C55.6297 62.7217 54.1554 63.0168 52.6667 63.0154H11.3333C9.84463 63.0168 8.37026 62.7217 6.9946 62.1471C5.61894 61.5724 4.36901 60.7294 3.31633 59.6663C2.26366 58.6033 1.4289 57.341 0.859846 55.9518C0.29079 54.5626 -0.00139809 53.0737 5.02953e-06 51.5703V11.4451C-0.00139809 9.94171 0.29079 8.4528 0.859846 7.06358C1.4289 5.67436 2.26366 4.4121 3.31633 3.34904C4.36901 2.28598 5.61894 1.44299 6.9946 0.868326C8.37026 0.293657 9.84463 -0.00141188 11.3333 5.07914e-06Z" fill="#88C0D0"/>
<path d="M11.3333 5.07914e-06H52.6667C54.1554 -0.00141188 55.6297 0.293657 57.0054 0.868326C58.3811 1.44299 59.631 2.28598 60.6837 3.34904C61.7363 4.4121 62.5711 5.67436 63.1402 7.06358C63.7092 8.4528 64.0014 9.94171 64 11.4451V51.5703C64.0014 53.0737 63.7092 54.5626 63.1402 55.9518C62.5711 57.341 61.7363 58.6033 60.6837 59.6663C59.631 60.7294 58.3811 61.5724 57.0054 62.1471C55.6297 62.7217 54.1554 63.0168 52.6667 63.0154H11.3333C9.84463 63.0168 8.37026 62.7217 6.9946 62.1471C5.61894 61.5724 4.36901 60.7294 3.31633 59.6663C2.26366 58.6033 1.4289 57.341 0.859846 55.9518C0.29079 54.5626 -0.00139809 53.0737 5.02953e-06 51.5703V11.4451C-0.00139809 9.94171 0.29079 8.4528 0.859846 7.06358C1.4289 5.67436 2.26366 4.4121 3.31633 3.34904C4.36901 2.28598 5.61894 1.44299 6.9946 0.868326C8.37026 0.293657 9.84463 -0.00141188 11.3333 5.07914e-06Z" fill="black" fill-opacity="0.7"/>
<path d="M15.4667 46.0325H10.3467C10.1067 46.0325 10 45.9 10 45.6615V18.5034C10 18.2385 10.08 18.1325 10.2667 18.1325C11.28 18.106 12.1333 18.0795 12.8533 18.0795L14.9067 18.0265C15.5733 18 16.24 18 16.96 18H19.28C21.68 18 23.7067 18.3444 25.3333 19.0068C26.8507 19.5848 28.1599 20.5996 29.0933 21.9214C29.9733 23.1667 30.4 24.7299 30.4 26.5846C30.4093 27.6824 30.1724 28.7685 29.7067 29.7641C29.2512 30.7281 28.6076 31.5927 27.8133 32.3077C26.9951 33.0488 26.0458 33.6327 25.0133 34.0299C25.3067 34.4009 25.7067 34.9573 26.2133 35.7256C26.72 36.494 27.3067 37.3154 27.92 38.2427C28.5333 39.1701 29.1467 40.0974 29.76 41.0513C30.3733 42.0051 30.9333 42.853 31.44 43.6479C31.9467 44.4427 32.32 45.0786 32.5867 45.5291C32.6293 45.5749 32.661 45.6296 32.6795 45.6892C32.698 45.7488 32.7027 45.8118 32.6933 45.8735C32.6959 45.8974 32.6925 45.9216 32.6836 45.9439C32.6746 45.9662 32.6604 45.986 32.642 46.0017C32.6236 46.0173 32.6017 46.0283 32.5782 46.0337C32.5546 46.039 32.53 46.0386 32.5067 46.0325H26.2667C26.1405 46.0297 26.0152 46.012 25.8933 45.9795C25.8106 45.9323 25.738 45.8693 25.68 45.794C25.36 45.3436 24.96 44.7342 24.5067 43.9923C24.0533 43.2504 23.5467 42.4291 23.0133 41.5282C22.48 40.6273 21.9467 39.7265 21.4133 38.8521C20.88 37.9778 20.4267 37.1829 20.0267 36.4675C19.8962 36.2588 19.7343 36.0712 19.5467 35.9111C19.3885 35.8071 19.203 35.7518 19.0133 35.7521H15.8133V45.688C15.8169 45.7342 15.8104 45.7806 15.7943 45.824C15.7781 45.8674 15.7527 45.9068 15.7198 45.9395C15.6869 45.9723 15.6472 45.9975 15.6035 46.0136C15.5598 46.0296 15.5131 46.0361 15.4667 46.0325ZM15.8133 30.665H19.1733C20.1313 30.6911 21.0869 30.5568 22 30.2675C22.7271 30.0499 23.3634 29.6036 23.8133 28.9957C24.2626 28.3818 24.4883 27.6343 24.4533 26.8761C24.4533 25.5778 23.9733 24.6239 22.9867 24.041C22 23.4581 20.72 23.1667 19.12 23.1667C18.4267 23.1667 17.7867 23.1667 17.2 23.1932C16.6133 23.2197 16.1333 23.2197 15.8133 23.2462V30.665Z" fill="#88C0D0"/>
<path d="M53.04 25.1274V41.2897C53.04 42.0051 53.04 42.641 53.0667 43.1974C53.0933 43.7538 53.12 44.2308 53.1467 44.6547C53.1733 45.0786 53.2267 45.4231 53.2533 45.688C53.28 45.953 53.1733 46.0325 52.96 46.0325H48.3467C48.2421 46.0428 48.137 46.0202 48.0461 45.9679C47.9551 45.9156 47.8831 45.8362 47.84 45.741C47.7867 45.5291 47.7333 45.3171 47.68 45.0786C47.6358 44.8607 47.6179 44.6384 47.6267 44.4162C46.7619 45.1856 45.731 45.7476 44.6133 46.059C43.6491 46.3227 42.6535 46.4564 41.6533 46.4564C40.6661 46.4665 39.6839 46.3143 38.7467 46.006C37.882 45.7127 37.1035 45.2122 36.48 44.5487C35.7925 43.8157 35.2818 42.9368 34.9867 41.9786C34.6102 40.7603 34.4302 39.4905 34.4533 38.2162V25.1803C34.4469 25.1402 34.4489 25.0991 34.459 25.0597C34.4691 25.0203 34.4872 24.9834 34.5121 24.9512C34.5371 24.9189 34.5684 24.8921 34.6041 24.8723C34.6399 24.8525 34.6793 24.8401 34.72 24.8359H40.08C40.1204 24.8296 40.1617 24.8315 40.2014 24.8415C40.241 24.8516 40.2782 24.8695 40.3106 24.8943C40.3431 24.9191 40.3701 24.9502 40.39 24.9857C40.41 25.0212 40.4224 25.0604 40.4267 25.1009V37.5539C40.4267 38.7197 40.6933 39.647 41.2 40.3094C41.7067 40.9718 42.5867 41.3162 43.7867 41.3162C44.4051 41.3161 45.0188 41.2085 45.6 40.9983C46.1401 40.785 46.6438 40.49 47.0933 40.1239V25.1274C47.0933 24.9154 47.2267 24.8359 47.4667 24.8359H52.7467C52.78 24.8299 52.8143 24.8306 52.8473 24.8381C52.8804 24.8456 52.9116 24.8597 52.939 24.8795C52.9664 24.8993 52.9895 24.9245 53.0069 24.9534C53.0242 24.9823 53.0355 25.0145 53.04 25.0479V25.1274Z" fill="#88C0D0"/>
</g>
<defs>
<clipPath id="clip0_23_85">
<rect width="64" height="64" fill="white"/>
</clipPath>
</defs>
</svg>
