<svg width="64" height="64" viewBox="0 0 64 64" fill="none" xmlns="http://www.w3.org/2000/svg">
<g clip-path="url(#clip0_23_214)">
<path d="M11.3333 5.07914e-06H52.6667C54.1554 -0.00141188 55.6297 0.293657 57.0054 0.868326C58.3811 1.44299 59.631 2.28598 60.6837 3.34904C61.7363 4.4121 62.5711 5.67436 63.1402 7.06358C63.7092 8.4528 64.0014 9.94171 64 11.4451V51.5703C64.0014 53.0737 63.7092 54.5626 63.1402 55.9518C62.5711 57.341 61.7363 58.6033 60.6837 59.6663C59.631 60.7294 58.3811 61.5724 57.0054 62.1471C55.6297 62.7217 54.1554 63.0168 52.6667 63.0154H11.3333C9.84463 63.0168 8.37026 62.7217 6.9946 62.1471C5.61894 61.5724 4.36901 60.7294 3.31633 59.6663C2.26366 58.6033 1.4289 57.341 0.859846 55.9518C0.29079 54.5626 -0.00139809 53.0737 5.02953e-06 51.5703V11.4451C-0.00139809 9.94171 0.29079 8.4528 0.859846 7.06358C1.4289 5.67436 2.26366 4.4121 3.31633 3.34904C4.36901 2.28598 5.61894 1.44299 6.9946 0.868326C8.37026 0.293657 9.84463 -0.00141188 11.3333 5.07914e-06Z" fill="#88C0D0"/>
<path d="M11.3333 5.07914e-06H52.6667C54.1554 -0.00141188 55.6297 0.293657 57.0054 0.868326C58.3811 1.44299 59.631 2.28598 60.6837 3.34904C61.7363 4.4121 62.5711 5.67436 63.1402 7.06358C63.7092 8.4528 64.0014 9.94171 64 11.4451V51.5703C64.0014 53.0737 63.7092 54.5626 63.1402 55.9518C62.5711 57.341 61.7363 58.6033 60.6837 59.6663C59.631 60.7294 58.3811 61.5724 57.0054 62.1471C55.6297 62.7217 54.1554 63.0168 52.6667 63.0154H11.3333C9.84463 63.0168 8.37026 62.7217 6.9946 62.1471C5.61894 61.5724 4.36901 60.7294 3.31633 59.6663C2.26366 58.6033 1.4289 57.341 0.859846 55.9518C0.29079 54.5626 -0.00139809 53.0737 5.02953e-06 51.5703V11.4451C-0.00139809 9.94171 0.29079 8.4528 0.859846 7.06358C1.4289 5.67436 2.26366 4.4121 3.31633 3.34904C4.36901 2.28598 5.61894 1.44299 6.9946 0.868326C8.37026 0.293657 9.84463 -0.00141188 11.3333 5.07914e-06Z" fill="black" fill-opacity="0.7"/>
<path d="M14 47.1521V20.047C14 19.8615 14.08 19.7556 14.2667 19.7556C14.72 19.7556 15.28 19.7556 15.8933 19.7291C16.5067 19.7026 17.2 19.7026 17.92 19.6761C18.64 19.6496 19.4133 19.6496 20.24 19.6231C21.0667 19.5966 21.8667 19.5966 22.6667 19.5966C24.8533 19.5966 26.6667 19.8615 28.16 20.4179C29.4987 20.8696 30.7193 21.6118 31.7333 22.5906C32.5926 23.4472 33.2565 24.4773 33.68 25.6111C34.0837 26.7153 34.2912 27.8808 34.2933 29.0556C34.2933 31.3342 33.76 33.2154 32.6933 34.6991C31.6217 36.1809 30.1256 37.3073 28.4 37.9316C26.4767 38.621 24.4445 38.962 22.4 38.9385C21.76 38.9385 21.3333 38.9385 21.0667 38.912C20.8 38.8855 20.32 38.965 19.8133 38.965V47.2316C19.8193 47.2752 19.8164 47.3196 19.8047 47.362C19.7931 47.4045 19.773 47.4442 19.7457 47.4788C19.7183 47.5134 19.6842 47.5422 19.6455 47.5634C19.6067 47.5847 19.564 47.598 19.52 47.6026H19.4133L14.2933 47.5231C14.1067 47.4966 14 47.3906 14 47.1521ZM19.8133 24.9487V33.7718C20.1867 33.7983 20.64 33.7453 20.96 33.7453H22.3733C23.4116 33.7644 24.4464 33.6214 25.44 33.3214C26.2901 33.073 27.0496 32.5852 27.6267 31.9171C28.1867 31.2547 28.4533 30.3538 28.4533 29.188C28.4784 28.3601 28.2657 27.5421 27.84 26.8299C27.3954 26.142 26.7414 25.6129 25.9733 25.3197C24.9722 24.9301 23.9011 24.7497 22.8267 24.7897C22.1333 24.7897 21.52 24.7897 21.0133 24.8162C20.6099 24.8211 20.208 24.8654 19.8133 24.9487Z" fill="#88C0D0"/>
<path d="M39.8667 31.3607H37.2267C37.0133 31.3342 36.9333 31.2282 36.9333 31.0692V26.6974C36.9253 26.6311 36.9429 26.5642 36.9824 26.5101C37.022 26.4561 37.0807 26.4189 37.1467 26.406H39.8667V25.7966C39.8581 24.9001 39.9295 24.0045 40.08 23.1205C40.2178 22.3786 40.4508 21.6573 40.7733 20.9744C41.3322 19.8283 42.1767 18.8433 43.2267 18.1128C44.2933 17.3709 45.68 17 47.44 17C47.8667 17 48.2667 17.0265 48.6933 17.053C49.033 17.0789 49.3663 17.1594 49.68 17.2915C49.7684 17.3211 49.8448 17.3785 49.8977 17.4549C49.9505 17.5313 49.9771 17.6227 49.9733 17.7154V21.9282C49.9733 22.1402 49.8667 22.1932 49.6267 22.1402C49.4146 22.1094 49.2009 22.0917 48.9867 22.0872H48.3467C47.8765 22.0762 47.4105 22.1761 46.9867 22.3786C46.5823 22.5925 46.2767 22.9532 46.1333 23.3855C45.8724 23.9893 45.7276 24.6364 45.7067 25.2932V26.3795H49.3333C49.4462 26.3661 49.5601 26.3944 49.6533 26.459C49.6819 26.4962 49.7016 26.5394 49.7109 26.5853C49.7201 26.6312 49.7187 26.6786 49.7067 26.7239V31.0692C49.7067 31.2812 49.5733 31.3607 49.3333 31.3607H45.7067V47.1256C45.7018 47.2161 45.6838 47.3053 45.6533 47.3906C45.6154 47.4375 45.5662 47.4741 45.5103 47.4973C45.4544 47.5204 45.3936 47.5293 45.3333 47.5231H40.24C40 47.5231 39.8933 47.3906 39.8933 47.1521V31.3607H39.8667Z" fill="#88C0D0"/>
</g>
<defs>
<clipPath id="clip0_23_214">
<rect width="64" height="64" fill="white"/>
</clipPath>
</defs>
</svg>
