<svg width="64" height="64" viewBox="0 0 64 64" fill="none" xmlns="http://www.w3.org/2000/svg">
<g clip-path="url(#clip0_23_41)">
<path d="M11.3333 5.07914e-06H52.6667C54.1554 -0.00141188 55.6297 0.293657 57.0054 0.868326C58.3811 1.44299 59.631 2.28598 60.6837 3.34904C61.7363 4.4121 62.5711 5.67436 63.1402 7.06358C63.7092 8.4528 64.0014 9.94171 64 11.4451V51.5703C64.0014 53.0737 63.7092 54.5626 63.1402 55.9518C62.5711 57.341 61.7363 58.6033 60.6837 59.6663C59.631 60.7294 58.3811 61.5724 57.0054 62.1471C55.6297 62.7217 54.1554 63.0168 52.6667 63.0154H11.3333C9.84463 63.0168 8.37026 62.7217 6.9946 62.1471C5.61894 61.5724 4.36901 60.7294 3.31633 59.6663C2.26366 58.6033 1.4289 57.341 0.859846 55.9518C0.29079 54.5626 -0.00139809 53.0737 5.02953e-06 51.5703V11.4451C-0.00139809 9.94171 0.29079 8.4528 0.859846 7.06358C1.4289 5.67436 2.26366 4.4121 3.31633 3.34904C4.36901 2.28598 5.61894 1.44299 6.9946 0.868326C8.37026 0.293657 9.84463 -0.00141188 11.3333 5.07914e-06Z" fill="#88C0D0"/>
<path d="M11.3333 5.07914e-06H52.6667C54.1554 -0.00141188 55.6297 0.293657 57.0054 0.868326C58.3811 1.44299 59.631 2.28598 60.6837 3.34904C61.7363 4.4121 62.5711 5.67436 63.1402 7.06358C63.7092 8.4528 64.0014 9.94171 64 11.4451V51.5703C64.0014 53.0737 63.7092 54.5626 63.1402 55.9518C62.5711 57.341 61.7363 58.6033 60.6837 59.6663C59.631 60.7294 58.3811 61.5724 57.0054 62.1471C55.6297 62.7217 54.1554 63.0168 52.6667 63.0154H11.3333C9.84463 63.0168 8.37026 62.7217 6.9946 62.1471C5.61894 61.5724 4.36901 60.7294 3.31633 59.6663C2.26366 58.6033 1.4289 57.341 0.859846 55.9518C0.29079 54.5626 -0.00139809 53.0737 5.02953e-06 51.5703V11.4451C-0.00139809 9.94171 0.29079 8.4528 0.859846 7.06358C1.4289 5.67436 2.26366 4.4121 3.31633 3.34904C4.36901 2.28598 5.61894 1.44299 6.9946 0.868326C8.37026 0.293657 9.84463 -0.00141188 11.3333 5.07914e-06Z" fill="black" fill-opacity="0.7"/>
<path d="M26.7736 39.1957H16.8643L14.8429 45.4458C14.8215 45.5583 14.7584 45.6588 14.6661 45.7275C14.5738 45.7961 14.459 45.8279 14.3443 45.8167H9.3256C9.02693 45.8167 8.95226 45.6683 9.02693 45.3451L17.6136 20.8429C17.6868 20.5487 17.7758 20.2586 17.8803 19.9738C18.0177 19.4213 18.0929 18.8552 18.1043 18.2861C18.0982 18.2179 18.119 18.15 18.1622 18.0966C18.2055 18.0433 18.2679 18.0086 18.3363 18H25.2509C25.4269 18 25.5763 18.0742 25.6003 18.2226L35.2856 45.4034C35.3603 45.7001 35.2856 45.8246 35.0189 45.8246H29.4429C29.3483 45.8333 29.2537 45.8082 29.176 45.7538C29.0983 45.6994 29.0426 45.6193 29.0189 45.5279L26.7736 39.1957ZM18.4109 33.9206H25.1763C25.0269 33.3748 24.8029 32.7045 24.5523 32.0103C24.3016 31.3162 24.0776 30.5213 23.8296 29.7292C23.5816 28.937 23.3309 28.1183 23.0563 27.2996C22.7816 26.4809 22.5576 25.7099 22.3336 24.9442C22.1096 24.1785 21.9336 23.5056 21.7336 22.8856H21.6829C21.442 24.041 21.1421 25.1836 20.7843 26.3087C20.3843 27.5725 19.9843 28.9131 19.5603 30.2273C19.2434 31.4786 18.8597 32.7124 18.4109 33.9233V33.9206Z" fill="#88C0D0"/>
<path d="M55.7282 24.9443V41.1881C55.7282 41.9061 55.7282 42.5261 55.7522 43.0984C55.7762 43.6706 55.8029 44.1396 55.8269 44.5609C55.8509 44.9821 55.9016 45.2312 55.9256 45.5041C55.9496 45.777 55.8509 45.8511 55.6269 45.8511H51.0616C50.957 45.8645 50.8509 45.8425 50.7604 45.7887C50.67 45.7349 50.6004 45.6523 50.5629 45.5544L50.4136 44.8841C50.372 44.7053 50.3549 44.5217 50.3629 44.3383C49.4951 45.1065 48.4614 45.6666 47.3416 45.9757C46.3748 46.2448 45.3749 46.3786 44.3709 46.3731C43.3872 46.3889 42.4079 46.2384 41.4749 45.928C40.61 45.6295 39.8305 45.1278 39.2029 44.4655C38.5116 43.7312 37.999 42.8494 37.7042 41.8876C37.3264 40.6669 37.1464 39.3942 37.1709 38.1174V24.9681C37.1649 24.9278 37.1671 24.8868 37.1773 24.8474C37.1876 24.808 37.2056 24.771 37.2305 24.7386C37.2554 24.7063 37.2865 24.6792 37.3221 24.659C37.3576 24.6388 37.3969 24.6259 37.4376 24.621H42.6242C42.6648 24.6155 42.706 24.618 42.7455 24.6285C42.785 24.639 42.822 24.6573 42.8543 24.6822C42.8866 24.7072 42.9136 24.7383 42.9336 24.7737C42.9536 24.8092 42.9663 24.8482 42.9709 24.8886V37.4126C42.9709 38.5784 43.2376 39.4951 43.7442 40.1654C44.2509 40.8357 45.2909 41.1828 46.4909 41.1828C47.1097 41.1869 47.7242 41.0792 48.3042 40.8649C48.9026 40.6608 49.4663 40.3678 49.9762 39.9958V24.9443C49.9762 24.7694 50.1016 24.6475 50.3496 24.6475H55.4429C55.5121 24.6384 55.5821 24.6566 55.638 24.6982C55.6938 24.7398 55.731 24.8015 55.7416 24.8701C55.7341 24.8808 55.729 24.8929 55.7267 24.9057C55.7244 24.9185 55.7249 24.9317 55.7282 24.9443Z" fill="#88C0D0"/>
</g>
<defs>
<clipPath id="clip0_23_41">
<rect width="64" height="64" fill="white"/>
</clipPath>
</defs>
</svg>
