<svg width="64" height="64" viewBox="0 0 64 64" fill="none" xmlns="http://www.w3.org/2000/svg">
<g clip-path="url(#clip0_23_123)">
<path d="M11.3333 5.07914e-06H52.6667C54.1554 -0.00141188 55.6297 0.293657 57.0054 0.868326C58.3811 1.44299 59.631 2.28598 60.6837 3.34904C61.7363 4.4121 62.5711 5.67436 63.1402 7.06358C63.7092 8.4528 64.0014 9.94171 64 11.4451V51.5703C64.0014 53.0737 63.7092 54.5626 63.1402 55.9518C62.5711 57.341 61.7363 58.6033 60.6837 59.6663C59.631 60.7294 58.3811 61.5724 57.0054 62.1471C55.6297 62.7217 54.1554 63.0168 52.6667 63.0154H11.3333C9.84463 63.0168 8.37026 62.7217 6.9946 62.1471C5.61894 61.5724 4.36901 60.7294 3.31633 59.6663C2.26366 58.6033 1.4289 57.341 0.859846 55.9518C0.29079 54.5626 -0.00139809 53.0737 5.02953e-06 51.5703V11.4451C-0.00139809 9.94171 0.29079 8.4528 0.859846 7.06358C1.4289 5.67436 2.26366 4.4121 3.31633 3.34904C4.36901 2.28598 5.61894 1.44299 6.9946 0.868326C8.37026 0.293657 9.84463 -0.00141188 11.3333 5.07914e-06Z" fill="#88C0D0"/>
<path d="M11.3333 5.07914e-06H52.6667C54.1554 -0.00141188 55.6297 0.293657 57.0054 0.868326C58.3811 1.44299 59.631 2.28598 60.6837 3.34904C61.7363 4.4121 62.5711 5.67436 63.1402 7.06358C63.7092 8.4528 64.0014 9.94171 64 11.4451V51.5703C64.0014 53.0737 63.7092 54.5626 63.1402 55.9518C62.5711 57.341 61.7363 58.6033 60.6837 59.6663C59.631 60.7294 58.3811 61.5724 57.0054 62.1471C55.6297 62.7217 54.1554 63.0168 52.6667 63.0154H11.3333C9.84463 63.0168 8.37026 62.7217 6.9946 62.1471C5.61894 61.5724 4.36901 60.7294 3.31633 59.6663C2.26366 58.6033 1.4289 57.341 0.859846 55.9518C0.29079 54.5626 -0.00139809 53.0737 5.02953e-06 51.5703V11.4451C-0.00139809 9.94171 0.29079 8.4528 0.859846 7.06358C1.4289 5.67436 2.26366 4.4121 3.31633 3.34904C4.36901 2.28598 5.61894 1.44299 6.9946 0.868326C8.37026 0.293657 9.84463 -0.00141188 11.3333 5.07914e-06Z" fill="black" fill-opacity="0.7"/>
<path d="M24.92 18.3481V45.5327C24.92 45.8242 24.7867 45.9566 24.5467 45.9566H19.3467C19.1067 45.9566 19 45.8242 19 45.5327V18.3481C19 18.1096 19.1333 18.0037 19.3733 18.0037H24.5733C24.6138 17.9973 24.6551 17.9992 24.6947 18.0093C24.7344 18.0193 24.7716 18.0373 24.804 18.0621C24.8364 18.0869 24.8634 18.118 24.8834 18.1535C24.9033 18.189 24.9158 18.2282 24.92 18.2686V18.3481Z" fill="#88C0D0"/>
<path d="M45.4 40.949V45.3472C45.404 45.4229 45.386 45.4981 45.3482 45.5639C45.3104 45.6296 45.2543 45.6832 45.1867 45.7182C44.4589 45.9917 43.6957 46.1612 42.92 46.2216C42.0667 46.3011 41.24 46.3541 40.44 46.3541C38.8105 46.3876 37.1899 46.1087 35.6667 45.5327C34.3257 45.0225 33.108 44.2371 32.0933 43.2276C31.1181 42.2177 30.3484 41.0302 29.8266 39.7302C29.2948 38.3517 29.0236 36.8876 29.0266 35.4113C28.9956 33.3963 29.5115 31.4102 30.52 29.6618C31.5384 27.9813 33.0062 26.6146 34.76 25.7139C36.7316 24.715 38.9206 24.2145 41.1333 24.2566C41.9809 24.2295 42.8292 24.2827 43.6667 24.4156C44.1608 24.4962 44.6503 24.6024 45.1333 24.7336C45.2107 24.7848 45.2719 24.8568 45.3096 24.9413C45.3474 25.0257 45.3602 25.1191 45.3467 25.2105L45.2933 29.6088C45.2933 29.8737 45.1867 29.9532 44.9467 29.9002C44.469 29.7363 43.9784 29.6122 43.48 29.5293C42.7737 29.4247 42.0607 29.3715 41.3467 29.3703C40.2552 29.3531 39.1728 29.57 38.1733 30.0062C37.2577 30.4151 36.48 31.0774 35.9333 31.9139C35.3573 32.8927 35.0707 34.0131 35.1066 35.1464C35.1066 36.6302 35.4267 37.796 36.0667 38.6438C36.6854 39.4739 37.5398 40.1013 38.52 40.4455C39.4772 40.7923 40.4878 40.9716 41.5066 40.9755C42.1926 40.9805 42.8782 40.9451 43.56 40.8695C44.0555 40.8221 44.5461 40.7335 45.0266 40.6045C45.2933 40.6575 45.4 40.737 45.4 40.949Z" fill="#88C0D0"/>
</g>
<defs>
<clipPath id="clip0_23_123">
<rect width="64" height="64" fill="white"/>
</clipPath>
</defs>
</svg>
