<svg width="64" height="64" viewBox="0 0 64 64" fill="none" xmlns="http://www.w3.org/2000/svg">
<g clip-path="url(#clip0_23_153)">
<path d="M11.3333 5.07914e-06H52.6667C54.1554 -0.00141188 55.6297 0.293657 57.0054 0.868326C58.3811 1.44299 59.631 2.28598 60.6837 3.34904C61.7363 4.4121 62.5711 5.67436 63.1402 7.06358C63.7092 8.4528 64.0014 9.94171 64 11.4451V51.5703C64.0014 53.0737 63.7092 54.5626 63.1402 55.9518C62.5711 57.341 61.7363 58.6033 60.6837 59.6663C59.631 60.7294 58.3811 61.5724 57.0054 62.1471C55.6297 62.7217 54.1554 63.0168 52.6667 63.0154H11.3333C9.84463 63.0168 8.37026 62.7217 6.9946 62.1471C5.61894 61.5724 4.36901 60.7294 3.31633 59.6663C2.26366 58.6033 1.4289 57.341 0.859846 55.9518C0.29079 54.5626 -0.00139809 53.0737 5.02953e-06 51.5703V11.4451C-0.00139809 9.94171 0.29079 8.4528 0.859846 7.06358C1.4289 5.67436 2.26366 4.4121 3.31633 3.34904C4.36901 2.28598 5.61894 1.44299 6.9946 0.868326C8.37026 0.293657 9.84463 -0.00141188 11.3333 5.07914e-06Z" fill="#88C0D0"/>
<path d="M11.3333 5.07914e-06H52.6667C54.1554 -0.00141188 55.6297 0.293657 57.0054 0.868326C58.3811 1.44299 59.631 2.28598 60.6837 3.34904C61.7363 4.4121 62.5711 5.67436 63.1402 7.06358C63.7092 8.4528 64.0014 9.94171 64 11.4451V51.5703C64.0014 53.0737 63.7092 54.5626 63.1402 55.9518C62.5711 57.341 61.7363 58.6033 60.6837 59.6663C59.631 60.7294 58.3811 61.5724 57.0054 62.1471C55.6297 62.7217 54.1554 63.0168 52.6667 63.0154H11.3333C9.84463 63.0168 8.37026 62.7217 6.9946 62.1471C5.61894 61.5724 4.36901 60.7294 3.31633 59.6663C2.26366 58.6033 1.4289 57.341 0.859846 55.9518C0.29079 54.5626 -0.00139809 53.0737 5.02953e-06 51.5703V11.4451C-0.00139809 9.94171 0.29079 8.4528 0.859846 7.06358C1.4289 5.67436 2.26366 4.4121 3.31633 3.34904C4.36901 2.28598 5.61894 1.44299 6.9946 0.868326C8.37026 0.293657 9.84463 -0.00141188 11.3333 5.07914e-06Z" fill="black" fill-opacity="0.7"/>
<path d="M22.6 45.9265H7.37333C7.10667 45.9265 7 45.7675 7 45.4496V18.3709C7 18.106 7.10667 18 7.34667 18H12.0667C12.2533 18 12.3333 18.106 12.3333 18.2915V40.5479H23.4267C23.6667 40.5479 23.7467 40.6803 23.6933 40.9188L23 45.5291C22.9963 45.59 22.9802 45.6496 22.9527 45.7043C22.9252 45.7589 22.8869 45.8075 22.84 45.847C22.7699 45.8969 22.6862 45.9246 22.6 45.9265Z" fill="#88C0D0"/>
<path d="M26.4133 24.7299H30.6267C30.8667 24.7299 31.0267 24.8624 31.1333 25.1538C31.2234 25.3475 31.2862 25.5526 31.32 25.7632C31.3733 26.0282 31.4 26.3196 31.4267 26.5846C31.4533 26.8496 31.4533 27.194 31.4533 27.5385C32.1542 26.6251 33.0228 25.8519 34.0133 25.2598C35.0912 24.616 36.3292 24.2856 37.5867 24.306C37.8267 24.306 37.9333 24.4385 37.9333 24.6769V29.8436C37.9333 30.0555 37.8 30.135 37.56 30.135C35.9945 30.0187 34.4267 30.3302 33.0267 31.0359C32.5366 31.284 32.0943 31.6159 31.72 32.0162V45.529C31.72 45.794 31.6133 45.9 31.4 45.9H26.76C26.4933 45.9 26.3867 45.7675 26.3867 45.4761V30.7974C26.3867 30.1615 26.3867 29.4991 26.36 28.8102C26.3333 28.1214 26.3333 27.4325 26.3067 26.7436C26.28 26.1607 26.2267 25.5778 26.1467 24.9949C26.1386 24.9118 26.1573 24.8283 26.2 24.7564C26.2654 24.7218 26.3414 24.7124 26.4133 24.7299Z" fill="#88C0D0"/>
<path d="M56.84 20.8085C56.2679 20.5781 55.6668 20.4266 55.0533 20.3581C54.1506 20.2524 53.2424 20.1993 52.3333 20.1991C49.72 20.1991 47.4267 20.7556 45.5333 21.8419C43.6432 22.9368 42.1074 24.5455 41.1067 26.4786C40.0667 28.4393 39.56 30.7709 39.56 33.3675C39.543 34.9411 39.7403 36.5098 40.1467 38.0308C40.5117 39.3254 41.0883 40.5517 41.8533 41.6607C42.5637 42.6799 43.4482 43.5676 44.4667 44.2838C45.4894 45.013 46.6369 45.5516 47.8533 45.8735C49.1215 46.222 50.4309 46.4002 51.7467 46.4034C52.6656 46.4085 53.5836 46.3465 54.4933 46.2179C55.2335 46.1357 55.9597 45.9576 56.6533 45.688C56.7859 45.6241 56.8954 45.5211 56.967 45.3931C57.0385 45.2651 57.0687 45.1183 57.0533 44.9726V41.0248C57.0643 40.9528 57.0579 40.8792 57.0347 40.8101C57.0116 40.7411 56.9722 40.6784 56.92 40.6273C56.8581 40.5787 56.7803 40.5545 56.7016 40.5594C56.6228 40.5643 56.5487 40.5979 56.4933 40.6538C55.8898 40.8722 55.2638 41.0232 54.6267 41.1043C53.8557 41.1792 53.0813 41.2146 52.3067 41.2103C51.6033 41.2063 50.9037 41.1083 50.2267 40.9188C49.515 40.7305 48.8329 40.4452 48.2 40.0709C47.5434 39.6739 46.9725 39.1516 46.52 38.5342C46.0092 37.8416 45.6131 37.0723 45.3467 36.2556C45.0446 35.2502 44.9007 34.2045 44.92 33.1556C44.8895 31.6947 45.1903 30.2458 45.8 28.9162C46.3511 27.7701 47.221 26.8048 48.3067 26.1342C49.4858 25.4474 50.8335 25.0989 52.2 25.1273C53.0404 25.1189 53.8798 25.1899 54.7067 25.3393C55.3771 25.4466 56.0256 25.6613 56.6267 25.9752C56.6806 26.0014 56.7399 26.0151 56.8 26.0151C56.8601 26.0151 56.9194 26.0014 56.9733 25.9752C57.0307 25.927 57.0753 25.8656 57.1032 25.7963C57.1311 25.727 57.1415 25.652 57.1333 25.5778V21.4444C57.1507 21.3217 57.1322 21.1966 57.0802 21.0839C57.0283 20.9712 56.9449 20.8756 56.84 20.8085Z" fill="#88C0D0"/>
</g>
<defs>
<clipPath id="clip0_23_153">
<rect width="64" height="64" fill="white"/>
</clipPath>
</defs>
</svg>
