<svg width="64" height="64" viewBox="0 0 64 64" fill="none" xmlns="http://www.w3.org/2000/svg">
<g clip-path="url(#clip0_23_48)">
<path d="M11.3333 5.07914e-06H52.6667C54.1554 -0.00141188 55.6297 0.293657 57.0054 0.868326C58.3811 1.44299 59.631 2.28598 60.6837 3.34904C61.7363 4.4121 62.5711 5.67436 63.1402 7.06358C63.7092 8.4528 64.0014 9.94171 64 11.4451V51.5703C64.0014 53.0737 63.7092 54.5626 63.1402 55.9518C62.5711 57.341 61.7363 58.6033 60.6837 59.6663C59.631 60.7294 58.3811 61.5724 57.0054 62.1471C55.6297 62.7217 54.1554 63.0168 52.6667 63.0154H11.3333C9.84463 63.0168 8.37026 62.7217 6.9946 62.1471C5.61894 61.5724 4.36901 60.7294 3.31633 59.6663C2.26366 58.6033 1.4289 57.341 0.859846 55.9518C0.29079 54.5626 -0.00139809 53.0737 5.02953e-06 51.5703V11.4451C-0.00139809 9.94171 0.29079 8.4528 0.859846 7.06358C1.4289 5.67436 2.26366 4.4121 3.31633 3.34904C4.36901 2.28598 5.61894 1.44299 6.9946 0.868326C8.37026 0.293657 9.84463 -0.00141188 11.3333 5.07914e-06Z" fill="#88C0D0"/>
<path d="M11.3333 5.07914e-06H52.6667C54.1554 -0.00141188 55.6297 0.293657 57.0054 0.868326C58.3811 1.44299 59.631 2.28598 60.6837 3.34904C61.7363 4.4121 62.5711 5.67436 63.1402 7.06358C63.7092 8.4528 64.0014 9.94171 64 11.4451V51.5703C64.0014 53.0737 63.7092 54.5626 63.1402 55.9518C62.5711 57.341 61.7363 58.6033 60.6837 59.6663C59.631 60.7294 58.3811 61.5724 57.0054 62.1471C55.6297 62.7217 54.1554 63.0168 52.6667 63.0154H11.3333C9.84463 63.0168 8.37026 62.7217 6.9946 62.1471C5.61894 61.5724 4.36901 60.7294 3.31633 59.6663C2.26366 58.6033 1.4289 57.341 0.859846 55.9518C0.29079 54.5626 -0.00139809 53.0737 5.02953e-06 51.5703V11.4451C-0.00139809 9.94171 0.29079 8.4528 0.859846 7.06358C1.4289 5.67436 2.26366 4.4121 3.31633 3.34904C4.36901 2.28598 5.61894 1.44299 6.9946 0.868326C8.37026 0.293657 9.84463 -0.00141188 11.3333 5.07914e-06Z" fill="black" fill-opacity="0.7"/>
<path d="M31.042 41.91V46.3083C31.058 46.4334 31.0328 46.5603 30.9704 46.6702C30.9079 46.78 30.8114 46.8668 30.6953 46.9177C29.8754 47.2053 29.0257 47.4008 28.162 47.5006C27.0467 47.6284 25.9247 47.6904 24.802 47.6861C23.2013 47.6915 21.6064 47.4957 20.0553 47.1032C18.6048 46.7315 17.2199 46.1418 15.9486 45.3545C14.7272 44.586 13.6527 43.6081 12.7753 42.4664C11.8577 41.274 11.1622 39.928 10.722 38.4921C10.2182 36.8346 9.97534 35.1096 10.002 33.3784C10.002 30.5169 10.642 27.9733 11.8953 25.8006C13.1493 23.6256 15.0112 21.8585 17.2553 20.7134C19.8203 19.411 22.6685 18.7558 25.5486 18.8058C26.6686 18.8058 27.762 18.8587 28.882 18.9647C29.6531 19.0536 30.4128 19.2223 31.1486 19.4681C31.225 19.5266 31.2847 19.6037 31.3221 19.6919C31.3595 19.7801 31.3732 19.8765 31.362 19.9716V24.7673C31.362 25.0322 31.2553 25.1117 31.0686 25.0322C30.2562 24.6572 29.3942 24.3985 28.5086 24.2639C27.4674 24.1045 26.4155 24.0248 25.362 24.0254C23.641 23.9885 21.9403 24.3995 20.4286 25.2177C19.085 25.9521 17.9831 27.056 17.2553 28.3972C16.4877 29.8788 16.1028 31.5268 16.1353 33.1929C16.1123 34.3803 16.2927 35.563 16.6686 36.6904C16.9905 37.6447 17.4978 38.527 18.162 39.2869C18.7583 39.9957 19.4816 40.5886 20.2953 41.0357C21.1034 41.4626 21.9639 41.7832 22.8553 41.9895C23.716 42.2271 24.6024 42.3605 25.4953 42.3869C26.4659 42.3957 27.4363 42.3515 28.402 42.2545C29.1962 42.1544 29.9753 41.9587 30.722 41.6716C30.8286 41.5921 30.9086 41.5656 30.9886 41.6186C31.0174 41.6608 31.0369 41.7086 31.0461 41.7587C31.0553 41.8089 31.0539 41.8604 31.042 41.91Z" fill="#88C0D0"/>
<path d="M40.9087 31.8416V46.7852C40.9087 47.0237 40.802 47.1297 40.6153 47.1297H35.2553C35.2114 47.1356 35.1668 47.1327 35.1241 47.1211C35.0814 47.1096 35.0414 47.0896 35.0066 47.0624C34.9718 47.0353 34.9428 47.0014 34.9214 46.9629C34.9 46.9244 34.8866 46.882 34.882 46.8382V17.2955C34.882 17.11 34.9887 17.004 35.2287 17.004H40.642C40.6753 16.998 40.7096 16.9987 40.7426 17.0062C40.7757 17.0137 40.8069 17.0278 40.8343 17.0476C40.8617 17.0675 40.8848 17.0926 40.9022 17.1215C40.9195 17.1505 40.9308 17.1826 40.9353 17.216V17.2955L40.962 27.3639C41.7375 26.8549 42.5697 26.4371 43.442 26.1186C44.3487 25.8006 45.3887 25.7211 46.5887 25.7211C47.4379 25.7236 48.2822 25.8486 49.0953 26.0921C49.9583 26.3353 50.7586 26.76 51.442 27.3374C52.162 27.9733 52.6687 28.8476 53.0953 29.9339C53.522 31.0203 53.7353 32.451 53.7353 34.1733V46.7322C53.7353 46.9972 53.6287 47.1032 53.3887 47.1032H48.3487C48.2995 47.1114 48.2491 47.1096 48.2006 47.0979C48.1522 47.0862 48.1066 47.0649 48.0667 47.0351C48.0268 47.0054 47.9934 46.9679 47.9685 46.9249C47.9436 46.882 47.9278 46.8344 47.922 46.7852V34.7562C47.9499 33.9858 47.8136 33.2183 47.522 32.504C47.2811 31.9597 46.8935 31.492 46.402 31.1527C45.8036 30.8097 45.1188 30.6442 44.4287 30.6758C43.7878 30.6709 43.1498 30.7602 42.5353 30.9408C41.9546 31.1666 41.4074 31.4696 40.9087 31.8416Z" fill="#88C0D0"/>
</g>
<defs>
<clipPath id="clip0_23_48">
<rect width="64" height="64" fill="white"/>
</clipPath>
</defs>
</svg>
