<svg width="64" height="64" viewBox="0 0 64 64" fill="none" xmlns="http://www.w3.org/2000/svg">
<g clip-path="url(#clip0_23_34)">
<path d="M11.3333 5.07914e-06H52.6667C54.1554 -0.00141188 55.6297 0.293657 57.0054 0.868326C58.3811 1.44299 59.631 2.28598 60.6837 3.34904C61.7363 4.4121 62.5711 5.67436 63.1402 7.06358C63.7092 8.4528 64.0014 9.94171 64 11.4451V51.5703C64.0014 53.0737 63.7092 54.5626 63.1402 55.9518C62.5711 57.341 61.7363 58.6033 60.6837 59.6663C59.631 60.7294 58.3811 61.5724 57.0054 62.1471C55.6297 62.7217 54.1554 63.0168 52.6667 63.0154H11.3333C9.84463 63.0168 8.37026 62.7217 6.9946 62.1471C5.61894 61.5724 4.36901 60.7294 3.31633 59.6663C2.26366 58.6033 1.4289 57.341 0.859846 55.9518C0.29079 54.5626 -0.00139809 53.0737 5.02953e-06 51.5703V11.4451C-0.00139809 9.94171 0.29079 8.4528 0.859846 7.06358C1.4289 5.67436 2.26366 4.4121 3.31633 3.34904C4.36901 2.28598 5.61894 1.44299 6.9946 0.868326C8.37026 0.293657 9.84463 -0.00141188 11.3333 5.07914e-06Z" fill="#88C0D0"/>
<path d="M11.3333 5.07914e-06H52.6667C54.1554 -0.00141188 55.6297 0.293657 57.0054 0.868326C58.3811 1.44299 59.631 2.28598 60.6837 3.34904C61.7363 4.4121 62.5711 5.67436 63.1402 7.06358C63.7092 8.4528 64.0014 9.94171 64 11.4451V51.5703C64.0014 53.0737 63.7092 54.5626 63.1402 55.9518C62.5711 57.341 61.7363 58.6033 60.6837 59.6663C59.631 60.7294 58.3811 61.5724 57.0054 62.1471C55.6297 62.7217 54.1554 63.0168 52.6667 63.0154H11.3333C9.84463 63.0168 8.37026 62.7217 6.9946 62.1471C5.61894 61.5724 4.36901 60.7294 3.31633 59.6663C2.26366 58.6033 1.4289 57.341 0.859846 55.9518C0.29079 54.5626 -0.00139809 53.0737 5.02953e-06 51.5703V11.4451C-0.00139809 9.94171 0.29079 8.4528 0.859846 7.06358C1.4289 5.67436 2.26366 4.4121 3.31633 3.34904C4.36901 2.28598 5.61894 1.44299 6.9946 0.868326C8.37026 0.293657 9.84463 -0.00141188 11.3333 5.07914e-06Z" fill="black" fill-opacity="0.7"/>
<path d="M25.8159 39.1701H15.9225L13.8959 45.3966C13.8732 45.5101 13.8087 45.611 13.715 45.6797C13.6212 45.7483 13.505 45.7796 13.3892 45.7675H8.32255C8.02921 45.7675 7.94921 45.6085 8.02921 45.2906L16.6425 20.835C16.7225 20.5701 16.8025 20.3581 16.9092 20.0137C17.0165 19.4458 17.0701 18.8692 17.0692 18.2915C17.0612 18.2251 17.0788 18.1582 17.1183 18.1041C17.1579 18.0501 17.2165 18.0129 17.2825 18H24.2159C24.4292 18 24.5359 18.0795 24.5625 18.212L34.2692 45.3171C34.3492 45.6085 34.2692 45.741 34.0025 45.741H28.4292C28.335 45.75 28.2405 45.7258 28.1625 45.6725C28.0845 45.6192 28.0278 45.5402 28.0025 45.4496L25.8159 39.1701ZM17.4692 33.8974H24.2425C24.0825 33.341 23.8692 32.6786 23.6292 31.9897C23.3892 31.3009 23.1492 30.506 22.9092 29.7111C22.6692 28.9162 22.4025 28.0949 22.1359 27.2735C21.8692 26.4521 21.6292 25.6838 21.4159 24.9154C21.2025 24.147 21.0159 23.4846 20.8292 22.8487H20.7759C20.5362 24.0035 20.2336 25.1445 19.8692 26.2667C19.4692 27.5385 19.0692 28.8632 18.6425 30.188C18.2692 31.5393 17.8692 32.7846 17.4692 33.8974Z" fill="#88C0D0"/>
<path d="M37.2825 45.3701V29.6316C37.2825 29.1547 37.2825 28.5983 37.2559 28.0154C37.2292 27.4325 37.2292 26.8496 37.2025 26.3197C37.1759 25.7898 37.1492 25.2863 37.1225 24.9684C37.1067 24.9235 37.1033 24.8753 37.1127 24.8286C37.122 24.782 37.1439 24.7388 37.1759 24.7034C37.2541 24.6496 37.3474 24.6218 37.4425 24.6239H41.7359C41.882 24.6222 42.027 24.6492 42.1625 24.7034C42.2181 24.7327 42.2661 24.7742 42.3031 24.8247C42.3401 24.8752 42.365 24.9334 42.3759 24.9949C42.4292 25.1539 42.5092 25.3658 42.5625 25.5778C42.6416 25.864 42.6951 26.1566 42.7225 26.4521C43.5538 25.7348 44.5124 25.1777 45.5492 24.8094C46.5892 24.462 47.6787 24.2831 48.7759 24.2795C49.6275 24.2778 50.4738 24.412 51.2825 24.6769C52.2154 24.9782 53.0662 25.4885 53.769 26.1685C54.4718 26.8484 55.0079 27.6797 55.3359 28.5983C55.7625 29.6846 55.9225 31.1154 55.9225 32.8376V45.3701C55.9225 45.635 55.8159 45.741 55.5759 45.741L50.5625 45.794C50.5134 45.8023 50.463 45.8005 50.4145 45.7888C50.366 45.7771 50.3205 45.7557 50.2806 45.726C50.2407 45.6962 50.2073 45.6588 50.1824 45.6158C50.1575 45.5728 50.1417 45.5253 50.1359 45.4761V33.5C50.1169 32.7065 49.9449 31.924 49.6292 31.1949C49.3958 30.6298 48.9897 30.1519 48.4681 29.8286C47.9465 29.5053 47.3359 29.353 46.7225 29.3932C46.029 29.3827 45.3402 29.5088 44.6959 29.7641C44.1089 30.007 43.5678 30.3475 43.0959 30.7709V45.3966C43.0959 45.6615 42.9892 45.7675 42.7492 45.7675H37.6825C37.6387 45.7734 37.594 45.7705 37.5513 45.759C37.5086 45.7474 37.4686 45.7275 37.4338 45.7003C37.399 45.6731 37.37 45.6393 37.3486 45.6008C37.3272 45.5622 37.3138 45.5198 37.3092 45.4761C37.2559 45.4231 37.2559 45.3966 37.2825 45.3701Z" fill="#88C0D0"/>
</g>
<defs>
<clipPath id="clip0_23_34">
<rect width="64" height="64" fill="white"/>
</clipPath>
</defs>
</svg>
