<svg width="64" height="64" viewBox="0 0 64 64" fill="none" xmlns="http://www.w3.org/2000/svg">
<g clip-path="url(#clip0_23_222)">
<path d="M11.3333 5.07914e-06H52.6667C54.1554 -0.00141188 55.6297 0.293657 57.0054 0.868326C58.3811 1.44299 59.631 2.28598 60.6837 3.34904C61.7363 4.4121 62.5711 5.67436 63.1402 7.06358C63.7092 8.4528 64.0014 9.94171 64 11.4451V51.5703C64.0014 53.0737 63.7092 54.5626 63.1402 55.9518C62.5711 57.341 61.7363 58.6033 60.6837 59.6663C59.631 60.7294 58.3811 61.5724 57.0054 62.1471C55.6297 62.7217 54.1554 63.0168 52.6667 63.0154H11.3333C9.84463 63.0168 8.37026 62.7217 6.9946 62.1471C5.61894 61.5724 4.36901 60.7294 3.31633 59.6663C2.26366 58.6033 1.4289 57.341 0.859846 55.9518C0.29079 54.5626 -0.00139809 53.0737 5.02953e-06 51.5703V11.4451C-0.00139809 9.94171 0.29079 8.4528 0.859846 7.06358C1.4289 5.67436 2.26366 4.4121 3.31633 3.34904C4.36901 2.28598 5.61894 1.44299 6.9946 0.868326C8.37026 0.293657 9.84463 -0.00141188 11.3333 5.07914e-06Z" fill="#88C0D0"/>
<path d="M11.3333 5.07914e-06H52.6667C54.1554 -0.00141188 55.6297 0.293657 57.0054 0.868326C58.3811 1.44299 59.631 2.28598 60.6837 3.34904C61.7363 4.4121 62.5711 5.67436 63.1402 7.06358C63.7092 8.4528 64.0014 9.94171 64 11.4451V51.5703C64.0014 53.0737 63.7092 54.5626 63.1402 55.9518C62.5711 57.341 61.7363 58.6033 60.6837 59.6663C59.631 60.7294 58.3811 61.5724 57.0054 62.1471C55.6297 62.7217 54.1554 63.0168 52.6667 63.0154H11.3333C9.84463 63.0168 8.37026 62.7217 6.9946 62.1471C5.61894 61.5724 4.36901 60.7294 3.31633 59.6663C2.26366 58.6033 1.4289 57.341 0.859846 55.9518C0.29079 54.5626 -0.00139809 53.0737 5.02953e-06 51.5703V11.4451C-0.00139809 9.94171 0.29079 8.4528 0.859846 7.06358C1.4289 5.67436 2.26366 4.4121 3.31633 3.34904C4.36901 2.28598 5.61894 1.44299 6.9946 0.868326C8.37026 0.293657 9.84463 -0.00141188 11.3333 5.07914e-06Z" fill="black" fill-opacity="0.7"/>
<path d="M34.88 26.7051C33.3867 31.681 32.1387 36.4847 30.6453 41.1771C29.7973 43.8267 28.8693 46.3517 27.6987 47.9574C26.4053 49.7617 23.984 51.4892 21.0773 51.4892C19.0187 51.4892 17 50.5274 17 48.3998C17 47.075 18.3733 45.8324 19.464 45.8324C19.694 45.8234 19.9219 45.8787 20.1218 45.9921C20.3217 46.1054 20.4855 46.2723 20.5947 46.4736C21.6053 48.2779 22.5733 49.3219 23.0187 49.3219C23.464 49.3219 23.8187 48.7204 24.552 46.1132L29.832 26.7051H26.0373C25.7547 25.8626 26.1573 24.8186 26.6427 24.6199H30.4373C31.1653 22.2936 32.016 19.954 33.2293 17.8291C35.0453 14.578 37.9547 12 41.952 12C44.9813 12 46.232 13.444 46.232 15.2908C46.192 17.2568 44.456 18.2583 43.648 18.2583C43.0027 18.2583 42.68 17.7761 42.4773 17.0951C41.792 14.5277 40.9013 13.7646 40.3787 13.7646C39.856 13.7646 39.0453 14.7264 38.1573 16.7321C36.9867 19.2598 36.2133 21.9597 35.4907 24.6067H40.088C40.3707 25.1684 40.128 26.3713 39.4427 26.6919L34.88 26.7051Z" fill="#88C0D0"/>
</g>
<defs>
<clipPath id="clip0_23_222">
<rect width="64" height="64" fill="white"/>
</clipPath>
</defs>
</svg>
