<svg width="64" height="64" viewBox="0 0 64 64" fill="none" xmlns="http://www.w3.org/2000/svg">
<g clip-path="url(#clip0_23_55)">
<path d="M11.3333 5.07914e-06H52.6667C54.1554 -0.00141188 55.6297 0.293657 57.0054 0.868326C58.3811 1.44299 59.631 2.28598 60.6837 3.34904C61.7363 4.4121 62.5711 5.67436 63.1402 7.06358C63.7092 8.4528 64.0014 9.94171 64 11.4451V51.5703C64.0014 53.0737 63.7092 54.5626 63.1402 55.9518C62.5711 57.341 61.7363 58.6033 60.6837 59.6663C59.631 60.7294 58.3811 61.5724 57.0054 62.1471C55.6297 62.7217 54.1554 63.0168 52.6667 63.0154H11.3333C9.84463 63.0168 8.37026 62.7217 6.9946 62.1471C5.61894 61.5724 4.36901 60.7294 3.31633 59.6663C2.26366 58.6033 1.4289 57.341 0.859846 55.9518C0.29079 54.5626 -0.00139809 53.0737 5.02953e-06 51.5703V11.4451C-0.00139809 9.94171 0.29079 8.4528 0.859846 7.06358C1.4289 5.67436 2.26366 4.4121 3.31633 3.34904C4.36901 2.28598 5.61894 1.44299 6.9946 0.868326C8.37026 0.293657 9.84463 -0.00141188 11.3333 5.07914e-06Z" fill="#88C0D0"/>
<path d="M11.3333 5.07914e-06H52.6667C54.1554 -0.00141188 55.6297 0.293657 57.0054 0.868326C58.3811 1.44299 59.631 2.28598 60.6837 3.34904C61.7363 4.4121 62.5711 5.67436 63.1402 7.06358C63.7092 8.4528 64.0014 9.94171 64 11.4451V51.5703C64.0014 53.0737 63.7092 54.5626 63.1402 55.9518C62.5711 57.341 61.7363 58.6033 60.6837 59.6663C59.631 60.7294 58.3811 61.5724 57.0054 62.1471C55.6297 62.7217 54.1554 63.0168 52.6667 63.0154H11.3333C9.84463 63.0168 8.37026 62.7217 6.9946 62.1471C5.61894 61.5724 4.36901 60.7294 3.31633 59.6663C2.26366 58.6033 1.4289 57.341 0.859846 55.9518C0.29079 54.5626 -0.00139809 53.0737 5.02953e-06 51.5703V11.4451C-0.00139809 9.94171 0.29079 8.4528 0.859846 7.06358C1.4289 5.67436 2.26366 4.4121 3.31633 3.34904C4.36901 2.28598 5.61894 1.44299 6.9946 0.868326C8.37026 0.293657 9.84463 -0.00141188 11.3333 5.07914e-06Z" fill="black" fill-opacity="0.7"/>
<path d="M26.7892 39.1436H16.8692L14.8425 45.3966C14.8199 45.5101 14.7554 45.611 14.6616 45.6797C14.5679 45.7483 14.4517 45.7796 14.3359 45.7675H9.32255C9.02921 45.7675 8.94921 45.6085 9.02921 45.2906L17.6159 20.835C17.6959 20.5701 17.7759 20.3316 17.8825 20.0137C17.9899 19.4458 18.0434 18.8692 18.0425 18.2915C18.0346 18.2251 18.0521 18.1582 18.0917 18.1041C18.1312 18.0501 18.1899 18.0129 18.2559 18H25.1625C25.3492 18 25.4825 18.0795 25.5092 18.212L35.2426 45.3701C35.3226 45.6615 35.2425 45.794 34.9759 45.794H29.4025C29.3083 45.803 29.2139 45.7788 29.1358 45.7255C29.0578 45.6722 29.0012 45.5932 28.9759 45.5026L26.7892 39.1436ZM18.4159 33.8709H25.1892C25.0292 33.3145 24.8159 32.6521 24.5759 31.9632C24.3359 31.2744 24.0959 30.4795 23.8559 29.6846C23.6159 28.8897 23.3492 28.0684 23.0825 27.247C22.8159 26.4256 22.5759 25.6573 22.3625 24.8889C22.1492 24.1205 21.9625 23.4581 21.7759 22.8222H21.7225C21.4829 23.977 21.1802 25.118 20.8159 26.2402C20.4159 27.512 20.0159 28.8368 19.5892 30.1615C19.2425 31.5128 18.8159 32.7581 18.4159 33.8709Z" fill="#88C0D0"/>
<path d="M51.0559 36.706H42.6026C42.7034 37.5421 42.9855 38.3466 43.4292 39.0641C43.9005 39.7782 44.5795 40.3328 45.3759 40.6538C46.4538 41.1119 47.6171 41.3376 48.7892 41.3162C49.7204 41.2993 50.6484 41.2017 51.5626 41.0248C52.3758 40.919 53.1729 40.7143 53.9359 40.4154C54.0692 40.3094 54.1492 40.3624 54.1492 40.6273V44.6812C54.1445 44.7889 54.1266 44.8957 54.0959 44.9991C54.0477 45.0735 53.9841 45.1367 53.9092 45.1846C53.0563 45.5567 52.1608 45.8237 51.2426 45.9795C49.9952 46.2178 48.7259 46.3244 47.4559 46.2974C45.4292 46.2974 43.7226 45.9795 42.3359 45.3701C41.031 44.8073 39.8794 43.9446 38.9759 42.853C38.1316 41.8322 37.5055 40.6512 37.1359 39.382C36.3545 36.7387 36.3917 33.9229 37.2426 31.3008C37.6678 29.9742 38.3469 28.7417 39.2426 27.6709C40.1244 26.6121 41.2248 25.7538 42.4692 25.1538C43.7226 24.5444 45.2159 24.3325 46.9226 24.3325C48.3445 24.2997 49.7561 24.5802 51.0559 25.1538C52.1484 25.6244 53.1093 26.3519 53.8559 27.2735C54.5647 28.1785 55.1064 29.2011 55.4559 30.294C55.795 31.3383 55.966 32.4292 55.9626 33.5265C55.9626 34.1624 55.9359 34.7188 55.9092 35.2222C55.8826 35.7256 55.8292 36.0966 55.8026 36.335C55.7908 36.4268 55.747 36.5116 55.6788 36.5745C55.6105 36.6375 55.5222 36.6746 55.4292 36.6795C55.2692 36.6795 54.9759 36.706 54.5492 36.7325C54.0358 36.7904 53.5193 36.8169 53.0026 36.812C52.3892 36.812 51.7492 36.706 51.0559 36.706ZM42.6026 32.8376H48.2292C48.9226 32.8376 49.4292 32.8376 49.7492 32.8111C49.9684 32.793 50.1794 32.7201 50.3626 32.5991V32.3342C50.3636 32.0009 50.3096 31.6697 50.2026 31.3538C49.9691 30.6288 49.5047 29.999 48.8793 29.5592C48.254 29.1195 47.5017 28.8938 46.7359 28.9162C46.0122 28.8759 45.2922 29.0446 44.6628 29.4019C44.0335 29.7592 43.5217 30.2899 43.1892 30.9299C42.8781 31.5249 42.6793 32.1715 42.6026 32.8376Z" fill="#88C0D0"/>
</g>
<defs>
<clipPath id="clip0_23_55">
<rect width="64" height="64" fill="white"/>
</clipPath>
</defs>
</svg>
