<svg width="64" height="64" viewBox="0 0 64 64" fill="none" xmlns="http://www.w3.org/2000/svg">
<g clip-path="url(#clip0_23_178)">
<path d="M11.3333 5.07914e-06H52.6667C54.1554 -0.00141188 55.6297 0.293657 57.0054 0.868326C58.3811 1.44299 59.631 2.28598 60.6837 3.34904C61.7363 4.4121 62.5711 5.67436 63.1402 7.06358C63.7092 8.4528 64.0014 9.94171 64 11.4451V51.5703C64.0014 53.0737 63.7092 54.5626 63.1402 55.9518C62.5711 57.341 61.7363 58.6033 60.6837 59.6663C59.631 60.7294 58.3811 61.5724 57.0054 62.1471C55.6297 62.7217 54.1554 63.0168 52.6667 63.0154H11.3333C9.84463 63.0168 8.37026 62.7217 6.9946 62.1471C5.61894 61.5724 4.36901 60.7294 3.31633 59.6663C2.26366 58.6033 1.4289 57.341 0.859846 55.9518C0.29079 54.5626 -0.00139809 53.0737 5.02953e-06 51.5703V11.4451C-0.00139809 9.94171 0.29079 8.4528 0.859846 7.06358C1.4289 5.67436 2.26366 4.4121 3.31633 3.34904C4.36901 2.28598 5.61894 1.44299 6.9946 0.868326C8.37026 0.293657 9.84463 -0.00141188 11.3333 5.07914e-06Z" fill="#88C0D0"/>
<path d="M11.3333 5.07914e-06H52.6667C54.1554 -0.00141188 55.6297 0.293657 57.0054 0.868326C58.3811 1.44299 59.631 2.28598 60.6837 3.34904C61.7363 4.4121 62.5711 5.67436 63.1402 7.06358C63.7092 8.4528 64.0014 9.94171 64 11.4451V51.5703C64.0014 53.0737 63.7092 54.5626 63.1402 55.9518C62.5711 57.341 61.7363 58.6033 60.6837 59.6663C59.631 60.7294 58.3811 61.5724 57.0054 62.1471C55.6297 62.7217 54.1554 63.0168 52.6667 63.0154H11.3333C9.84463 63.0168 8.37026 62.7217 6.9946 62.1471C5.61894 61.5724 4.36901 60.7294 3.31633 59.6663C2.26366 58.6033 1.4289 57.341 0.859846 55.9518C0.29079 54.5626 -0.00139809 53.0737 5.02953e-06 51.5703V11.4451C-0.00139809 9.94171 0.29079 8.4528 0.859846 7.06358C1.4289 5.67436 2.26366 4.4121 3.31633 3.34904C4.36901 2.28598 5.61894 1.44299 6.9946 0.868326C8.37026 0.293657 9.84463 -0.00141188 11.3333 5.07914e-06Z" fill="black" fill-opacity="0.7"/>
<path d="M21.9467 20.9974C21.0511 20.0392 19.9476 19.2962 18.72 18.8248C17.1424 18.2442 15.4685 17.9655 13.7867 18.0034C13.0667 18.0034 12.3467 18.0034 11.6 18.0299C10.8533 18.0564 10.16 18.0564 9.52 18.0829C8.88 18.1094 8.24 18.1094 7.68 18.1359C7.12 18.1624 6.66667 18.0829 6.24 18.0829C6.08 18.0829 6 18.1889 6 18.3743V45.506C6 45.7444 6.08 45.9034 6.26667 45.9034H10.9333C11.1733 45.9034 11.28 45.7709 11.28 45.5325V37.2393C11.7333 37.2393 12.08 37.2393 12.32 37.2658C12.56 37.2923 12.96 37.2923 13.52 37.2923C15.3737 37.3151 17.2135 36.9729 18.9333 36.2855C20.5248 35.6396 21.8757 34.5196 22.8 33.0795C23.76 31.5957 24.24 29.7145 24.24 27.4624C24.2366 26.2942 24.0568 25.1331 23.7067 24.0179C23.3276 22.905 22.7293 21.8782 21.9467 20.9974ZM18.24 30.2974C17.7366 30.9492 17.0498 31.4379 16.2667 31.7017C15.3743 32.0032 14.4356 32.1467 13.4933 32.1256H12.2133C11.92 32.1256 11.6267 32.0991 11.28 32.0726V23.2761C11.6 23.2496 11.9467 23.2231 12.2667 23.2231C12.7467 23.1966 13.28 23.1966 13.92 23.1966C14.8891 23.1749 15.8521 23.3554 16.7467 23.7265C17.4462 24.0514 18.0315 24.5775 18.4267 25.2367C18.8239 25.9582 19.0174 26.773 18.9867 27.5949C18.9867 28.7342 18.72 29.6615 18.24 30.2974Z" fill="#88C0D0"/>
<path d="M36.6934 34.8017C35.5554 34.0026 34.3186 33.3525 33.0134 32.8675C32.4267 32.6026 31.8667 32.3111 31.3067 31.9932C30.9926 31.8129 30.72 31.5692 30.5067 31.2778C30.372 31.0707 30.2896 30.8344 30.2667 30.5889C30.2594 30.3376 30.3241 30.0895 30.4534 29.8735C30.6325 29.6158 30.8966 29.4283 31.2 29.3436C31.6666 29.204 32.1531 29.1413 32.64 29.1581C33.5492 29.1535 34.455 29.2693 35.3334 29.5026C36.1159 29.6801 36.8637 29.9845 37.5467 30.4034C37.5863 30.4293 37.6326 30.4431 37.68 30.4431C37.7274 30.4431 37.7738 30.4293 37.8134 30.4034C37.8547 30.374 37.8868 30.3334 37.9057 30.2864C37.9246 30.2395 37.9295 30.1881 37.92 30.1385V25.8196C37.9244 25.713 37.9155 25.6062 37.8934 25.5017C37.872 25.4477 37.8397 25.3986 37.7984 25.3576C37.7571 25.3165 37.7077 25.2844 37.6534 25.2632C37.0481 24.942 36.388 24.7353 35.7067 24.6538C34.7192 24.4944 33.7204 24.4147 32.72 24.4154C31.0134 24.4154 29.6 24.7333 28.48 25.3427C27.4247 25.8971 26.5539 26.7439 25.9734 27.7803C25.4318 28.7621 25.1561 29.8669 25.1734 30.9863C25.1711 31.9158 25.3617 32.8358 25.7334 33.6889C26.153 34.5623 26.7743 35.3249 27.5467 35.9145C28.5816 36.7172 29.7323 37.3603 30.96 37.8222C32.1334 38.2991 32.9334 38.7231 33.3067 39.0675C33.4761 39.1913 33.6163 39.3502 33.7176 39.5332C33.8189 39.7162 33.8789 39.919 33.8934 40.1273C33.8982 40.353 33.8412 40.5758 33.7285 40.7718C33.6158 40.9679 33.4515 41.1297 33.2534 41.2402C32.8267 41.5051 32.16 41.6111 31.2534 41.6111C30.2991 41.5848 29.3509 41.4515 28.4267 41.2137C27.4011 40.955 26.4272 40.5249 25.5467 39.9419C25.5045 39.9201 25.4567 39.911 25.4094 39.9157C25.3621 39.9204 25.3171 39.9387 25.28 39.9684C25.2431 39.9956 25.2138 40.0319 25.1951 40.0736C25.1764 40.1154 25.1689 40.1613 25.1734 40.2068V44.8171C25.1747 44.9155 25.206 45.0112 25.2631 45.0916C25.3202 45.172 25.4005 45.2333 25.4934 45.2675C26.2434 45.6469 27.0418 45.9232 27.8667 46.0889C28.935 46.3226 30.0261 46.4382 31.12 46.4333C32.8534 46.4333 34.2934 46.1419 35.4667 45.5855C36.5811 45.0839 37.519 44.2627 38.16 43.2273C38.7997 42.1638 39.1233 40.942 39.0934 39.7034C39.1087 38.7641 38.9176 37.8327 38.5334 36.9743C38.1195 36.1042 37.4855 35.3556 36.6934 34.8017Z" fill="#88C0D0"/>
<path d="M56.88 20.812C56.3079 20.5815 55.7068 20.43 55.0933 20.3615C54.1906 20.2558 53.2824 20.2027 52.3733 20.2026C49.76 20.2026 47.4667 20.759 45.5733 21.8453C43.6832 22.9402 42.1474 24.5489 41.1467 26.482C40.1067 28.4427 39.6 30.7743 39.6 33.3709C39.583 34.9445 39.7803 36.5132 40.1867 38.0342C40.5518 39.3288 41.1283 40.5551 41.8933 41.6641C42.6037 42.6833 43.4882 43.571 44.5067 44.2872C45.5294 45.0164 46.6769 45.555 47.8933 45.8769C49.1615 46.2254 50.4709 46.4036 51.7867 46.4068C52.7056 46.4119 53.6236 46.3499 54.5333 46.2214C55.2735 46.1391 55.9997 45.961 56.6933 45.6914C56.8259 45.6275 56.9354 45.5245 57.007 45.3965C57.0786 45.2685 57.1087 45.1217 57.0933 44.9761V41.0282C57.1043 40.9562 57.0979 40.8826 57.0747 40.8136C57.0516 40.7445 57.0122 40.6818 56.96 40.6308C56.8981 40.5821 56.8203 40.5579 56.7416 40.5628C56.6628 40.5677 56.5887 40.6013 56.5333 40.6573C55.9298 40.8756 55.3038 41.0266 54.6667 41.1077C53.8957 41.1826 53.1213 41.218 52.3467 41.2137C51.6433 41.2097 50.9437 41.1117 50.2667 40.9222C49.555 40.7339 48.8729 40.4486 48.24 40.0743C47.5834 39.6773 47.0125 39.155 46.56 38.5376C46.0492 37.845 45.6531 37.0758 45.3867 36.259C45.0846 35.2536 44.9407 34.208 44.96 33.159C44.9295 31.6982 45.2303 30.2492 45.84 28.9196C46.3912 27.7736 47.261 26.8082 48.3467 26.1376C49.5258 25.4508 50.8735 25.1023 52.24 25.1308C53.0804 25.1223 53.9198 25.1933 54.7467 25.3427C55.4171 25.45 56.0656 25.6647 56.6667 25.9786C56.7207 26.0048 56.7799 26.0185 56.84 26.0185C56.9001 26.0185 56.9594 26.0048 57.0133 25.9786C57.0707 25.9305 57.1153 25.869 57.1432 25.7997C57.1711 25.7304 57.1815 25.6554 57.1733 25.5812V21.4478C57.1786 21.3264 57.1547 21.2054 57.1037 21.0948C57.0527 20.9843 56.9761 20.8873 56.88 20.812Z" fill="#88C0D0"/>
</g>
<defs>
<clipPath id="clip0_23_178">
<rect width="64" height="64" fill="white"/>
</clipPath>
</defs>
</svg>
