<svg width="64" height="64" viewBox="0 0 64 64" fill="none" xmlns="http://www.w3.org/2000/svg">
<g clip-path="url(#clip0_23_130)">
<path d="M11.3333 5.07914e-06H52.6667C54.1554 -0.00141188 55.6297 0.293657 57.0054 0.868326C58.3811 1.44299 59.631 2.28598 60.6837 3.34904C61.7363 4.4121 62.5711 5.67436 63.1402 7.06358C63.7092 8.4528 64.0014 9.94171 64 11.4451V51.5703C64.0014 53.0737 63.7092 54.5626 63.1402 55.9518C62.5711 57.341 61.7363 58.6033 60.6837 59.6663C59.631 60.7294 58.3811 61.5724 57.0054 62.1471C55.6297 62.7217 54.1554 63.0168 52.6667 63.0154H11.3333C9.84463 63.0168 8.37026 62.7217 6.9946 62.1471C5.61894 61.5724 4.36901 60.7294 3.31633 59.6663C2.26366 58.6033 1.4289 57.341 0.859846 55.9518C0.29079 54.5626 -0.00139809 53.0737 5.02953e-06 51.5703V11.4451C-0.00139809 9.94171 0.29079 8.4528 0.859846 7.06358C1.4289 5.67436 2.26366 4.4121 3.31633 3.34904C4.36901 2.28598 5.61894 1.44299 6.9946 0.868326C8.37026 0.293657 9.84463 -0.00141188 11.3333 5.07914e-06Z" fill="#88C0D0"/>
<path d="M11.3333 5.07914e-06H52.6667C54.1554 -0.00141188 55.6297 0.293657 57.0054 0.868326C58.3811 1.44299 59.631 2.28598 60.6837 3.34904C61.7363 4.4121 62.5711 5.67436 63.1402 7.06358C63.7092 8.4528 64.0014 9.94171 64 11.4451V51.5703C64.0014 53.0737 63.7092 54.5626 63.1402 55.9518C62.5711 57.341 61.7363 58.6033 60.6837 59.6663C59.631 60.7294 58.3811 61.5724 57.0054 62.1471C55.6297 62.7217 54.1554 63.0168 52.6667 63.0154H11.3333C9.84463 63.0168 8.37026 62.7217 6.9946 62.1471C5.61894 61.5724 4.36901 60.7294 3.31633 59.6663C2.26366 58.6033 1.4289 57.341 0.859846 55.9518C0.29079 54.5626 -0.00139809 53.0737 5.02953e-06 51.5703V11.4451C-0.00139809 9.94171 0.29079 8.4528 0.859846 7.06358C1.4289 5.67436 2.26366 4.4121 3.31633 3.34904C4.36901 2.28598 5.61894 1.44299 6.9946 0.868326C8.37026 0.293657 9.84463 -0.00141188 11.3333 5.07914e-06Z" fill="black" fill-opacity="0.7"/>
<path d="M22.9467 19.6252V46.8098C22.9467 47.1013 22.8133 47.2338 22.5733 47.2338H17.3467C17.1067 47.2338 17 47.1013 17 46.8098V19.6252C17 19.3868 17.1333 19.2808 17.3733 19.2808H22.5733C22.6138 19.2745 22.6551 19.2764 22.6947 19.2864C22.7344 19.2965 22.7716 19.3144 22.804 19.3392C22.8364 19.364 22.8634 19.3951 22.8834 19.4306C22.9033 19.4661 22.9158 19.5053 22.92 19.5457C22.9301 19.5562 22.9377 19.5688 22.9423 19.5825C22.9469 19.5963 22.9484 19.6108 22.9467 19.6252Z" fill="#88C0D0"/>
<path d="M38.3067 47.6577C36.33 47.6899 34.3711 47.2826 32.5733 46.4654C30.9007 45.6883 29.4989 44.4338 28.5467 42.862C27.56 41.2457 27.08 39.2321 27.08 36.821C27.053 34.8602 27.5597 32.9285 28.5467 31.2304C29.5587 29.5044 31.0244 28.0847 32.7867 27.1235C34.6533 26.0902 36.8933 25.5868 39.5333 25.5868C39.7204 25.5847 39.9074 25.5935 40.0933 25.6133C40.3333 25.6398 40.6 25.6398 40.92 25.6663V17.2936C40.92 17.1081 41 17.0022 41.1867 17.0022H46.6C46.6598 16.9941 46.7204 17.0087 46.7698 17.0431C46.8192 17.0775 46.8538 17.1291 46.8667 17.1876V42.4645C46.8667 42.9415 46.8933 43.4714 46.92 44.0543C46.9467 44.6372 47 45.1406 47.0267 45.591C47.0324 45.6805 47.0097 45.7695 46.9619 45.8456C46.914 45.9216 46.8435 45.9808 46.76 46.015C45.3632 46.5982 43.9053 47.0248 42.4133 47.2868C41.0582 47.5308 39.6839 47.6549 38.3067 47.6577ZM40.92 42.3586V30.7004C40.6826 30.6435 40.4422 30.5993 40.2 30.568C39.9067 30.5415 39.6133 30.515 39.32 30.515C38.2747 30.5033 37.2417 30.7394 36.3067 31.2039C35.3954 31.655 34.6152 32.3299 34.04 33.1646C33.4533 34.0124 33.16 35.1517 33.16 36.5295C33.1368 37.4594 33.2906 38.3854 33.6133 39.2586C33.8712 39.9647 34.2807 40.6066 34.8133 41.1398C35.3274 41.6272 35.9481 41.99 36.6267 42.1996C37.341 42.432 38.0884 42.5484 38.84 42.544C39.24 42.544 39.6133 42.5175 39.96 42.491C40.2859 42.516 40.6133 42.4708 40.92 42.3586Z" fill="#88C0D0"/>
</g>
<defs>
<clipPath id="clip0_23_130">
<rect width="64" height="64" fill="white"/>
</clipPath>
</defs>
</svg>
