<svg width="64" height="64" viewBox="0 0 64 64" fill="none" xmlns="http://www.w3.org/2000/svg">
<g clip-path="url(#clip0_23_209)">
<path d="M11.3333 5.07914e-06H52.6667C54.1554 -0.00141188 55.6297 0.293657 57.0054 0.868326C58.3811 1.44299 59.631 2.28598 60.6837 3.34904C61.7363 4.4121 62.5711 5.67436 63.1402 7.06358C63.7092 8.4528 64.0014 9.94171 64 11.4451V51.5703C64.0014 53.0737 63.7092 54.5626 63.1402 55.9518C62.5711 57.341 61.7363 58.6033 60.6837 59.6663C59.631 60.7294 58.3811 61.5724 57.0054 62.1471C55.6297 62.7217 54.1554 63.0168 52.6667 63.0154H11.3333C9.84463 63.0168 8.37026 62.7217 6.9946 62.1471C5.61894 61.5724 4.36901 60.7294 3.31633 59.6663C2.26366 58.6033 1.4289 57.341 0.859846 55.9518C0.29079 54.5626 -0.00139809 53.0737 5.02953e-06 51.5703V11.4451C-0.00139809 9.94171 0.29079 8.4528 0.859846 7.06358C1.4289 5.67436 2.26366 4.4121 3.31633 3.34904C4.36901 2.28598 5.61894 1.44299 6.9946 0.868326C8.37026 0.293657 9.84463 -0.00141188 11.3333 5.07914e-06Z" fill="#88C0D0"/>
<path d="M11.3333 5.07914e-06H52.6667C54.1554 -0.00141188 55.6297 0.293657 57.0054 0.868326C58.3811 1.44299 59.631 2.28598 60.6837 3.34904C61.7363 4.4121 62.5711 5.67436 63.1402 7.06358C63.7092 8.4528 64.0014 9.94171 64 11.4451V51.5703C64.0014 53.0737 63.7092 54.5626 63.1402 55.9518C62.5711 57.341 61.7363 58.6033 60.6837 59.6663C59.631 60.7294 58.3811 61.5724 57.0054 62.1471C55.6297 62.7217 54.1554 63.0168 52.6667 63.0154H11.3333C9.84463 63.0168 8.37026 62.7217 6.9946 62.1471C5.61894 61.5724 4.36901 60.7294 3.31633 59.6663C2.26366 58.6033 1.4289 57.341 0.859846 55.9518C0.29079 54.5626 -0.00139809 53.0737 5.02953e-06 51.5703V11.4451C-0.00139809 9.94171 0.29079 8.4528 0.859846 7.06358C1.4289 5.67436 2.26366 4.4121 3.31633 3.34904C4.36901 2.28598 5.61894 1.44299 6.9946 0.868326C8.37026 0.293657 9.84463 -0.00141188 11.3333 5.07914e-06Z" fill="black" fill-opacity="0.7"/>
<path d="M23.929 46.2949C22.488 46.2942 21.0504 46.1567 19.6357 45.8842C18.5116 45.6718 17.4168 45.3276 16.3744 44.8588C16.2562 44.7881 16.1617 44.6842 16.1028 44.5602C16.044 44.4362 16.0234 44.2976 16.0437 44.162V39.157C16.0422 39.109 16.0526 39.0615 16.074 39.0185C16.0954 38.9755 16.1271 38.9384 16.1664 38.9106C16.2061 38.888 16.2523 38.8797 16.2974 38.8869C16.3426 38.8941 16.3838 38.9165 16.4144 38.9503C17.582 39.6716 18.8472 40.2238 20.1717 40.5904C21.4342 40.9444 22.7399 41.1228 24.0517 41.1203C25.6624 41.1203 26.8179 40.8739 27.5184 40.3811C27.8354 40.1852 28.0968 39.9119 28.2774 39.5872C28.4581 39.2626 28.552 38.8973 28.5504 38.5264C28.554 38.081 28.44 37.6425 28.2197 37.2546C27.9026 36.8066 27.4948 36.4293 27.0224 36.147C26.2933 35.6977 25.5183 35.3265 24.7104 35.0395L22.6037 34.136C21.1514 33.5542 19.7909 32.7681 18.5637 31.8017C17.6728 31.1137 16.987 30.1978 16.5797 29.1522C16.1941 28.172 15.9978 27.1284 16.001 26.076C15.9772 24.6319 16.3636 23.2104 17.1157 21.9745C17.9266 20.6889 19.1061 19.6739 20.5024 19.06C21.9877 18.3631 23.889 18.0001 26.1184 18.0001C27.3892 17.9964 28.6588 18.0787 29.9184 18.2465C30.8879 18.3652 31.8348 18.624 32.729 19.0149C32.8232 19.0665 32.9004 19.1438 32.9514 19.2378C33.0025 19.3318 33.0253 19.4383 33.017 19.5448V24.3141C33.0115 24.3493 32.9975 24.3826 32.9761 24.4112C32.9547 24.4398 32.9267 24.4629 32.8944 24.4783C32.8547 24.5009 32.8084 24.5092 32.7633 24.502C32.7182 24.4947 32.6769 24.4724 32.6464 24.4386C31.713 23.9741 30.7287 23.6185 29.713 23.3788C28.5518 23.1986 27.3789 23.103 26.2037 23.0926C25.5095 23.0663 24.815 23.1349 24.1397 23.2966C23.6637 23.4121 23.2054 23.5903 22.777 23.8265C22.4574 24.021 22.1887 24.2879 21.993 24.6055C21.8336 24.9101 21.7486 25.2478 21.745 25.5911C21.7369 26.0124 21.866 26.4251 22.113 26.7676C22.4673 27.1992 22.9019 27.559 23.393 27.8274C24.1739 28.297 24.9886 28.7088 25.8304 29.0594L27.3957 29.6397C29.2624 30.4187 30.6997 31.1976 31.7317 32.0614C32.7637 32.9252 33.5077 33.826 33.921 34.8514C34.3396 35.8806 34.5499 36.9818 34.5397 38.0918C34.561 39.6436 34.095 41.1634 33.2064 42.4398C32.2759 43.715 31.0088 44.7099 29.545 45.3146C27.977 45.9717 26.0784 46.3002 23.929 46.3002V46.2949ZM48.8277 41.7403V45.1847C48.8277 45.4709 48.705 45.6776 48.497 45.7147C47.9637 45.8789 47.3824 46.0008 46.8037 46.1253C46.1364 46.248 45.4582 46.3031 44.7797 46.2896C42.913 46.2896 41.5184 45.7968 40.4437 44.8535C39.4117 43.9103 38.8757 42.3497 38.8757 40.2592V29.8861H36.3557C36.1077 29.8861 36.025 29.7642 36.025 29.5178V25.3315C36.025 25.0851 36.1477 25.0029 36.3957 25.0029H38.9157C38.9557 24.5101 38.9557 23.9776 39.0384 23.3629C39.0784 22.7482 39.121 22.0911 39.2037 21.4764C39.2437 20.8617 39.3264 20.3264 39.369 19.9184C39.409 19.8363 39.409 19.7541 39.4917 19.672C39.5517 19.6075 39.6209 19.5522 39.697 19.5077L44.729 18.8904C44.7594 18.8701 44.7951 18.8593 44.8317 18.8593C44.8683 18.8593 44.904 18.8701 44.9344 18.8904C44.993 18.9588 45.0226 19.0471 45.017 19.1368C44.977 19.7939 44.9344 20.655 44.8944 21.7625C44.8544 22.87 44.8544 23.9378 44.8117 25.0029H48.7344C48.8997 25.0029 48.9824 25.1248 48.9824 25.3315V29.5973C48.9824 29.7616 48.9424 29.8437 48.777 29.8835H44.777V38.8682C44.777 39.8114 44.9424 40.5082 45.273 40.9189C45.6037 41.3296 46.1824 41.5336 47.049 41.5336C47.2835 41.542 47.5183 41.5287 47.7504 41.4939C47.9984 41.4939 48.2037 41.4541 48.4517 41.4541C48.4911 41.4306 48.5376 41.4217 48.583 41.4289C48.6284 41.4362 48.6697 41.4592 48.6997 41.4939C48.7437 41.5179 48.7794 41.5545 48.8022 41.5989C48.825 41.6433 48.8339 41.6935 48.8277 41.7429V41.7403Z" fill="#88C0D0"/>
</g>
<defs>
<clipPath id="clip0_23_209">
<rect width="64" height="64" fill="white"/>
</clipPath>
</defs>
</svg>
