<svg width="64" height="64" viewBox="0 0 64 64" fill="none" xmlns="http://www.w3.org/2000/svg">
<g clip-path="url(#clip0_23_70)">
<path d="M11.3333 5.07914e-06H52.6667C54.1554 -0.00141188 55.6297 0.293657 57.0054 0.868326C58.3811 1.44299 59.631 2.28598 60.6837 3.34904C61.7363 4.4121 62.5711 5.67436 63.1402 7.06358C63.7092 8.4528 64.0014 9.94171 64 11.4451V51.5703C64.0014 53.0737 63.7092 54.5626 63.1402 55.9518C62.5711 57.341 61.7363 58.6033 60.6837 59.6663C59.631 60.7294 58.3811 61.5724 57.0054 62.1471C55.6297 62.7217 54.1554 63.0168 52.6667 63.0154H11.3333C9.84463 63.0168 8.37026 62.7217 6.9946 62.1471C5.61894 61.5724 4.36901 60.7294 3.31633 59.6663C2.26366 58.6033 1.4289 57.341 0.859846 55.9518C0.29079 54.5626 -0.00139809 53.0737 5.02953e-06 51.5703V11.4451C-0.00139809 9.94171 0.29079 8.4528 0.859846 7.06358C1.4289 5.67436 2.26366 4.4121 3.31633 3.34904C4.36901 2.28598 5.61894 1.44299 6.9946 0.868326C8.37026 0.293657 9.84463 -0.00141188 11.3333 5.07914e-06Z" fill="#88C0D0"/>
<path d="M11.3333 5.07914e-06H52.6667C54.1554 -0.00141188 55.6297 0.293657 57.0054 0.868326C58.3811 1.44299 59.631 2.28598 60.6837 3.34904C61.7363 4.4121 62.5711 5.67436 63.1402 7.06358C63.7092 8.4528 64.0014 9.94171 64 11.4451V51.5703C64.0014 53.0737 63.7092 54.5626 63.1402 55.9518C62.5711 57.341 61.7363 58.6033 60.6837 59.6663C59.631 60.7294 58.3811 61.5724 57.0054 62.1471C55.6297 62.7217 54.1554 63.0168 52.6667 63.0154H11.3333C9.84463 63.0168 8.37026 62.7217 6.9946 62.1471C5.61894 61.5724 4.36901 60.7294 3.31633 59.6663C2.26366 58.6033 1.4289 57.341 0.859846 55.9518C0.29079 54.5626 -0.00139809 53.0737 5.02953e-06 51.5703V11.4451C-0.00139809 9.94171 0.29079 8.4528 0.859846 7.06358C1.4289 5.67436 2.26366 4.4121 3.31633 3.34904C4.36901 2.28598 5.61894 1.44299 6.9946 0.868326C8.37026 0.293657 9.84463 -0.00141188 11.3333 5.07914e-06Z" fill="black" fill-opacity="0.7"/>
<path d="M17 46.9137V19.6496C17 19.4641 17.08 19.3581 17.2667 19.3581C17.72 19.3581 18.28 19.3581 18.8933 19.3316C19.5067 19.3051 20.2 19.3051 20.92 19.2786C21.64 19.2521 22.4133 19.2521 23.24 19.2257C24.0667 19.1992 24.8667 19.1992 25.6667 19.1992C27.8533 19.1992 29.6667 19.4641 31.16 20.0205C32.4987 20.4722 33.7193 21.2144 34.7333 22.1932C35.5926 23.0497 36.2565 24.0798 36.68 25.2137C37.0837 26.3179 37.2912 27.4834 37.2933 28.6581C37.2933 30.9368 36.76 32.818 35.6933 34.3017C34.6217 35.7835 33.1256 36.9099 31.4 37.5342C29.4767 38.2236 27.4445 38.5646 25.4 38.541C24.76 38.541 24.3333 38.541 24.0667 38.5145C23.8 38.488 23.4267 38.488 22.92 38.488V46.8872C22.926 46.9308 22.923 46.9751 22.9114 47.0176C22.8998 47.06 22.8797 47.0997 22.8523 47.1343C22.825 47.1689 22.7909 47.1977 22.7521 47.219C22.7134 47.2403 22.6707 47.2536 22.6267 47.2581H17.2933C17.08 47.2581 17 47.1522 17 46.9137ZM22.92 24.4718V33.2949C23.2933 33.3214 23.64 33.3479 23.96 33.3479H25.3733C26.4116 33.367 27.4464 33.224 28.44 32.9239C29.2901 32.6756 30.0496 32.1878 30.6267 31.5197C31.1867 30.8573 31.4533 29.9564 31.4533 28.7906C31.4784 27.9626 31.2657 27.1447 30.84 26.4325C30.3954 25.7446 29.7414 25.2155 28.9733 24.9222C27.9722 24.5327 26.9011 24.3523 25.8267 24.3923C25.1333 24.3923 24.52 24.3923 24.0133 24.4188C23.6481 24.4136 23.283 24.4313 22.92 24.4718Z" fill="#88C0D0"/>
<path d="M39.6934 41.747V17.3444C39.6934 17.106 39.8267 17 40.0667 17H45.2667C45.5334 17 45.64 17.106 45.64 17.3444V41.2436C45.64 41.853 45.7467 42.2769 45.96 42.5154C46.1734 42.7803 46.5467 42.8863 47.0534 42.8863C47.1784 42.8917 47.3037 42.8828 47.4267 42.8598C47.5067 42.8333 47.64 42.8333 47.8 42.8068C47.8461 42.8027 47.8924 42.8119 47.9334 42.8333C47.9797 42.9135 47.9985 43.0066 47.9867 43.0983V46.7547C47.9911 46.8702 47.9821 46.9857 47.96 47.0991C47.917 47.171 47.8514 47.2269 47.7734 47.2581C47.4282 47.3836 47.0707 47.4724 46.7067 47.5231C46.1678 47.5979 45.6241 47.6334 45.08 47.6291C44.131 47.6471 43.188 47.4759 42.3067 47.1256C41.4671 46.7776 40.7844 46.1369 40.3867 45.3239C39.9334 44.5291 39.6934 43.3103 39.6934 41.747Z" fill="#88C0D0"/>
</g>
<defs>
<clipPath id="clip0_23_70">
<rect width="64" height="64" fill="white"/>
</clipPath>
</defs>
</svg>
