<svg width="64" height="64" viewBox="0 0 64 64" fill="none" xmlns="http://www.w3.org/2000/svg">
<g clip-path="url(#clip0_23_138)">
<path d="M11.3333 5.07914e-06H52.6667C54.1554 -0.00141188 55.6297 0.293657 57.0054 0.868326C58.3811 1.44299 59.631 2.28598 60.6837 3.34904C61.7363 4.4121 62.5711 5.67436 63.1402 7.06358C63.7092 8.4528 64.0014 9.94171 64 11.4451V51.5703C64.0014 53.0737 63.7092 54.5626 63.1402 55.9518C62.5711 57.341 61.7363 58.6033 60.6837 59.6663C59.631 60.7294 58.3811 61.5724 57.0054 62.1471C55.6297 62.7217 54.1554 63.0168 52.6667 63.0154H11.3333C9.84463 63.0168 8.37026 62.7217 6.9946 62.1471C5.61894 61.5724 4.36901 60.7294 3.31633 59.6663C2.26366 58.6033 1.4289 57.341 0.859846 55.9518C0.29079 54.5626 -0.00139809 53.0737 5.02953e-06 51.5703V11.4451C-0.00139809 9.94171 0.29079 8.4528 0.859846 7.06358C1.4289 5.67436 2.26366 4.4121 3.31633 3.34904C4.36901 2.28598 5.61894 1.44299 6.9946 0.868326C8.37026 0.293657 9.84463 -0.00141188 11.3333 5.07914e-06Z" fill="#88C0D0"/>
<path d="M11.3333 5.07914e-06H52.6667C54.1554 -0.00141188 55.6297 0.293657 57.0054 0.868326C58.3811 1.44299 59.631 2.28598 60.6837 3.34904C61.7363 4.4121 62.5711 5.67436 63.1402 7.06358C63.7092 8.4528 64.0014 9.94171 64 11.4451V51.5703C64.0014 53.0737 63.7092 54.5626 63.1402 55.9518C62.5711 57.341 61.7363 58.6033 60.6837 59.6663C59.631 60.7294 58.3811 61.5724 57.0054 62.1471C55.6297 62.7217 54.1554 63.0168 52.6667 63.0154H11.3333C9.84463 63.0168 8.37026 62.7217 6.9946 62.1471C5.61894 61.5724 4.36901 60.7294 3.31633 59.6663C2.26366 58.6033 1.4289 57.341 0.859846 55.9518C0.29079 54.5626 -0.00139809 53.0737 5.02953e-06 51.5703V11.4451C-0.00139809 9.94171 0.29079 8.4528 0.859846 7.06358C1.4289 5.67436 2.26366 4.4121 3.31633 3.34904C4.36901 2.28598 5.61894 1.44299 6.9946 0.868326C8.37026 0.293657 9.84463 -0.00141188 11.3333 5.07914e-06Z" fill="black" fill-opacity="0.7"/>
<path d="M31.7892 40.4488H21.8692L19.8425 46.6753C19.8199 46.7888 19.7554 46.8898 19.6616 46.9584C19.5679 47.0271 19.4517 47.0584 19.3359 47.0463H14.3225C14.0292 47.0463 13.9492 46.8873 14.0292 46.5693L22.6159 22.0078C22.6959 21.7428 22.7759 21.4514 22.8825 21.1334C22.9899 20.5656 23.0434 19.989 23.0425 19.4112C23.0346 19.3449 23.0521 19.278 23.0917 19.2239C23.1312 19.1699 23.1899 19.1327 23.2559 19.1198H30.1625C30.3759 19.1198 30.4825 19.1993 30.5092 19.3317L40.2425 46.6223C40.3225 46.9138 40.2425 47.0463 39.9759 47.0463H34.4025C34.3083 47.0553 34.2139 47.031 34.1358 46.9777C34.0578 46.9244 34.0012 46.8455 33.9759 46.7548L31.7892 40.4488ZM23.4159 35.0702H30.1892C30.0292 34.5138 29.8159 33.8514 29.5759 33.1625C29.3359 32.4736 29.0959 31.6787 28.8559 30.8839C28.6159 30.089 28.3492 29.2676 28.0825 28.4463C27.8159 27.6249 27.5759 26.8565 27.3625 26.0881C27.1492 25.3198 26.9625 24.6574 26.7759 24.0215H26.7225C26.4829 25.1763 26.1802 26.3173 25.8159 27.4394C25.4159 28.7112 25.0159 30.036 24.5892 31.3608C24.2159 32.7121 23.8159 33.9574 23.4159 35.0702Z" fill="#88C0D0"/>
<path d="M46.0559 23.6505C45.6181 23.66 45.1829 23.583 44.7754 23.4238C44.368 23.2645 43.9965 23.0264 43.6825 22.7232C43.0716 22.0594 42.7462 21.1846 42.7759 20.2856C42.7601 19.8476 42.8375 19.4112 43.0029 19.0048C43.1683 18.5985 43.4181 18.2314 43.7359 17.9275C44.3768 17.3255 45.2273 16.9932 46.1092 17.0001C47.1492 17.0001 47.9492 17.3181 48.5359 17.9275C49.1266 18.5699 49.4423 19.4157 49.4159 20.2856C49.4321 20.7332 49.3579 21.1796 49.1976 21.5983C49.0373 22.017 48.7942 22.3995 48.4825 22.7232C48.1683 23.0412 47.7891 23.2885 47.3705 23.4485C46.9519 23.6085 46.5036 23.6774 46.0559 23.6505ZM43.0692 46.6488V26.2471C43.0692 25.9822 43.1759 25.8762 43.4159 25.8762H48.6959C48.9359 25.8762 49.0425 26.0087 49.0425 26.2471V46.6488C49.0425 46.9403 48.9359 47.0728 48.6959 47.0728H43.4692C43.4132 47.0773 43.3568 47.0693 43.3043 47.0492C43.2518 47.0291 43.2046 46.9975 43.1662 46.9568C43.1277 46.916 43.099 46.8671 43.0822 46.8138C43.0654 46.7605 43.061 46.7041 43.0692 46.6488Z" fill="#88C0D0"/>
</g>
<defs>
<clipPath id="clip0_23_138">
<rect width="64" height="64" fill="white"/>
</clipPath>
</defs>
</svg>
