<svg width="64" height="64" viewBox="0 0 64 64" fill="none" xmlns="http://www.w3.org/2000/svg">
<g clip-path="url(#clip0_23_169)">
<path d="M11.3333 5.07914e-06H52.6667C54.1554 -0.00141188 55.6297 0.293657 57.0054 0.868326C58.3811 1.44299 59.631 2.28598 60.6837 3.34904C61.7363 4.4121 62.5711 5.67436 63.1402 7.06358C63.7092 8.4528 64.0014 9.94171 64 11.4451V51.5703C64.0014 53.0737 63.7092 54.5626 63.1402 55.9518C62.5711 57.341 61.7363 58.6033 60.6837 59.6663C59.631 60.7294 58.3811 61.5724 57.0054 62.1471C55.6297 62.7217 54.1554 63.0168 52.6667 63.0154H11.3333C9.84463 63.0168 8.37026 62.7217 6.9946 62.1471C5.61894 61.5724 4.36901 60.7294 3.31633 59.6663C2.26366 58.6033 1.4289 57.341 0.859846 55.9518C0.29079 54.5626 -0.00139809 53.0737 5.02953e-06 51.5703V11.4451C-0.00139809 9.94171 0.29079 8.4528 0.859846 7.06358C1.4289 5.67436 2.26366 4.4121 3.31633 3.34904C4.36901 2.28598 5.61894 1.44299 6.9946 0.868326C8.37026 0.293657 9.84463 -0.00141188 11.3333 5.07914e-06Z" fill="#88C0D0"/>
<path d="M11.3333 5.07914e-06H52.6667C54.1554 -0.00141188 55.6297 0.293657 57.0054 0.868326C58.3811 1.44299 59.631 2.28598 60.6837 3.34904C61.7363 4.4121 62.5711 5.67436 63.1402 7.06358C63.7092 8.4528 64.0014 9.94171 64 11.4451V51.5703C64.0014 53.0737 63.7092 54.5626 63.1402 55.9518C62.5711 57.341 61.7363 58.6033 60.6837 59.6663C59.631 60.7294 58.3811 61.5724 57.0054 62.1471C55.6297 62.7217 54.1554 63.0168 52.6667 63.0154H11.3333C9.84463 63.0168 8.37026 62.7217 6.9946 62.1471C5.61894 61.5724 4.36901 60.7294 3.31633 59.6663C2.26366 58.6033 1.4289 57.341 0.859846 55.9518C0.29079 54.5626 -0.00139809 53.0737 5.02953e-06 51.5703V11.4451C-0.00139809 9.94171 0.29079 8.4528 0.859846 7.06358C1.4289 5.67436 2.26366 4.4121 3.31633 3.34904C4.36901 2.28598 5.61894 1.44299 6.9946 0.868326C8.37026 0.293657 9.84463 -0.00141188 11.3333 5.07914e-06Z" fill="black" fill-opacity="0.7"/>
<path d="M21.9733 20.9974C21.0778 20.0392 19.9743 19.2962 18.7467 18.8248C17.1691 18.2442 15.4952 17.9655 13.8133 18.0034C13.0933 18.0034 12.3733 18.0034 11.6267 18.0299C10.88 18.0564 10.1867 18.0564 9.54667 18.0829C8.90667 18.1094 8.26667 18.1094 7.70667 18.1359C7.14667 18.1624 6.64 18.1624 6.24 18.1624C6.08 18.1624 6 18.2684 6 18.4538V45.559C6 45.7974 6.08 45.9034 6.26667 45.9034H10.9867C11.2267 45.9034 11.3333 45.7709 11.3333 45.5325V37.2658C11.7867 37.2658 12.1333 37.2658 12.3733 37.2923C12.6133 37.3188 13.0133 37.3188 13.5733 37.3188C15.427 37.3416 17.2668 36.9994 18.9867 36.3119C20.5781 35.6661 21.929 34.5461 22.8533 33.106C23.8133 31.6222 24.2933 29.741 24.2933 27.4889C24.2899 26.3207 24.1101 25.1596 23.76 24.0444C23.3779 22.9192 22.7701 21.8826 21.9733 20.9974ZM18.2667 30.2974C17.7632 30.9492 17.0765 31.4379 16.2933 31.7017C15.401 32.0032 14.4623 32.1467 13.52 32.1256H12.24C11.9467 32.1256 11.6533 32.0991 11.3067 32.0726V23.2761C11.6267 23.2496 11.9733 23.2231 12.2933 23.2231C12.7733 23.1966 13.3067 23.1966 13.9467 23.1966C14.9158 23.1749 15.8788 23.3554 16.7733 23.7265C17.4729 24.0514 18.0582 24.5775 18.4533 25.2367C18.8506 25.9582 19.0441 26.773 19.0133 27.5949C19.0133 28.7342 18.7733 29.635 18.2667 30.2974Z" fill="#88C0D0"/>
<path d="M36.72 34.6427C35.5821 33.8436 34.3452 33.1935 33.04 32.7085C32.4533 32.4436 31.8933 32.1521 31.3333 31.8342C31.0192 31.6539 30.7467 31.4102 30.5333 31.1188C30.3986 30.9117 30.3163 30.6754 30.2933 30.4299C30.286 30.1787 30.3507 29.9306 30.48 29.7145C30.6591 29.4568 30.9232 29.2694 31.2267 29.1846C31.6932 29.045 32.1797 28.9824 32.6667 28.9991C33.5759 28.9945 34.4816 29.1103 35.36 29.3436C36.1257 29.5215 36.8559 29.826 37.52 30.2444C37.5596 30.2703 37.6059 30.2841 37.6533 30.2841C37.7007 30.2841 37.7471 30.2703 37.7867 30.2444C37.828 30.215 37.8601 30.1744 37.879 30.1274C37.8979 30.0805 37.9029 30.0291 37.8933 29.9795V25.6872C37.8977 25.5805 37.8888 25.4737 37.8667 25.3692C37.8454 25.3152 37.813 25.2661 37.7717 25.2251C37.7304 25.184 37.681 25.1519 37.6267 25.1307C37.048 24.8139 36.415 24.6073 35.76 24.5213C34.7725 24.362 33.7737 24.2822 32.7733 24.2829C31.0667 24.2829 29.6533 24.6008 28.5333 25.2102C27.478 25.7646 26.6072 26.6114 26.0267 27.6478C25.4851 28.6296 25.2094 29.7344 25.2267 30.8538C25.2244 31.7833 25.415 32.7034 25.7867 33.5564C26.2063 34.4298 26.8276 35.1924 27.6 35.782C28.6349 36.5847 29.7856 37.2278 31.0133 37.6897C32.1867 38.1666 32.9867 38.5906 33.36 38.935C33.5294 39.0588 33.6696 39.2177 33.7709 39.4007C33.8722 39.5837 33.9322 39.7865 33.9467 39.9949C33.9515 40.2206 33.8946 40.4433 33.7818 40.6394C33.6691 40.8354 33.5048 40.9972 33.3067 41.1077C32.88 41.3726 32.2133 41.4786 31.3067 41.4786C30.3524 41.4523 29.4042 41.319 28.48 41.0812C27.4947 40.8123 26.5649 40.3728 25.7333 39.7829C25.704 39.7587 25.6683 39.7434 25.6306 39.7387C25.5928 39.734 25.5544 39.7402 25.52 39.7564C25.483 39.7836 25.4538 39.8199 25.4351 39.8617C25.4164 39.9035 25.4089 39.9493 25.4133 39.9949V44.6051C25.4069 44.7053 25.4284 44.8053 25.4754 44.8941C25.5225 44.9829 25.5933 45.0571 25.68 45.1085C26.3676 45.5065 27.1148 45.7928 27.8933 45.9564C28.9617 46.1901 30.0528 46.3057 31.1467 46.3008C32.88 46.3008 34.32 46.0094 35.4933 45.453C36.6077 44.9514 37.5457 44.1302 38.1867 43.0949C38.8263 42.0313 39.1499 40.8095 39.12 39.5709C39.1354 38.6316 38.9443 37.7002 38.56 36.8419C38.1561 35.9582 37.5206 35.1987 36.72 34.6427Z" fill="#88C0D0"/>
<path d="M58.6933 45.188L51.8667 32.9735L58.24 21.4743C58.2925 21.4182 58.3259 21.347 58.3355 21.2709C58.345 21.1949 58.3303 21.1177 58.2933 21.0504C58.2612 20.9749 58.204 20.9126 58.1311 20.874C58.0583 20.8354 57.9744 20.8229 57.8933 20.8385H53.36C53.218 20.8231 53.0754 20.8608 52.96 20.9444C52.8676 21.0298 52.8027 21.1404 52.7733 21.2624C52.32 22.2692 51.8133 23.1436 51.3333 24.1504C50.8533 25.1573 50.3467 26.1641 49.8933 27.1444C49.4667 28.0188 49.04 28.9461 48.64 29.8735C48.24 28.9726 47.8133 28.0718 47.36 27.1974C46.8267 26.1906 46.32 25.1838 45.8133 24.1769C45.3067 23.1701 44.8533 22.2692 44.4267 21.2094C44.3611 21.0939 44.2632 20.9999 44.1448 20.9388C44.0265 20.8776 43.8928 20.852 43.76 20.8649H38.88C38.8138 20.8631 38.748 20.8765 38.6879 20.904C38.6278 20.9316 38.5749 20.9726 38.5333 21.0239C38.4916 21.0881 38.4717 21.164 38.4765 21.2402C38.4813 21.3165 38.5105 21.3893 38.56 21.4479L45.0133 33.3709L38.4 45.2145C38.3609 45.2672 38.3336 45.3275 38.3198 45.3914C38.306 45.4554 38.3061 45.5215 38.32 45.5855C38.3214 45.6291 38.3315 45.672 38.3497 45.7117C38.3679 45.7514 38.394 45.7871 38.4262 45.8167C38.4585 45.8463 38.4964 45.8692 38.5377 45.8841C38.5789 45.899 38.6228 45.9055 38.6667 45.9034H43.3867C43.5288 45.9109 43.6693 45.8705 43.7855 45.7888C43.9016 45.707 43.9866 45.5887 44.0267 45.453C44.5333 44.4461 45.04 43.5983 45.52 42.5914C46 41.5846 46.48 40.5778 46.9867 39.5709C47.4133 38.6701 47.8667 37.7427 48.2667 36.8419C48.72 37.7692 49.1733 38.6966 49.6533 39.6239C50.16 40.6308 50.6667 41.6376 51.12 42.6179C51.5733 43.5983 52.0533 44.4461 52.5067 45.4265C52.594 45.5796 52.7226 45.7055 52.8782 45.7898C53.0337 45.874 53.2098 45.9134 53.3867 45.9034H58.32C58.4065 45.9049 58.4908 45.8767 58.5588 45.8236C58.6268 45.7705 58.6743 45.6958 58.6933 45.612C58.7264 45.5461 58.7437 45.4736 58.7437 45.4C58.7437 45.3264 58.7264 45.2538 58.6933 45.188Z" fill="#88C0D0"/>
</g>
<defs>
<clipPath id="clip0_23_169">
<rect width="64" height="64" fill="white"/>
</clipPath>
</defs>
</svg>
