<svg width="64" height="64" viewBox="0 0 64 64" fill="none" xmlns="http://www.w3.org/2000/svg">
<g clip-path="url(#clip0_23_27)">
<path d="M11.3333 5.07914e-06H52.6667C54.1554 -0.00141188 55.6297 0.293657 57.0054 0.868326C58.3811 1.44299 59.631 2.28598 60.6837 3.34904C61.7363 4.4121 62.5711 5.67436 63.1402 7.06358C63.7092 8.4528 64.0014 9.94171 64 11.4451V51.5703C64.0014 53.0737 63.7092 54.5626 63.1402 55.9518C62.5711 57.341 61.7363 58.6033 60.6837 59.6663C59.631 60.7294 58.3811 61.5724 57.0054 62.1471C55.6297 62.7217 54.1554 63.0168 52.6667 63.0154H11.3333C9.84463 63.0168 8.37026 62.7217 6.9946 62.1471C5.61894 61.5724 4.36901 60.7294 3.31633 59.6663C2.26366 58.6033 1.4289 57.341 0.859846 55.9518C0.29079 54.5626 -0.00139809 53.0737 5.02953e-06 51.5703V11.4451C-0.00139809 9.94171 0.29079 8.4528 0.859846 7.06358C1.4289 5.67436 2.26366 4.4121 3.31633 3.34904C4.36901 2.28598 5.61894 1.44299 6.9946 0.868326C8.37026 0.293657 9.84463 -0.00141188 11.3333 5.07914e-06Z" fill="#88C0D0"/>
<path d="M11.3333 5.07914e-06H52.6667C54.1554 -0.00141188 55.6297 0.293657 57.0054 0.868326C58.3811 1.44299 59.631 2.28598 60.6837 3.34904C61.7363 4.4121 62.5711 5.67436 63.1402 7.06358C63.7092 8.4528 64.0014 9.94171 64 11.4451V51.5703C64.0014 53.0737 63.7092 54.5626 63.1402 55.9518C62.5711 57.341 61.7363 58.6033 60.6837 59.6663C59.631 60.7294 58.3811 61.5724 57.0054 62.1471C55.6297 62.7217 54.1554 63.0168 52.6667 63.0154H11.3333C9.84463 63.0168 8.37026 62.7217 6.9946 62.1471C5.61894 61.5724 4.36901 60.7294 3.31633 59.6663C2.26366 58.6033 1.4289 57.341 0.859846 55.9518C0.29079 54.5626 -0.00139809 53.0737 5.02953e-06 51.5703V11.4451C-0.00139809 9.94171 0.29079 8.4528 0.859846 7.06358C1.4289 5.67436 2.26366 4.4121 3.31633 3.34904C4.36901 2.28598 5.61894 1.44299 6.9946 0.868326C8.37026 0.293657 9.84463 -0.00141188 11.3333 5.07914e-06Z" fill="black" fill-opacity="0.7"/>
<path d="M28.7892 39.1701H18.8692L16.8425 45.4231C16.8199 45.5366 16.7554 45.6375 16.6616 45.7062C16.5679 45.7748 16.4517 45.8061 16.3359 45.794H11.3225C11.0292 45.794 10.9492 45.635 11.0292 45.3171L19.6159 20.835C19.6959 20.5701 19.7759 20.3316 19.8825 20.0137C19.9899 19.4458 20.0434 18.8692 20.0425 18.2915C20.0346 18.2251 20.0521 18.1582 20.0917 18.1041C20.1312 18.0501 20.1899 18.0129 20.2559 18H27.1625C27.3759 18 27.4825 18.0795 27.5092 18.212L37.2425 45.3701C37.3225 45.6615 37.2425 45.794 36.9759 45.794H31.4025C31.3083 45.803 31.2139 45.7788 31.1358 45.7255C31.0578 45.6722 31.0012 45.5932 30.9759 45.5026L28.7892 39.1701ZM20.4159 33.8974H27.1892C27.0292 33.341 26.8159 32.6786 26.5759 31.9897C26.3359 31.3009 26.0959 30.506 25.8559 29.7111C25.6159 28.9162 25.3492 28.0949 25.0825 27.2735C24.8159 26.4521 24.5759 25.6838 24.3625 24.9154C24.1492 24.147 23.9625 23.4846 23.7759 22.8487H23.7225C23.4829 24.0035 23.1802 25.1445 22.8159 26.2667C22.4159 27.5385 22.0159 28.8632 21.5892 30.188C21.2159 31.5393 20.8159 32.7846 20.4159 33.8974Z" fill="#88C0D0"/>
<path d="M40.0959 24.5974H44.7626C44.889 24.6005 45.0112 24.6431 45.1117 24.7192C45.2123 24.7953 45.2861 24.9011 45.3226 25.0214C45.4216 25.2415 45.4932 25.4729 45.5359 25.7102C45.5893 25.9752 45.6426 26.2667 45.6693 26.5316C45.6959 26.7966 45.7226 27.141 45.7226 27.4855C46.5233 26.5567 47.4908 25.784 48.5759 25.2068C49.7368 24.552 51.0547 24.2223 52.3893 24.253C52.4331 24.2471 52.4778 24.25 52.5205 24.2615C52.5632 24.2731 52.6032 24.293 52.638 24.3202C52.6728 24.3474 52.7018 24.3812 52.7232 24.4198C52.7446 24.4583 52.758 24.5007 52.7626 24.5444V29.8171C52.7626 30.0291 52.6293 30.1085 52.3359 30.1085C51.4427 30.0514 50.5458 30.1138 49.6693 30.294C48.8989 30.452 48.148 30.6919 47.4293 31.0094C46.8159 31.3008 46.1493 31.6188 45.8293 31.9897V45.4231C45.8293 45.688 45.7226 45.794 45.4826 45.794H40.4693C40.4201 45.8022 40.3697 45.8005 40.3212 45.7888C40.2728 45.7771 40.2272 45.7557 40.1873 45.726C40.1474 45.6962 40.114 45.6587 40.0891 45.6158C40.0642 45.5728 40.0484 45.5253 40.0426 45.4761V30.7974C40.0426 30.1615 40.0426 29.4991 40.0159 28.8102C39.9893 28.1214 39.9893 27.4325 39.9626 26.7436C39.9359 26.1342 39.8826 25.4983 39.8026 24.8889C39.7955 24.8576 39.7947 24.8252 39.8003 24.7935C39.8059 24.7619 39.8176 24.7317 39.835 24.7046C39.8523 24.6775 39.8749 24.6541 39.9014 24.6357C39.9278 24.6173 39.9577 24.6043 39.9893 24.5974H40.0959Z" fill="#88C0D0"/>
</g>
<defs>
<clipPath id="clip0_23_27">
<rect width="64" height="64" fill="white"/>
</clipPath>
</defs>
</svg>
