<svg width="64" height="64" viewBox="0 0 64 64" fill="none" xmlns="http://www.w3.org/2000/svg">
<g clip-path="url(#clip0_23_162)">
<path d="M11.3333 5.07914e-06H52.6667C54.1554 -0.00141188 55.6297 0.293657 57.0054 0.868326C58.3811 1.44299 59.631 2.28598 60.6837 3.34904C61.7363 4.4121 62.5711 5.67436 63.1402 7.06358C63.7092 8.4528 64.0014 9.94171 64 11.4451V51.5703C64.0014 53.0737 63.7092 54.5626 63.1402 55.9518C62.5711 57.341 61.7363 58.6033 60.6837 59.6663C59.631 60.7294 58.3811 61.5724 57.0054 62.1471C55.6297 62.7217 54.1554 63.0168 52.6667 63.0154H11.3333C9.84463 63.0168 8.37026 62.7217 6.9946 62.1471C5.61894 61.5724 4.36901 60.7294 3.31633 59.6663C2.26366 58.6033 1.4289 57.341 0.859846 55.9518C0.29079 54.5626 -0.00139809 53.0737 5.02953e-06 51.5703V11.4451C-0.00139809 9.94171 0.29079 8.4528 0.859846 7.06358C1.4289 5.67436 2.26366 4.4121 3.31633 3.34904C4.36901 2.28598 5.61894 1.44299 6.9946 0.868326C8.37026 0.293657 9.84463 -0.00141188 11.3333 5.07914e-06Z" fill="#88C0D0"/>
<path d="M11.3333 5.07914e-06H52.6667C54.1554 -0.00141188 55.6297 0.293657 57.0054 0.868326C58.3811 1.44299 59.631 2.28598 60.6837 3.34904C61.7363 4.4121 62.5711 5.67436 63.1402 7.06358C63.7092 8.4528 64.0014 9.94171 64 11.4451V51.5703C64.0014 53.0737 63.7092 54.5626 63.1402 55.9518C62.5711 57.341 61.7363 58.6033 60.6837 59.6663C59.631 60.7294 58.3811 61.5724 57.0054 62.1471C55.6297 62.7217 54.1554 63.0168 52.6667 63.0154H11.3333C9.84463 63.0168 8.37026 62.7217 6.9946 62.1471C5.61894 61.5724 4.36901 60.7294 3.31633 59.6663C2.26366 58.6033 1.4289 57.341 0.859846 55.9518C0.29079 54.5626 -0.00139809 53.0737 5.02953e-06 51.5703V11.4451C-0.00139809 9.94171 0.29079 8.4528 0.859846 7.06358C1.4289 5.67436 2.26366 4.4121 3.31633 3.34904C4.36901 2.28598 5.61894 1.44299 6.9946 0.868326C8.37026 0.293657 9.84463 -0.00141188 11.3333 5.07914e-06Z" fill="black" fill-opacity="0.7"/>
<path d="M32.3363 45.9305H15.4297C15.1363 45.9305 15.003 45.7715 15.003 45.4536V18.375C14.997 18.3314 15 18.287 15.0116 18.2446C15.0232 18.2021 15.0433 18.1624 15.0707 18.1278C15.098 18.0932 15.1321 18.0644 15.1709 18.0432C15.2096 18.0219 15.2523 18.0086 15.2963 18.004H20.6297C20.663 17.998 20.6973 17.9987 20.7303 18.0062C20.7634 18.0137 20.7946 18.0278 20.822 18.0476C20.8494 18.0675 20.8725 18.0926 20.8899 18.1215C20.9072 18.1505 20.9185 18.1826 20.923 18.216V40.5519H33.243C33.5097 40.5519 33.5897 40.6844 33.5363 40.9228L32.763 45.5331C32.7588 45.594 32.7425 45.6534 32.7151 45.708C32.6876 45.7626 32.6495 45.8112 32.603 45.851C32.5248 45.9048 32.4314 45.9326 32.3363 45.9305Z" fill="#88C0D0"/>
<path d="M36.603 24.7339H41.2697C41.3961 24.737 41.5183 24.7796 41.6188 24.8557C41.7194 24.9318 41.7932 25.0376 41.8297 25.1579C41.9399 25.3453 42.0124 25.5523 42.043 25.7673C42.0963 26.0322 42.1497 26.3237 42.1763 26.5886C42.203 26.8536 42.2297 27.198 42.2297 27.5425C43.0304 26.6137 43.9979 25.841 45.083 25.2639C46.3013 24.6077 47.6709 24.2789 49.0563 24.31C49.1002 24.3041 49.1448 24.307 49.1876 24.3185C49.2303 24.3301 49.2703 24.35 49.3051 24.3772C49.3399 24.4044 49.3689 24.4383 49.3903 24.4768C49.4117 24.5153 49.4251 24.5577 49.4297 24.6015V29.8741C49.4297 30.0861 49.2963 30.1656 49.003 30.1656C47.2748 30.0627 45.5468 30.3716 43.963 31.0664C43.4229 31.296 42.9335 31.6292 42.523 32.0468V45.5596C42.523 45.8245 42.4163 45.9305 42.1763 45.9305H36.9763C36.9271 45.9388 36.8768 45.937 36.8283 45.9253C36.7798 45.9136 36.7343 45.8922 36.6944 45.8625C36.6545 45.8327 36.6211 45.7953 36.5962 45.7523C36.5713 45.7093 36.5555 45.6618 36.5497 45.6126V30.828C36.5497 30.1921 36.5497 29.5297 36.523 28.8408C36.4963 28.1519 36.4963 27.463 36.4697 26.7741C36.443 26.1912 36.3897 25.6083 36.3097 25.0254C36.3026 24.9941 36.3018 24.9617 36.3074 24.9301C36.3129 24.8984 36.3247 24.8682 36.3421 24.8411C36.3594 24.8141 36.382 24.7906 36.4084 24.7722C36.4349 24.7539 36.4648 24.7408 36.4963 24.7339C36.523 24.7074 36.5497 24.7074 36.603 24.7339Z" fill="#88C0D0"/>
</g>
<defs>
<clipPath id="clip0_23_162">
<rect width="64" height="64" fill="white"/>
</clipPath>
</defs>
</svg>
