<svg width="64" height="64" viewBox="0 0 64 64" fill="none" xmlns="http://www.w3.org/2000/svg">
<g clip-path="url(#clip0_17_11)">
<path d="M24.2742 63.851C23.1937 63.5943 22.2895 62.9952 21.024 61.697C18.9101 59.5289 17.1946 58.6256 14.213 58.1128C11.1199 57.5803 9.74543 56.4301 8.91908 53.6847C7.89906 50.2949 6.83295 48.6716 4.49046 46.9414C1.83318 44.9786 1.1514 43.2478 1.79999 40.1113C2.40072 37.2062 2.17068 35.1408 0.950624 32.4852C-0.505068 29.3167 -0.325367 27.6236 1.74214 25.0278C3.63756 22.6479 4.23247 21.0749 4.51635 17.6923C4.8028 14.2787 5.75253 12.8783 8.54951 11.7449C10.8839 10.799 12.8809 9.15704 13.988 7.27315C15.2683 5.09468 15.4552 4.84493 16.2484 4.25315C17.5285 3.29807 18.5635 3.03341 20.5346 3.157C23.9586 3.37169 25.7937 2.96061 28.0931 1.46374C31.091 -0.487915 32.9088 -0.487915 35.9069 1.46374C38.2062 2.96061 40.0414 3.37169 43.4653 3.157C46.7032 2.95395 48.0505 3.80395 50.0241 7.29489C51.0022 9.02493 53.0012 10.7086 55.1896 11.645C58.3058 12.9787 59.2113 14.1959 59.4413 17.3592C59.6903 20.785 60.3926 22.7005 62.2533 25.0278C64.3253 27.619 64.5061 29.3136 63.049 32.4852C61.8295 35.1408 61.599 37.2062 62.1998 40.1113C62.8486 43.2478 62.1665 44.9786 59.5095 46.9414C57.1671 48.6716 56.1011 50.2949 55.0809 53.6847C54.2546 56.4301 52.88 57.5803 49.7869 58.1128C46.799 58.6267 45.0816 59.5327 42.976 61.7041C40.6418 64.1115 38.9685 64.5085 35.7052 63.4299C33.0362 62.5474 30.9813 62.5435 28.3229 63.4163C26.4607 64.0274 25.4681 64.1339 24.2742 63.851Z" fill="#88C0D0"/>
<path d="M43.1316 30.1695C42.9202 29.7713 43.1014 29.2936 43.5326 29.0985C43.9638 28.9035 44.4813 29.0707 44.6926 29.4688C44.9039 29.8669 44.7228 30.3447 44.2915 30.5397C43.8603 30.7348 43.3429 30.5676 43.1316 30.1695ZM47.3274 38.1318C47.1161 37.7337 47.2971 37.2559 47.7284 37.0609C48.1596 36.8658 48.6771 37.033 48.8884 37.4311C49.0997 37.8292 48.9186 38.3069 48.4874 38.502C48.0561 38.6971 47.5386 38.5299 47.3274 38.1318ZM47.6939 27.8007C44.9341 25.9813 41.3333 25.5116 38 26.7019L47.1117 44C50.182 42.316 52.002 39.4058 52.1572 36.2806L55.6155 36.5075C55.8136 36.5194 55.9866 36.3841 55.9992 36.1969C56.0124 36.0138 55.8657 35.8545 55.663 35.8426L52.1612 35.6117C52.1269 34.2502 51.7735 32.8608 51.0703 31.5231C50.3675 30.1894 49.4016 29.0747 48.2631 28.2068L50.2295 25.5195C50.3416 25.3682 50.2985 25.1612 50.1346 25.0577C49.9708 24.9542 49.7465 24.994 49.6344 25.1453L47.6939 27.7967" fill="#88C0D0"/>
<path d="M43.1316 30.1695C42.9202 29.7713 43.1014 29.2936 43.5326 29.0985C43.9638 28.9035 44.4813 29.0707 44.6926 29.4688C44.9039 29.8669 44.7228 30.3447 44.2915 30.5397C43.8603 30.7348 43.3429 30.5676 43.1316 30.1695ZM47.3274 38.1318C47.1161 37.7337 47.2971 37.2559 47.7284 37.0609C48.1596 36.8658 48.6771 37.033 48.8884 37.4311C49.0997 37.8292 48.9186 38.3069 48.4874 38.502C48.0561 38.6971 47.5386 38.5299 47.3274 38.1318ZM47.6939 27.8007C44.9341 25.9813 41.3333 25.5116 38 26.7019L47.1117 44C50.182 42.316 52.002 39.4058 52.1572 36.2806L55.6155 36.5075C55.8136 36.5194 55.9866 36.3841 55.9992 36.1969C56.0124 36.0138 55.8657 35.8545 55.663 35.8426L52.1612 35.6117C52.1269 34.2502 51.7735 32.8608 51.0703 31.5231C50.3675 30.1894 49.4016 29.0747 48.2631 28.2068L50.2295 25.5195C50.3416 25.3682 50.2985 25.1612 50.1346 25.0577C49.9708 24.9542 49.7465 24.994 49.6344 25.1453L47.6939 27.7967" fill="black" fill-opacity="0.7"/>
<path d="M40.0575 33.9545C37.5647 35.1721 34.8836 35.7894 32.0897 35.7894C25.795 35.7894 20.0775 32.5594 16.744 27.4184C16.4805 27.0125 15.9368 26.9152 15.5478 27.2027L12.3398 29.5914C11.9759 29.862 11.8923 30.3778 12.1474 30.7583C16.5265 37.3664 23.9421 41.5054 32.0897 41.5054C35.7411 41.5054 39.2502 40.6979 42.5168 39.104L40.0575 33.9545Z" fill="#88C0D0"/>
<path d="M33.7963 13.6315V9.75453C33.7963 8.78637 33.0183 8 32.0605 8C31.1027 8 30.3247 8.78637 30.3247 9.75453V13.6315H33.7963Z" fill="#88C0D0"/>
<path d="M48.9244 47.7372C48.9118 47.1411 48.7696 46.5577 48.5145 46.0208L36.5817 21.195L32.0813 23.8501L43.8426 48.3165C44.1019 48.8534 44.47 49.3227 44.9259 49.7032L47.4103 51.7664C48.0544 52.2991 49.0206 51.8255 48.9997 50.9842L48.9286 47.733L48.9244 47.7372Z" fill="#88C0D0"/>
<path d="M27.5433 21.1993L15.6105 46.025C15.3512 46.5619 15.2132 47.1453 15.2006 47.7415L15.1295 50.9927C15.1127 51.834 16.0748 52.3075 16.7188 51.7748L19.2033 49.7117C19.6592 49.3354 20.0272 48.8619 20.2866 48.325L32.0478 23.8501L27.5474 21.2035L27.5433 21.1993Z" fill="#88C0D0"/>
<path d="M32.0603 13.3228C29.1869 13.3228 26.8531 15.6862 26.8531 18.5865C26.8531 21.4868 29.1911 23.8501 32.0603 23.8501C34.9295 23.8501 37.2676 21.4868 37.2676 18.5865C37.2676 15.6862 34.9295 13.3228 32.0603 13.3228ZM32.0603 21.4825C30.4835 21.4825 29.1953 20.1846 29.1953 18.5865C29.1953 16.9884 30.4793 15.6904 32.0603 15.6904C33.6413 15.6904 34.9253 16.9884 34.9253 18.5865C34.9253 20.1846 33.6413 21.4825 32.0603 21.4825Z" fill="#88C0D0"/>
<path fill-rule="evenodd" clip-rule="evenodd" d="M37.4375 34.9923C35.7181 35.5221 33.9283 35.7894 32.0897 35.7894C30.2276 35.7894 28.4159 35.5067 26.7016 34.9755L24.2077 40.1653C26.6939 41.0376 29.3504 41.5054 32.0897 41.5054C34.7958 41.5054 37.4239 41.0619 39.9329 40.1834L37.4375 34.9923ZM16.744 27.4184C18.1275 29.552 19.9216 31.3565 21.9972 32.7376L19.5093 37.9135C16.5971 36.1033 14.0773 33.6706 12.1474 30.7583C11.8923 30.3778 11.9759 29.862 12.3398 29.5915L15.5478 27.2027C15.9368 26.9152 16.4805 27.0125 16.744 27.4184Z" fill="black" fill-opacity="0.5"/>
<path fill-rule="evenodd" clip-rule="evenodd" d="M33.7962 9.75453V13.6241C33.2529 13.429 32.6686 13.3228 32.0603 13.3228C31.4519 13.3228 30.8677 13.4288 30.3247 13.6233V9.75453C30.3247 8.78637 31.1027 8 32.0605 8C33.0183 8 33.7962 8.78637 33.7962 9.75453Z" fill="black" fill-opacity="0.5"/>
<path fill-rule="evenodd" clip-rule="evenodd" d="M48.9243 47.7372C48.9118 47.1411 48.7696 46.5577 48.5145 46.0208L36.5807 21.1956C35.6849 22.774 34.0035 23.8424 32.0813 23.8501L37.4375 34.9923C38.3308 34.717 39.2051 34.3709 40.0575 33.9545L42.5168 39.104C41.6712 39.5166 40.8093 39.8765 39.9329 40.1834L43.8426 48.3165C44.1019 48.8534 44.47 49.3227 44.9259 49.7032L47.4103 51.7664C48.0544 52.2991 49.0206 51.8255 48.9997 50.9842L48.9243 47.7372Z" fill="black" fill-opacity="0.5"/>
<path fill-rule="evenodd" clip-rule="evenodd" d="M27.5427 21.2005C28.4405 22.7785 30.124 23.8455 32.0478 23.8501L26.7016 34.9755C25.0259 34.4563 23.4433 33.6997 21.9972 32.7376L27.5427 21.2005ZM19.5093 37.9135L15.6105 46.025C15.3512 46.5619 15.2132 47.1454 15.2006 47.7415L15.1295 50.9927C15.1127 51.834 16.0748 52.3075 16.7188 51.7748L19.2033 49.7117C19.6592 49.3354 20.0272 48.8619 20.2866 48.325L24.2077 40.1653C22.558 39.5866 20.9834 38.8298 19.5093 37.9135Z" fill="black" fill-opacity="0.5"/>
<path fill-rule="evenodd" clip-rule="evenodd" d="M26.8531 18.5865C26.8531 16.3013 28.3046 14.3484 30.3247 13.6233L33.7962 13.6241C35.8145 14.3497 37.2676 16.3019 37.2676 18.5865C37.2676 19.5349 37.0175 20.4259 36.5807 21.1956L32.0813 23.8501H32.0603L32.0478 23.8501L29.7976 22.5268L27.5427 21.2005C27.1044 20.4298 26.8531 19.5366 26.8531 18.5865ZM29.1953 18.5865C29.1953 20.1846 30.4835 21.4825 32.0603 21.4825C33.6413 21.4825 34.9253 20.1846 34.9253 18.5865C34.9253 16.9884 33.6413 15.6904 32.0603 15.6904C30.4793 15.6904 29.1953 16.9884 29.1953 18.5865Z" fill="black" fill-opacity="0.5"/>
<path d="M27.5427 21.2005L29.7976 22.5268L32.0478 23.8501C30.124 23.8455 28.4405 22.7785 27.5427 21.2005Z" fill="black" fill-opacity="0.5"/>
<path fill-rule="evenodd" clip-rule="evenodd" d="M36.5807 21.1956L32.0813 23.8501C34.0035 23.8424 35.6849 22.774 36.5807 21.1956Z" fill="black" fill-opacity="0.5"/>
<path fill-rule="evenodd" clip-rule="evenodd" d="M21.9972 32.7376C23.4433 33.6997 25.0259 34.4563 26.7016 34.9755L24.2077 40.1653C22.558 39.5866 20.9834 38.8298 19.5093 37.9135L21.9972 32.7376Z" fill="black" fill-opacity="0.5"/>
<path fill-rule="evenodd" clip-rule="evenodd" d="M37.4375 34.9923C38.3308 34.717 39.2051 34.3709 40.0575 33.9545L42.5168 39.104C41.6712 39.5166 40.8093 39.8765 39.9329 40.1834L37.4375 34.9923Z" fill="black" fill-opacity="0.5"/>
<path fill-rule="evenodd" clip-rule="evenodd" d="M33.7962 13.6241L30.3247 13.6233C30.8677 13.4288 31.4519 13.3228 32.0603 13.3228C32.6686 13.3228 33.2529 13.429 33.7962 13.6241Z" fill="black" fill-opacity="0.5"/>
</g>
<defs>
<clipPath id="clip0_17_11">
<rect width="64" height="64" fill="white"/>
</clipPath>
</defs>
</svg>
