<svg width="64" height="64" viewBox="0 0 64 64" fill="none" xmlns="http://www.w3.org/2000/svg">
<g clip-path="url(#clip0_7_619)">
<path d="M48.9082 0H15.0918C6.75682 0 0 6.75682 0 15.0918V48.9082C0 57.2432 6.75682 64 15.0918 64H48.9082C57.2432 64 64 57.2432 64 48.9082V15.0918C64 6.75682 57.2432 0 48.9082 0Z" fill="#88C0D0"/>
<path d="M55 32C55 25.9302 49.9084 21.0004 43.6676 21.0004C43.0852 20.9952 42.5033 21.0382 41.9278 21.1289C37.0756 21.8194 33.8196 25.336 32 28.0338C30.1804 25.336 26.9244 21.8194 22.0722 21.1289C21.4958 21.0462 20.9146 21.0033 20.3324 21.0004C14.0757 21.0004 9 25.9302 9 32C9 38.0699 14.0916 42.9997 20.3324 42.9997C20.9201 43.0043 21.5073 42.9613 22.0881 42.8712C26.9403 42.1647 30.1964 38.648 32.016 35.9503C33.8355 38.648 37.0916 42.1647 41.9438 42.8712C42.5254 42.9545 43.112 42.9974 43.6995 42.9997C49.9084 42.9997 55 38.0699 55 32ZM21.5135 39.0173C21.1173 39.076 20.717 39.1029 20.3164 39.0976C16.1985 39.0976 12.8626 35.9021 12.8626 32C12.8626 28.0819 16.2144 24.9025 20.3324 24.9025C20.7327 24.9052 21.1324 24.932 21.5295 24.9828C26.1103 25.6411 28.9035 30.1855 29.8612 32C28.8876 33.8306 26.0784 38.359 21.5135 39.0173ZM34.1388 32C35.0805 30.1855 37.8897 25.6411 42.4705 24.9828C42.8676 24.932 43.2673 24.9052 43.6676 24.9025C47.7856 24.9025 51.1214 28.098 51.1214 32C51.1214 35.9182 47.7696 39.0976 43.6676 39.0976C43.2673 39.0949 42.8676 39.068 42.4705 39.0173C37.8897 38.359 35.0805 33.8146 34.1388 32Z" fill="#88C0D0"/>
<path d="M16 30.7042H22.9243V33.277H16V30.7042ZM43.6649 33.2958H46V30.7042H43.6649V28H41.427V30.7042H39.0919V33.2958H41.427V36H43.6649L43.6649 33.2958Z" fill="#88C0D0"/>
<path d="M55 32C55 25.9302 49.9084 21.0004 43.6676 21.0004C43.0852 20.9952 42.5033 21.0382 41.9278 21.1289C37.0756 21.8194 33.8196 25.336 32 28.0338C30.1804 25.336 26.9244 21.8194 22.0722 21.1289C21.4958 21.0462 20.9146 21.0033 20.3324 21.0004C14.0757 21.0004 9 25.9302 9 32C9 38.0699 14.0916 42.9997 20.3324 42.9997C20.9201 43.0043 21.5073 42.9613 22.0881 42.8712C26.9403 42.1647 30.1964 38.648 32.016 35.9503C33.8355 38.648 37.0916 42.1647 41.9438 42.8712C42.5254 42.9545 43.112 42.9974 43.6995 42.9997C49.9084 42.9997 55 38.0699 55 32ZM21.5135 39.0173C21.1173 39.076 20.717 39.1029 20.3164 39.0976C16.1985 39.0976 12.8626 35.9021 12.8626 32C12.8626 28.0819 16.2144 24.9025 20.3324 24.9025C20.7327 24.9052 21.1324 24.932 21.5295 24.9828C26.1103 25.6411 28.9035 30.1855 29.8612 32C28.8876 33.8306 26.0784 38.359 21.5135 39.0173ZM34.1388 32C35.0805 30.1855 37.8897 25.6411 42.4705 24.9828C42.8676 24.932 43.2673 24.9052 43.6676 24.9025C47.7856 24.9025 51.1214 28.098 51.1214 32C51.1214 35.9182 47.7696 39.0976 43.6676 39.0976C43.2673 39.0949 42.8676 39.068 42.4705 39.0173C37.8897 38.359 35.0805 33.8146 34.1388 32Z" fill="black" fill-opacity="0.7"/>
<path d="M16 30.7042H22.9243V33.277H16V30.7042ZM43.6649 33.2958H46V30.7042H43.6649V28H41.427V30.7042H39.0919V33.2958H41.427V36H43.6649L43.6649 33.2958Z" fill="black" fill-opacity="0.7"/>
</g>
<defs>
<clipPath id="clip0_7_619">
<rect width="64" height="64" fill="white"/>
</clipPath>
</defs>
</svg>
