<svg width="64" height="64" viewBox="0 0 64 64" fill="none" xmlns="http://www.w3.org/2000/svg">
<g clip-path="url(#clip0_23_867)">
<path d="M9.69948 0.00939941L55.0881 10H60V64H8.51813C7.66065 64 6.83828 63.6576 6.23194 63.0481C5.62561 62.4386 5.28497 61.612 5.28497 60.75V47.1433L9.60411 0.150706L9.69948 0.00939941Z" fill="#88C0D0"/>
<path d="M9.69948 0.00939941L55.0881 10H60V64H8.51813C7.66065 64 6.83828 63.6576 6.23194 63.0481C5.62561 62.4386 5.28497 61.612 5.28497 60.75V47.1433L9.60411 0.150706L9.69948 0.00939941Z" fill="black" fill-opacity="0.6"/>
<path d="M9.69946 0H52.3523C53.2098 0 54.0322 0.34241 54.6385 0.951903C55.2448 1.5614 55.5855 2.38805 55.5855 3.25V45H9.69946V0Z" fill="#88C0D0"/>
<path d="M0 50.875L9.69948 45V0L0 5.875V50.875Z" fill="#88C0D0"/>
<path d="M0 50.875L9.69948 45V0L0 5.875V50.875Z" fill="black" fill-opacity="0.25"/>
<path d="M26.109 35V30.412H29.587V14.872H26.109V10.284H38.837V14.872H35.433V30.412H38.837V35H26.109Z" fill="black" fill-opacity="0.7"/>
<path d="M18.616 60V50.648H21.43L25.042 57.312V50.648H27.184V60H24.356L20.744 53.336V60H18.616ZM27.8727 60L31.4147 50.648H33.8507L37.3927 60H34.9847L34.4247 58.334H30.8407L30.2807 60H27.8727ZM31.4427 56.542H33.8227L32.6187 52.986L31.4427 56.542ZM41.8648 60.168C40.8474 60.168 39.9888 59.9627 39.2888 59.552C38.5981 59.132 38.1081 58.5487 37.8188 57.802L39.8348 57.074C39.9654 57.522 40.2081 57.8533 40.5628 58.068C40.9268 58.2827 41.3654 58.39 41.8788 58.39C42.1494 58.39 42.4108 58.362 42.6628 58.306C42.9148 58.2407 43.1248 58.138 43.2928 57.998C43.4608 57.8487 43.5448 57.6527 43.5448 57.41C43.5448 57.0833 43.3861 56.8313 43.0688 56.654C42.7514 56.4673 42.3408 56.3273 41.8368 56.234L40.7028 56.01C40.1988 55.9073 39.7274 55.7533 39.2888 55.548C38.8594 55.3333 38.5141 55.0533 38.2528 54.708C37.9914 54.3533 37.8608 53.91 37.8608 53.378C37.8608 52.874 37.9774 52.44 38.2108 52.076C38.4441 51.712 38.7521 51.4133 39.1348 51.18C39.5268 50.9467 39.9561 50.774 40.4228 50.662C40.8894 50.5407 41.3561 50.48 41.8228 50.48C42.3268 50.48 42.8121 50.55 43.2788 50.69C43.7548 50.83 44.1794 51.0493 44.5528 51.348C44.9261 51.6373 45.2108 52.0247 45.4068 52.51L43.4048 53.238C43.2834 52.9207 43.0641 52.678 42.7468 52.51C42.4388 52.342 42.0654 52.258 41.6268 52.258C41.1974 52.258 40.8381 52.3373 40.5488 52.496C40.2688 52.6453 40.1288 52.8647 40.1288 53.154C40.1288 53.3873 40.2268 53.588 40.4228 53.756C40.6188 53.924 40.8754 54.0407 41.1928 54.106L42.4528 54.358C42.8354 54.4327 43.2228 54.5307 43.6148 54.652C44.0068 54.764 44.3661 54.918 44.6928 55.114C45.0288 55.3007 45.2994 55.5527 45.5048 55.87C45.7101 56.1873 45.8128 56.5887 45.8128 57.074C45.8128 57.5687 45.6961 58.012 45.4628 58.404C45.2388 58.7867 44.9354 59.1087 44.5528 59.37C44.1794 59.6313 43.7594 59.832 43.2928 59.972C42.8261 60.1027 42.3501 60.168 41.8648 60.168Z" fill="#88C0D0"/>
</g>
<defs>
<clipPath id="clip0_23_867">
<rect width="64" height="64" fill="white"/>
</clipPath>
</defs>
</svg>
