<svg width="64" height="64" viewBox="0 0 64 64" fill="none" xmlns="http://www.w3.org/2000/svg">
<g clip-path="url(#clip0_23_915)">
<path d="M9.69948 0.00939941L55.0881 10H60V64H8.51813C7.66065 64 6.83828 63.6576 6.23194 63.0481C5.62561 62.4386 5.28497 61.612 5.28497 60.75V47.1433L9.60411 0.150706L9.69948 0.00939941Z" fill="#88C0D0"/>
<path d="M9.69948 0.00939941L55.0881 10H60V64H8.51813C7.66065 64 6.83828 63.6576 6.23194 63.0481C5.62561 62.4386 5.28497 61.612 5.28497 60.75V47.1433L9.60411 0.150706L9.69948 0.00939941Z" fill="black" fill-opacity="0.6"/>
<path d="M9.69948 0H52.3523C53.2098 0 54.0322 0.34241 54.6385 0.951903C55.2448 1.5614 55.5855 2.38805 55.5855 3.25V45H9.69948V0Z" fill="#88C0D0"/>
<path d="M0 50.875L9.69948 45V0L0 5.875V50.875Z" fill="#88C0D0"/>
<path d="M0 50.875L9.69948 45V0L0 5.875V50.875Z" fill="black" fill-opacity="0.25"/>
<path d="M26.109 35V30.412H29.587V14.872H26.109V10.284H38.837V14.872H35.433V30.412H38.837V35H26.109Z" fill="black" fill-opacity="0.7"/>
<path d="M18.798 60V58.264H20.114V52.384H18.798V50.648H23.614V52.384H22.326V58.264H23.614V60H18.798ZM26.8061 60L24.5521 50.648H26.7641L28.0661 57.13L29.4381 50.648H31.7341L33.1201 57.13L34.4221 50.648H36.6341L34.3801 60H32.0141L30.5861 53.42L29.1721 60H26.8061ZM36.9115 60L40.3415 55.198L37.1075 50.648H39.7535L41.6575 53.336L43.5755 50.648H46.2215L42.9875 55.198L46.4175 60H43.7575L41.6575 57.046L39.5715 60H36.9115Z" fill="#88C0D0"/>
</g>
<defs>
<clipPath id="clip0_23_915">
<rect width="64" height="64" fill="white"/>
</clipPath>
</defs>
</svg>
