<svg width="64" height="64" viewBox="0 0 64 64" fill="none" xmlns="http://www.w3.org/2000/svg">
<path d="M9.69948 0.00937653L55.0881 10H60V64H8.51813C7.66065 64 6.83828 63.6576 6.23194 63.0481C5.62561 62.4386 5.28497 61.612 5.28497 60.75V47.1433L9.60411 0.150683L9.69948 0.00937653Z" fill="#88C0D0"/>
<path d="M9.69948 0.00937653L55.0881 10H60V64H8.51813C7.66065 64 6.83828 63.6576 6.23194 63.0481C5.62561 62.4386 5.28497 61.612 5.28497 60.75V47.1433L9.60411 0.150683L9.69948 0.00937653Z" fill="black" fill-opacity="0.6"/>
<path d="M9.69946 0H52.3523C53.2098 0 54.0322 0.34241 54.6385 0.951903C55.2448 1.5614 55.5855 2.38805 55.5855 3.25V45H9.69946V0Z" fill="#88C0D0"/>
<path d="M0 50.875L9.69948 45V0L0 5.875V50.875Z" fill="#88C0D0"/>
<path d="M0 50.875L9.69948 45V0L0 5.875V50.875Z" fill="black" fill-opacity="0.25"/>
<path d="M20.185 35L29.546 10.284H35.984L45.345 35H38.981L37.501 30.597H28.029L26.549 35H20.185ZM29.62 25.861H35.91L32.728 16.463L29.62 25.861Z" fill="black" fill-opacity="0.7"/>
<path d="M18.07 60L21.612 50.648H24.048L27.59 60H25.182L24.622 58.334H21.038L20.478 60H18.07ZM21.64 56.542H24.02L22.816 52.986L21.64 56.542ZM28.282 60V50.648H31.88C32.692 50.648 33.4153 50.7273 34.05 50.886C34.694 51.0447 35.198 51.334 35.562 51.754C35.9353 52.174 36.122 52.7713 36.122 53.546C36.122 53.9007 36.0567 54.2553 35.926 54.61C35.7953 54.9553 35.5667 55.2727 35.24 55.562C34.9227 55.8513 34.4653 56.0753 33.868 56.234L36.584 60H34.022L31.488 56.472H30.494V60H28.282ZM30.494 54.624H31.95C32.4727 54.624 32.9067 54.5587 33.252 54.428C33.6067 54.288 33.784 54.0033 33.784 53.574C33.784 53.1353 33.6067 52.8507 33.252 52.72C32.9067 52.58 32.4727 52.51 31.95 52.51H30.494V54.624ZM37.4422 60V50.648H40.2562L43.8682 57.312V50.648H46.0102V60H43.1822L39.5702 53.336V60H37.4422Z" fill="#88C0D0"/>
</svg>
