<svg width="64" height="64" viewBox="0 0 64 64" fill="none" xmlns="http://www.w3.org/2000/svg">
<g clip-path="url(#clip0_23_1012)">
<path d="M9.69948 0.00939941L55.0881 10H60V64H8.51813C7.66065 64 6.83828 63.6576 6.23194 63.0481C5.62561 62.4386 5.28497 61.612 5.28497 60.75V47.1433L9.60411 0.150706L9.69948 0.00939941Z" fill="#88C0D0"/>
<path d="M9.69948 0.00939941L55.0881 10H60V64H8.51813C7.66065 64 6.83828 63.6576 6.23194 63.0481C5.62561 62.4386 5.28497 61.612 5.28497 60.75V47.1433L9.60411 0.150706L9.69948 0.00939941Z" fill="black" fill-opacity="0.6"/>
<path d="M9.69949 0H52.3523C53.2098 0 54.0322 0.34241 54.6385 0.951903C55.2449 1.5614 55.5855 2.38805 55.5855 3.25V45H9.69949V0Z" fill="#88C0D0"/>
<path d="M0 50.875L9.69948 45V0L0 5.875V50.875Z" fill="#88C0D0"/>
<path d="M0 50.875L9.69948 45V0L0 5.875V50.875Z" fill="black" fill-opacity="0.25"/>
<path d="M21.628 35V10.284H31.137C33.283 10.284 35.1947 10.4937 36.872 10.913C38.574 11.3323 39.906 12.097 40.868 13.207C41.8547 14.317 42.348 15.8957 42.348 17.943C42.348 18.8803 42.1753 19.8177 41.83 20.755C41.4847 21.6677 40.8803 22.5063 40.017 23.271C39.1783 24.0357 37.9697 24.6277 36.391 25.047L43.569 35H36.798L30.101 25.676H27.474V35H21.628ZM27.474 20.792H31.322C32.7033 20.792 33.8503 20.6193 34.763 20.274C35.7003 19.904 36.169 19.1517 36.169 18.017C36.169 16.8577 35.7003 16.1053 34.763 15.76C33.8503 15.39 32.7033 15.205 31.322 15.205H27.474V20.792Z" fill="black" fill-opacity="0.7"/>
<path d="M18.616 60V50.648H22.214C23.026 50.648 23.7493 50.7273 24.384 50.886C25.028 51.0447 25.532 51.334 25.896 51.754C26.2693 52.174 26.456 52.7713 26.456 53.546C26.456 53.9007 26.3907 54.2553 26.26 54.61C26.1293 54.9553 25.9007 55.2727 25.574 55.562C25.2567 55.8513 24.7993 56.0753 24.202 56.234L26.918 60H24.356L21.822 56.472H20.828V60H18.616ZM20.828 54.624H22.284C22.8067 54.624 23.2407 54.5587 23.586 54.428C23.9407 54.288 24.118 54.0033 24.118 53.574C24.118 53.1353 23.9407 52.8507 23.586 52.72C23.2407 52.58 22.8067 52.51 22.284 52.51H20.828V54.624ZM30.4642 60L27.3002 50.648H29.5962L31.7382 57.522L33.8942 50.648H36.2042L33.0262 60H30.4642ZM40.1009 60V52.594H37.0909V50.648H45.3089V52.594H42.2989V60H40.1009Z" fill="#88C0D0"/>
</g>
<defs>
<clipPath id="clip0_23_1012">
<rect width="64" height="64" fill="white"/>
</clipPath>
</defs>
</svg>
