<svg width="64" height="64" viewBox="0 0 64 64" fill="none" xmlns="http://www.w3.org/2000/svg">
<path d="M9.69948 0.00937653L55.0881 10H60V64H8.51813C7.66065 64 6.83828 63.6576 6.23194 63.0481C5.62561 62.4386 5.28497 61.612 5.28497 60.75V47.1433L9.60411 0.150683L9.69948 0.00937653Z" fill="#88C0D0"/>
<path d="M9.69948 0.00937653L55.0881 10H60V64H8.51813C7.66065 64 6.83828 63.6576 6.23194 63.0481C5.62561 62.4386 5.28497 61.612 5.28497 60.75V47.1433L9.60411 0.150683L9.69948 0.00937653Z" fill="black" fill-opacity="0.6"/>
<path d="M9.69949 0H52.3523C53.2098 0 54.0322 0.34241 54.6385 0.951903C55.2449 1.5614 55.5855 2.38805 55.5855 3.25V45H9.69949V0Z" fill="#88C0D0"/>
<path d="M0 50.875L9.69948 45V0L0 5.875V50.875Z" fill="#88C0D0"/>
<path d="M0 50.875L9.69948 45V0L0 5.875V50.875Z" fill="black" fill-opacity="0.25"/>
<path d="M19.185 35L28.546 10.284H34.984L44.345 35H37.981L36.501 30.597H27.029L25.549 35H19.185ZM28.62 25.861H34.91L31.728 16.463L28.62 25.861Z" fill="black" fill-opacity="0.7"/>
<path d="M24.396 60.168C23.3787 60.168 22.52 59.9627 21.82 59.552C21.1293 59.132 20.6393 58.5487 20.35 57.802L22.366 57.074C22.4967 57.522 22.7393 57.8533 23.094 58.068C23.458 58.2827 23.8967 58.39 24.41 58.39C24.6807 58.39 24.942 58.362 25.194 58.306C25.446 58.2407 25.656 58.138 25.824 57.998C25.992 57.8487 26.076 57.6527 26.076 57.41C26.076 57.0833 25.9173 56.8313 25.6 56.654C25.2827 56.4673 24.872 56.3273 24.368 56.234L23.234 56.01C22.73 55.9073 22.2587 55.7533 21.82 55.548C21.3907 55.3333 21.0453 55.0533 20.784 54.708C20.5227 54.3533 20.392 53.91 20.392 53.378C20.392 52.874 20.5087 52.44 20.742 52.076C20.9753 51.712 21.2833 51.4133 21.666 51.18C22.058 50.9467 22.4873 50.774 22.954 50.662C23.4207 50.5407 23.8873 50.48 24.354 50.48C24.858 50.48 25.3433 50.55 25.81 50.69C26.286 50.83 26.7107 51.0493 27.084 51.348C27.4573 51.6373 27.742 52.0247 27.938 52.51L25.936 53.238C25.8147 52.9207 25.5953 52.678 25.278 52.51C24.97 52.342 24.5967 52.258 24.158 52.258C23.7287 52.258 23.3693 52.3373 23.08 52.496C22.8 52.6453 22.66 52.8647 22.66 53.154C22.66 53.3873 22.758 53.588 22.954 53.756C23.15 53.924 23.4067 54.0407 23.724 54.106L24.984 54.358C25.3667 54.4327 25.754 54.5307 26.146 54.652C26.538 54.764 26.8973 54.918 27.224 55.114C27.56 55.3007 27.8307 55.5527 28.036 55.87C28.2413 56.1873 28.344 56.5887 28.344 57.074C28.344 57.5687 28.2273 58.012 27.994 58.404C27.77 58.7867 27.4667 59.1087 27.084 59.37C26.7107 59.6313 26.2907 59.832 25.824 59.972C25.3573 60.1027 24.8813 60.168 24.396 60.168ZM29.284 60V50.648H32.882C33.694 50.648 34.4173 50.7273 35.052 50.886C35.696 51.0447 36.2 51.334 36.564 51.754C36.9373 52.174 37.124 52.7713 37.124 53.546C37.124 53.9007 37.0586 54.2553 36.928 54.61C36.7973 54.9553 36.5686 55.2727 36.242 55.562C35.9246 55.8513 35.4673 56.0753 34.87 56.234L37.586 60H35.024L32.49 56.472H31.496V60H29.284ZM31.496 54.624H32.952C33.4746 54.624 33.9086 54.5587 34.254 54.428C34.6086 54.288 34.786 54.0033 34.786 53.574C34.786 53.1353 34.6086 52.8507 34.254 52.72C33.9086 52.58 33.4746 52.51 32.952 52.51H31.496V54.624ZM38.4441 60V50.648H45.1361V52.594H40.6561V54.218H45.1361V56.164H40.6561V60H38.4441Z" fill="#88C0D0"/>
</svg>
