<svg width="64" height="64" viewBox="0 0 64 64" fill="none" xmlns="http://www.w3.org/2000/svg">
<path d="M9.69948 0.0093689L55.0881 9.99999H60V64H8.51813C7.66065 64 6.83828 63.6576 6.23194 63.0481C5.62561 62.4386 5.28497 61.6119 5.28497 60.75V47.1432L9.60411 0.150675L9.69948 0.0093689Z" fill="#88C0D0"/>
<path d="M9.69948 0.0093689L55.0881 9.99999H60V64H8.51813C7.66065 64 6.83828 63.6576 6.23194 63.0481C5.62561 62.4386 5.28497 61.6119 5.28497 60.75V47.1432L9.60411 0.150675L9.69948 0.0093689Z" fill="black" fill-opacity="0.6"/>
<path d="M9.69946 0H52.3523C53.2098 0 54.0322 0.34241 54.6385 0.951903C55.2448 1.5614 55.5855 2.38805 55.5855 3.25V45H9.69946V0Z" fill="#88C0D0"/>
<path d="M0 50.875L9.69948 45V0L0 5.875V50.875Z" fill="#88C0D0"/>
<path d="M0 50.875L9.69948 45V0L0 5.875V50.875Z" fill="black" fill-opacity="0.25"/>
<path d="M21.628 35V10.284H29.768C31.7907 10.284 33.6653 10.4937 35.392 10.913C37.1433 11.3077 38.6603 11.986 39.943 12.948C41.2503 13.8853 42.2617 15.1557 42.977 16.759C43.717 18.3377 44.087 20.2987 44.087 22.642C44.087 25.01 43.717 26.9833 42.977 28.562C42.2617 30.1407 41.2503 31.411 39.943 32.373C38.6603 33.3103 37.1433 33.9887 35.392 34.408C33.6653 34.8027 31.7907 35 29.768 35H21.628ZM27.474 30.079H29.879C30.9397 30.079 31.951 29.9927 32.913 29.82C33.8997 29.6473 34.7753 29.3143 35.54 28.821C36.3293 28.303 36.946 27.5507 37.39 26.564C37.834 25.5773 38.056 24.27 38.056 22.642C38.056 21.014 37.834 19.7067 37.39 18.72C36.946 17.7087 36.3293 16.9563 35.54 16.463C34.7753 15.945 33.8997 15.5997 32.913 15.427C31.951 15.2297 30.9397 15.131 29.879 15.131H27.474V30.079Z" fill="black" fill-opacity="0.7"/>
<path d="M17.616 60V50.648H20.696C21.4613 50.648 22.1707 50.7273 22.824 50.886C23.4867 51.0353 24.0607 51.292 24.546 51.656C25.0407 52.0107 25.4233 52.4913 25.694 53.098C25.974 53.6953 26.114 54.4373 26.114 55.324C26.114 56.22 25.974 56.9667 25.694 57.564C25.4233 58.1613 25.0407 58.642 24.546 59.006C24.0607 59.3607 23.4867 59.6173 22.824 59.776C22.1707 59.9253 21.4613 60 20.696 60H17.616ZM19.828 58.138H20.738C21.1393 58.138 21.522 58.1053 21.886 58.04C22.2593 57.9747 22.5907 57.8487 22.88 57.662C23.1787 57.466 23.412 57.1813 23.58 56.808C23.748 56.4347 23.832 55.94 23.832 55.324C23.832 54.708 23.748 54.2133 23.58 53.84C23.412 53.4573 23.1787 53.1727 22.88 52.986C22.5907 52.79 22.2593 52.6593 21.886 52.594C21.522 52.5193 21.1393 52.482 20.738 52.482H19.828V58.138ZM31.9317 60.168C30.9797 60.168 30.1397 59.9673 29.4117 59.566C28.6837 59.1647 28.1143 58.6 27.7037 57.872C27.293 57.144 27.0877 56.2947 27.0877 55.324C27.0877 54.3533 27.293 53.504 27.7037 52.776C28.1143 52.048 28.6837 51.4833 29.4117 51.082C30.1397 50.6807 30.9797 50.48 31.9317 50.48C32.893 50.48 33.7377 50.6807 34.4657 51.082C35.1937 51.4833 35.763 52.048 36.1737 52.776C36.5937 53.504 36.8037 54.3533 36.8037 55.324C36.8037 56.2947 36.5937 57.144 36.1737 57.872C35.763 58.6 35.1937 59.1647 34.4657 59.566C33.7377 59.9673 32.893 60.168 31.9317 60.168ZM31.9317 58.348C32.389 58.348 32.809 58.236 33.1917 58.012C33.5743 57.7787 33.8777 57.438 34.1017 56.99C34.335 56.542 34.4517 55.9867 34.4517 55.324C34.4517 54.6613 34.335 54.106 34.1017 53.658C33.8777 53.21 33.5743 52.874 33.1917 52.65C32.809 52.4167 32.389 52.3 31.9317 52.3C31.4837 52.3 31.0683 52.4167 30.6857 52.65C30.303 52.874 29.995 53.21 29.7617 53.658C29.5377 54.106 29.4257 54.6613 29.4257 55.324C29.4257 55.9867 29.5377 56.542 29.7617 56.99C29.995 57.438 30.303 57.7787 30.6857 58.012C31.0683 58.236 31.4837 58.348 31.9317 58.348ZM42.4551 60.168C41.4844 60.168 40.6491 59.972 39.9491 59.58C39.2491 59.188 38.7124 58.628 38.3391 57.9C37.9657 57.172 37.7791 56.3133 37.7791 55.324C37.7791 54.3347 37.9704 53.4807 38.3531 52.762C38.7451 52.034 39.2957 51.474 40.0051 51.082C40.7144 50.6807 41.5497 50.48 42.5111 50.48C43.3977 50.48 44.1677 50.676 44.8211 51.068C45.4837 51.46 45.9924 51.9873 46.3471 52.65L44.3871 53.364C44.1817 52.9813 43.9017 52.7107 43.5471 52.552C43.1924 52.384 42.8237 52.3 42.4411 52.3C42.0117 52.3 41.6197 52.4213 41.2651 52.664C40.9104 52.8973 40.6304 53.2427 40.4251 53.7C40.2197 54.148 40.1171 54.6893 40.1171 55.324C40.1171 56.304 40.3411 57.0553 40.7891 57.578C41.2464 58.0913 41.8064 58.348 42.4691 58.348C42.8237 58.348 43.1877 58.2733 43.5611 58.124C43.9437 57.9747 44.2424 57.6993 44.4571 57.298L46.4031 58.012C46.0297 58.6747 45.4977 59.202 44.8071 59.594C44.1257 59.9767 43.3417 60.168 42.4551 60.168Z" fill="#88C0D0"/>
</svg>
