<svg width="64" height="64" viewBox="0 0 64 64" fill="none" xmlns="http://www.w3.org/2000/svg">
<g clip-path="url(#clip0_26_1291)">
<path d="M8.29966 0.0314676L8.31618 0.00323486L61.4778 11.7818H67V64H6.93785C5.93745 64 4.97802 63.6016 4.27063 62.8923C3.56324 62.1831 3.16583 61.2212 3.16583 60.2182V55.1016L8.29966 0.0314676Z" fill="#88C0D0"/>
<path d="M8.29966 0.0314676L8.31618 0.00323486L61.4778 11.7818H67V64H6.93785C5.93745 64 4.97802 63.6016 4.27063 62.8923C3.56324 62.1831 3.16583 61.2212 3.16583 60.2182V55.1016L8.29966 0.0314676Z" fill="black" fill-opacity="0.6"/>
<path d="M61.8497 52.3636H8.29962V0.0314764L8.31605 0H58.0777C59.0781 0 60.0375 0.39844 60.7449 1.10767C61.4523 1.8169 61.8497 2.77882 61.8497 3.78182V52.3636Z" fill="#88C0D0"/>
<path d="M-3 59.2L8.31606 52.3636V0L-3 6.83636V59.2Z" fill="#88C0D0"/>
<path d="M-3 59.2L8.31606 52.3636V0L-3 6.83636V59.2Z" fill="black" fill-opacity="0.25"/>
<path d="M30.732 38L22.37 13.284H28.438L34.099 31.451L39.797 13.284H45.902L37.503 38H30.732Z" fill="black" fill-opacity="0.7"/>
</g>
<defs>
<clipPath id="clip0_26_1291">
<rect width="64" height="64" fill="white"/>
</clipPath>
</defs>
</svg>
