<svg width="64" height="64" viewBox="0 0 64 64" fill="none" xmlns="http://www.w3.org/2000/svg">
<path d="M9.69948 0.0093689L55.0881 9.99999H60V64H8.51813C7.66065 64 6.83828 63.6576 6.23194 63.0481C5.62561 62.4386 5.28497 61.6119 5.28497 60.75V47.1432L9.60411 0.150675L9.69948 0.0093689Z" fill="#88C0D0"/>
<path d="M9.69948 0.0093689L55.0881 9.99999H60V64H8.51813C7.66065 64 6.83828 63.6576 6.23194 63.0481C5.62561 62.4386 5.28497 61.6119 5.28497 60.75V47.1432L9.60411 0.150675L9.69948 0.0093689Z" fill="black" fill-opacity="0.6"/>
<path d="M9.69949 0H52.3523C53.2098 0 54.0322 0.34241 54.6385 0.951903C55.2449 1.5614 55.5855 2.38805 55.5855 3.25V45H9.69949V0Z" fill="#88C0D0"/>
<path d="M0 50.875L9.69948 45V0L0 5.875V50.875Z" fill="#88C0D0"/>
<path d="M0 50.875L9.69948 45V0L0 5.875V50.875Z" fill="black" fill-opacity="0.25"/>
<path d="M20.185 35L29.546 10.284H35.984L45.345 35H38.981L37.501 30.597H28.029L26.549 35H20.185ZM29.62 25.861H35.91L32.728 16.463L29.62 25.861Z" fill="black" fill-opacity="0.7"/>
<path d="M19.616 60V50.648H23.214C24.026 50.648 24.7493 50.732 25.384 50.9C26.028 51.068 26.532 51.3713 26.896 51.81C27.2693 52.2487 27.456 52.8787 27.456 53.7C27.456 54.512 27.2693 55.142 26.896 55.59C26.532 56.0287 26.028 56.332 25.384 56.5C24.7493 56.668 24.026 56.752 23.214 56.752H21.828V60H19.616ZM21.828 54.918H23.284C23.6293 54.918 23.9373 54.8853 24.208 54.82C24.488 54.7547 24.7073 54.6333 24.866 54.456C25.034 54.2787 25.118 54.0267 25.118 53.7C25.118 53.3733 25.034 53.126 24.866 52.958C24.7073 52.7807 24.488 52.664 24.208 52.608C23.9373 52.5427 23.6293 52.51 23.284 52.51H21.828V54.918ZM31.8377 60.168C31.315 60.168 30.811 60.0933 30.3257 59.944C29.8497 59.7947 29.4297 59.566 29.0657 59.258C28.7017 58.9407 28.4217 58.5347 28.2257 58.04L30.1577 57.34C30.279 57.7973 30.503 58.1193 30.8297 58.306C31.1563 58.4927 31.511 58.586 31.8937 58.586C32.3323 58.586 32.6823 58.4787 32.9437 58.264C33.205 58.0493 33.3357 57.7507 33.3357 57.368C33.3357 56.9853 33.2143 56.6913 32.9717 56.486C32.729 56.2713 32.407 56.1267 32.0057 56.052C31.6137 55.968 31.1843 55.926 30.7177 55.926V54.442C31.5203 54.442 32.1363 54.33 32.5657 54.106C33.0043 53.882 33.2237 53.5647 33.2237 53.154C33.2237 52.79 33.0743 52.5193 32.7757 52.342C32.4863 52.1553 32.1503 52.062 31.7677 52.062C31.4223 52.062 31.105 52.146 30.8157 52.314C30.5263 52.482 30.335 52.7807 30.2417 53.21L28.3237 52.51C28.5103 52.034 28.7857 51.6467 29.1497 51.348C29.5137 51.0493 29.9337 50.83 30.4097 50.69C30.8857 50.55 31.3803 50.48 31.8937 50.48C32.323 50.48 32.743 50.5267 33.1537 50.62C33.5643 50.7133 33.933 50.8627 34.2597 51.068C34.5957 51.264 34.8617 51.516 35.0577 51.824C35.263 52.1227 35.3657 52.482 35.3657 52.902C35.3657 53.406 35.2303 53.8493 34.9597 54.232C34.689 54.6053 34.3903 54.8853 34.0637 55.072C34.3717 55.184 34.633 55.3613 34.8477 55.604C35.0717 55.8467 35.2397 56.1127 35.3517 56.402C35.4637 56.6913 35.5197 56.9807 35.5197 57.27C35.5197 57.9233 35.347 58.4647 35.0017 58.894C34.6563 59.314 34.2037 59.6313 33.6437 59.846C33.0837 60.0607 32.4817 60.168 31.8377 60.168ZM36.8562 60V50.648H39.9362C40.7016 50.648 41.4109 50.7273 42.0642 50.886C42.7269 51.0353 43.3009 51.292 43.7862 51.656C44.2809 52.0107 44.6636 52.4913 44.9342 53.098C45.2142 53.6953 45.3542 54.4373 45.3542 55.324C45.3542 56.22 45.2142 56.9667 44.9342 57.564C44.6636 58.1613 44.2809 58.642 43.7862 59.006C43.3009 59.3607 42.7269 59.6173 42.0642 59.776C41.4109 59.9253 40.7016 60 39.9362 60H36.8562ZM39.0682 58.138H39.9782C40.3796 58.138 40.7622 58.1053 41.1262 58.04C41.4996 57.9747 41.8309 57.8487 42.1202 57.662C42.4189 57.466 42.6522 57.1813 42.8202 56.808C42.9882 56.4347 43.0722 55.94 43.0722 55.324C43.0722 54.708 42.9882 54.2133 42.8202 53.84C42.6522 53.4573 42.4189 53.1727 42.1202 52.986C41.8309 52.79 41.4996 52.6593 41.1262 52.594C40.7622 52.5193 40.3796 52.482 39.9782 52.482H39.0682V58.138Z" fill="#88C0D0"/>
</svg>
