<svg width="64" height="64" viewBox="0 0 64 64" fill="none" xmlns="http://www.w3.org/2000/svg">
<path d="M9.69948 0.0093689L55.0881 9.99999H60V64H8.51813C7.66065 64 6.83828 63.6576 6.23194 63.0481C5.62561 62.4386 5.28497 61.6119 5.28497 60.75V47.1432L9.60411 0.150675L9.69948 0.0093689Z" fill="#88C0D0"/>
<path d="M9.69948 0.0093689L55.0881 9.99999H60V64H8.51813C7.66065 64 6.83828 63.6576 6.23194 63.0481C5.62561 62.4386 5.28497 61.6119 5.28497 60.75V47.1432L9.60411 0.150675L9.69948 0.0093689Z" fill="black" fill-opacity="0.6"/>
<path d="M9.69946 0H52.3523C53.2098 0 54.0322 0.34241 54.6385 0.951903C55.2448 1.5614 55.5855 2.38805 55.5855 3.25V45H9.69946V0Z" fill="#88C0D0"/>
<path d="M0 50.875L9.69948 45V0L0 5.875V50.875Z" fill="#88C0D0"/>
<path d="M0 50.875L9.69948 45V0L0 5.875V50.875Z" fill="black" fill-opacity="0.25"/>
<path d="M32.653 35.444C30.0877 35.444 27.88 34.926 26.03 33.89C24.18 32.854 22.7617 31.374 21.775 29.45C20.7883 27.526 20.295 25.2567 20.295 22.642C20.295 20.0273 20.8007 17.7703 21.812 15.871C22.848 13.947 24.3033 12.467 26.178 11.431C28.0527 10.3703 30.2603 9.84 32.801 9.84C35.1443 9.84 37.1793 10.358 38.906 11.394C40.6573 12.43 42.0017 13.8237 42.939 15.575L37.759 17.462C37.2163 16.4507 36.4763 15.7353 35.539 15.316C34.6017 14.872 33.6273 14.65 32.616 14.65C31.4813 14.65 30.4453 14.9707 29.508 15.612C28.5707 16.2287 27.8307 17.1413 27.288 18.35C26.7453 19.534 26.474 20.9647 26.474 22.642C26.474 25.232 27.066 27.2177 28.25 28.599C29.4587 29.9557 30.9387 30.634 32.69 30.634C33.6273 30.634 34.5893 30.4367 35.576 30.042C36.5873 29.6473 37.3767 28.9197 37.944 27.859L43.087 29.746C42.1003 31.4973 40.6943 32.891 38.869 33.927C37.0683 34.9383 34.9963 35.444 32.653 35.444Z" fill="black" fill-opacity="0.7"/>
<path d="M23.166 60.168C22.1953 60.168 21.36 59.972 20.66 59.58C19.96 59.188 19.4233 58.628 19.05 57.9C18.6767 57.172 18.49 56.3133 18.49 55.324C18.49 54.3347 18.6813 53.4807 19.064 52.762C19.456 52.034 20.0067 51.474 20.716 51.082C21.4253 50.6807 22.2607 50.48 23.222 50.48C24.1087 50.48 24.8787 50.676 25.532 51.068C26.1947 51.46 26.7033 51.9873 27.058 52.65L25.098 53.364C24.8927 52.9813 24.6127 52.7107 24.258 52.552C23.9033 52.384 23.5347 52.3 23.152 52.3C22.7227 52.3 22.3307 52.4213 21.976 52.664C21.6213 52.8973 21.3413 53.2427 21.136 53.7C20.9307 54.148 20.828 54.6893 20.828 55.324C20.828 56.304 21.052 57.0553 21.5 57.578C21.9573 58.0913 22.5173 58.348 23.18 58.348C23.5347 58.348 23.8987 58.2733 24.272 58.124C24.6547 57.9747 24.9533 57.6993 25.168 57.298L27.114 58.012C26.7407 58.6747 26.2087 59.202 25.518 59.594C24.8367 59.9767 24.0527 60.168 23.166 60.168ZM28.0359 60V50.648H34.7279V52.594H30.2479V54.218H34.7279V56.164H30.2479V60H28.0359ZM35.6512 60V50.648H38.7312C39.4965 50.648 40.2058 50.7273 40.8592 50.886C41.5218 51.0353 42.0958 51.292 42.5812 51.656C43.0758 52.0107 43.4585 52.4913 43.7292 53.098C44.0092 53.6953 44.1492 54.4373 44.1492 55.324C44.1492 56.22 44.0092 56.9667 43.7292 57.564C43.4585 58.1613 43.0758 58.642 42.5812 59.006C42.0958 59.3607 41.5218 59.6173 40.8592 59.776C40.2058 59.9253 39.4965 60 38.7312 60H35.6512ZM37.8632 58.138H38.7732C39.1745 58.138 39.5572 58.1053 39.9212 58.04C40.2945 57.9747 40.6258 57.8487 40.9152 57.662C41.2138 57.466 41.4472 57.1813 41.6152 56.808C41.7832 56.4347 41.8672 55.94 41.8672 55.324C41.8672 54.708 41.7832 54.2133 41.6152 53.84C41.4472 53.4573 41.2138 53.1727 40.9152 52.986C40.6258 52.79 40.2945 52.6593 39.9212 52.594C39.5572 52.5193 39.1745 52.482 38.7732 52.482H37.8632V58.138Z" fill="#88C0D0"/>
</svg>
