<svg width="64" height="64" viewBox="0 0 64 64" fill="none" xmlns="http://www.w3.org/2000/svg">
<g clip-path="url(#clip0_23_927)">
<path d="M9.69948 0.00939941L55.0881 10H60V64H8.51813C7.66065 64 6.83828 63.6576 6.23194 63.0481C5.62561 62.4386 5.28497 61.612 5.28497 60.75V47.1433L9.60411 0.150706L9.69948 0.00939941Z" fill="#88C0D0"/>
<path d="M9.69948 0.00939941L55.0881 10H60V64H8.51813C7.66065 64 6.83828 63.6576 6.23194 63.0481C5.62561 62.4386 5.28497 61.612 5.28497 60.75V47.1433L9.60411 0.150706L9.69948 0.00939941Z" fill="black" fill-opacity="0.6"/>
<path d="M9.69948 0H52.3523C53.2098 0 54.0322 0.34241 54.6385 0.951903C55.2448 1.5614 55.5855 2.38805 55.5855 3.25V45H9.69948V0Z" fill="#88C0D0"/>
<path d="M0 50.875L9.69948 45V0L0 5.875V50.875Z" fill="#88C0D0"/>
<path d="M0 50.875L9.69948 45V0L0 5.875V50.875Z" fill="black" fill-opacity="0.25"/>
<path d="M26.109 35V30.412H29.587V14.872H26.109V10.284H38.837V14.872H35.433V30.412H38.837V35H26.109Z" fill="black" fill-opacity="0.7"/>
<path d="M19.394 60L17.14 50.648H19.352L20.654 57.13L22.026 50.648H24.322L25.708 57.13L27.01 50.648H29.222L26.968 60H24.602L23.174 53.42L21.76 60H19.394ZM33.7554 60.168C32.738 60.168 31.8794 59.9627 31.1794 59.552C30.4887 59.132 29.9987 58.5487 29.7094 57.802L31.7254 57.074C31.856 57.522 32.0987 57.8533 32.4534 58.068C32.8174 58.2827 33.256 58.39 33.7694 58.39C34.04 58.39 34.3014 58.362 34.5534 58.306C34.8054 58.2407 35.0154 58.138 35.1834 57.998C35.3514 57.8487 35.4354 57.6527 35.4354 57.41C35.4354 57.0833 35.2767 56.8313 34.9594 56.654C34.642 56.4673 34.2314 56.3273 33.7274 56.234L32.5934 56.01C32.0894 55.9073 31.618 55.7533 31.1794 55.548C30.75 55.3333 30.4047 55.0533 30.1434 54.708C29.882 54.3533 29.7514 53.91 29.7514 53.378C29.7514 52.874 29.868 52.44 30.1014 52.076C30.3347 51.712 30.6427 51.4133 31.0254 51.18C31.4174 50.9467 31.8467 50.774 32.3134 50.662C32.78 50.5407 33.2467 50.48 33.7134 50.48C34.2174 50.48 34.7027 50.55 35.1694 50.69C35.6454 50.83 36.07 51.0493 36.4434 51.348C36.8167 51.6373 37.1014 52.0247 37.2974 52.51L35.2954 53.238C35.174 52.9207 34.9547 52.678 34.6374 52.51C34.3294 52.342 33.956 52.258 33.5174 52.258C33.088 52.258 32.7287 52.3373 32.4394 52.496C32.1594 52.6453 32.0194 52.8647 32.0194 53.154C32.0194 53.3873 32.1174 53.588 32.3134 53.756C32.5094 53.924 32.766 54.0407 33.0834 54.106L34.3434 54.358C34.726 54.4327 35.1134 54.5307 35.5054 54.652C35.8974 54.764 36.2567 54.918 36.5834 55.114C36.9194 55.3007 37.19 55.5527 37.3954 55.87C37.6007 56.1873 37.7034 56.5887 37.7034 57.074C37.7034 57.5687 37.5867 58.012 37.3534 58.404C37.1294 58.7867 36.826 59.1087 36.4434 59.37C36.07 59.6313 35.65 59.832 35.1834 59.972C34.7167 60.1027 34.2407 60.168 33.7554 60.168ZM38.6433 60V50.648H42.2413C43.0533 50.648 43.7767 50.732 44.4113 50.9C45.0553 51.068 45.5593 51.3713 45.9233 51.81C46.2967 52.2487 46.4833 52.8787 46.4833 53.7C46.4833 54.512 46.2967 55.142 45.9233 55.59C45.5593 56.0287 45.0553 56.332 44.4113 56.5C43.7767 56.668 43.0533 56.752 42.2413 56.752H40.8553V60H38.6433ZM40.8553 54.918H42.3113C42.6567 54.918 42.9647 54.8853 43.2353 54.82C43.5153 54.7547 43.7347 54.6333 43.8933 54.456C44.0613 54.2787 44.1453 54.0267 44.1453 53.7C44.1453 53.3733 44.0613 53.126 43.8933 52.958C43.7347 52.7807 43.5153 52.664 43.2353 52.608C42.9647 52.5427 42.6567 52.51 42.3113 52.51H40.8553V54.918Z" fill="#88C0D0"/>
</g>
<defs>
<clipPath id="clip0_23_927">
<rect width="64" height="64" fill="white"/>
</clipPath>
</defs>
</svg>
