<svg width="64" height="64" viewBox="0 0 64 64" fill="none" xmlns="http://www.w3.org/2000/svg">
<g clip-path="url(#clip0_23_879)">
<path d="M9.69948 0.00939941L55.0881 10H60V64H8.51813C7.66065 64 6.83828 63.6576 6.23194 63.0481C5.62561 62.4386 5.28497 61.612 5.28497 60.75V47.1433L9.60411 0.150706L9.69948 0.00939941Z" fill="#88C0D0"/>
<path d="M9.69948 0.00939941L55.0881 10H60V64H8.51813C7.66065 64 6.83828 63.6576 6.23194 63.0481C5.62561 62.4386 5.28497 61.612 5.28497 60.75V47.1433L9.60411 0.150706L9.69948 0.00939941Z" fill="black" fill-opacity="0.6"/>
<path d="M9.69946 0H52.3523C53.2098 0 54.0322 0.34241 54.6385 0.951903C55.2448 1.5614 55.5855 2.38805 55.5855 3.25V45H9.69946V0Z" fill="#88C0D0"/>
<path d="M0 50.875L9.69948 45V0L0 5.875V50.875Z" fill="#88C0D0"/>
<path d="M0 50.875L9.69948 45V0L0 5.875V50.875Z" fill="black" fill-opacity="0.25"/>
<path d="M26.109 35V30.412H29.587V14.872H26.109V10.284H38.837V14.872H35.433V30.412H38.837V35H26.109Z" fill="black" fill-opacity="0.7"/>
<path d="M22.166 60.168C21.1953 60.168 20.36 59.972 19.66 59.58C18.96 59.188 18.4233 58.628 18.05 57.9C17.6767 57.172 17.49 56.3133 17.49 55.324C17.49 54.3347 17.6813 53.4807 18.064 52.762C18.456 52.034 19.0067 51.474 19.716 51.082C20.4253 50.6807 21.2607 50.48 22.222 50.48C23.1087 50.48 23.8787 50.676 24.532 51.068C25.1947 51.46 25.7033 51.9873 26.058 52.65L24.098 53.364C23.8927 52.9813 23.6127 52.7107 23.258 52.552C22.9033 52.384 22.5347 52.3 22.152 52.3C21.7227 52.3 21.3307 52.4213 20.976 52.664C20.6213 52.8973 20.3413 53.2427 20.136 53.7C19.9307 54.148 19.828 54.6893 19.828 55.324C19.828 56.304 20.052 57.0553 20.5 57.578C20.9573 58.0913 21.5173 58.348 22.18 58.348C22.5347 58.348 22.8987 58.2733 23.272 58.124C23.6547 57.9747 23.9533 57.6993 24.168 57.298L26.114 58.012C25.7407 58.6747 25.2087 59.202 24.518 59.594C23.8367 59.9767 23.0527 60.168 22.166 60.168ZM26.4899 60L30.0319 50.648H32.4679L36.0099 60H33.6019L33.0419 58.334H29.4579L28.8979 60H26.4899ZM30.0599 56.542H32.4399L31.2359 52.986L30.0599 56.542ZM36.7019 60V50.648H40.0199L41.9659 57.354L43.9399 50.648H47.2579V60H45.1019V52.65L42.8759 60H41.0559L38.8439 52.65V60H36.7019Z" fill="#88C0D0"/>
</g>
<defs>
<clipPath id="clip0_23_879">
<rect width="64" height="64" fill="white"/>
</clipPath>
</defs>
</svg>
