<svg width="64" height="64" viewBox="0 0 64 64" fill="none" xmlns="http://www.w3.org/2000/svg">
<g clip-path="url(#clip0_23_831)">
<path d="M9.69948 0.00939941L55.0881 10H60V64H8.51813C7.66065 64 6.83828 63.6576 6.23194 63.0481C5.62561 62.4386 5.28497 61.612 5.28497 60.75V47.1433L9.60411 0.150706L9.69948 0.00939941Z" fill="#88C0D0"/>
<path d="M9.69948 0.00939941L55.0881 10H60V64H8.51813C7.66065 64 6.83828 63.6576 6.23194 63.0481C5.62561 62.4386 5.28497 61.612 5.28497 60.75V47.1433L9.60411 0.150706L9.69948 0.00939941Z" fill="black" fill-opacity="0.6"/>
<path d="M9.69946 0H52.3523C53.2098 0 54.0322 0.34241 54.6385 0.951903C55.2448 1.5614 55.5855 2.38805 55.5855 3.25V45H9.69946V0Z" fill="#88C0D0"/>
<path d="M0 50.875L9.69948 45V0L0 5.875V50.875Z" fill="#88C0D0"/>
<path d="M0 50.875L9.69948 45V0L0 5.875V50.875Z" fill="black" fill-opacity="0.25"/>
<path d="M18.628 35V10.284H27.397L32.54 28.007L37.757 10.284H46.526V35H40.828V15.575L34.945 35H30.135L24.289 15.575V35H18.628Z" fill="black" fill-opacity="0.7"/>
<path d="M19.07 60L22.612 50.648H25.048L28.59 60H26.182L25.622 58.334H22.038L21.478 60H19.07ZM22.64 56.542H25.02L23.816 52.986L22.64 56.542ZM31.4463 60V56.36L27.8763 50.648H30.4523L32.5383 54.246L34.6243 50.648H37.2143L33.6443 56.36V60H31.4463ZM36.488 60L40.03 50.648H42.466L46.008 60H43.6L43.04 58.334H39.456L38.896 60H36.488ZM40.058 56.542H42.438L41.234 52.986L40.058 56.542Z" fill="#88C0D0"/>
</g>
<defs>
<clipPath id="clip0_23_831">
<rect width="64" height="64" fill="white"/>
</clipPath>
</defs>
</svg>
