<svg width="64" height="64" viewBox="0 0 64 64" fill="none" xmlns="http://www.w3.org/2000/svg">
<path d="M9.69948 0.0093689L55.0881 9.99999H60V64H8.51813C7.66065 64 6.83828 63.6576 6.23194 63.0481C5.62561 62.4386 5.28497 61.6119 5.28497 60.75V47.1432L9.60411 0.150675L9.69948 0.0093689Z" fill="#88C0D0"/>
<path d="M9.69948 0.0093689L55.0881 9.99999H60V64H8.51813C7.66065 64 6.83828 63.6576 6.23194 63.0481C5.62561 62.4386 5.28497 61.6119 5.28497 60.75V47.1432L9.60411 0.150675L9.69948 0.0093689Z" fill="black" fill-opacity="0.6"/>
<path d="M9.69946 0H52.3523C53.2098 0 54.0322 0.34241 54.6385 0.951903C55.2448 1.5614 55.5855 2.38805 55.5855 3.25V45H9.69946V0Z" fill="#88C0D0"/>
<path d="M0 50.875L9.69948 45V0L0 5.875V50.875Z" fill="#88C0D0"/>
<path d="M0 50.875L9.69948 45V0L0 5.875V50.875Z" fill="black" fill-opacity="0.25"/>
<path d="M23.628 35V10.284H41.314V15.427H29.474V19.719H41.314V24.862H29.474V35H23.628Z" fill="black" fill-opacity="0.7"/>
<path d="M17.616 60V50.648H21.214C22.026 50.648 22.7493 50.732 23.384 50.9C24.028 51.068 24.532 51.3713 24.896 51.81C25.2693 52.2487 25.456 52.8787 25.456 53.7C25.456 54.512 25.2693 55.142 24.896 55.59C24.532 56.0287 24.028 56.332 23.384 56.5C22.7493 56.668 22.026 56.752 21.214 56.752H19.828V60H17.616ZM19.828 54.918H21.284C21.6293 54.918 21.9373 54.8853 22.208 54.82C22.488 54.7547 22.7073 54.6333 22.866 54.456C23.034 54.2787 23.118 54.0267 23.118 53.7C23.118 53.3733 23.034 53.126 22.866 52.958C22.7073 52.7807 22.488 52.664 22.208 52.608C21.9373 52.5427 21.6293 52.51 21.284 52.51H19.828V54.918ZM26.3797 60V50.648H29.9777C30.7897 50.648 31.513 50.7273 32.1477 50.886C32.7917 51.0447 33.2957 51.334 33.6597 51.754C34.033 52.174 34.2197 52.7713 34.2197 53.546C34.2197 53.9007 34.1543 54.2553 34.0237 54.61C33.893 54.9553 33.6643 55.2727 33.3377 55.562C33.0203 55.8513 32.563 56.0753 31.9657 56.234L34.6817 60H32.1197L29.5857 56.472H28.5917V60H26.3797ZM28.5917 54.624H30.0477C30.5703 54.624 31.0043 54.5587 31.3497 54.428C31.7043 54.288 31.8817 54.0033 31.8817 53.574C31.8817 53.1353 31.7043 52.8507 31.3497 52.72C31.0043 52.58 30.5703 52.51 30.0477 52.51H28.5917V54.624ZM39.957 60.168C39.005 60.168 38.165 59.9673 37.437 59.566C36.709 59.1647 36.1397 58.6 35.729 57.872C35.3184 57.144 35.113 56.2947 35.113 55.324C35.113 54.3533 35.3184 53.504 35.729 52.776C36.1397 52.048 36.709 51.4833 37.437 51.082C38.165 50.6807 39.005 50.48 39.957 50.48C40.9184 50.48 41.763 50.6807 42.491 51.082C43.219 51.4833 43.7884 52.048 44.199 52.776C44.619 53.504 44.829 54.3533 44.829 55.324C44.829 56.2947 44.619 57.144 44.199 57.872C43.7884 58.6 43.219 59.1647 42.491 59.566C41.763 59.9673 40.9184 60.168 39.957 60.168ZM39.957 58.348C40.4144 58.348 40.8344 58.236 41.217 58.012C41.5997 57.7787 41.903 57.438 42.127 56.99C42.3604 56.542 42.477 55.9867 42.477 55.324C42.477 54.6613 42.3604 54.106 42.127 53.658C41.903 53.21 41.5997 52.874 41.217 52.65C40.8344 52.4167 40.4144 52.3 39.957 52.3C39.509 52.3 39.0937 52.4167 38.711 52.65C38.3284 52.874 38.0204 53.21 37.787 53.658C37.563 54.106 37.451 54.6613 37.451 55.324C37.451 55.9867 37.563 56.542 37.787 56.99C38.0204 57.438 38.3284 57.7787 38.711 58.012C39.0937 58.236 39.509 58.348 39.957 58.348Z" fill="#88C0D0"/>
</svg>
