<svg width="64" height="64" viewBox="0 0 64 64" fill="none" xmlns="http://www.w3.org/2000/svg">
<g clip-path="url(#clip0_23_819)">
<path d="M9.69948 0.00939941L55.0881 10H60V64H8.51813C7.66065 64 6.83828 63.6576 6.23194 63.0481C5.62561 62.4386 5.28497 61.612 5.28497 60.75V47.1433L9.60411 0.150706L9.69948 0.00939941Z" fill="#88C0D0"/>
<path d="M9.69948 0.00939941L55.0881 10H60V64H8.51813C7.66065 64 6.83828 63.6576 6.23194 63.0481C5.62561 62.4386 5.28497 61.612 5.28497 60.75V47.1433L9.60411 0.150706L9.69948 0.00939941Z" fill="black" fill-opacity="0.6"/>
<path d="M9.69948 0H52.3523C53.2098 0 54.0322 0.34241 54.6385 0.951903C55.2448 1.5614 55.5855 2.38805 55.5855 3.25V45H9.69948V0Z" fill="#88C0D0"/>
<path d="M0 50.875L9.69948 45V0L0 5.875V50.875Z" fill="#88C0D0"/>
<path d="M0 50.875L9.69948 45V0L0 5.875V50.875Z" fill="black" fill-opacity="0.25"/>
<path d="M26.109 35V30.412H29.587V14.872H26.109V10.284H38.837V14.872H35.433V30.412H38.837V35H26.109Z" fill="black" fill-opacity="0.7"/>
<path d="M19.798 60V58.264H21.114V52.384H19.798V50.648H24.614V52.384H23.326V58.264H24.614V60H19.798ZM30.1816 60.168C29.211 60.168 28.3756 59.972 27.6756 59.58C26.9756 59.188 26.439 58.628 26.0656 57.9C25.6923 57.172 25.5056 56.3133 25.5056 55.324C25.5056 54.3347 25.697 53.4807 26.0796 52.762C26.4716 52.034 27.0223 51.474 27.7316 51.082C28.441 50.6807 29.2763 50.48 30.2376 50.48C31.1243 50.48 31.8943 50.676 32.5476 51.068C33.2103 51.46 33.719 51.9873 34.0736 52.65L32.1136 53.364C31.9083 52.9813 31.6283 52.7107 31.2736 52.552C30.919 52.384 30.5503 52.3 30.1676 52.3C29.7383 52.3 29.3463 52.4213 28.9916 52.664C28.637 52.8973 28.357 53.2427 28.1516 53.7C27.9463 54.148 27.8436 54.6893 27.8436 55.324C27.8436 56.304 28.0676 57.0553 28.5156 57.578C28.973 58.0913 29.533 58.348 30.1956 58.348C30.5503 58.348 30.9143 58.2733 31.2876 58.124C31.6703 57.9747 31.969 57.6993 32.1836 57.298L34.1296 58.012C33.7563 58.6747 33.2243 59.202 32.5336 59.594C31.8523 59.9767 31.0683 60.168 30.1816 60.168ZM35.0515 60V50.648H38.3695L40.3155 57.354L42.2895 50.648H45.6075V60H43.4515V52.65L41.2255 60H39.4055L37.1935 52.65V60H35.0515Z" fill="#88C0D0"/>
</g>
<defs>
<clipPath id="clip0_23_819">
<rect width="64" height="64" fill="white"/>
</clipPath>
</defs>
</svg>
