<svg width="64" height="64" viewBox="0 0 64 64" fill="none" xmlns="http://www.w3.org/2000/svg">
<path d="M9.69948 0.0093689L55.0881 9.99999H60V64H8.51813C7.66065 64 6.83828 63.6576 6.23194 63.0481C5.62561 62.4386 5.28497 61.6119 5.28497 60.75V47.1432L9.60411 0.150675L9.69948 0.0093689Z" fill="#88C0D0"/>
<path d="M9.69948 0.0093689L55.0881 9.99999H60V64H8.51813C7.66065 64 6.83828 63.6576 6.23194 63.0481C5.62561 62.4386 5.28497 61.6119 5.28497 60.75V47.1432L9.60411 0.150675L9.69948 0.0093689Z" fill="black" fill-opacity="0.6"/>
<path d="M9.69948 0H52.3523C53.2098 0 54.0322 0.34241 54.6385 0.951903C55.2448 1.5614 55.5855 2.38805 55.5855 3.25V45H9.69948V0Z" fill="#88C0D0"/>
<path d="M0 50.875L9.69948 45V0L0 5.875V50.875Z" fill="#88C0D0"/>
<path d="M0 50.875L9.69948 45V0L0 5.875V50.875Z" fill="black" fill-opacity="0.25"/>
<path d="M32.653 35.444C30.0877 35.444 27.88 34.926 26.03 33.89C24.18 32.854 22.7617 31.374 21.775 29.45C20.7883 27.526 20.295 25.2567 20.295 22.642C20.295 20.0273 20.8007 17.7703 21.812 15.871C22.848 13.947 24.3033 12.467 26.178 11.431C28.0527 10.3703 30.2603 9.84 32.801 9.84C35.1443 9.84 37.1793 10.358 38.906 11.394C40.6573 12.43 42.0017 13.8237 42.939 15.575L37.759 17.462C37.2163 16.4507 36.4763 15.7353 35.539 15.316C34.6017 14.872 33.6273 14.65 32.616 14.65C31.4813 14.65 30.4453 14.9707 29.508 15.612C28.5707 16.2287 27.8307 17.1413 27.288 18.35C26.7453 19.534 26.474 20.9647 26.474 22.642C26.474 25.232 27.066 27.2177 28.25 28.599C29.4587 29.9557 30.9387 30.634 32.69 30.634C33.6273 30.634 34.5893 30.4367 35.576 30.042C36.5873 29.6473 37.3767 28.9197 37.944 27.859L43.087 29.746C42.1003 31.4973 40.6943 32.891 38.869 33.927C37.0683 34.9383 34.9963 35.444 32.653 35.444Z" fill="black" fill-opacity="0.7"/>
<path d="M25.166 60.168C24.1953 60.168 23.36 59.972 22.66 59.58C21.96 59.188 21.4233 58.628 21.05 57.9C20.6767 57.172 20.49 56.3133 20.49 55.324C20.49 54.3347 20.6813 53.4807 21.064 52.762C21.456 52.034 22.0067 51.474 22.716 51.082C23.4253 50.6807 24.2607 50.48 25.222 50.48C26.1087 50.48 26.8787 50.676 27.532 51.068C28.1947 51.46 28.7033 51.9873 29.058 52.65L27.098 53.364C26.8927 52.9813 26.6127 52.7107 26.258 52.552C25.9033 52.384 25.5347 52.3 25.152 52.3C24.7227 52.3 24.3307 52.4213 23.976 52.664C23.6213 52.8973 23.3413 53.2427 23.136 53.7C22.9307 54.148 22.828 54.6893 22.828 55.324C22.828 56.304 23.052 57.0553 23.5 57.578C23.9573 58.0913 24.5173 58.348 25.18 58.348C25.5347 58.348 25.8987 58.2733 26.272 58.124C26.6547 57.9747 26.9533 57.6993 27.168 57.298L29.114 58.012C28.7407 58.6747 28.2087 59.202 27.518 59.594C26.8367 59.9767 26.0527 60.168 25.166 60.168ZM30.0359 60V50.648H32.2479V58.054H36.7279V60H30.0359ZM37.5555 60V50.648H41.6435C42.3248 50.648 42.9315 50.718 43.4635 50.858C43.9955 50.9887 44.4155 51.2313 44.7235 51.586C45.0408 51.9313 45.1995 52.4307 45.1995 53.084C45.1995 53.5133 45.1015 53.8913 44.9055 54.218C44.7188 54.5447 44.4481 54.8153 44.0935 55.03C44.5321 55.1793 44.8868 55.422 45.1575 55.758C45.4375 56.094 45.5775 56.5467 45.5775 57.116C45.5775 57.816 45.4188 58.376 45.1015 58.796C44.7935 59.216 44.3548 59.524 43.7855 59.72C43.2161 59.9067 42.5535 60 41.7975 60H37.5555ZM39.7675 54.344H41.7135C42.0868 54.344 42.3761 54.26 42.5815 54.092C42.7961 53.9147 42.9035 53.6813 42.9035 53.392C42.9035 53.0933 42.7961 52.8647 42.5815 52.706C42.3761 52.538 42.0868 52.454 41.7135 52.454H39.7675V54.344ZM39.7675 58.166H41.8115C42.2875 58.166 42.6421 58.0727 42.8755 57.886C43.1181 57.69 43.2395 57.4287 43.2395 57.102C43.2395 56.7753 43.1181 56.5187 42.8755 56.332C42.6421 56.1453 42.2875 56.052 41.8115 56.052H39.7675V58.166Z" fill="#88C0D0"/>
</svg>
