<svg width="64" height="64" viewBox="0 0 64 64" fill="none" xmlns="http://www.w3.org/2000/svg">
<g clip-path="url(#clip0_23_903)">
<path d="M9.69948 0.00939941L55.0881 10H60V64H8.51813C7.66065 64 6.83828 63.6576 6.23194 63.0481C5.62561 62.4386 5.28497 61.612 5.28497 60.75V47.1433L9.60411 0.150706L9.69948 0.00939941Z" fill="#88C0D0"/>
<path d="M9.69948 0.00939941L55.0881 10H60V64H8.51813C7.66065 64 6.83828 63.6576 6.23194 63.0481C5.62561 62.4386 5.28497 61.612 5.28497 60.75V47.1433L9.60411 0.150706L9.69948 0.00939941Z" fill="black" fill-opacity="0.6"/>
<path d="M9.69949 0H52.3523C53.2098 0 54.0322 0.34241 54.6385 0.951903C55.2449 1.5614 55.5855 2.38805 55.5855 3.25V45H9.69949V0Z" fill="#88C0D0"/>
<path d="M0 50.875L9.69948 45V0L0 5.875V50.875Z" fill="#88C0D0"/>
<path d="M0 50.875L9.69948 45V0L0 5.875V50.875Z" fill="black" fill-opacity="0.25"/>
<path d="M25.109 35V30.412H28.587V14.872H25.109V10.284H37.837V14.872H34.433V30.412H37.837V35H25.109Z" fill="black" fill-opacity="0.7"/>
<path d="M20.798 60V58.264H22.114V52.384H20.798V50.648H25.614V52.384H24.326V58.264H25.614V60H20.798ZM27.0281 60V50.648H29.8421L33.4541 57.312V50.648H35.5961V60H32.7681L29.1561 53.336V60H27.0281ZM40.6108 60.168C39.5935 60.168 38.7348 59.9627 38.0348 59.552C37.3442 59.132 36.8542 58.5487 36.5648 57.802L38.5808 57.074C38.7115 57.522 38.9542 57.8533 39.3088 58.068C39.6728 58.2827 40.1115 58.39 40.6248 58.39C40.8955 58.39 41.1568 58.362 41.4088 58.306C41.6608 58.2407 41.8708 58.138 42.0388 57.998C42.2068 57.8487 42.2908 57.6527 42.2908 57.41C42.2908 57.0833 42.1322 56.8313 41.8148 56.654C41.4975 56.4673 41.0868 56.3273 40.5828 56.234L39.4488 56.01C38.9448 55.9073 38.4735 55.7533 38.0348 55.548C37.6055 55.3333 37.2602 55.0533 36.9988 54.708C36.7375 54.3533 36.6068 53.91 36.6068 53.378C36.6068 52.874 36.7235 52.44 36.9568 52.076C37.1902 51.712 37.4982 51.4133 37.8808 51.18C38.2728 50.9467 38.7022 50.774 39.1688 50.662C39.6355 50.5407 40.1022 50.48 40.5688 50.48C41.0728 50.48 41.5582 50.55 42.0248 50.69C42.5008 50.83 42.9255 51.0493 43.2988 51.348C43.6722 51.6373 43.9568 52.0247 44.1528 52.51L42.1508 53.238C42.0295 52.9207 41.8102 52.678 41.4928 52.51C41.1848 52.342 40.8115 52.258 40.3728 52.258C39.9435 52.258 39.5842 52.3373 39.2948 52.496C39.0148 52.6453 38.8748 52.8647 38.8748 53.154C38.8748 53.3873 38.9728 53.588 39.1688 53.756C39.3648 53.924 39.6215 54.0407 39.9388 54.106L41.1988 54.358C41.5815 54.4327 41.9688 54.5307 42.3608 54.652C42.7528 54.764 43.1122 54.918 43.4388 55.114C43.7748 55.3007 44.0455 55.5527 44.2508 55.87C44.4562 56.1873 44.5588 56.5887 44.5588 57.074C44.5588 57.5687 44.4422 58.012 44.2088 58.404C43.9848 58.7867 43.6815 59.1087 43.2988 59.37C42.9255 59.6313 42.5055 59.832 42.0388 59.972C41.5722 60.1027 41.0962 60.168 40.6108 60.168Z" fill="#88C0D0"/>
</g>
<defs>
<clipPath id="clip0_23_903">
<rect width="64" height="64" fill="white"/>
</clipPath>
</defs>
</svg>
