<svg width="64" height="64" viewBox="0 0 64 64" fill="none" xmlns="http://www.w3.org/2000/svg">
<g clip-path="url(#clip0_23_843)">
<path d="M9.69948 0.00939941L55.0881 10H60V64H8.51813C7.66065 64 6.83828 63.6576 6.23194 63.0481C5.62561 62.4386 5.28497 61.612 5.28497 60.75V47.1433L9.60411 0.150706L9.69948 0.00939941Z" fill="#88C0D0"/>
<path d="M9.69948 0.00939941L55.0881 10H60V64H8.51813C7.66065 64 6.83828 63.6576 6.23194 63.0481C5.62561 62.4386 5.28497 61.612 5.28497 60.75V47.1433L9.60411 0.150706L9.69948 0.00939941Z" fill="black" fill-opacity="0.6"/>
<path d="M9.69946 0H52.3523C53.2098 0 54.0322 0.34241 54.6385 0.951903C55.2448 1.5614 55.5855 2.38805 55.5855 3.25V45H9.69946V0Z" fill="#88C0D0"/>
<path d="M0 50.875L9.69948 45V0L0 5.875V50.875Z" fill="#88C0D0"/>
<path d="M0 50.875L9.69948 45V0L0 5.875V50.875Z" fill="black" fill-opacity="0.25"/>
<path d="M26.109 35V30.412H29.587V14.872H26.109V10.284H38.837V14.872H35.433V30.412H38.837V35H26.109Z" fill="black" fill-opacity="0.7"/>
<path d="M23.22 60V52.594H20.21V50.648H28.428V52.594H25.418V60H23.22ZM29.2566 60V50.648H31.4686V58.054H35.9486V60H29.2566ZM36.7762 60V50.648H40.3742C41.1862 50.648 41.9095 50.7273 42.5442 50.886C43.1882 51.0447 43.6922 51.334 44.0562 51.754C44.4295 52.174 44.6162 52.7713 44.6162 53.546C44.6162 53.9007 44.5508 54.2553 44.4202 54.61C44.2895 54.9553 44.0608 55.2727 43.7342 55.562C43.4168 55.8513 42.9595 56.0753 42.3622 56.234L45.0782 60H42.5162L39.9822 56.472H38.9882V60H36.7762ZM38.9882 54.624H40.4442C40.9668 54.624 41.4008 54.5587 41.7462 54.428C42.1008 54.288 42.2782 54.0033 42.2782 53.574C42.2782 53.1353 42.1008 52.8507 41.7462 52.72C41.4008 52.58 40.9668 52.51 40.4442 52.51H38.9882V54.624Z" fill="#88C0D0"/>
</g>
<defs>
<clipPath id="clip0_23_843">
<rect width="64" height="64" fill="white"/>
</clipPath>
</defs>
</svg>
