<svg width="64" height="64" viewBox="0 0 64 64" fill="none" xmlns="http://www.w3.org/2000/svg">
<path d="M9.69948 0.0093689L55.0881 9.99999H60V64H8.51813C7.66065 64 6.83828 63.6576 6.23194 63.0481C5.62561 62.4386 5.28497 61.6119 5.28497 60.75V47.1432L9.60411 0.150675L9.69948 0.0093689Z" fill="#88C0D0"/>
<path d="M9.69948 0.0093689L55.0881 9.99999H60V64H8.51813C7.66065 64 6.83828 63.6576 6.23194 63.0481C5.62561 62.4386 5.28497 61.6119 5.28497 60.75V47.1432L9.60411 0.150675L9.69948 0.0093689Z" fill="black" fill-opacity="0.6"/>
<path d="M9.69948 0H52.3523C53.2098 0 54.0322 0.34241 54.6385 0.951903C55.2448 1.5614 55.5855 2.38805 55.5855 3.25V45H9.69948V0Z" fill="#88C0D0"/>
<path d="M0 50.875L9.69948 45V0L0 5.875V50.875Z" fill="#88C0D0"/>
<path d="M0 50.875L9.69948 45V0L0 5.875V50.875Z" fill="black" fill-opacity="0.25"/>
<path d="M20.185 35L29.546 10.284H35.984L45.345 35H38.981L37.501 30.597H28.029L26.549 35H20.185ZM29.62 25.861H35.91L32.728 16.463L29.62 25.861Z" fill="black" fill-opacity="0.7"/>
<path d="M17.616 60V50.648H20.934L22.88 57.354L24.854 50.648H28.172V60H26.016V52.65L23.79 60H21.97L19.758 52.65V60H17.616ZM29.4012 60V50.648H36.5972V52.594H31.6132V54.218H34.6512V56.164H31.6132V58.054H36.5972V60H29.4012ZM41.8125 60.168C40.8418 60.168 40.0065 59.972 39.3065 59.58C38.6065 59.188 38.0698 58.628 37.6965 57.9C37.3232 57.172 37.1365 56.3133 37.1365 55.324C37.1365 54.3347 37.3278 53.4807 37.7105 52.762C38.1025 52.034 38.6532 51.474 39.3625 51.082C40.0718 50.6807 40.9072 50.48 41.8685 50.48C42.7552 50.48 43.5252 50.676 44.1785 51.068C44.8412 51.46 45.3498 51.9873 45.7045 52.65L43.7445 53.364C43.5392 52.9813 43.2592 52.7107 42.9045 52.552C42.5498 52.384 42.1812 52.3 41.7985 52.3C41.3692 52.3 40.9772 52.4213 40.6225 52.664C40.2678 52.8973 39.9878 53.2427 39.7825 53.7C39.5772 54.148 39.4745 54.6893 39.4745 55.324C39.4745 56.304 39.6985 57.0553 40.1465 57.578C40.6038 58.0913 41.1638 58.348 41.8265 58.348C42.1812 58.348 42.5452 58.2733 42.9185 58.124C43.3012 57.9747 43.5998 57.6993 43.8145 57.298L45.7605 58.012C45.3872 58.6747 44.8552 59.202 44.1645 59.594C43.4832 59.9767 42.6992 60.168 41.8125 60.168Z" fill="#88C0D0"/>
</svg>
