<svg width="64" height="64" viewBox="0 0 64 64" fill="none" xmlns="http://www.w3.org/2000/svg">
<g clip-path="url(#clip0_23_855)">
<path d="M9.69948 0.00939941L55.0881 10H60V64H8.51813C7.66065 64 6.83828 63.6576 6.23194 63.0481C5.62561 62.4386 5.28497 61.612 5.28497 60.75V47.1433L9.60411 0.150706L9.69948 0.00939941Z" fill="#88C0D0"/>
<path d="M9.69948 0.00939941L55.0881 10H60V64H8.51813C7.66065 64 6.83828 63.6576 6.23194 63.0481C5.62561 62.4386 5.28497 61.612 5.28497 60.75V47.1433L9.60411 0.150706L9.69948 0.00939941Z" fill="black" fill-opacity="0.6"/>
<path d="M9.69946 0H52.3523C53.2098 0 54.0322 0.34241 54.6385 0.951903C55.2448 1.5614 55.5855 2.38805 55.5855 3.25V45H9.69946V0Z" fill="#88C0D0"/>
<path d="M0 50.875L9.69948 45V0L0 5.875V50.875Z" fill="#88C0D0"/>
<path d="M0 50.875L9.69948 45V0L0 5.875V50.875Z" fill="black" fill-opacity="0.25"/>
<path d="M26.109 35V30.412H29.587V14.872H26.109V10.284H38.837V14.872H35.433V30.412H38.837V35H26.109Z" fill="black" fill-opacity="0.7"/>
<path d="M19.616 60V50.648H22.43L26.042 57.312V50.648H28.184V60H25.356L21.744 53.336V60H19.616ZM33.1987 60.168C32.1814 60.168 31.3227 59.9627 30.6227 59.552C29.9321 59.132 29.4421 58.5487 29.1527 57.802L31.1687 57.074C31.2994 57.522 31.5421 57.8533 31.8967 58.068C32.2607 58.2827 32.6994 58.39 33.2127 58.39C33.4834 58.39 33.7447 58.362 33.9967 58.306C34.2487 58.2407 34.4587 58.138 34.6267 57.998C34.7947 57.8487 34.8787 57.6527 34.8787 57.41C34.8787 57.0833 34.7201 56.8313 34.4027 56.654C34.0854 56.4673 33.6747 56.3273 33.1707 56.234L32.0367 56.01C31.5327 55.9073 31.0614 55.7533 30.6227 55.548C30.1934 55.3333 29.8481 55.0533 29.5867 54.708C29.3254 54.3533 29.1947 53.91 29.1947 53.378C29.1947 52.874 29.3114 52.44 29.5447 52.076C29.7781 51.712 30.0861 51.4133 30.4687 51.18C30.8607 50.9467 31.2901 50.774 31.7567 50.662C32.2234 50.5407 32.6901 50.48 33.1567 50.48C33.6607 50.48 34.1461 50.55 34.6127 50.69C35.0887 50.83 35.5134 51.0493 35.8867 51.348C36.2601 51.6373 36.5447 52.0247 36.7407 52.51L34.7387 53.238C34.6174 52.9207 34.3981 52.678 34.0807 52.51C33.7727 52.342 33.3994 52.258 32.9607 52.258C32.5314 52.258 32.1721 52.3373 31.8827 52.496C31.6027 52.6453 31.4627 52.8647 31.4627 53.154C31.4627 53.3873 31.5607 53.588 31.7567 53.756C31.9527 53.924 32.2094 54.0407 32.5267 54.106L33.7867 54.358C34.1694 54.4327 34.5567 54.5307 34.9487 54.652C35.3407 54.764 35.7001 54.918 36.0267 55.114C36.3627 55.3007 36.6334 55.5527 36.8387 55.87C37.0441 56.1873 37.1467 56.5887 37.1467 57.074C37.1467 57.5687 37.0301 58.012 36.7967 58.404C36.5727 58.7867 36.2694 59.1087 35.8867 59.37C35.5134 59.6313 35.0934 59.832 34.6267 59.972C34.1601 60.1027 33.6841 60.168 33.1987 60.168ZM40.6907 60V52.594H37.6807V50.648H45.8987V52.594H42.8887V60H40.6907Z" fill="#88C0D0"/>
</g>
<defs>
<clipPath id="clip0_23_855">
<rect width="64" height="64" fill="white"/>
</clipPath>
</defs>
</svg>
