<svg width="64" height="64" viewBox="0 0 64 64" fill="none" xmlns="http://www.w3.org/2000/svg">
<path d="M9.69948 0.00937653L55.0881 10H60V64H8.51813C7.66065 64 6.83828 63.6576 6.23194 63.0481C5.62561 62.4386 5.28497 61.612 5.28497 60.75V47.1433L9.60411 0.150683L9.69948 0.00937653Z" fill="#88C0D0"/>
<path d="M9.69948 0.00937653L55.0881 10H60V64H8.51813C7.66065 64 6.83828 63.6576 6.23194 63.0481C5.62561 62.4386 5.28497 61.612 5.28497 60.75V47.1433L9.60411 0.150683L9.69948 0.00937653Z" fill="black" fill-opacity="0.6"/>
<path d="M9.69946 0H52.3523C53.2098 0 54.0322 0.34241 54.6385 0.951903C55.2448 1.5614 55.5855 2.38805 55.5855 3.25V45H9.69946V0Z" fill="#88C0D0"/>
<path d="M0 50.875L9.69948 45V0L0 5.875V50.875Z" fill="#88C0D0"/>
<path d="M0 50.875L9.69948 45V0L0 5.875V50.875Z" fill="black" fill-opacity="0.25"/>
<path d="M20.185 35L29.546 10.284H35.984L45.345 35H38.981L37.501 30.597H28.029L26.549 35H20.185ZM29.62 25.861H35.91L32.728 16.463L29.62 25.861Z" fill="black" fill-opacity="0.7"/>
<path d="M19.07 60L22.612 50.648H25.048L28.59 60H26.182L25.622 58.334H22.038L21.478 60H19.07ZM22.64 56.542H25.02L23.816 52.986L22.64 56.542ZM29.282 60V50.648H32.88C33.692 50.648 34.4153 50.7273 35.05 50.886C35.694 51.0447 36.198 51.334 36.562 51.754C36.9353 52.174 37.122 52.7713 37.122 53.546C37.122 53.9007 37.0567 54.2553 36.926 54.61C36.7953 54.9553 36.5667 55.2727 36.24 55.562C35.9227 55.8513 35.4653 56.0753 34.868 56.234L37.584 60H35.022L32.488 56.472H31.494V60H29.282ZM31.494 54.624H32.95C33.4727 54.624 33.9067 54.5587 34.252 54.428C34.6067 54.288 34.784 54.0033 34.784 53.574C34.784 53.1353 34.6067 52.8507 34.252 52.72C33.9067 52.58 33.4727 52.51 32.95 52.51H31.494V54.624ZM42.6914 60.168C41.7207 60.168 40.8854 59.972 40.1854 59.58C39.4854 59.188 38.9487 58.628 38.5754 57.9C38.2021 57.172 38.0154 56.3133 38.0154 55.324C38.0154 54.3347 38.2067 53.4807 38.5894 52.762C38.9814 52.034 39.5321 51.474 40.2414 51.082C40.9507 50.6807 41.7861 50.48 42.7474 50.48C43.6341 50.48 44.4041 50.676 45.0574 51.068C45.7201 51.46 46.2287 51.9873 46.5834 52.65L44.6234 53.364C44.4181 52.9813 44.1381 52.7107 43.7834 52.552C43.4287 52.384 43.0601 52.3 42.6774 52.3C42.2481 52.3 41.8561 52.4213 41.5014 52.664C41.1467 52.8973 40.8667 53.2427 40.6614 53.7C40.4561 54.148 40.3534 54.6893 40.3534 55.324C40.3534 56.304 40.5774 57.0553 41.0254 57.578C41.4827 58.0913 42.0427 58.348 42.7054 58.348C43.0601 58.348 43.4241 58.2733 43.7974 58.124C44.1801 57.9747 44.4787 57.6993 44.6934 57.298L46.6394 58.012C46.2661 58.6747 45.7341 59.202 45.0434 59.594C44.3621 59.9767 43.5781 60.168 42.6914 60.168Z" fill="#88C0D0"/>
</svg>
