<svg width="64" height="64" viewBox="0 0 64 64" fill="none" xmlns="http://www.w3.org/2000/svg">
<g clip-path="url(#clip0_26_1302)">
<path d="M9.69948 0.00939941L55.0881 10H60V64H8.51813C7.66065 64 6.83828 63.6576 6.23194 63.0481C5.62561 62.4386 5.28497 61.612 5.28497 60.75V47.1433L9.60411 0.150706L9.69948 0.00939941Z" fill="#88C0D0"/>
<path d="M9.69948 0.00939941L55.0881 10H60V64H8.51813C7.66065 64 6.83828 63.6576 6.23194 63.0481C5.62561 62.4386 5.28497 61.612 5.28497 60.75V47.1433L9.60411 0.150706L9.69948 0.00939941Z" fill="black" fill-opacity="0.6"/>
<path d="M9.69946 0H52.3523C53.2098 0 54.0322 0.34241 54.6385 0.951903C55.2448 1.5614 55.5855 2.38805 55.5855 3.25V45H9.69946V0Z" fill="#88C0D0"/>
<path d="M0 50.875L9.69948 45V0L0 5.875V50.875Z" fill="#88C0D0"/>
<path d="M0 50.875L9.69948 45V0L0 5.875V50.875Z" fill="black" fill-opacity="0.25"/>
<path d="M31.618 35.444C28.9293 35.444 26.66 34.9013 24.81 33.816C22.9847 32.706 21.6897 31.1643 20.925 29.191L26.253 27.267C26.5983 28.451 27.2397 29.3267 28.177 29.894C29.139 30.4613 30.2983 30.745 31.655 30.745C32.3703 30.745 33.061 30.671 33.727 30.523C34.393 30.3503 34.948 30.079 35.392 29.709C35.836 29.3143 36.058 28.7963 36.058 28.155C36.058 27.2917 35.6387 26.6257 34.8 26.157C33.9613 25.6637 32.876 25.2937 31.544 25.047L28.547 24.455C27.215 24.1837 25.9693 23.7767 24.81 23.234C23.6753 22.6667 22.7627 21.9267 22.072 21.014C21.3813 20.0767 21.036 18.905 21.036 17.499C21.036 16.167 21.3443 15.02 21.961 14.058C22.5777 13.096 23.3917 12.3067 24.403 11.69C25.439 11.0733 26.5737 10.617 27.807 10.321C29.0403 10.0003 30.2737 9.84 31.507 9.84C32.839 9.84 34.1217 10.025 35.355 10.395C36.613 10.765 37.7353 11.3447 38.722 12.134C39.7087 12.8987 40.461 13.9223 40.979 15.205L35.688 17.129C35.3673 16.2903 34.7877 15.649 33.949 15.205C33.135 14.761 32.1483 14.539 30.989 14.539C29.8543 14.539 28.9047 14.7487 28.14 15.168C27.4 15.5627 27.03 16.1423 27.03 16.907C27.03 17.5237 27.289 18.054 27.807 18.498C28.325 18.942 29.0033 19.2503 29.842 19.423L33.172 20.089C34.1833 20.2863 35.207 20.5453 36.243 20.866C37.279 21.162 38.2287 21.569 39.092 22.087C39.98 22.5803 40.6953 23.2463 41.238 24.085C41.7807 24.9237 42.052 25.9843 42.052 27.267C42.052 28.5743 41.7437 29.746 41.127 30.782C40.535 31.7933 39.7333 32.6443 38.722 33.335C37.7353 34.0257 36.6253 34.556 35.392 34.926C34.1587 35.2713 32.9007 35.444 31.618 35.444Z" fill="black" fill-opacity="0.7"/>
<path d="M23.396 60.168C22.3787 60.168 21.52 59.9627 20.82 59.552C20.1293 59.132 19.6393 58.5487 19.35 57.802L21.366 57.074C21.4967 57.522 21.7393 57.8533 22.094 58.068C22.458 58.2827 22.8967 58.39 23.41 58.39C23.6807 58.39 23.942 58.362 24.194 58.306C24.446 58.2407 24.656 58.138 24.824 57.998C24.992 57.8487 25.076 57.6527 25.076 57.41C25.076 57.0833 24.9173 56.8313 24.6 56.654C24.2827 56.4673 23.872 56.3273 23.368 56.234L22.234 56.01C21.73 55.9073 21.2587 55.7533 20.82 55.548C20.3907 55.3333 20.0453 55.0533 19.784 54.708C19.5227 54.3533 19.392 53.91 19.392 53.378C19.392 52.874 19.5087 52.44 19.742 52.076C19.9753 51.712 20.2833 51.4133 20.666 51.18C21.058 50.9467 21.4873 50.774 21.954 50.662C22.4207 50.5407 22.8873 50.48 23.354 50.48C23.858 50.48 24.3433 50.55 24.81 50.69C25.286 50.83 25.7107 51.0493 26.084 51.348C26.4573 51.6373 26.742 52.0247 26.938 52.51L24.936 53.238C24.8147 52.9207 24.5953 52.678 24.278 52.51C23.97 52.342 23.5967 52.258 23.158 52.258C22.7287 52.258 22.3693 52.3373 22.08 52.496C21.8 52.6453 21.66 52.8647 21.66 53.154C21.66 53.3873 21.758 53.588 21.954 53.756C22.15 53.924 22.4067 54.0407 22.724 54.106L23.984 54.358C24.3667 54.4327 24.754 54.5307 25.146 54.652C25.538 54.764 25.8973 54.918 26.224 55.114C26.56 55.3007 26.8307 55.5527 27.036 55.87C27.2413 56.1873 27.344 56.5887 27.344 57.074C27.344 57.5687 27.2273 58.012 26.994 58.404C26.77 58.7867 26.4667 59.1087 26.084 59.37C25.7107 59.6313 25.2907 59.832 24.824 59.972C24.3573 60.1027 23.8813 60.168 23.396 60.168ZM28.284 60V50.648H32.372C33.0533 50.648 33.66 50.718 34.192 50.858C34.724 50.9887 35.144 51.2313 35.452 51.586C35.7693 51.9313 35.928 52.4307 35.928 53.084C35.928 53.5133 35.83 53.8913 35.634 54.218C35.4473 54.5447 35.1766 54.8153 34.822 55.03C35.2606 55.1793 35.6153 55.422 35.886 55.758C36.166 56.094 36.306 56.5467 36.306 57.116C36.306 57.816 36.1473 58.376 35.83 58.796C35.522 59.216 35.0833 59.524 34.514 59.72C33.9446 59.9067 33.282 60 32.526 60H28.284ZM30.496 54.344H32.442C32.8153 54.344 33.1046 54.26 33.31 54.092C33.5246 53.9147 33.632 53.6813 33.632 53.392C33.632 53.0933 33.5246 52.8647 33.31 52.706C33.1046 52.538 32.8153 52.454 32.442 52.454H30.496V54.344ZM30.496 58.166H32.54C33.016 58.166 33.3706 58.0727 33.604 57.886C33.8466 57.69 33.968 57.4287 33.968 57.102C33.968 56.7753 33.8466 56.5187 33.604 56.332C33.3706 56.1453 33.016 56.052 32.54 56.052H30.496V58.166ZM37.2254 60V50.648H40.3054C41.0707 50.648 41.78 50.7273 42.4334 50.886C43.096 51.0353 43.67 51.292 44.1554 51.656C44.65 52.0107 45.0327 52.4913 45.3034 53.098C45.5834 53.6953 45.7234 54.4373 45.7234 55.324C45.7234 56.22 45.5834 56.9667 45.3034 57.564C45.0327 58.1613 44.65 58.642 44.1554 59.006C43.67 59.3607 43.096 59.6173 42.4334 59.776C41.78 59.9253 41.0707 60 40.3054 60H37.2254ZM39.4374 58.138H40.3474C40.7487 58.138 41.1314 58.1053 41.4954 58.04C41.8687 57.9747 42.2 57.8487 42.4894 57.662C42.788 57.466 43.0214 57.1813 43.1894 56.808C43.3574 56.4347 43.4414 55.94 43.4414 55.324C43.4414 54.708 43.3574 54.2133 43.1894 53.84C43.0214 53.4573 42.788 53.1727 42.4894 52.986C42.2 52.79 41.8687 52.6593 41.4954 52.594C41.1314 52.5193 40.7487 52.482 40.3474 52.482H39.4374V58.138Z" fill="#88C0D0"/>
</g>
<defs>
<clipPath id="clip0_26_1302">
<rect width="64" height="64" fill="white"/>
</clipPath>
</defs>
</svg>
