<svg width="64" height="64" viewBox="0 0 64 64" fill="none" xmlns="http://www.w3.org/2000/svg">
<path d="M9.69948 0.0093689L55.0881 9.99999H60V64H8.51813C7.66065 64 6.83828 63.6576 6.23194 63.0481C5.62561 62.4386 5.28497 61.6119 5.28497 60.75V47.1432L9.60411 0.150675L9.69948 0.0093689Z" fill="#88C0D0"/>
<path d="M9.69948 0.0093689L55.0881 9.99999H60V64H8.51813C7.66065 64 6.83828 63.6576 6.23194 63.0481C5.62561 62.4386 5.28497 61.6119 5.28497 60.75V47.1432L9.60411 0.150675L9.69948 0.0093689Z" fill="black" fill-opacity="0.6"/>
<path d="M9.69948 0H52.3523C53.2098 0 54.0322 0.34241 54.6385 0.951903C55.2448 1.5614 55.5855 2.38805 55.5855 3.25V45H9.69948V0Z" fill="#88C0D0"/>
<path d="M0 50.875L9.69948 45V0L0 5.875V50.875Z" fill="#88C0D0"/>
<path d="M0 50.875L9.69948 45V0L0 5.875V50.875Z" fill="black" fill-opacity="0.25"/>
<path d="M20.185 35L29.546 10.284H35.984L45.345 35H38.981L37.501 30.597H28.029L26.549 35H20.185ZM29.62 25.861H35.91L32.728 16.463L29.62 25.861Z" fill="black" fill-opacity="0.7"/>
<path d="M18.616 60V50.648H21.934L23.88 57.354L25.854 50.648H29.172V60H27.016V52.65L24.79 60H22.97L20.758 52.65V60H18.616ZM30.4012 60V50.648H37.5972V52.594H32.6132V54.218H35.6512V56.164H32.6132V58.054H37.5972V60H30.4012ZM38.5223 60V50.648H42.1203C42.9323 50.648 43.6556 50.732 44.2903 50.9C44.9343 51.068 45.4383 51.3713 45.8023 51.81C46.1756 52.2487 46.3623 52.8787 46.3623 53.7C46.3623 54.512 46.1756 55.142 45.8023 55.59C45.4383 56.0287 44.9343 56.332 44.2903 56.5C43.6556 56.668 42.9323 56.752 42.1203 56.752H40.7343V60H38.5223ZM40.7343 54.918H42.1903C42.5356 54.918 42.8436 54.8853 43.1143 54.82C43.3943 54.7547 43.6136 54.6333 43.7723 54.456C43.9403 54.2787 44.0243 54.0267 44.0243 53.7C44.0243 53.3733 43.9403 53.126 43.7723 52.958C43.6136 52.7807 43.3943 52.664 43.1143 52.608C42.8436 52.5427 42.5356 52.51 42.1903 52.51H40.7343V54.918Z" fill="#88C0D0"/>
</svg>
