<svg width="64" height="64" viewBox="0 0 64 64" fill="none" xmlns="http://www.w3.org/2000/svg">
<path d="M9.69948 0.00937653L55.0881 10H60V64H8.51813C7.66065 64 6.83828 63.6576 6.23194 63.0481C5.62561 62.4386 5.28497 61.612 5.28497 60.75V47.1433L9.60411 0.150683L9.69948 0.00937653Z" fill="#88C0D0"/>
<path d="M9.69948 0.00937653L55.0881 10H60V64H8.51813C7.66065 64 6.83828 63.6576 6.23194 63.0481C5.62561 62.4386 5.28497 61.612 5.28497 60.75V47.1433L9.60411 0.150683L9.69948 0.00937653Z" fill="black" fill-opacity="0.6"/>
<path d="M9.69946 0H52.3523C53.2098 0 54.0322 0.34241 54.6385 0.951903C55.2448 1.5614 55.5855 2.38805 55.5855 3.25V45H9.69946V0Z" fill="#88C0D0"/>
<path d="M0 50.875L9.69948 45V0L0 5.875V50.875Z" fill="#88C0D0"/>
<path d="M0 50.875L9.69948 45V0L0 5.875V50.875Z" fill="black" fill-opacity="0.25"/>
<path d="M20.185 35L29.546 10.284H35.984L45.345 35H38.981L37.501 30.597H28.029L26.549 35H20.185ZM29.62 25.861H35.91L32.728 16.463L29.62 25.861Z" fill="black" fill-opacity="0.7"/>
<path d="M20.616 60V50.648H27.812V52.594H22.828V54.218H25.866V56.164H22.828V58.054H27.812V60H20.616ZM28.7371 60V50.648H30.9491V58.054H35.4291V60H28.7371ZM40.2871 60.168C39.3164 60.168 38.4811 59.972 37.7811 59.58C37.0811 59.188 36.5444 58.628 36.1711 57.9C35.7978 57.172 35.6111 56.3133 35.6111 55.324C35.6111 54.3347 35.8024 53.4807 36.1851 52.762C36.5771 52.034 37.1278 51.474 37.8371 51.082C38.5464 50.6807 39.3818 50.48 40.3431 50.48C41.2298 50.48 41.9998 50.676 42.6531 51.068C43.3158 51.46 43.8244 51.9873 44.1791 52.65L42.2191 53.364C42.0138 52.9813 41.7338 52.7107 41.3791 52.552C41.0244 52.384 40.6558 52.3 40.2731 52.3C39.8438 52.3 39.4518 52.4213 39.0971 52.664C38.7424 52.8973 38.4624 53.2427 38.2571 53.7C38.0518 54.148 37.9491 54.6893 37.9491 55.324C37.9491 56.304 38.1731 57.0553 38.6211 57.578C39.0784 58.0913 39.6384 58.348 40.3011 58.348C40.6558 58.348 41.0198 58.2733 41.3931 58.124C41.7758 57.9747 42.0744 57.6993 42.2891 57.298L44.2351 58.012C43.8618 58.6747 43.3298 59.202 42.6391 59.594C41.9578 59.9767 41.1738 60.168 40.2871 60.168Z" fill="#88C0D0"/>
</svg>
