<svg width="64" height="64" viewBox="0 0 64 64" fill="none" xmlns="http://www.w3.org/2000/svg">
<path d="M9.69948 0.0093689L55.0881 9.99999H60V64H8.51813C7.66065 64 6.83828 63.6576 6.23194 63.0481C5.62561 62.4386 5.28497 61.6119 5.28497 60.75V47.1432L9.60411 0.150675L9.69948 0.0093689Z" fill="#88C0D0"/>
<path d="M9.69948 0.0093689L55.0881 9.99999H60V64H8.51813C7.66065 64 6.83828 63.6576 6.23194 63.0481C5.62561 62.4386 5.28497 61.6119 5.28497 60.75V47.1432L9.60411 0.150675L9.69948 0.0093689Z" fill="black" fill-opacity="0.6"/>
<path d="M9.69949 0H52.3523C53.2098 0 54.0322 0.34241 54.6385 0.951903C55.2449 1.5614 55.5855 2.38805 55.5855 3.25V45H9.69949V0Z" fill="#88C0D0"/>
<path d="M0 50.875L9.69948 45V0L0 5.875V50.875Z" fill="#88C0D0"/>
<path d="M0 50.875L9.69948 45V0L0 5.875V50.875Z" fill="black" fill-opacity="0.25"/>
<path d="M23.628 35V10.284H41.314V15.427H29.474V19.719H41.314V24.862H29.474V35H23.628Z" fill="black" fill-opacity="0.7"/>
<path d="M19.616 60V50.648H26.308V52.594H21.828V54.218H26.308V56.164H21.828V60H19.616ZM27.2312 60V50.648H30.3112C31.0766 50.648 31.7859 50.7273 32.4392 50.886C33.1019 51.0353 33.6759 51.292 34.1612 51.656C34.6559 52.0107 35.0386 52.4913 35.3092 53.098C35.5892 53.6953 35.7292 54.4373 35.7292 55.324C35.7292 56.22 35.5892 56.9667 35.3092 57.564C35.0386 58.1613 34.6559 58.642 34.1612 59.006C33.6759 59.3607 33.1019 59.6173 32.4392 59.776C31.7859 59.9253 31.0766 60 30.3112 60H27.2312ZM29.4432 58.138H30.3532C30.7546 58.138 31.1372 58.1053 31.5012 58.04C31.8746 57.9747 32.2059 57.8487 32.4952 57.662C32.7939 57.466 33.0272 57.1813 33.1952 56.808C33.3632 56.4347 33.4472 55.94 33.4472 55.324C33.4472 54.708 33.3632 54.2133 33.1952 53.84C33.0272 53.4573 32.7939 53.1727 32.4952 52.986C32.2059 52.79 31.8746 52.6593 31.5012 52.594C31.1372 52.5193 30.7546 52.482 30.3532 52.482H29.4432V58.138ZM40.8609 60.168C39.3956 60.168 38.3549 59.818 37.7389 59.118C37.1322 58.418 36.8289 57.3493 36.8289 55.912V50.648H39.0409V56.094C39.0409 56.5513 39.0829 56.9527 39.1669 57.298C39.2602 57.634 39.4376 57.8953 39.6989 58.082C39.9602 58.2687 40.3476 58.362 40.8609 58.362C41.3742 58.362 41.7569 58.2687 42.0089 58.082C42.2702 57.8953 42.4429 57.634 42.5269 57.298C42.6202 56.9527 42.6669 56.5513 42.6669 56.094V50.648H44.8789V55.912C44.8789 57.3493 44.5709 58.418 43.9549 59.118C43.3389 59.818 42.3076 60.168 40.8609 60.168Z" fill="#88C0D0"/>
</svg>
