<svg width="64" height="64" viewBox="0 0 64 64" fill="none" xmlns="http://www.w3.org/2000/svg">
<path d="M9.69948 0.0093689L55.0881 9.99999H60V64H8.51813C7.66065 64 6.83828 63.6576 6.23194 63.0481C5.62561 62.4386 5.28497 61.6119 5.28497 60.75V47.1432L9.60411 0.150675L9.69948 0.0093689Z" fill="#88C0D0"/>
<path d="M9.69948 0.0093689L55.0881 9.99999H60V64H8.51813C7.66065 64 6.83828 63.6576 6.23194 63.0481C5.62561 62.4386 5.28497 61.6119 5.28497 60.75V47.1432L9.60411 0.150675L9.69948 0.0093689Z" fill="black" fill-opacity="0.6"/>
<path d="M9.69946 0H52.3523C53.2098 0 54.0322 0.34241 54.6385 0.951903C55.2448 1.5614 55.5855 2.38805 55.5855 3.25V45H9.69946V0Z" fill="#88C0D0"/>
<path d="M0 50.875L9.69948 45V0L0 5.875V50.875Z" fill="#88C0D0"/>
<path d="M0 50.875L9.69948 45V0L0 5.875V50.875Z" fill="black" fill-opacity="0.25"/>
<path d="M21.628 35V10.284H27.474V19.719H37.649V10.284H43.495V35H37.649V24.862H27.474V35H21.628Z" fill="black" fill-opacity="0.7"/>
<path d="M17.616 60V50.648H19.828V54.218H23.678V50.648H25.89V60H23.678V56.164H19.828V60H17.616ZM30.898 60.168C29.8806 60.168 29.022 59.9627 28.322 59.552C27.6313 59.132 27.1413 58.5487 26.852 57.802L28.868 57.074C28.9986 57.522 29.2413 57.8533 29.596 58.068C29.96 58.2827 30.3986 58.39 30.912 58.39C31.1826 58.39 31.444 58.362 31.696 58.306C31.948 58.2407 32.158 58.138 32.326 57.998C32.494 57.8487 32.578 57.6527 32.578 57.41C32.578 57.0833 32.4193 56.8313 32.102 56.654C31.7846 56.4673 31.374 56.3273 30.87 56.234L29.736 56.01C29.232 55.9073 28.7606 55.7533 28.322 55.548C27.8926 55.3333 27.5473 55.0533 27.286 54.708C27.0246 54.3533 26.894 53.91 26.894 53.378C26.894 52.874 27.0106 52.44 27.244 52.076C27.4773 51.712 27.7853 51.4133 28.168 51.18C28.56 50.9467 28.9893 50.774 29.456 50.662C29.9226 50.5407 30.3893 50.48 30.856 50.48C31.36 50.48 31.8453 50.55 32.312 50.69C32.788 50.83 33.2126 51.0493 33.586 51.348C33.9593 51.6373 34.244 52.0247 34.44 52.51L32.438 53.238C32.3166 52.9207 32.0973 52.678 31.78 52.51C31.472 52.342 31.0986 52.258 30.66 52.258C30.2306 52.258 29.8713 52.3373 29.582 52.496C29.302 52.6453 29.162 52.8647 29.162 53.154C29.162 53.3873 29.26 53.588 29.456 53.756C29.652 53.924 29.9086 54.0407 30.226 54.106L31.486 54.358C31.8686 54.4327 32.256 54.5307 32.648 54.652C33.04 54.764 33.3993 54.918 33.726 55.114C34.062 55.3007 34.3326 55.5527 34.538 55.87C34.7433 56.1873 34.846 56.5887 34.846 57.074C34.846 57.5687 34.7293 58.012 34.496 58.404C34.272 58.7867 33.9686 59.1087 33.586 59.37C33.2126 59.6313 32.7926 59.832 32.326 59.972C31.8593 60.1027 31.3833 60.168 30.898 60.168ZM35.7859 60V50.648H39.1039L41.0499 57.354L43.0239 50.648H46.3419V60H44.1859V52.65L41.9599 60H40.1399L37.9279 52.65V60H35.7859Z" fill="#88C0D0"/>
</svg>
