<svg width="64" height="64" viewBox="0 0 64 64" fill="none" xmlns="http://www.w3.org/2000/svg">
<path d="M9.69948 0.0093689L55.0881 9.99999H60V64H8.51813C7.66065 64 6.83828 63.6576 6.23194 63.0481C5.62561 62.4386 5.28497 61.6119 5.28497 60.75V47.1432L9.60411 0.150675L9.69948 0.0093689Z" fill="#88C0D0"/>
<path d="M9.69948 0.0093689L55.0881 9.99999H60V64H8.51813C7.66065 64 6.83828 63.6576 6.23194 63.0481C5.62561 62.4386 5.28497 61.6119 5.28497 60.75V47.1432L9.60411 0.150675L9.69948 0.0093689Z" fill="black" fill-opacity="0.6"/>
<path d="M9.69946 0H52.3523C53.2098 0 54.0322 0.34241 54.6385 0.951903C55.2448 1.5614 55.5855 2.38805 55.5855 3.25V45H9.69946V0Z" fill="#88C0D0"/>
<path d="M0 50.875L9.69948 45V0L0 5.875V50.875Z" fill="#88C0D0"/>
<path d="M0 50.875L9.69948 45V0L0 5.875V50.875Z" fill="black" fill-opacity="0.25"/>
<path d="M25.109 35V30.412H28.587V14.872H25.109V10.284H37.837V14.872H34.433V30.412H37.837V35H25.109Z" fill="black" fill-opacity="0.7"/>
<path d="M19.798 60V58.264H21.114V52.384H19.798V50.648H24.614V52.384H23.326V58.264H24.614V60H19.798ZM27.8061 60L25.5521 50.648H27.7641L29.0661 57.13L30.4381 50.648H32.7341L34.1201 57.13L35.4221 50.648H37.6341L35.3801 60H33.0141L31.5861 53.42L30.1721 60H27.8061ZM38.3875 60V50.648H41.9855C42.7975 50.648 43.5208 50.732 44.1555 50.9C44.7995 51.068 45.3035 51.3713 45.6675 51.81C46.0408 52.2487 46.2275 52.8787 46.2275 53.7C46.2275 54.512 46.0408 55.142 45.6675 55.59C45.3035 56.0287 44.7995 56.332 44.1555 56.5C43.5208 56.668 42.7975 56.752 41.9855 56.752H40.5995V60H38.3875ZM40.5995 54.918H42.0555C42.4008 54.918 42.7088 54.8853 42.9795 54.82C43.2595 54.7547 43.4788 54.6333 43.6375 54.456C43.8055 54.2787 43.8895 54.0267 43.8895 53.7C43.8895 53.3733 43.8055 53.126 43.6375 52.958C43.4788 52.7807 43.2595 52.664 42.9795 52.608C42.7088 52.5427 42.4008 52.51 42.0555 52.51H40.5995V54.918Z" fill="#88C0D0"/>
</svg>
