<svg width="64" height="64" viewBox="0 0 64 64" fill="none" xmlns="http://www.w3.org/2000/svg">
<g clip-path="url(#clip0_23_1024)">
<path d="M9.69948 0.00939941L55.0881 10H60V64H8.51813C7.66065 64 6.83828 63.6576 6.23194 63.0481C5.62561 62.4386 5.28497 61.612 5.28497 60.75V47.1433L9.60411 0.150706L9.69948 0.00939941Z" fill="#88C0D0"/>
<path d="M9.69948 0.00939941L55.0881 10H60V64H8.51813C7.66065 64 6.83828 63.6576 6.23194 63.0481C5.62561 62.4386 5.28497 61.612 5.28497 60.75V47.1433L9.60411 0.150706L9.69948 0.00939941Z" fill="black" fill-opacity="0.6"/>
<path d="M9.69949 0H52.3523C53.2098 0 54.0322 0.34241 54.6385 0.951903C55.2449 1.5614 55.5855 2.38805 55.5855 3.25V45H9.69949V0Z" fill="#88C0D0"/>
<path d="M0 50.875L9.69948 45V0L0 5.875V50.875Z" fill="#88C0D0"/>
<path d="M0 50.875L9.69948 45V0L0 5.875V50.875Z" fill="black" fill-opacity="0.25"/>
<path d="M21.628 35V10.284H31.137C33.283 10.284 35.1947 10.4937 36.872 10.913C38.574 11.3323 39.906 12.097 40.868 13.207C41.8547 14.317 42.348 15.8957 42.348 17.943C42.348 18.8803 42.1753 19.8177 41.83 20.755C41.4847 21.6677 40.8803 22.5063 40.017 23.271C39.1783 24.0357 37.9697 24.6277 36.391 25.047L43.569 35H36.798L30.101 25.676H27.474V35H21.628ZM27.474 20.792H31.322C32.7033 20.792 33.8503 20.6193 34.763 20.274C35.7003 19.904 36.169 19.1517 36.169 18.017C36.169 16.8577 35.7003 16.1053 34.763 15.76C33.8503 15.39 32.7033 15.205 31.322 15.205H27.474V20.792Z" fill="black" fill-opacity="0.7"/>
<path d="M18.616 60V50.648H22.214C23.026 50.648 23.7493 50.732 24.384 50.9C25.028 51.068 25.532 51.3713 25.896 51.81C26.2693 52.2487 26.456 52.8787 26.456 53.7C26.456 54.512 26.2693 55.142 25.896 55.59C25.532 56.0287 25.028 56.332 24.384 56.5C23.7493 56.668 23.026 56.752 22.214 56.752H20.828V60H18.616ZM20.828 54.918H22.284C22.6293 54.918 22.9373 54.8853 23.208 54.82C23.488 54.7547 23.7073 54.6333 23.866 54.456C24.034 54.2787 24.118 54.0267 24.118 53.7C24.118 53.3733 24.034 53.126 23.866 52.958C23.7073 52.7807 23.488 52.664 23.208 52.608C22.9373 52.5427 22.6293 52.51 22.284 52.51H20.828V54.918ZM27.3797 60V50.648H30.9777C31.7897 50.648 32.513 50.7273 33.1477 50.886C33.7917 51.0447 34.2957 51.334 34.6597 51.754C35.033 52.174 35.2197 52.7713 35.2197 53.546C35.2197 53.9007 35.1543 54.2553 35.0237 54.61C34.893 54.9553 34.6643 55.2727 34.3377 55.562C34.0203 55.8513 33.563 56.0753 32.9657 56.234L35.6817 60H33.1197L30.5857 56.472H29.5917V60H27.3797ZM29.5917 54.624H31.0477C31.5703 54.624 32.0043 54.5587 32.3497 54.428C32.7043 54.288 32.8817 54.0033 32.8817 53.574C32.8817 53.1353 32.7043 52.8507 32.3497 52.72C32.0043 52.58 31.5703 52.51 31.0477 52.51H29.5917V54.624ZM40.957 60.168C40.005 60.168 39.165 59.9673 38.437 59.566C37.709 59.1647 37.1397 58.6 36.729 57.872C36.3184 57.144 36.113 56.2947 36.113 55.324C36.113 54.3533 36.3184 53.504 36.729 52.776C37.1397 52.048 37.709 51.4833 38.437 51.082C39.165 50.6807 40.005 50.48 40.957 50.48C41.9184 50.48 42.763 50.6807 43.491 51.082C44.219 51.4833 44.7884 52.048 45.199 52.776C45.619 53.504 45.829 54.3533 45.829 55.324C45.829 56.2947 45.619 57.144 45.199 57.872C44.7884 58.6 44.219 59.1647 43.491 59.566C42.763 59.9673 41.9184 60.168 40.957 60.168ZM40.957 58.348C41.4144 58.348 41.8344 58.236 42.217 58.012C42.5997 57.7787 42.903 57.438 43.127 56.99C43.3604 56.542 43.477 55.9867 43.477 55.324C43.477 54.6613 43.3604 54.106 43.127 53.658C42.903 53.21 42.5997 52.874 42.217 52.65C41.8344 52.4167 41.4144 52.3 40.957 52.3C40.509 52.3 40.0937 52.4167 39.711 52.65C39.3284 52.874 39.0204 53.21 38.787 53.658C38.563 54.106 38.451 54.6613 38.451 55.324C38.451 55.9867 38.563 56.542 38.787 56.99C39.0204 57.438 39.3284 57.7787 39.711 58.012C40.0937 58.236 40.509 58.348 40.957 58.348Z" fill="#88C0D0"/>
</g>
<defs>
<clipPath id="clip0_23_1024">
<rect width="64" height="64" fill="white"/>
</clipPath>
</defs>
</svg>
