<svg width="64" height="64" viewBox="0 0 64 64" fill="none" xmlns="http://www.w3.org/2000/svg">
<path d="M9.69948 0.00937653L55.0881 10H60V64H8.51813C7.66065 64 6.83828 63.6576 6.23194 63.0481C5.62561 62.4386 5.28497 61.612 5.28497 60.75V47.1433L9.60411 0.150683L9.69948 0.00937653Z" fill="#88C0D0"/>
<path d="M9.69948 0.00937653L55.0881 10H60V64H8.51813C7.66065 64 6.83828 63.6576 6.23194 63.0481C5.62561 62.4386 5.28497 61.612 5.28497 60.75V47.1433L9.60411 0.150683L9.69948 0.00937653Z" fill="black" fill-opacity="0.6"/>
<path d="M9.69949 0H52.3523C53.2098 0 54.0322 0.34241 54.6385 0.951903C55.2449 1.5614 55.5855 2.38805 55.5855 3.25V45H9.69949V0Z" fill="#88C0D0"/>
<path d="M0 50.875L9.69948 45V0L0 5.875V50.875Z" fill="#88C0D0"/>
<path d="M0 50.875L9.69948 45V0L0 5.875V50.875Z" fill="black" fill-opacity="0.25"/>
<path d="M20.185 35L29.546 10.284H35.984L45.345 35H38.981L37.501 30.597H28.029L26.549 35H20.185ZM29.62 25.861H35.91L32.728 16.463L29.62 25.861Z" fill="black" fill-opacity="0.7"/>
<path d="M19.07 60L22.612 50.648H25.048L28.59 60H26.182L25.622 58.334H22.038L21.478 60H19.07ZM22.64 56.542H25.02L23.816 52.986L22.64 56.542ZM33.062 60.168C32.0447 60.168 31.186 59.9627 30.486 59.552C29.7953 59.132 29.3053 58.5487 29.016 57.802L31.032 57.074C31.1627 57.522 31.4053 57.8533 31.76 58.068C32.124 58.2827 32.5627 58.39 33.076 58.39C33.3467 58.39 33.608 58.362 33.86 58.306C34.112 58.2407 34.322 58.138 34.49 57.998C34.658 57.8487 34.742 57.6527 34.742 57.41C34.742 57.0833 34.5833 56.8313 34.266 56.654C33.9487 56.4673 33.538 56.3273 33.034 56.234L31.9 56.01C31.396 55.9073 30.9247 55.7533 30.486 55.548C30.0567 55.3333 29.7113 55.0533 29.45 54.708C29.1887 54.3533 29.058 53.91 29.058 53.378C29.058 52.874 29.1747 52.44 29.408 52.076C29.6413 51.712 29.9493 51.4133 30.332 51.18C30.724 50.9467 31.1533 50.774 31.62 50.662C32.0867 50.5407 32.5533 50.48 33.02 50.48C33.524 50.48 34.0093 50.55 34.476 50.69C34.952 50.83 35.3767 51.0493 35.75 51.348C36.1233 51.6373 36.408 52.0247 36.604 52.51L34.602 53.238C34.4807 52.9207 34.2613 52.678 33.944 52.51C33.636 52.342 33.2627 52.258 32.824 52.258C32.3947 52.258 32.0353 52.3373 31.746 52.496C31.466 52.6453 31.326 52.8647 31.326 53.154C31.326 53.3873 31.424 53.588 31.62 53.756C31.816 53.924 32.0727 54.0407 32.39 54.106L33.65 54.358C34.0327 54.4327 34.42 54.5307 34.812 54.652C35.204 54.764 35.5633 54.918 35.89 55.114C36.226 55.3007 36.4967 55.5527 36.702 55.87C36.9073 56.1873 37.01 56.5887 37.01 57.074C37.01 57.5687 36.8933 58.012 36.66 58.404C36.436 58.7867 36.1327 59.1087 35.75 59.37C35.3767 59.6313 34.9567 59.832 34.49 59.972C34.0233 60.1027 33.5473 60.168 33.062 60.168ZM40.554 60V52.594H37.544V50.648H45.762V52.594H42.752V60H40.554Z" fill="#88C0D0"/>
</svg>
