<svg width="64" height="64" viewBox="0 0 64 64" fill="none" xmlns="http://www.w3.org/2000/svg">
<path d="M9.69948 0.0093689L55.0881 9.99999H60V64H8.51813C7.66065 64 6.83828 63.6576 6.23194 63.0481C5.62561 62.4386 5.28497 61.6119 5.28497 60.75V47.1432L9.60411 0.150675L9.69948 0.0093689Z" fill="#88C0D0"/>
<path d="M9.69948 0.0093689L55.0881 9.99999H60V64H8.51813C7.66065 64 6.83828 63.6576 6.23194 63.0481C5.62561 62.4386 5.28497 61.6119 5.28497 60.75V47.1432L9.60411 0.150675L9.69948 0.0093689Z" fill="black" fill-opacity="0.6"/>
<path d="M9.69946 0H52.3523C53.2098 0 54.0322 0.34241 54.6385 0.951903C55.2448 1.5614 55.5855 2.38805 55.5855 3.25V45H9.69946V0Z" fill="#88C0D0"/>
<path d="M0 50.875L9.69948 45V0L0 5.875V50.875Z" fill="#88C0D0"/>
<path d="M0 50.875L9.69948 45V0L0 5.875V50.875Z" fill="black" fill-opacity="0.25"/>
<path d="M22.628 35V10.284H33.432C35.2327 10.284 36.836 10.469 38.242 10.839C39.648 11.1843 40.758 11.8257 41.572 12.763C42.4107 13.6757 42.83 14.9953 42.83 16.722C42.83 17.8567 42.571 18.8557 42.053 19.719C41.5597 20.5823 40.8443 21.2977 39.907 21.865C41.0663 22.2597 42.0037 22.901 42.719 23.789C43.459 24.677 43.829 25.8733 43.829 27.378C43.829 29.228 43.4097 30.708 42.571 31.818C41.757 32.928 40.5977 33.742 39.093 34.26C37.5883 34.7533 35.837 35 33.839 35H22.628ZM28.474 20.052H33.617C34.6037 20.052 35.3683 19.83 35.911 19.386C36.4783 18.9173 36.762 18.3007 36.762 17.536C36.762 16.7467 36.4783 16.1423 35.911 15.723C35.3683 15.279 34.6037 15.057 33.617 15.057H28.474V20.052ZM28.474 30.153H33.876C35.134 30.153 36.0713 29.9063 36.688 29.413C37.3293 28.895 37.65 28.2043 37.65 27.341C37.65 26.4777 37.3293 25.7993 36.688 25.306C36.0713 24.8127 35.134 24.566 33.876 24.566H28.474V30.153Z" fill="black" fill-opacity="0.7"/>
<path d="M18.616 60V50.648H22.704C23.3853 50.648 23.992 50.718 24.524 50.858C25.056 50.9887 25.476 51.2313 25.784 51.586C26.1013 51.9313 26.26 52.4307 26.26 53.084C26.26 53.5133 26.162 53.8913 25.966 54.218C25.7793 54.5447 25.5087 54.8153 25.154 55.03C25.5927 55.1793 25.9473 55.422 26.218 55.758C26.498 56.094 26.638 56.5467 26.638 57.116C26.638 57.816 26.4793 58.376 26.162 58.796C25.854 59.216 25.4153 59.524 24.846 59.72C24.2767 59.9067 23.614 60 22.858 60H18.616ZM20.828 54.344H22.774C23.1473 54.344 23.4367 54.26 23.642 54.092C23.8567 53.9147 23.964 53.6813 23.964 53.392C23.964 53.0933 23.8567 52.8647 23.642 52.706C23.4367 52.538 23.1473 52.454 22.774 52.454H20.828V54.344ZM20.828 58.166H22.872C23.348 58.166 23.7027 58.0727 23.936 57.886C24.1787 57.69 24.3 57.4287 24.3 57.102C24.3 56.7753 24.1787 56.5187 23.936 56.332C23.7027 56.1453 23.348 56.052 22.872 56.052H20.828V58.166ZM27.5574 60V50.648H29.7694V58.054H34.2494V60H27.5574ZM35.0769 60V50.648H38.1569C38.9223 50.648 39.6316 50.7273 40.2849 50.886C40.9476 51.0353 41.5216 51.292 42.0069 51.656C42.5016 52.0107 42.8843 52.4913 43.1549 53.098C43.4349 53.6953 43.5749 54.4373 43.5749 55.324C43.5749 56.22 43.4349 56.9667 43.1549 57.564C42.8843 58.1613 42.5016 58.642 42.0069 59.006C41.5216 59.3607 40.9476 59.6173 40.2849 59.776C39.6316 59.9253 38.9223 60 38.1569 60H35.0769ZM37.2889 58.138H38.1989C38.6003 58.138 38.9829 58.1053 39.3469 58.04C39.7203 57.9747 40.0516 57.8487 40.3409 57.662C40.6396 57.466 40.8729 57.1813 41.0409 56.808C41.2089 56.4347 41.2929 55.94 41.2929 55.324C41.2929 54.708 41.2089 54.2133 41.0409 53.84C40.8729 53.4573 40.6396 53.1727 40.3409 52.986C40.0516 52.79 39.7203 52.6593 39.3469 52.594C38.9829 52.5193 38.6003 52.482 38.1989 52.482H37.2889V58.138Z" fill="#88C0D0"/>
</svg>
