<svg width="64" height="64" viewBox="0 0 64 64" fill="none" xmlns="http://www.w3.org/2000/svg">
<g clip-path="url(#clip0_23_1048)">
<path d="M9.69948 0.00939941L55.0881 10H60V64H8.51813C7.66065 64 6.83828 63.6576 6.23194 63.0481C5.62561 62.4386 5.28497 61.612 5.28497 60.75V47.1433L9.60411 0.150706L9.69948 0.00939941Z" fill="#88C0D0"/>
<path d="M9.69948 0.00939941L55.0881 10H60V64H8.51813C7.66065 64 6.83828 63.6576 6.23194 63.0481C5.62561 62.4386 5.28497 61.612 5.28497 60.75V47.1433L9.60411 0.150706L9.69948 0.00939941Z" fill="black" fill-opacity="0.6"/>
<path d="M9.69948 0H52.3523C53.2098 0 54.0322 0.34241 54.6385 0.951903C55.2448 1.5614 55.5855 2.38805 55.5855 3.25V45H9.69948V0Z" fill="#88C0D0"/>
<path d="M0 50.875L9.69948 45V0L0 5.875V50.875Z" fill="#88C0D0"/>
<path d="M0 50.875L9.69948 45V0L0 5.875V50.875Z" fill="black" fill-opacity="0.25"/>
<path d="M21.628 35V10.284H29.065L38.611 27.896V10.284H44.272V35H36.798L27.252 17.388V35H21.628Z" fill="black" fill-opacity="0.7"/>
<path d="M17.616 60V50.648H20.934L22.88 57.354L24.854 50.648H28.172V60H26.016V52.65L23.79 60H21.97L19.758 52.65V60H17.616ZM28.8552 60L32.3972 50.648H34.8332L38.3752 60H35.9672L35.4072 58.334H31.8232L31.2632 60H28.8552ZM32.4252 56.542H34.8052L33.6012 52.986L32.4252 56.542ZM39.0672 60V50.648H41.8812L45.4932 57.312V50.648H47.6352V60H44.8072L41.1952 53.336V60H39.0672Z" fill="#88C0D0"/>
</g>
<defs>
<clipPath id="clip0_23_1048">
<rect width="64" height="64" fill="white"/>
</clipPath>
</defs>
</svg>
