<svg width="64" height="64" viewBox="0 0 64 64" fill="none" xmlns="http://www.w3.org/2000/svg">
<path d="M9.69948 0.0093689L55.0881 9.99999H60V64H8.51813C7.66065 64 6.83828 63.6576 6.23194 63.0481C5.62561 62.4386 5.28497 61.6119 5.28497 60.75V47.1432L9.60411 0.150675L9.69948 0.0093689Z" fill="#88C0D0"/>
<path d="M9.69948 0.0093689L55.0881 9.99999H60V64H8.51813C7.66065 64 6.83828 63.6576 6.23194 63.0481C5.62561 62.4386 5.28497 61.6119 5.28497 60.75V47.1432L9.60411 0.150675L9.69948 0.0093689Z" fill="black" fill-opacity="0.6"/>
<path d="M9.69948 0H52.3523C53.2098 0 54.0322 0.34241 54.6385 0.951903C55.2448 1.5614 55.5855 2.38805 55.5855 3.25V45H9.69948V0Z" fill="#88C0D0"/>
<path d="M0 50.875L9.69948 45V0L0 5.875V50.875Z" fill="#88C0D0"/>
<path d="M0 50.875L9.69948 45V0L0 5.875V50.875Z" fill="black" fill-opacity="0.25"/>
<path d="M33.653 35.444C31.0877 35.444 28.88 34.926 27.03 33.89C25.18 32.854 23.7617 31.374 22.775 29.45C21.7883 27.526 21.295 25.2567 21.295 22.642C21.295 20.0273 21.8007 17.7703 22.812 15.871C23.848 13.947 25.3033 12.467 27.178 11.431C29.0527 10.3703 31.2603 9.84 33.801 9.84C36.1443 9.84 38.1793 10.358 39.906 11.394C41.6573 12.43 43.0017 13.8237 43.939 15.575L38.759 17.462C38.2163 16.4507 37.4763 15.7353 36.539 15.316C35.6017 14.872 34.6273 14.65 33.616 14.65C32.4813 14.65 31.4453 14.9707 30.508 15.612C29.5707 16.2287 28.8307 17.1413 28.288 18.35C27.7453 19.534 27.474 20.9647 27.474 22.642C27.474 25.232 28.066 27.2177 29.25 28.599C30.4587 29.9557 31.9387 30.634 33.69 30.634C34.6273 30.634 35.5893 30.4367 36.576 30.042C37.5873 29.6473 38.3767 28.9197 38.944 27.859L44.087 29.746C43.1003 31.4973 41.6943 32.891 39.869 33.927C38.0683 34.9383 35.9963 35.444 33.653 35.444Z" fill="black" fill-opacity="0.7"/>
<path d="M24.166 60.168C23.1953 60.168 22.36 59.972 21.66 59.58C20.96 59.188 20.4233 58.628 20.05 57.9C19.6767 57.172 19.49 56.3133 19.49 55.324C19.49 54.3347 19.6813 53.4807 20.064 52.762C20.456 52.034 21.0067 51.474 21.716 51.082C22.4253 50.6807 23.2607 50.48 24.222 50.48C25.1087 50.48 25.8787 50.676 26.532 51.068C27.1947 51.46 27.7033 51.9873 28.058 52.65L26.098 53.364C25.8927 52.9813 25.6127 52.7107 25.258 52.552C24.9033 52.384 24.5347 52.3 24.152 52.3C23.7227 52.3 23.3307 52.4213 22.976 52.664C22.6213 52.8973 22.3413 53.2427 22.136 53.7C21.9307 54.148 21.828 54.6893 21.828 55.324C21.828 56.304 22.052 57.0553 22.5 57.578C22.9573 58.0913 23.5173 58.348 24.18 58.348C24.5347 58.348 24.8987 58.2733 25.272 58.124C25.6547 57.9747 25.9533 57.6993 26.168 57.298L28.114 58.012C27.7407 58.6747 27.2087 59.202 26.518 59.594C25.8367 59.9767 25.0527 60.168 24.166 60.168ZM32.4939 60.168C31.9713 60.168 31.4673 60.0933 30.9819 59.944C30.5059 59.7947 30.0859 59.566 29.7219 59.258C29.3579 58.9407 29.0779 58.5347 28.8819 58.04L30.8139 57.34C30.9353 57.7973 31.1593 58.1193 31.4859 58.306C31.8126 58.4927 32.1673 58.586 32.5499 58.586C32.9886 58.586 33.3386 58.4787 33.5999 58.264C33.8613 58.0493 33.9919 57.7507 33.9919 57.368C33.9919 56.9853 33.8706 56.6913 33.6279 56.486C33.3853 56.2713 33.0633 56.1267 32.6619 56.052C32.2699 55.968 31.8406 55.926 31.3739 55.926V54.442C32.1766 54.442 32.7926 54.33 33.2219 54.106C33.6606 53.882 33.8799 53.5647 33.8799 53.154C33.8799 52.79 33.7306 52.5193 33.4319 52.342C33.1426 52.1553 32.8066 52.062 32.4239 52.062C32.0786 52.062 31.7613 52.146 31.4719 52.314C31.1826 52.482 30.9913 52.7807 30.8979 53.21L28.9799 52.51C29.1666 52.034 29.4419 51.6467 29.8059 51.348C30.1699 51.0493 30.5899 50.83 31.0659 50.69C31.5419 50.55 32.0366 50.48 32.5499 50.48C32.9793 50.48 33.3993 50.5267 33.8099 50.62C34.2206 50.7133 34.5893 50.8627 34.9159 51.068C35.2519 51.264 35.5179 51.516 35.7139 51.824C35.9193 52.1227 36.0219 52.482 36.0219 52.902C36.0219 53.406 35.8866 53.8493 35.6159 54.232C35.3453 54.6053 35.0466 54.8853 34.7199 55.072C35.0279 55.184 35.2893 55.3613 35.5039 55.604C35.7279 55.8467 35.8959 56.1127 36.0079 56.402C36.1199 56.6913 36.1759 56.9807 36.1759 57.27C36.1759 57.9233 36.0033 58.4647 35.6579 58.894C35.3126 59.314 34.8599 59.6313 34.2999 59.846C33.7399 60.0607 33.1379 60.168 32.4939 60.168ZM37.5125 60V50.648H40.5925C41.3578 50.648 42.0672 50.7273 42.7205 50.886C43.3832 51.0353 43.9572 51.292 44.4425 51.656C44.9372 52.0107 45.3198 52.4913 45.5905 53.098C45.8705 53.6953 46.0105 54.4373 46.0105 55.324C46.0105 56.22 45.8705 56.9667 45.5905 57.564C45.3198 58.1613 44.9372 58.642 44.4425 59.006C43.9572 59.3607 43.3832 59.6173 42.7205 59.776C42.0672 59.9253 41.3578 60 40.5925 60H37.5125ZM39.7245 58.138H40.6345C41.0358 58.138 41.4185 58.1053 41.7825 58.04C42.1558 57.9747 42.4872 57.8487 42.7765 57.662C43.0752 57.466 43.3085 57.1813 43.4765 56.808C43.6445 56.4347 43.7285 55.94 43.7285 55.324C43.7285 54.708 43.6445 54.2133 43.4765 53.84C43.3085 53.4573 43.0752 53.1727 42.7765 52.986C42.4872 52.79 42.1558 52.6593 41.7825 52.594C41.4185 52.5193 41.0358 52.482 40.6345 52.482H39.7245V58.138Z" fill="#88C0D0"/>
</svg>
