<svg width="64" height="64" viewBox="0 0 64 64" fill="none" xmlns="http://www.w3.org/2000/svg">
<g clip-path="url(#clip0_23_1061)">
<path d="M8.29964 0.0314752L8.31617 0.00324249L61.4778 11.7818H67V64H6.93784C5.93743 64 4.97801 63.6016 4.27062 62.8923C3.56323 62.1831 3.16582 61.2212 3.16582 60.2182V55.1016L8.29964 0.0314752Z" fill="#88C0D0"/>
<path d="M8.29964 0.0314752L8.31617 0.00324249L61.4778 11.7818H67V64H6.93784C5.93743 64 4.97801 63.6016 4.27062 62.8923C3.56323 62.1831 3.16582 61.2212 3.16582 60.2182V55.1016L8.29964 0.0314752Z" fill="black" fill-opacity="0.6"/>
<path d="M61.8497 52.3636H8.29964V0.0314764L8.31607 0H58.0777C59.0781 0 60.0375 0.39844 60.7449 1.10767C61.4523 1.8169 61.8497 2.77882 61.8497 3.78182V52.3636Z" fill="#88C0D0"/>
<path d="M-3 59.2L8.31606 52.3636V0L-3 6.83636V59.2Z" fill="#88C0D0"/>
<path d="M-3 59.2L8.31606 52.3636V0L-3 6.83636V59.2Z" fill="black" fill-opacity="0.25"/>
<path d="M22.185 38L31.546 13.284H37.984L47.345 38H40.981L39.501 33.597H30.029L28.549 38H22.185ZM31.62 28.861H37.91L34.728 19.463L31.62 28.861Z" fill="black" fill-opacity="0.7"/>
</g>
<defs>
<clipPath id="clip0_23_1061">
<rect width="64" height="64" fill="white"/>
</clipPath>
</defs>
</svg>
