<svg width="64" height="64" viewBox="0 0 64 64" fill="none" xmlns="http://www.w3.org/2000/svg">
<g clip-path="url(#clip0_23_1036)">
<path d="M9.69948 0.00939941L55.0881 10H60V64H8.51813C7.66065 64 6.83828 63.6576 6.23194 63.0481C5.62561 62.4386 5.28497 61.612 5.28497 60.75V47.1433L9.60411 0.150706L9.69948 0.00939941Z" fill="#88C0D0"/>
<path d="M9.69948 0.00939941L55.0881 10H60V64H8.51813C7.66065 64 6.83828 63.6576 6.23194 63.0481C5.62561 62.4386 5.28497 61.612 5.28497 60.75V47.1433L9.60411 0.150706L9.69948 0.00939941Z" fill="black" fill-opacity="0.6"/>
<path d="M9.69948 0H52.3523C53.2098 0 54.0322 0.34241 54.6385 0.951903C55.2448 1.5614 55.5855 2.38805 55.5855 3.25V45H9.69948V0Z" fill="#88C0D0"/>
<path d="M0 50.875L9.69948 45V0L0 5.875V50.875Z" fill="#88C0D0"/>
<path d="M0 50.875L9.69948 45V0L0 5.875V50.875Z" fill="black" fill-opacity="0.25"/>
<path d="M21.628 35V10.284H31.137C33.283 10.284 35.1947 10.4937 36.872 10.913C38.574 11.3323 39.906 12.097 40.868 13.207C41.8547 14.317 42.348 15.8957 42.348 17.943C42.348 18.8803 42.1753 19.8177 41.83 20.755C41.4847 21.6677 40.8803 22.5063 40.017 23.271C39.1783 24.0357 37.9697 24.6277 36.391 25.047L43.569 35H36.798L30.101 25.676H27.474V35H21.628ZM27.474 20.792H31.322C32.7033 20.792 33.8503 20.6193 34.763 20.274C35.7003 19.904 36.169 19.1517 36.169 18.017C36.169 16.8577 35.7003 16.1053 34.763 15.76C33.8503 15.39 32.7033 15.205 31.322 15.205H27.474V20.792Z" fill="black" fill-opacity="0.7"/>
<path d="M19.616 60V50.648H23.214C24.026 50.648 24.7493 50.7273 25.384 50.886C26.028 51.0447 26.532 51.334 26.896 51.754C27.2693 52.174 27.456 52.7713 27.456 53.546C27.456 53.9007 27.3907 54.2553 27.26 54.61C27.1293 54.9553 26.9007 55.2727 26.574 55.562C26.2567 55.8513 25.7993 56.0753 25.202 56.234L27.918 60H25.356L22.822 56.472H21.828V60H19.616ZM21.828 54.624H23.284C23.8067 54.624 24.2407 54.5587 24.586 54.428C24.9407 54.288 25.118 54.0033 25.118 53.574C25.118 53.1353 24.9407 52.8507 24.586 52.72C24.2407 52.58 23.8067 52.51 23.284 52.51H21.828V54.624ZM33.0254 60.168C32.0547 60.168 31.2194 59.972 30.5194 59.58C29.8194 59.188 29.2827 58.628 28.9094 57.9C28.536 57.172 28.3494 56.3133 28.3494 55.324C28.3494 54.3347 28.5407 53.4807 28.9234 52.762C29.3154 52.034 29.866 51.474 30.5754 51.082C31.2847 50.6807 32.12 50.48 33.0814 50.48C33.968 50.48 34.738 50.676 35.3914 51.068C36.054 51.46 36.5627 51.9873 36.9174 52.65L34.9574 53.364C34.752 52.9813 34.472 52.7107 34.1174 52.552C33.7627 52.384 33.394 52.3 33.0114 52.3C32.582 52.3 32.19 52.4213 31.8354 52.664C31.4807 52.8973 31.2007 53.2427 30.9954 53.7C30.79 54.148 30.6874 54.6893 30.6874 55.324C30.6874 56.304 30.9114 57.0553 31.3594 57.578C31.8167 58.0913 32.3767 58.348 33.0394 58.348C33.394 58.348 33.758 58.2733 34.1314 58.124C34.514 57.9747 34.8127 57.6993 35.0274 57.298L36.9734 58.012C36.6 58.6747 36.068 59.202 35.3774 59.594C34.696 59.9767 33.912 60.168 33.0254 60.168ZM37.8953 60V50.648H41.4933C42.3053 50.648 43.0286 50.732 43.6633 50.9C44.3073 51.068 44.8113 51.3713 45.1753 51.81C45.5486 52.2487 45.7353 52.8787 45.7353 53.7C45.7353 54.512 45.5486 55.142 45.1753 55.59C44.8113 56.0287 44.3073 56.332 43.6633 56.5C43.0286 56.668 42.3053 56.752 41.4933 56.752H40.1073V60H37.8953ZM40.1073 54.918H41.5633C41.9086 54.918 42.2166 54.8853 42.4873 54.82C42.7673 54.7547 42.9866 54.6333 43.1453 54.456C43.3133 54.2787 43.3973 54.0267 43.3973 53.7C43.3973 53.3733 43.3133 53.126 43.1453 52.958C42.9866 52.7807 42.7673 52.664 42.4873 52.608C42.2166 52.5427 41.9086 52.51 41.5633 52.51H40.1073V54.918Z" fill="#88C0D0"/>
</g>
<defs>
<clipPath id="clip0_23_1036">
<rect width="64" height="64" fill="white"/>
</clipPath>
</defs>
</svg>
