<svg width="64" height="64" viewBox="0 0 64 64" fill="none" xmlns="http://www.w3.org/2000/svg">
<path d="M9.69948 0.0093689L55.0881 9.99999H60V64H8.51813C7.66065 64 6.83828 63.6576 6.23194 63.0481C5.62561 62.4386 5.28497 61.6119 5.28497 60.75V47.1432L9.60411 0.150675L9.69948 0.0093689Z" fill="#88C0D0"/>
<path d="M9.69948 0.0093689L55.0881 9.99999H60V64H8.51813C7.66065 64 6.83828 63.6576 6.23194 63.0481C5.62561 62.4386 5.28497 61.6119 5.28497 60.75V47.1432L9.60411 0.150675L9.69948 0.0093689Z" fill="black" fill-opacity="0.6"/>
<path d="M9.69946 0H52.3523C53.2098 0 54.0322 0.34241 54.6385 0.951903C55.2448 1.5614 55.5855 2.38805 55.5855 3.25V45H9.69946V0Z" fill="#88C0D0"/>
<path d="M0 50.875L9.69948 45V0L0 5.875V50.875Z" fill="#88C0D0"/>
<path d="M0 50.875L9.69948 45V0L0 5.875V50.875Z" fill="black" fill-opacity="0.25"/>
<path d="M26.109 35V30.412H29.587V14.872H26.109V10.284H38.837V14.872H35.433V30.412H38.837V35H26.109Z" fill="black" fill-opacity="0.7"/>
<path d="M18.616 60V50.648H21.696C22.4613 50.648 23.1707 50.7273 23.824 50.886C24.4867 51.0353 25.0607 51.292 25.546 51.656C26.0407 52.0107 26.4233 52.4913 26.694 53.098C26.974 53.6953 27.114 54.4373 27.114 55.324C27.114 56.22 26.974 56.9667 26.694 57.564C26.4233 58.1613 26.0407 58.642 25.546 59.006C25.0607 59.3607 24.4867 59.6173 23.824 59.776C23.1707 59.9253 22.4613 60 21.696 60H18.616ZM20.828 58.138H21.738C22.1393 58.138 22.522 58.1053 22.886 58.04C23.2593 57.9747 23.5907 57.8487 23.88 57.662C24.1787 57.466 24.412 57.1813 24.58 56.808C24.748 56.4347 24.832 55.94 24.832 55.324C24.832 54.708 24.748 54.2133 24.58 53.84C24.412 53.4573 24.1787 53.1727 23.88 52.986C23.5907 52.79 23.2593 52.6593 22.886 52.594C22.522 52.5193 22.1393 52.482 21.738 52.482H20.828V58.138ZM28.2137 60V50.648H31.8117C32.6237 50.648 33.347 50.7273 33.9817 50.886C34.6257 51.0447 35.1297 51.334 35.4937 51.754C35.867 52.174 36.0537 52.7713 36.0537 53.546C36.0537 53.9007 35.9883 54.2553 35.8577 54.61C35.727 54.9553 35.4983 55.2727 35.1717 55.562C34.8543 55.8513 34.397 56.0753 33.7997 56.234L36.5157 60H33.9537L31.4197 56.472H30.4257V60H28.2137ZM30.4257 54.624H31.8817C32.4043 54.624 32.8383 54.5587 33.1837 54.428C33.5383 54.288 33.7157 54.0033 33.7157 53.574C33.7157 53.1353 33.5383 52.8507 33.1837 52.72C32.8383 52.58 32.4043 52.51 31.8817 52.51H30.4257V54.624ZM37.3738 60V50.648H40.1878L43.7998 57.312V50.648H45.9418V60H43.1138L39.5018 53.336V60H37.3738Z" fill="#88C0D0"/>
</svg>
