<svg width="64" height="64" viewBox="0 0 64 64" fill="none" xmlns="http://www.w3.org/2000/svg">
<path d="M9.69948 0.0093689L55.0881 9.99999H60V64H8.51813C7.66065 64 6.83828 63.6576 6.23194 63.0481C5.62561 62.4386 5.28497 61.6119 5.28497 60.75V47.1432L9.60411 0.150675L9.69948 0.0093689Z" fill="#88C0D0"/>
<path d="M9.69948 0.0093689L55.0881 9.99999H60V64H8.51813C7.66065 64 6.83828 63.6576 6.23194 63.0481C5.62561 62.4386 5.28497 61.6119 5.28497 60.75V47.1432L9.60411 0.150675L9.69948 0.0093689Z" fill="black" fill-opacity="0.6"/>
<path d="M9.69946 0H52.3523C53.2098 0 54.0322 0.34241 54.6385 0.951903C55.2448 1.5614 55.5855 2.38805 55.5855 3.25V45H9.69946V0Z" fill="#88C0D0"/>
<path d="M0 50.875L9.69948 45V0L0 5.875V50.875Z" fill="#88C0D0"/>
<path d="M0 50.875L9.69948 45V0L0 5.875V50.875Z" fill="black" fill-opacity="0.25"/>
<path d="M28.51 35V15.427H20.555V10.284H42.274V15.427H34.319V35H28.51Z" fill="black" fill-opacity="0.7"/>
<path d="M21.22 60V52.594H18.21V50.648H26.428V52.594H23.418V60H21.22ZM27.2566 60V50.648H29.4686V54.358L32.8426 50.648H35.5446L31.8486 54.652L35.7266 60H33.1646L30.4206 56.192L29.4686 57.242V60H27.2566ZM40.5469 60.168C39.5949 60.168 38.7549 59.9673 38.0269 59.566C37.2989 59.1647 36.7296 58.6 36.3189 57.872C35.9082 57.144 35.7029 56.2947 35.7029 55.324C35.7029 54.3533 35.9082 53.504 36.3189 52.776C36.7296 52.048 37.2989 51.4833 38.0269 51.082C38.7549 50.6807 39.5949 50.48 40.5469 50.48C41.5082 50.48 42.3529 50.6807 43.0809 51.082C43.8089 51.4833 44.3782 52.048 44.7889 52.776C45.2089 53.504 45.4189 54.3533 45.4189 55.324C45.4189 56.2947 45.2089 57.144 44.7889 57.872C44.3782 58.6 43.8089 59.1647 43.0809 59.566C42.3529 59.9673 41.5082 60.168 40.5469 60.168ZM40.5469 58.348C41.0042 58.348 41.4242 58.236 41.8069 58.012C42.1896 57.7787 42.4929 57.438 42.7169 56.99C42.9502 56.542 43.0669 55.9867 43.0669 55.324C43.0669 54.6613 42.9502 54.106 42.7169 53.658C42.4929 53.21 42.1896 52.874 41.8069 52.65C41.4242 52.4167 41.0042 52.3 40.5469 52.3C40.0989 52.3 39.6836 52.4167 39.3009 52.65C38.9182 52.874 38.6102 53.21 38.3769 53.658C38.1529 54.106 38.0409 54.6613 38.0409 55.324C38.0409 55.9867 38.1529 56.542 38.3769 56.99C38.6102 57.438 38.9182 57.7787 39.3009 58.012C39.6836 58.236 40.0989 58.348 40.5469 58.348Z" fill="#88C0D0"/>
</svg>
