<svg width="64" height="64" viewBox="0 0 64 64" fill="none" xmlns="http://www.w3.org/2000/svg">
<path d="M9.69948 0.0093689L55.0881 9.99999H60V64H8.51813C7.66065 64 6.83828 63.6576 6.23194 63.0481C5.62561 62.4386 5.28497 61.6119 5.28497 60.75V47.1432L9.60411 0.150675L9.69948 0.0093689Z" fill="#88C0D0"/>
<path d="M9.69948 0.0093689L55.0881 9.99999H60V64H8.51813C7.66065 64 6.83828 63.6576 6.23194 63.0481C5.62561 62.4386 5.28497 61.6119 5.28497 60.75V47.1432L9.60411 0.150675L9.69948 0.0093689Z" fill="black" fill-opacity="0.6"/>
<path d="M9.69949 0H52.3523C53.2098 0 54.0322 0.34241 54.6385 0.951903C55.2449 1.5614 55.5855 2.38805 55.5855 3.25V45H9.69949V0Z" fill="#88C0D0"/>
<path d="M0 50.875L9.69948 45V0L0 5.875V50.875Z" fill="#88C0D0"/>
<path d="M0 50.875L9.69948 45V0L0 5.875V50.875Z" fill="black" fill-opacity="0.25"/>
<path d="M20.185 35L29.546 10.284H35.984L45.345 35H38.981L37.501 30.597H28.029L26.549 35H20.185ZM29.62 25.861H35.91L32.728 16.463L29.62 25.861Z" fill="black" fill-opacity="0.7"/>
<path d="M19.616 60V50.648H23.214C24.026 50.648 24.7493 50.7273 25.384 50.886C26.028 51.0447 26.532 51.334 26.896 51.754C27.2693 52.174 27.456 52.7713 27.456 53.546C27.456 53.9007 27.3907 54.2553 27.26 54.61C27.1293 54.9553 26.9007 55.2727 26.574 55.562C26.2567 55.8513 25.7993 56.0753 25.202 56.234L27.918 60H25.356L22.822 56.472H21.828V60H19.616ZM21.828 54.624H23.284C23.8067 54.624 24.2407 54.5587 24.586 54.428C24.9407 54.288 25.118 54.0033 25.118 53.574C25.118 53.1353 24.9407 52.8507 24.586 52.72C24.2407 52.58 23.8067 52.51 23.284 52.51H21.828V54.624ZM32.5562 60.168C31.5388 60.168 30.6802 59.9627 29.9802 59.552C29.2895 59.132 28.7995 58.5487 28.5102 57.802L30.5262 57.074C30.6568 57.522 30.8995 57.8533 31.2542 58.068C31.6182 58.2827 32.0568 58.39 32.5702 58.39C32.8408 58.39 33.1022 58.362 33.3542 58.306C33.6062 58.2407 33.8162 58.138 33.9842 57.998C34.1522 57.8487 34.2362 57.6527 34.2362 57.41C34.2362 57.0833 34.0775 56.8313 33.7602 56.654C33.4428 56.4673 33.0322 56.3273 32.5282 56.234L31.3942 56.01C30.8902 55.9073 30.4188 55.7533 29.9802 55.548C29.5508 55.3333 29.2055 55.0533 28.9442 54.708C28.6828 54.3533 28.5522 53.91 28.5522 53.378C28.5522 52.874 28.6688 52.44 28.9022 52.076C29.1355 51.712 29.4435 51.4133 29.8262 51.18C30.2182 50.9467 30.6475 50.774 31.1142 50.662C31.5808 50.5407 32.0475 50.48 32.5142 50.48C33.0182 50.48 33.5035 50.55 33.9702 50.69C34.4462 50.83 34.8708 51.0493 35.2442 51.348C35.6175 51.6373 35.9022 52.0247 36.0982 52.51L34.0962 53.238C33.9748 52.9207 33.7555 52.678 33.4382 52.51C33.1302 52.342 32.7568 52.258 32.3182 52.258C31.8888 52.258 31.5295 52.3373 31.2402 52.496C30.9602 52.6453 30.8202 52.8647 30.8202 53.154C30.8202 53.3873 30.9182 53.588 31.1142 53.756C31.3102 53.924 31.5668 54.0407 31.8842 54.106L33.1442 54.358C33.5268 54.4327 33.9142 54.5307 34.3062 54.652C34.6982 54.764 35.0575 54.918 35.3842 55.114C35.7202 55.3007 35.9908 55.5527 36.1962 55.87C36.4015 56.1873 36.5042 56.5887 36.5042 57.074C36.5042 57.5687 36.3875 58.012 36.1542 58.404C35.9302 58.7867 35.6268 59.1087 35.2442 59.37C34.8708 59.6313 34.4508 59.832 33.9842 59.972C33.5175 60.1027 33.0415 60.168 32.5562 60.168ZM37.4441 60V50.648H40.5241C41.2895 50.648 41.9988 50.7273 42.6521 50.886C43.3148 51.0353 43.8888 51.292 44.3741 51.656C44.8688 52.0107 45.2515 52.4913 45.5221 53.098C45.8021 53.6953 45.9421 54.4373 45.9421 55.324C45.9421 56.22 45.8021 56.9667 45.5221 57.564C45.2515 58.1613 44.8688 58.642 44.3741 59.006C43.8888 59.3607 43.3148 59.6173 42.6521 59.776C41.9988 59.9253 41.2895 60 40.5241 60H37.4441ZM39.6561 58.138H40.5661C40.9675 58.138 41.3501 58.1053 41.7141 58.04C42.0875 57.9747 42.4188 57.8487 42.7081 57.662C43.0068 57.466 43.2401 57.1813 43.4081 56.808C43.5761 56.4347 43.6601 55.94 43.6601 55.324C43.6601 54.708 43.5761 54.2133 43.4081 53.84C43.2401 53.4573 43.0068 53.1727 42.7081 52.986C42.4188 52.79 42.0875 52.6593 41.7141 52.594C41.3501 52.5193 40.9675 52.482 40.5661 52.482H39.6561V58.138Z" fill="#88C0D0"/>
</svg>
