<svg width="64" height="64" viewBox="0 0 64 64" fill="none" xmlns="http://www.w3.org/2000/svg">
<path d="M9.69948 0.00937653L55.0881 10H60V64H8.51813C7.66065 64 6.83828 63.6576 6.23194 63.0481C5.62561 62.4386 5.28497 61.612 5.28497 60.75V47.1433L9.60411 0.150683L9.69948 0.00937653Z" fill="#88C0D0"/>
<path d="M9.69948 0.00937653L55.0881 10H60V64H8.51813C7.66065 64 6.83828 63.6576 6.23194 63.0481C5.62561 62.4386 5.28497 61.612 5.28497 60.75V47.1433L9.60411 0.150683L9.69948 0.00937653Z" fill="black" fill-opacity="0.6"/>
<path d="M9.69948 0H52.3523C53.2098 0 54.0322 0.34241 54.6385 0.951903C55.2448 1.5614 55.5855 2.38805 55.5855 3.25V45H9.69948V0Z" fill="#88C0D0"/>
<path d="M0 50.875L9.69948 45V0L0 5.875V50.875Z" fill="#88C0D0"/>
<path d="M0 50.875L9.69948 45V0L0 5.875V50.875Z" fill="black" fill-opacity="0.25"/>
<path d="M30.767 35.444C29.3857 35.444 28.0537 35.2467 26.771 34.852C25.513 34.4573 24.403 33.853 23.441 33.039C22.479 32.2003 21.739 31.1273 21.221 29.82L26.327 27.97C26.6477 29.1787 27.2397 30.0297 28.103 30.523C28.9663 31.0163 29.9037 31.263 30.915 31.263C32.0743 31.263 32.9993 30.9793 33.69 30.412C34.3807 29.8447 34.726 29.0553 34.726 28.044C34.726 27.0327 34.4053 26.2557 33.764 25.713C33.1227 25.1457 32.2717 24.7633 31.211 24.566C30.175 24.344 29.0403 24.233 27.807 24.233V20.311C29.9283 20.311 31.5563 20.015 32.691 19.423C33.8503 18.831 34.43 17.9923 34.43 16.907C34.43 15.945 34.0353 15.2297 33.246 14.761C32.4813 14.2677 31.5933 14.021 30.582 14.021C29.6693 14.021 28.8307 14.243 28.066 14.687C27.3013 15.131 26.7957 15.9203 26.549 17.055L21.48 15.205C21.9733 13.947 22.701 12.9233 23.663 12.134C24.625 11.3447 25.735 10.765 26.993 10.395C28.251 10.025 29.5583 9.84 30.915 9.84C32.0497 9.84 33.1597 9.96333 34.245 10.21C35.3303 10.4567 36.3047 10.8513 37.168 11.394C38.056 11.912 38.759 12.578 39.277 13.392C39.8197 14.1813 40.091 15.131 40.091 16.241C40.091 17.573 39.7333 18.7447 39.018 19.756C38.3027 20.7427 37.5133 21.4827 36.65 21.976C37.464 22.272 38.1547 22.7407 38.722 23.382C39.314 24.0233 39.758 24.7263 40.054 25.491C40.35 26.2557 40.498 27.0203 40.498 27.785C40.498 29.5117 40.0417 30.9423 39.129 32.077C38.2163 33.187 37.02 34.0257 35.54 34.593C34.06 35.1603 32.469 35.444 30.767 35.444Z" fill="black" fill-opacity="0.7"/>
<path d="M16.616 60V50.648H19.934L21.88 57.354L23.854 50.648H27.172V60H25.016V52.65L22.79 60H20.97L18.758 52.65V60H16.616ZM27.8552 60L31.3972 50.648H33.8332L37.3752 60H34.9672L34.4072 58.334H30.8232L30.2632 60H27.8552ZM31.4252 56.542H33.8052L32.6012 52.986L31.4252 56.542ZM37.5912 60L41.0212 55.198L37.7872 50.648H40.4332L42.3372 53.336L44.2552 50.648H46.9012L43.6672 55.198L47.0972 60H44.4372L42.3372 57.046L40.2512 60H37.5912Z" fill="#88C0D0"/>
</svg>
