<svg width="64" height="64" viewBox="0 0 64 64" fill="none" xmlns="http://www.w3.org/2000/svg">
<path d="M9.69948 0.0093689L55.0881 9.99999H60V64H8.51813C7.66065 64 6.83828 63.6576 6.23194 63.0481C5.62561 62.4386 5.28497 61.6119 5.28497 60.75V47.1432L9.60411 0.150675L9.69948 0.0093689Z" fill="#88C0D0"/>
<path d="M9.69948 0.0093689L55.0881 9.99999H60V64H8.51813C7.66065 64 6.83828 63.6576 6.23194 63.0481C5.62561 62.4386 5.28497 61.6119 5.28497 60.75V47.1432L9.60411 0.150675L9.69948 0.0093689Z" fill="black" fill-opacity="0.6"/>
<path d="M9.69948 0H52.3523C53.2098 0 54.0322 0.34241 54.6385 0.951903C55.2448 1.5614 55.5855 2.38805 55.5855 3.25V45H9.69948V0Z" fill="#88C0D0"/>
<path d="M0 50.875L9.69948 45V0L0 5.875V50.875Z" fill="#88C0D0"/>
<path d="M0 50.875L9.69948 45V0L0 5.875V50.875Z" fill="black" fill-opacity="0.25"/>
<path d="M20.185 35L29.546 10.284H35.984L45.345 35H38.981L37.501 30.597H28.029L26.549 35H20.185ZM29.62 25.861H35.91L32.728 16.463L29.62 25.861Z" fill="black" fill-opacity="0.7"/>
<path d="M18.616 60V50.648H21.934L23.88 57.354L25.854 50.648H29.172V60H27.016V52.65L24.79 60H22.97L20.758 52.65V60H18.616ZM33.8592 60.168C33.3365 60.168 32.8325 60.0933 32.3472 59.944C31.8712 59.7947 31.4512 59.566 31.0872 59.258C30.7232 58.9407 30.4432 58.5347 30.2472 58.04L32.1792 57.34C32.3005 57.7973 32.5245 58.1193 32.8512 58.306C33.1778 58.4927 33.5325 58.586 33.9152 58.586C34.3538 58.586 34.7038 58.4787 34.9652 58.264C35.2265 58.0493 35.3572 57.7507 35.3572 57.368C35.3572 56.9853 35.2358 56.6913 34.9932 56.486C34.7505 56.2713 34.4285 56.1267 34.0272 56.052C33.6352 55.968 33.2058 55.926 32.7392 55.926V54.442C33.5418 54.442 34.1578 54.33 34.5872 54.106C35.0258 53.882 35.2452 53.5647 35.2452 53.154C35.2452 52.79 35.0958 52.5193 34.7972 52.342C34.5078 52.1553 34.1718 52.062 33.7892 52.062C33.4438 52.062 33.1265 52.146 32.8372 52.314C32.5478 52.482 32.3565 52.7807 32.2632 53.21L30.3452 52.51C30.5318 52.034 30.8072 51.6467 31.1712 51.348C31.5352 51.0493 31.9552 50.83 32.4312 50.69C32.9072 50.55 33.4018 50.48 33.9152 50.48C34.3445 50.48 34.7645 50.5267 35.1752 50.62C35.5858 50.7133 35.9545 50.8627 36.2812 51.068C36.6172 51.264 36.8832 51.516 37.0792 51.824C37.2845 52.1227 37.3872 52.482 37.3872 52.902C37.3872 53.406 37.2518 53.8493 36.9812 54.232C36.7105 54.6053 36.4118 54.8853 36.0852 55.072C36.3932 55.184 36.6545 55.3613 36.8692 55.604C37.0932 55.8467 37.2612 56.1127 37.3732 56.402C37.4852 56.6913 37.5412 56.9807 37.5412 57.27C37.5412 57.9233 37.3685 58.4647 37.0232 58.894C36.6778 59.314 36.2252 59.6313 35.6652 59.846C35.1052 60.0607 34.5032 60.168 33.8592 60.168ZM38.8777 60V50.648H41.9577C42.7231 50.648 43.4324 50.7273 44.0857 50.886C44.7484 51.0353 45.3224 51.292 45.8077 51.656C46.3024 52.0107 46.6851 52.4913 46.9557 53.098C47.2357 53.6953 47.3757 54.4373 47.3757 55.324C47.3757 56.22 47.2357 56.9667 46.9557 57.564C46.6851 58.1613 46.3024 58.642 45.8077 59.006C45.3224 59.3607 44.7484 59.6173 44.0857 59.776C43.4324 59.9253 42.7231 60 41.9577 60H38.8777ZM41.0897 58.138H41.9997C42.4011 58.138 42.7837 58.1053 43.1477 58.04C43.5211 57.9747 43.8524 57.8487 44.1417 57.662C44.4404 57.466 44.6737 57.1813 44.8417 56.808C45.0097 56.4347 45.0937 55.94 45.0937 55.324C45.0937 54.708 45.0097 54.2133 44.8417 53.84C44.6737 53.4573 44.4404 53.1727 44.1417 52.986C43.8524 52.79 43.5211 52.6593 43.1477 52.594C42.7837 52.5193 42.4011 52.482 41.9997 52.482H41.0897V58.138Z" fill="#88C0D0"/>
</svg>
