<svg width="64" height="64" viewBox="0 0 64 64" fill="none" xmlns="http://www.w3.org/2000/svg">
<g clip-path="url(#clip0_26_1280)">
<path d="M9.69948 0.00939941L55.0881 10H60V64H8.51813C7.66065 64 6.83828 63.6576 6.23194 63.0481C5.62561 62.4386 5.28497 61.612 5.28497 60.75V47.1433L9.60411 0.150706L9.69948 0.00939941Z" fill="#88C0D0"/>
<path d="M9.69948 0.00939941L55.0881 10H60V64H8.51813C7.66065 64 6.83828 63.6576 6.23194 63.0481C5.62561 62.4386 5.28497 61.612 5.28497 60.75V47.1433L9.60411 0.150706L9.69948 0.00939941Z" fill="black" fill-opacity="0.6"/>
<path d="M9.69946 0H52.3523C53.2098 0 54.0322 0.34241 54.6385 0.951903C55.2448 1.5614 55.5855 2.38805 55.5855 3.25V45H9.69946V0Z" fill="#88C0D0"/>
<path d="M0 50.875L9.69948 45V0L0 5.875V50.875Z" fill="#88C0D0"/>
<path d="M0 50.875L9.69948 45V0L0 5.875V50.875Z" fill="black" fill-opacity="0.25"/>
<path d="M28.732 35L20.37 10.284H26.438L32.099 28.451L37.797 10.284H43.902L35.503 35H28.732Z" fill="black" fill-opacity="0.7"/>
<path d="M22.22 60V52.594H19.21V50.648H27.428V52.594H24.418V60H22.22ZM28.2566 60V50.648H31.8546C32.6666 50.648 33.39 50.7273 34.0246 50.886C34.6686 51.0447 35.1726 51.334 35.5366 51.754C35.91 52.174 36.0966 52.7713 36.0966 53.546C36.0966 53.9007 36.0313 54.2553 35.9006 54.61C35.77 54.9553 35.5413 55.2727 35.2146 55.562C34.8973 55.8513 34.44 56.0753 33.8426 56.234L36.5586 60H33.9966L31.4626 56.472H30.4686V60H28.2566ZM30.4686 54.624H31.9246C32.4473 54.624 32.8813 54.5587 33.2266 54.428C33.5813 54.288 33.7586 54.0033 33.7586 53.574C33.7586 53.1353 33.5813 52.8507 33.2266 52.72C32.8813 52.58 32.4473 52.51 31.9246 52.51H30.4686V54.624ZM37.4168 60V50.648H39.6288V54.358L43.0028 50.648H45.7048L42.0088 54.652L45.8868 60H43.3248L40.5808 56.192L39.6288 57.242V60H37.4168Z" fill="#88C0D0"/>
</g>
<defs>
<clipPath id="clip0_26_1280">
<rect width="64" height="64" fill="white"/>
</clipPath>
</defs>
</svg>
