<svg width="64" height="64" viewBox="0 0 64 64" fill="none" xmlns="http://www.w3.org/2000/svg">
<path d="M9.69948 0.00937653L55.0881 10H60V64H8.51813C7.66065 64 6.83828 63.6576 6.23194 63.0481C5.62561 62.4386 5.28497 61.612 5.28497 60.75V47.1433L9.60411 0.150683L9.69948 0.00937653Z" fill="#88C0D0"/>
<path d="M9.69948 0.00937653L55.0881 10H60V64H8.51813C7.66065 64 6.83828 63.6576 6.23194 63.0481C5.62561 62.4386 5.28497 61.612 5.28497 60.75V47.1433L9.60411 0.150683L9.69948 0.00937653Z" fill="black" fill-opacity="0.6"/>
<path d="M9.69948 0H52.3523C53.2098 0 54.0322 0.34241 54.6385 0.951903C55.2448 1.5614 55.5855 2.38805 55.5855 3.25V45H9.69948V0Z" fill="#88C0D0"/>
<path d="M0 50.875L9.69948 45V0L0 5.875V50.875Z" fill="#88C0D0"/>
<path d="M0 50.875L9.69948 45V0L0 5.875V50.875Z" fill="black" fill-opacity="0.25"/>
<path d="M20.185 35L29.546 10.284H35.984L45.345 35H38.981L37.501 30.597H28.029L26.549 35H20.185ZM29.62 25.861H35.91L32.728 16.463L29.62 25.861Z" fill="black" fill-opacity="0.7"/>
<path d="M19.07 60L22.612 50.648H25.048L28.59 60H26.182L25.622 58.334H22.038L21.478 60H19.07ZM22.64 56.542H25.02L23.816 52.986L22.64 56.542ZM29.282 60V50.648H32.362C33.1273 50.648 33.8367 50.7273 34.49 50.886C35.1527 51.0353 35.7267 51.292 36.212 51.656C36.7067 52.0107 37.0893 52.4913 37.36 53.098C37.64 53.6953 37.78 54.4373 37.78 55.324C37.78 56.22 37.64 56.9667 37.36 57.564C37.0893 58.1613 36.7067 58.642 36.212 59.006C35.7267 59.3607 35.1527 59.6173 34.49 59.776C33.8367 59.9253 33.1273 60 32.362 60H29.282ZM31.494 58.138H32.404C32.8053 58.138 33.188 58.1053 33.552 58.04C33.9253 57.9747 34.2567 57.8487 34.546 57.662C34.8447 57.466 35.078 57.1813 35.246 56.808C35.414 56.4347 35.498 55.94 35.498 55.324C35.498 54.708 35.414 54.2133 35.246 53.84C35.078 53.4573 34.8447 53.1727 34.546 52.986C34.2567 52.79 33.9253 52.6593 33.552 52.594C33.188 52.5193 32.8053 52.482 32.404 52.482H31.494V58.138ZM42.6597 60.168C41.6423 60.168 40.7837 59.9627 40.0837 59.552C39.393 59.132 38.903 58.5487 38.6137 57.802L40.6297 57.074C40.7603 57.522 41.003 57.8533 41.3577 58.068C41.7217 58.2827 42.1603 58.39 42.6737 58.39C42.9443 58.39 43.2057 58.362 43.4577 58.306C43.7097 58.2407 43.9197 58.138 44.0877 57.998C44.2557 57.8487 44.3397 57.6527 44.3397 57.41C44.3397 57.0833 44.181 56.8313 43.8637 56.654C43.5463 56.4673 43.1357 56.3273 42.6317 56.234L41.4977 56.01C40.9937 55.9073 40.5223 55.7533 40.0837 55.548C39.6543 55.3333 39.309 55.0533 39.0477 54.708C38.7863 54.3533 38.6557 53.91 38.6557 53.378C38.6557 52.874 38.7723 52.44 39.0057 52.076C39.239 51.712 39.547 51.4133 39.9297 51.18C40.3217 50.9467 40.751 50.774 41.2177 50.662C41.6843 50.5407 42.151 50.48 42.6177 50.48C43.1217 50.48 43.607 50.55 44.0737 50.69C44.5497 50.83 44.9743 51.0493 45.3477 51.348C45.721 51.6373 46.0057 52.0247 46.2017 52.51L44.1997 53.238C44.0783 52.9207 43.859 52.678 43.5417 52.51C43.2337 52.342 42.8603 52.258 42.4217 52.258C41.9923 52.258 41.633 52.3373 41.3437 52.496C41.0637 52.6453 40.9237 52.8647 40.9237 53.154C40.9237 53.3873 41.0217 53.588 41.2177 53.756C41.4137 53.924 41.6703 54.0407 41.9877 54.106L43.2477 54.358C43.6303 54.4327 44.0177 54.5307 44.4097 54.652C44.8017 54.764 45.161 54.918 45.4877 55.114C45.8237 55.3007 46.0943 55.5527 46.2997 55.87C46.505 56.1873 46.6077 56.5887 46.6077 57.074C46.6077 57.5687 46.491 58.012 46.2577 58.404C46.0337 58.7867 45.7303 59.1087 45.3477 59.37C44.9743 59.6313 44.5543 59.832 44.0877 59.972C43.621 60.1027 43.145 60.168 42.6597 60.168Z" fill="#88C0D0"/>
</svg>
