<svg width="64" height="64" viewBox="0 0 64 64" fill="none" xmlns="http://www.w3.org/2000/svg">
<path d="M9.69948 0.00937653L55.0881 10H60V64H8.51813C7.66065 64 6.83828 63.6576 6.23194 63.0481C5.62561 62.4386 5.28497 61.612 5.28497 60.75V47.1433L9.60411 0.150683L9.69948 0.00937653Z" fill="#88C0D0"/>
<path d="M9.69948 0.00937653L55.0881 10H60V64H8.51813C7.66065 64 6.83828 63.6576 6.23194 63.0481C5.62561 62.4386 5.28497 61.612 5.28497 60.75V47.1433L9.60411 0.150683L9.69948 0.00937653Z" fill="black" fill-opacity="0.6"/>
<path d="M9.69946 0H52.3523C53.2098 0 54.0322 0.34241 54.6385 0.951903C55.2448 1.5614 55.5855 2.38805 55.5855 3.25V45H9.69946V0Z" fill="#88C0D0"/>
<path d="M0 50.875L9.69948 45V0L0 5.875V50.875Z" fill="#88C0D0"/>
<path d="M0 50.875L9.69948 45V0L0 5.875V50.875Z" fill="black" fill-opacity="0.25"/>
<path d="M20.185 35L29.546 10.284H35.984L45.345 35H38.981L37.501 30.597H28.029L26.549 35H20.185ZM29.62 25.861H35.91L32.728 16.463L29.62 25.861Z" fill="black" fill-opacity="0.7"/>
<path d="M23.166 60.168C22.1953 60.168 21.36 59.972 20.66 59.58C19.96 59.188 19.4233 58.628 19.05 57.9C18.6767 57.172 18.49 56.3133 18.49 55.324C18.49 54.3347 18.6813 53.4807 19.064 52.762C19.456 52.034 20.0067 51.474 20.716 51.082C21.4253 50.6807 22.2607 50.48 23.222 50.48C24.1087 50.48 24.8787 50.676 25.532 51.068C26.1947 51.46 26.7033 51.9873 27.058 52.65L25.098 53.364C24.8927 52.9813 24.6127 52.7107 24.258 52.552C23.9033 52.384 23.5347 52.3 23.152 52.3C22.7227 52.3 22.3307 52.4213 21.976 52.664C21.6213 52.8973 21.3413 53.2427 21.136 53.7C20.9307 54.148 20.828 54.6893 20.828 55.324C20.828 56.304 21.052 57.0553 21.5 57.578C21.9573 58.0913 22.5173 58.348 23.18 58.348C23.5347 58.348 23.8987 58.2733 24.272 58.124C24.6547 57.9747 24.9533 57.6993 25.168 57.298L27.114 58.012C26.7407 58.6747 26.2087 59.202 25.518 59.594C24.8367 59.9767 24.0527 60.168 23.166 60.168ZM27.4899 60L31.0319 50.648H33.4679L37.0099 60H34.6019L34.0419 58.334H30.4579L29.8979 60H27.4899ZM31.0599 56.542H33.4399L32.2359 52.986L31.0599 56.542ZM37.7019 60V50.648H40.7819C41.5473 50.648 42.2566 50.7273 42.9099 50.886C43.5726 51.0353 44.1466 51.292 44.6319 51.656C45.1266 52.0107 45.5093 52.4913 45.7799 53.098C46.0599 53.6953 46.1999 54.4373 46.1999 55.324C46.1999 56.22 46.0599 56.9667 45.7799 57.564C45.5093 58.1613 45.1266 58.642 44.6319 59.006C44.1466 59.3607 43.5726 59.6173 42.9099 59.776C42.2566 59.9253 41.5473 60 40.7819 60H37.7019ZM39.9139 58.138H40.8239C41.2253 58.138 41.6079 58.1053 41.9719 58.04C42.3453 57.9747 42.6766 57.8487 42.9659 57.662C43.2646 57.466 43.4979 57.1813 43.6659 56.808C43.8339 56.4347 43.9179 55.94 43.9179 55.324C43.9179 54.708 43.8339 54.2133 43.6659 53.84C43.4979 53.4573 43.2646 53.1727 42.9659 52.986C42.6766 52.79 42.3453 52.6593 41.9719 52.594C41.6079 52.5193 41.2253 52.482 40.8239 52.482H39.9139V58.138Z" fill="#88C0D0"/>
</svg>
