<svg width="64" height="64" viewBox="0 0 64 64" fill="none" xmlns="http://www.w3.org/2000/svg">
<path d="M9.69948 0.0093689L55.0881 9.99999H60V64H8.51813C7.66065 64 6.83828 63.6576 6.23194 63.0481C5.62561 62.4386 5.28497 61.6119 5.28497 60.75V47.1432L9.60411 0.150675L9.69948 0.0093689Z" fill="#88C0D0"/>
<path d="M9.69948 0.0093689L55.0881 9.99999H60V64H8.51813C7.66065 64 6.83828 63.6576 6.23194 63.0481C5.62561 62.4386 5.28497 61.6119 5.28497 60.75V47.1432L9.60411 0.150675L9.69948 0.0093689Z" fill="black" fill-opacity="0.6"/>
<path d="M9.69949 0H52.3523C53.2098 0 54.0322 0.34241 54.6385 0.951903C55.2449 1.5614 55.5855 2.38805 55.5855 3.25V45H9.69949V0Z" fill="#88C0D0"/>
<path d="M0 50.875L9.69948 45V0L0 5.875V50.875Z" fill="#88C0D0"/>
<path d="M0 50.875L9.69948 45V0L0 5.875V50.875Z" fill="black" fill-opacity="0.25"/>
<path d="M23.628 35V10.284H41.314V15.427H29.474V19.719H41.314V24.862H29.474V35H23.628Z" fill="black" fill-opacity="0.7"/>
</svg>
