<svg width="64" height="64" viewBox="0 0 64 64" fill="none" xmlns="http://www.w3.org/2000/svg">
<path d="M9.69948 0.0093689L55.0881 9.99999H60V64H8.51813C7.66065 64 6.83828 63.6576 6.23194 63.0481C5.62561 62.4386 5.28497 61.6119 5.28497 60.75V47.1432L9.60411 0.150675L9.69948 0.0093689Z" fill="#88C0D0"/>
<path d="M9.69948 0.0093689L55.0881 9.99999H60V64H8.51813C7.66065 64 6.83828 63.6576 6.23194 63.0481C5.62561 62.4386 5.28497 61.6119 5.28497 60.75V47.1432L9.60411 0.150675L9.69948 0.0093689Z" fill="black" fill-opacity="0.6"/>
<path d="M9.69946 0H52.3523C53.2098 0 54.0322 0.34241 54.6385 0.951903C55.2448 1.5614 55.5855 2.38805 55.5855 3.25V45H9.69946V0Z" fill="#88C0D0"/>
<path d="M0 50.875L9.69948 45V0L0 5.875V50.875Z" fill="#88C0D0"/>
<path d="M0 50.875L9.69948 45V0L0 5.875V50.875Z" fill="black" fill-opacity="0.25"/>
<path d="M21.628 35V10.284H31.137C33.283 10.284 35.1947 10.4937 36.872 10.913C38.574 11.3323 39.906 12.097 40.868 13.207C41.8547 14.317 42.348 15.8957 42.348 17.943C42.348 18.8803 42.1753 19.8177 41.83 20.755C41.4847 21.6677 40.8803 22.5063 40.017 23.271C39.1783 24.0357 37.9697 24.6277 36.391 25.047L43.569 35H36.798L30.101 25.676H27.474V35H21.628ZM27.474 20.792H31.322C32.7033 20.792 33.8503 20.6193 34.763 20.274C35.7003 19.904 36.169 19.1517 36.169 18.017C36.169 16.8577 35.7003 16.1053 34.763 15.76C33.8503 15.39 32.7033 15.205 31.322 15.205H27.474V20.792Z" fill="black" fill-opacity="0.7"/>
<path d="M17.616 60V50.648H21.214C22.026 50.648 22.7493 50.7273 23.384 50.886C24.028 51.0447 24.532 51.334 24.896 51.754C25.2693 52.174 25.456 52.7713 25.456 53.546C25.456 53.9007 25.3907 54.2553 25.26 54.61C25.1293 54.9553 24.9007 55.2727 24.574 55.562C24.2567 55.8513 23.7993 56.0753 23.202 56.234L25.918 60H23.356L20.822 56.472H19.828V60H17.616ZM19.828 54.624H21.284C21.8067 54.624 22.2407 54.5587 22.586 54.428C22.9407 54.288 23.118 54.0033 23.118 53.574C23.118 53.1353 22.9407 52.8507 22.586 52.72C22.2407 52.58 21.8067 52.51 21.284 52.51H19.828V54.624ZM26.7762 60V50.648H29.5902L33.2022 57.312V50.648H35.3442V60H32.5162L28.9042 53.336V60H26.7762ZM36.5789 60V50.648H39.6589C40.4242 50.648 41.1336 50.7273 41.7869 50.886C42.4496 51.0353 43.0236 51.292 43.5089 51.656C44.0036 52.0107 44.3862 52.4913 44.6569 53.098C44.9369 53.6953 45.0769 54.4373 45.0769 55.324C45.0769 56.22 44.9369 56.9667 44.6569 57.564C44.3862 58.1613 44.0036 58.642 43.5089 59.006C43.0236 59.3607 42.4496 59.6173 41.7869 59.776C41.1336 59.9253 40.4242 60 39.6589 60H36.5789ZM38.7909 58.138H39.7009C40.1022 58.138 40.4849 58.1053 40.8489 58.04C41.2222 57.9747 41.5536 57.8487 41.8429 57.662C42.1416 57.466 42.3749 57.1813 42.5429 56.808C42.7109 56.4347 42.7949 55.94 42.7949 55.324C42.7949 54.708 42.7109 54.2133 42.5429 53.84C42.3749 53.4573 42.1416 53.1727 41.8429 52.986C41.5536 52.79 41.2222 52.6593 40.8489 52.594C40.4849 52.5193 40.1022 52.482 39.7009 52.482H38.7909V58.138Z" fill="#88C0D0"/>
</svg>
