<svg width="64" height="64" viewBox="0 0 64 64" fill="none" xmlns="http://www.w3.org/2000/svg">
<path d="M9.69948 0.0093689L55.0881 9.99999H60V64H8.51813C7.66065 64 6.83828 63.6576 6.23194 63.0481C5.62561 62.4386 5.28497 61.6119 5.28497 60.75V47.1432L9.60411 0.150675L9.69948 0.0093689Z" fill="#88C0D0"/>
<path d="M9.69948 0.0093689L55.0881 9.99999H60V64H8.51813C7.66065 64 6.83828 63.6576 6.23194 63.0481C5.62561 62.4386 5.28497 61.6119 5.28497 60.75V47.1432L9.60411 0.150675L9.69948 0.0093689Z" fill="black" fill-opacity="0.6"/>
<path d="M9.69946 0H52.3523C53.2098 0 54.0322 0.34241 54.6385 0.951903C55.2448 1.5614 55.5855 2.38805 55.5855 3.25V45H9.69946V0Z" fill="#88C0D0"/>
<path d="M0 50.875L9.69948 45V0L0 5.875V50.875Z" fill="#88C0D0"/>
<path d="M0 50.875L9.69948 45V0L0 5.875V50.875Z" fill="black" fill-opacity="0.25"/>
<path d="M23.628 35V10.284H41.314V15.427H29.474V19.719H41.314V24.862H29.474V35H23.628Z" fill="black" fill-opacity="0.7"/>
<path d="M20.616 60V50.648H27.308V52.594H22.828V54.218H27.308V56.164H22.828V60H20.616ZM32.2632 60.168C30.7979 60.168 29.7572 59.818 29.1412 59.118C28.5346 58.418 28.2312 57.3493 28.2312 55.912V50.648H30.4432V56.094C30.4432 56.5513 30.4852 56.9527 30.5692 57.298C30.6626 57.634 30.8399 57.8953 31.1012 58.082C31.3626 58.2687 31.7499 58.362 32.2632 58.362C32.7766 58.362 33.1592 58.2687 33.4112 58.082C33.6726 57.8953 33.8452 57.634 33.9292 57.298C34.0226 56.9527 34.0692 56.5513 34.0692 56.094V50.648H36.2812V55.912C36.2812 57.3493 35.9732 58.418 35.3572 59.118C34.7412 59.818 33.7099 60.168 32.2632 60.168ZM41.2944 60.168C40.2771 60.168 39.4184 59.9627 38.7184 59.552C38.0278 59.132 37.5378 58.5487 37.2484 57.802L39.2644 57.074C39.3951 57.522 39.6378 57.8533 39.9924 58.068C40.3564 58.2827 40.7951 58.39 41.3084 58.39C41.5791 58.39 41.8404 58.362 42.0924 58.306C42.3444 58.2407 42.5544 58.138 42.7224 57.998C42.8904 57.8487 42.9744 57.6527 42.9744 57.41C42.9744 57.0833 42.8158 56.8313 42.4984 56.654C42.1811 56.4673 41.7704 56.3273 41.2664 56.234L40.1324 56.01C39.6284 55.9073 39.1571 55.7533 38.7184 55.548C38.2891 55.3333 37.9438 55.0533 37.6824 54.708C37.4211 54.3533 37.2904 53.91 37.2904 53.378C37.2904 52.874 37.4071 52.44 37.6404 52.076C37.8738 51.712 38.1818 51.4133 38.5644 51.18C38.9564 50.9467 39.3858 50.774 39.8524 50.662C40.3191 50.5407 40.7858 50.48 41.2524 50.48C41.7564 50.48 42.2418 50.55 42.7084 50.69C43.1844 50.83 43.6091 51.0493 43.9824 51.348C44.3558 51.6373 44.6404 52.0247 44.8364 52.51L42.8344 53.238C42.7131 52.9207 42.4938 52.678 42.1764 52.51C41.8684 52.342 41.4951 52.258 41.0564 52.258C40.6271 52.258 40.2678 52.3373 39.9784 52.496C39.6984 52.6453 39.5584 52.8647 39.5584 53.154C39.5584 53.3873 39.6564 53.588 39.8524 53.756C40.0484 53.924 40.3051 54.0407 40.6224 54.106L41.8824 54.358C42.2651 54.4327 42.6524 54.5307 43.0444 54.652C43.4364 54.764 43.7958 54.918 44.1224 55.114C44.4584 55.3007 44.7291 55.5527 44.9344 55.87C45.1398 56.1873 45.2424 56.5887 45.2424 57.074C45.2424 57.5687 45.1258 58.012 44.8924 58.404C44.6684 58.7867 44.3651 59.1087 43.9824 59.37C43.6091 59.6313 43.1891 59.832 42.7224 59.972C42.2558 60.1027 41.7798 60.168 41.2944 60.168Z" fill="#88C0D0"/>
</svg>
