<svg width="64" height="64" viewBox="0 0 64 64" fill="none" xmlns="http://www.w3.org/2000/svg">
<path d="M24.0006 36.2457C24.2359 32.1724 26.2865 28.5733 29.3936 26.0302C32.4341 23.5302 36.5177 22 41.0008 22C45.4617 22 49.5453 23.528 52.5858 26.0302C55.6929 28.5733 57.7346 32.1724 57.9788 36.2457C58.214 40.4267 56.4807 44.3276 53.4513 47.2155C50.3442 50.1465 45.9499 52 41.0008 52C36.0517 52 31.6352 50.1595 28.5503 47.2155C25.5098 44.3276 23.7787 40.4483 24.0228 36.2672L24.0006 36.2457Z" fill="#88C0D0"/>
<path d="M24.0006 36.2457C24.2359 32.1724 26.2865 28.5733 29.3936 26.0302C32.4341 23.5302 36.5177 22 41.0008 22C45.4617 22 49.5453 23.528 52.5858 26.0302C55.6929 28.5733 57.7346 32.1724 57.9788 36.2457C58.214 40.4267 56.4807 44.3276 53.4513 47.2155C50.3442 50.1465 45.9499 52 41.0008 52C36.0517 52 31.6352 50.1595 28.5503 47.2155C25.5098 44.3276 23.7787 40.4483 24.0228 36.2672L24.0006 36.2457Z" fill="black" fill-opacity="0.7"/>
<path d="M33.0003 36.0725C33.1179 33.7644 34.1433 31.7249 35.6968 30.2838C37.2171 28.8671 39.2589 28 41.5004 28C43.7308 28 45.7726 28.8659 47.2929 30.2838C48.8464 31.7249 49.8673 33.7644 49.9894 36.0725C50.107 38.4418 49.2403 40.6523 47.7256 42.2888C46.1721 43.9497 43.975 45 41.5004 45C39.0258 45 36.8176 43.957 35.2751 42.2888C33.7549 40.6523 32.8893 38.454 33.0114 36.0848L33.0003 36.0725Z" fill="#88C0D0"/>
<path d="M33.0003 36.0725C33.1179 33.7644 34.1433 31.7249 35.6968 30.2838C37.2171 28.8671 39.2589 28 41.5004 28C43.7308 28 45.7726 28.8659 47.2929 30.2838C48.8464 31.7249 49.8673 33.7644 49.9894 36.0725C50.107 38.4418 49.2403 40.6523 47.7256 42.2888C46.1721 43.9497 43.975 45 41.5004 45C39.0258 45 36.8176 43.957 35.2751 42.2888C33.7549 40.6523 32.8893 38.454 33.0114 36.0848L33.0003 36.0725Z" fill="black" fill-opacity="0.2"/>
<path d="M19.6224 39.906C19.6371 40.7255 19.9034 42.32 20.303 43.5603C21.1427 46.1957 22.5716 48.6319 24.5467 50.7691C26.5783 52.9727 29.0839 54.7444 31.9732 56.0068C35.0093 57.3245 38.305 58 41.7248 58C45.1446 57.9956 48.4402 57.309 51.4763 55.9736C54.3657 54.7001 56.8713 52.9284 58.9029 50.7137C60.8893 48.5544 62.3114 46.1182 63.1466 43.4828C63.5698 42.154 63.8373 40.803 63.9445 39.452C64.0495 38.1232 64.0055 36.7833 63.8125 35.4435C63.4355 32.8412 62.5145 30.394 61.1037 28.1793C59.8171 26.1307 58.1466 24.3479 56.1602 22.8419L56.1648 22.8386L36.1876 7.77875C36.1696 7.76546 36.1549 7.75106 36.1357 7.73887C34.8265 6.75113 32.6143 6.75445 31.1809 7.74442C29.725 8.74545 29.5557 10.402 30.8536 11.4429L30.848 11.4485L39.1887 18.1036L13.7941 18.1302H13.7602C11.6609 18.1324 9.64062 19.4811 9.24559 21.1975C8.83476 22.9361 10.2614 24.3866 12.451 24.3866L12.4476 24.3944L25.3142 24.37L2.28972 41.6446C2.26037 41.6656 2.22877 41.6877 2.20168 41.7088C0.0346687 43.3366 -0.665097 46.0496 0.700571 47.7549C2.08881 49.4934 5.03459 49.5045 7.22417 47.7648L19.7522 37.6881C19.7522 37.6881 19.5694 39.0501 19.584 39.8584L19.6224 39.906ZM51.9018 44.4572C49.3172 47.0373 45.6942 48.5101 41.7891 48.5101C37.8727 48.5167 34.2497 47.0706 31.6651 44.4905C30.401 43.2281 29.4755 41.7885 28.8999 40.2493C28.339 38.7323 28.1212 37.1266 28.2656 35.5099C28.4022 33.9264 28.883 32.4093 29.6539 31.0473C30.4078 29.7074 31.4484 28.4894 32.7238 27.4595C35.2407 25.4553 38.4348 24.359 41.7756 24.359C45.1277 24.3545 48.3217 25.432 50.8386 27.4374C52.114 28.4606 53.1524 29.6742 53.9086 31.0141C54.6794 32.3761 55.1614 33.8821 55.2968 35.4767C55.439 37.0934 55.2212 38.699 54.6603 40.2161C54.0869 41.7664 53.1591 43.2059 51.8951 44.4683L51.9018 44.4572Z" fill="#88C0D0"/>
</svg>
