<svg width="64" height="64" viewBox="0 0 64 64" fill="none" xmlns="http://www.w3.org/2000/svg">
<path fill-rule="evenodd" clip-rule="evenodd" d="M57.0747 15.3528L58.5875 11.6686C58.5875 11.6686 56.6622 9.62187 54.3249 7.30221C51.9874 4.98254 47.0374 6.34702 47.0374 6.34702L41.3999 0H31.5H21.6L15.9625 6.34702C15.9625 6.34702 11.0125 4.98254 8.67498 7.30221C6.33749 9.62187 4.4125 11.6686 4.4125 11.6686L5.925 15.3528L4 20.8109C4 20.8109 9.66156 42.0911 10.325 44.6898C11.6312 49.8068 12.525 51.7853 16.2375 54.3777C19.95 56.9706 26.6875 61.4731 27.7875 62.1554C28.8874 62.8377 30.2624 64 31.5 64C32.7374 64 34.1125 62.8377 35.2124 62.1554C36.3124 61.4731 43.05 56.9706 46.7624 54.3777C50.4749 51.7853 51.3687 49.8068 52.675 44.6898C53.3382 42.0911 59 20.8109 59 20.8109L57.0747 15.3528Z" fill="#88C0D0"/>
<path fill-rule="evenodd" clip-rule="evenodd" d="M57.0747 15.3528L58.5875 11.6686C58.5875 11.6686 56.6622 9.62187 54.3249 7.30221C51.9874 4.98254 47.0374 6.34702 47.0374 6.34702L41.3999 0H31.5H21.6L15.9625 6.34702C15.9625 6.34702 11.0125 4.98254 8.67498 7.30221C6.33749 9.62187 4.4125 11.6686 4.4125 11.6686L5.925 15.3528L4 20.8109C4 20.8109 9.66156 42.0911 10.325 44.6898C11.6312 49.8068 12.525 51.7853 16.2375 54.3777C19.95 56.9706 26.6875 61.4731 27.7875 62.1554C28.8874 62.8377 30.2624 64 31.5 64C32.7374 64 34.1125 62.8377 35.2124 62.1554C36.3124 61.4731 43.05 56.9706 46.7624 54.3777C50.4749 51.7853 51.3687 49.8068 52.675 44.6898C53.3382 42.0911 59 20.8109 59 20.8109L57.0747 15.3528Z" fill="black" fill-opacity="0.5"/>
<path fill-rule="evenodd" clip-rule="evenodd" d="M38.2745 12.7261C39.1303 12.7261 45.4777 11.6 45.4777 11.6C45.4777 11.6 53 20.0459 53 21.851C53 23.3435 52.353 23.9277 51.5912 24.6156C51.4316 24.7597 51.267 24.9084 51.1022 25.0709L45.462 30.6338C45.4061 30.689 45.3439 30.7471 45.278 30.8086C44.715 31.3343 43.886 32.1086 44.471 33.3944C44.5101 33.4803 44.5503 33.5677 44.5911 33.6563C45.2325 35.0495 46.0242 36.7692 45.0164 38.512C43.9444 40.3657 42.1079 41.603 40.9311 41.3984C39.7543 41.1938 36.9907 39.8524 35.9744 39.2396C34.9582 38.6269 31.7371 36.1595 31.7371 35.2154C31.7371 34.428 34.0536 33.1181 35.1791 32.4817C35.403 32.3551 35.5797 32.2552 35.6818 32.1913C35.798 32.1186 35.9923 32.0065 36.2314 31.8685C37.2588 31.2756 39.1136 30.2052 39.1603 29.7306C39.2176 29.1455 39.1958 28.9739 38.3678 27.5282C38.1917 27.2208 37.9857 26.8915 37.7728 26.5512C36.9843 25.2912 36.1014 23.8802 36.2968 22.8695C36.5174 21.7286 38.4422 21.0745 40.0725 20.5204C40.2763 20.4511 40.4755 20.3834 40.6661 20.3166C41.1419 20.1497 41.7398 19.9417 42.3643 19.7244C43.9921 19.1581 45.8007 18.5288 46.0989 18.4011C46.5118 18.2242 46.4051 18.0559 45.1546 17.9458C44.9892 17.9312 44.7835 17.9109 44.5474 17.8876C42.9994 17.7348 40.1444 17.453 38.7565 17.8124C38.4835 17.883 38.1775 17.96 37.8566 18.0407C36.2971 18.4329 34.3861 18.9136 34.2025 19.1907C34.1703 19.2392 34.1388 19.2809 34.109 19.3202C33.9333 19.5521 33.8188 19.7033 34.0132 20.6887C34.071 20.9821 34.19 21.5593 34.3371 22.273C34.7679 24.3626 35.4398 27.6222 35.5244 28.3544C35.5363 28.4569 35.5493 28.5558 35.5619 28.6509C35.6696 29.4679 35.7413 30.0115 34.7199 30.2284C34.6349 30.2464 34.5456 30.2655 34.4528 30.2853C33.3002 30.5309 31.6104 30.8911 31 30.8911C30.3892 30.8911 28.6981 30.5306 27.5456 30.285C27.4533 30.2653 27.3645 30.2463 27.2799 30.2284C26.2584 30.0115 26.3301 29.4678 26.4379 28.6509C26.4504 28.5557 26.4634 28.4569 26.4753 28.3544C26.5602 27.6211 27.2338 24.3536 27.6645 22.2643C27.8108 21.5547 27.9291 20.981 27.9867 20.6887C28.181 19.7034 28.0665 19.5522 27.8909 19.3203C27.8611 19.2809 27.8296 19.2392 27.7974 19.1907C27.6138 18.9136 25.7029 18.433 24.1435 18.0408C23.8225 17.96 23.5164 17.883 23.2433 17.8124C21.8553 17.453 19.0006 17.7348 17.4526 17.8876C17.2164 17.9109 17.0106 17.9312 16.8451 17.9458C15.5947 18.0559 15.488 18.2242 15.9008 18.4011C16.1991 18.5288 18.0067 19.1577 19.6342 19.7239C20.2592 19.9414 20.8576 20.1495 21.3338 20.3166C21.5245 20.3835 21.7238 20.4512 21.9276 20.5205C23.5578 21.0746 25.4825 21.7287 25.7031 22.8695C25.8985 23.8801 25.0158 25.2908 24.2275 26.5507C24.0144 26.8911 23.8082 27.2206 23.6321 27.5282C22.8041 28.9739 22.7821 29.1455 22.8396 29.7306C22.8861 30.2051 24.7404 31.2752 25.7678 31.8681C26.0072 32.0063 26.2017 32.1185 26.318 32.1913C26.42 32.2551 26.5965 32.355 26.8202 32.4814C27.9456 33.1178 30.2627 34.4279 30.2627 35.2154C30.2627 36.1595 27.0417 38.6269 26.0254 39.2396C25.0092 39.8524 22.2455 41.1938 21.0687 41.3984C19.892 41.603 18.0555 40.3657 16.9834 38.512C15.9757 36.7694 16.7673 35.0498 17.4085 33.6567C17.4493 33.5679 17.4896 33.4804 17.5288 33.3944C18.1138 32.1084 17.2846 31.3342 16.7215 30.8084C16.6558 30.7469 16.5936 30.6889 16.5377 30.6338C16.2292 30.3294 14.709 28.8301 13.2979 27.4384C12.2693 26.4239 11.2986 25.4665 10.8975 25.0709C10.7327 24.9084 10.5682 24.7598 10.4086 24.6157C9.64681 23.9277 9 23.3435 9 21.851C9 20.0459 16.5222 11.6 16.5222 11.6C16.5222 11.6 22.8696 12.7261 23.7254 12.7261C24.4083 12.7261 25.727 12.3044 27.1017 11.8646C27.4497 11.7533 27.8014 11.6408 28.1472 11.5338C29.8588 11.0038 31 11 31 11C31 11 32.1411 11.0038 33.8527 11.5338C34.1985 11.6408 34.5502 11.7533 34.8982 11.8646C36.2729 12.3044 37.5915 12.7261 38.2745 12.7261ZM37.1852 42.6003C38.527 43.2424 39.4788 43.698 39.8387 43.9072C40.3043 44.178 40.0203 44.6885 39.5962 44.9669C39.172 45.2454 33.4721 49.3452 32.9189 49.798C32.8482 49.8563 32.7731 49.919 32.6949 49.9845C32.1619 50.4305 31.482 51 31 51C30.5178 51 29.8375 50.4301 29.3044 49.984C29.2265 49.9185 29.1517 49.8559 29.0811 49.798C28.5278 49.3452 22.828 45.2454 22.4038 44.9669C21.9796 44.6885 21.6957 44.178 22.1613 43.9072C22.5214 43.6979 23.4742 43.2419 24.8173 42.5991C25.211 42.4106 25.6383 42.2061 26.094 41.9871C28.1039 41.021 30.609 40.1996 31 40.1996C31.391 40.1996 33.896 41.021 35.9062 41.9871C36.3628 42.2066 36.7909 42.4115 37.1852 42.6003Z" fill="#88C0D0"/>
</svg>
