<svg width="64" height="64" viewBox="0 0 64 64" fill="none" xmlns="http://www.w3.org/2000/svg">
<g clip-path="url(#clip0_7_645)">
<path d="M32 48C40.8366 48 48 40.8366 48 32C48 23.1634 40.8366 16 32 16C23.1634 16 16 23.1634 16 32C16 40.8366 23.1634 48 32 48Z" fill="#88C0D0"/>
<path d="M32.001 16H60C57.1628 11.1352 53.0813 7.09538 48.166 4.28672C43.2507 1.47807 37.6747 -0.000391827 31.9989 7.7893e-08C26.323 0.000391982 20.7473 1.47962 15.8323 4.28896C10.9174 7.09829 6.83651 11.1387 4 16.0039L17.9995 40L18.012 39.9968C16.5879 37.5665 15.8364 34.8076 15.8332 31.9982C15.83 29.1889 16.5753 26.4283 17.9938 23.9948C19.4124 21.5614 21.4542 19.541 23.9134 18.1374C26.3725 16.7338 29.1622 15.9966 32.001 16Z" fill="#88C0D0"/>
<path d="M32.001 16H60C57.1628 11.1352 53.0813 7.09538 48.166 4.28672C43.2507 1.47807 37.6747 -0.000391827 31.9989 7.7893e-08C26.323 0.000391982 20.7473 1.47962 15.8323 4.28896C10.9174 7.09829 6.83651 11.1387 4 16.0039L17.9995 40L18.012 39.9968C16.5879 37.5665 15.8364 34.8076 15.8332 31.9982C15.83 29.1889 16.5753 26.4283 17.9938 23.9948C19.4124 21.5614 21.4542 19.541 23.9134 18.1374C26.3725 16.7338 29.1622 15.9966 32.001 16Z" fill="black" fill-opacity="0.4"/>
<path d="M45.8589 40.0018L32.0057 64C37.6223 64.0008 43.14 62.5226 48.0042 59.714C52.8683 56.9055 56.9074 52.8656 59.7153 48.0006C62.5233 43.1356 64.001 37.6169 64 31.9995C63.999 26.3821 62.5193 20.864 59.7096 16H32.0033L32 16.0124C34.8092 16.007 37.5702 16.7424 40.0046 18.1444C42.439 19.5465 44.4609 21.5657 45.8663 23.9984C47.2717 26.4311 48.011 29.1915 48.0098 32.0011C48.0085 34.8107 47.2666 37.5704 45.8589 40.0018Z" fill="#88C0D0"/>
<path d="M45.8589 40.0018L32.0057 64C37.6223 64.0008 43.14 62.5226 48.0042 59.714C52.8683 56.9055 56.9074 52.8656 59.7153 48.0006C62.5233 43.1356 64.001 37.6169 64 31.9995C63.999 26.3821 62.5193 20.864 59.7096 16H32.0033L32 16.0124C34.8092 16.007 37.5702 16.7424 40.0046 18.1444C42.439 19.5465 44.4609 21.5657 45.8663 23.9984C47.2717 26.4311 48.011 29.1915 48.0098 32.0011C48.0085 34.8107 47.2666 37.5704 45.8589 40.0018Z" fill="black" fill-opacity="0.2"/>
<path d="M18.1998 40.0001L4.30197 16C1.48393 20.8648 0.000210009 26.3836 2.22923e-08 32.0015C-0.000209965 37.6193 1.4831 43.1382 4.30077 48.0033C7.11844 52.8683 11.1712 56.9079 16.0514 59.716C20.9317 62.5241 26.4675 64.0016 32.1021 64L46 39.9999L45.991 39.9908C44.5866 42.4269 42.5628 44.4508 40.1237 45.8584C37.6846 47.2661 34.9164 48.0078 32.0981 48.0087C29.2799 48.0097 26.5112 47.2698 24.0711 45.8638C21.6311 44.4578 19.6059 42.4353 18.1998 40.0001Z" fill="#88C0D0"/>
<path d="M18.1998 40.0001L4.30197 16C1.48393 20.8648 0.000210009 26.3836 2.22923e-08 32.0015C-0.000209965 37.6193 1.4831 43.1382 4.30077 48.0033C7.11844 52.8683 11.1712 56.9079 16.0514 59.716C20.9317 62.5241 26.4675 64.0016 32.1021 64L46 39.9999L45.991 39.9908C44.5866 42.4269 42.5628 44.4508 40.1237 45.8584C37.6846 47.2661 34.9164 48.0078 32.0981 48.0087C29.2799 48.0097 26.5112 47.2698 24.0711 45.8638C21.6311 44.4578 19.6059 42.4353 18.1998 40.0001Z" fill="black" fill-opacity="0.6"/>
<circle cx="32" cy="32" r="12" fill="#88C0D0"/>
<circle cx="32" cy="32" r="12" fill="black" fill-opacity="0.3"/>
</g>
<defs>
<clipPath id="clip0_7_645">
<rect width="64" height="64" fill="white"/>
</clipPath>
</defs>
</svg>
