<svg width="64" height="64" viewBox="0 0 64 64" fill="none" xmlns="http://www.w3.org/2000/svg">
<path d="M54.1787 11.9789C50.0996 10.1373 45.7253 8.78039 41.1517 8.00326C41.0684 7.98826 40.9852 8.02574 40.9423 8.10071C40.3798 9.08524 39.7566 10.3696 39.3202 11.3792C34.4011 10.6545 29.5072 10.6545 24.6889 11.3792C24.2524 10.3472 23.6066 9.08524 23.0415 8.10071C22.9986 8.02825 22.9154 7.99076 22.8321 8.00326C18.2611 8.77791 13.8868 10.1348 9.80516 11.9789C9.76982 11.9939 9.73954 12.0189 9.71944 12.0514C1.42238 24.2483 -0.850534 36.1454 0.26448 47.895C0.269525 47.9525 0.30232 48.0075 0.347728 48.0424C5.82189 51.9981 11.1246 54.3995 16.3287 55.9912C16.412 56.0163 16.5003 55.9863 16.5533 55.9188C17.7843 54.2646 18.8817 52.5204 19.8226 50.6862C19.8781 50.5788 19.8251 50.4513 19.7116 50.4088C17.971 49.7591 16.3136 48.967 14.7193 48.0674C14.5932 47.995 14.5831 47.8175 14.6991 47.7325C15.0346 47.4852 15.3702 47.2278 15.6905 46.9679C15.7485 46.9204 15.8293 46.9104 15.8974 46.9404C26.3714 51.6458 37.7108 51.6458 48.0612 46.9404C48.1294 46.9079 48.2101 46.9179 48.2706 46.9654C48.5911 47.2253 48.9266 47.4852 49.2646 47.7325C49.3806 47.8175 49.373 47.995 49.2469 48.0674C47.6526 48.9845 45.9952 49.7591 44.252 50.4063C44.1385 50.4488 44.0881 50.5788 44.1436 50.6862C45.1047 52.5178 46.2021 54.262 47.4104 55.9163C47.4609 55.9863 47.5516 56.0163 47.6349 55.9912C52.8644 54.3995 58.167 51.9981 63.6411 48.0424C63.6891 48.0075 63.7194 47.955 63.7244 47.8975C65.0589 34.3137 61.4893 22.5141 54.2619 12.0539C54.2442 12.0189 54.214 11.9939 54.1787 11.9789ZM21.3867 40.7407C18.2333 40.7407 15.635 37.8921 15.635 34.3937C15.635 30.8952 18.1829 28.0466 21.3867 28.0466C24.6157 28.0466 27.1888 30.9203 27.1383 34.3937C27.1383 37.8921 24.5904 40.7407 21.3867 40.7407ZM42.6527 40.7407C39.4994 40.7407 36.901 37.8921 36.901 34.3937C36.901 30.8952 39.4489 28.0466 42.6527 28.0466C45.8817 28.0466 48.4548 30.9203 48.4044 34.3937C48.4044 37.8921 45.8817 40.7407 42.6527 40.7407Z" fill="#88C0D0"/>
</svg>
