<svg width="64" height="64" viewBox="0 0 64 64" fill="none" xmlns="http://www.w3.org/2000/svg">
<g clip-path="url(#clip0_26_1439)">
<path d="M57.775 47.625C56.9168 48.071 56.0317 48.4634 55.125 48.8C52.2539 49.8686 49.2135 50.4107 46.15 50.4C34.325 50.4 24.025 42.275 24.025 31.825C24.0404 30.4257 24.4283 29.0558 25.1489 27.8562C25.8696 26.6566 26.8968 25.6707 28.125 25C17.425 25.45 14.675 36.6 14.675 43.125C14.675 61.625 31.7 63.475 35.375 63.475C37.35 63.475 40.325 62.9 42.125 62.325L42.45 62.225C49.3385 59.8444 55.2109 55.1889 59.1 49.025C59.213 48.8377 59.2615 48.6185 59.2381 48.4011C59.2146 48.1836 59.1205 47.9798 58.9701 47.8209C58.8198 47.662 58.6214 47.5568 58.4056 47.5215C58.1897 47.4861 57.9682 47.5224 57.775 47.625Z" fill="#88C0D0"/>
<path d="M57.775 47.625C56.9168 48.071 56.0317 48.4634 55.125 48.8C52.2539 49.8686 49.2135 50.4107 46.15 50.4C34.325 50.4 24.025 42.275 24.025 31.825C24.0404 30.4257 24.4283 29.0558 25.1489 27.8562C25.8696 26.6566 26.8968 25.6707 28.125 25C17.425 25.45 14.675 36.6 14.675 43.125C14.675 61.625 31.7 63.475 35.375 63.475C37.35 63.475 40.325 62.9 42.125 62.325L42.45 62.225C49.3385 59.8444 55.2109 55.1889 59.1 49.025C59.213 48.8377 59.2615 48.6185 59.2381 48.4011C59.2146 48.1836 59.1205 47.9798 58.9701 47.8209C58.8198 47.662 58.6214 47.5568 58.4056 47.5215C58.1897 47.4861 57.9682 47.5224 57.775 47.625Z" fill="black" fill-opacity="0.6"/>
<path d="M26.425 60.325C24.1997 58.9429 22.2708 57.133 20.75 55C19.0134 52.623 17.8179 49.8947 17.2476 47.0066C16.6773 44.1186 16.746 41.1407 17.4488 38.282C18.1515 35.4232 19.4714 32.7529 21.3157 30.4585C23.1601 28.164 25.4842 26.3009 28.125 25C28.925 24.625 30.25 23.975 32.025 24C33.274 24.0097 34.5039 24.3081 35.6185 24.8719C36.7331 25.4357 37.7022 26.2496 38.45 27.25C39.4559 28.6027 40.0073 30.2394 40.025 31.925C40.025 31.875 46.15 12.025 20.025 12.025C9.05001 12.025 0.0250093 22.425 0.0250093 31.575C-0.0186444 36.4084 1.0147 41.1908 3.05001 45.575C6.38319 52.6726 12.2063 58.2993 19.4141 61.387C26.6218 64.4747 34.7124 64.8085 42.15 62.325C39.5443 63.148 36.7909 63.3954 34.0803 63.0501C31.3696 62.7048 28.7662 61.775 26.45 60.325H26.425Z" fill="#88C0D0"/>
<path d="M26.425 60.325C24.1997 58.9429 22.2708 57.133 20.75 55C19.0134 52.623 17.8179 49.8947 17.2476 47.0066C16.6773 44.1186 16.746 41.1407 17.4488 38.282C18.1515 35.4232 19.4714 32.7529 21.3157 30.4585C23.1601 28.164 25.4842 26.3009 28.125 25C28.925 24.625 30.25 23.975 32.025 24C33.274 24.0097 34.5039 24.3081 35.6185 24.8719C36.7331 25.4357 37.7022 26.2496 38.45 27.25C39.4559 28.6027 40.0073 30.2394 40.025 31.925C40.025 31.875 46.15 12.025 20.025 12.025C9.05001 12.025 0.0250093 22.425 0.0250093 31.575C-0.0186444 36.4084 1.0147 41.1908 3.05001 45.575C6.38319 52.6726 12.2063 58.2993 19.4141 61.387C26.6218 64.4747 34.7124 64.8085 42.15 62.325C39.5443 63.148 36.7909 63.3954 34.0803 63.0501C31.3696 62.7048 28.7662 61.775 26.45 60.325H26.425Z" fill="black" fill-opacity="0.3"/>
<path d="M38.1 37.2C37.875 37.45 37.25 37.825 37.25 38.6C37.25 39.25 37.675 39.9 38.45 40.425C42.025 42.925 48.8 42.575 48.825 42.575C51.4901 42.5732 54.106 41.8567 56.4 40.5C58.7095 39.1492 60.6258 37.2181 61.9589 34.8983C63.292 32.5785 63.9957 29.9506 64 27.275C64.075 21.675 62 17.95 61.175 16.3C55.85 5.95 44.425 1.56661e-07 32 1.56661e-07C23.5905 -0.000831393 15.5186 3.30875 9.53021 9.21293C3.54181 15.1171 0.118259 23.1413 0 31.55C0.125 22.425 9.2 15.05 20 15.05C20.875 15.05 25.875 15.125 30.5 17.55C33.7493 19.1646 36.44 21.7161 38.225 24.875C39.75 27.525 40.025 30.9 40.025 32.25C40.025 33.6 39.35 35.575 38.075 37.225L38.1 37.2Z" fill="#88C0D0"/>
</g>
<defs>
<clipPath id="clip0_26_1439">
<rect width="64" height="64" fill="white"/>
</clipPath>
</defs>
</svg>
