<svg width="64" height="64" viewBox="0 0 64 64" fill="none" xmlns="http://www.w3.org/2000/svg">
<path d="M21.5 64C27.296 64 32 59.296 32 53.5V43H21.5C15.704 43 11 47.704 11 53.5C11 59.296 15.704 64 21.5 64Z" fill="#88C0D0"/>
<path d="M21.5 64C27.296 64 32 59.296 32 53.5V43H21.5C15.704 43 11 47.704 11 53.5C11 59.296 15.704 64 21.5 64Z" fill="black" fill-opacity="0.6"/>
<path d="M11 32C11 25.928 15.704 21 21.5 21H32V43H21.5C15.704 43 11 38.072 11 32Z" fill="#88C0D0"/>
<path d="M11 32C11 25.928 15.704 21 21.5 21H32V43H21.5C15.704 43 11 38.072 11 32Z" fill="black" fill-opacity="0.3"/>
<path d="M11 10.5C11 4.704 15.704 0 21.5 0H32V21H21.5C15.704 21 11 16.296 11 10.5Z" fill="#88C0D0"/>
<path d="M32 0H43C49.072 0 54 4.704 54 10.5C54 16.296 49.072 21 43 21H32V0Z" fill="#88C0D0"/>
<path d="M32 0H43C49.072 0 54 4.704 54 10.5C54 16.296 49.072 21 43 21H32V0Z" fill="black" fill-opacity="0.2"/>
<path d="M54 32C54 38.072 49.072 43 43 43C36.928 43 32 38.072 32 32C32 25.928 36.928 21 43 21C49.072 21 54 25.928 54 32Z" fill="#88C0D0"/>
<path d="M54 32C54 38.072 49.072 43 43 43C36.928 43 32 38.072 32 32C32 25.928 36.928 21 43 21C49.072 21 54 25.928 54 32Z" fill="black" fill-opacity="0.5"/>
</svg>
