<svg width="64" height="64" viewBox="0 0 64 64" fill="none" xmlns="http://www.w3.org/2000/svg">
<path d="M6.10352e-05 3.25001C6.10352e-05 1.45508 1.40091 0 3.12894 0H18.9387C21.2994 0 23.5384 1.08774 25.0516 2.96972L27.4271 5.92425C28.0218 6.66359 28.9014 7.09093 29.8287 7.09093H60.8712C62.5992 7.09093 64.0001 8.54601 64.0001 10.3409V48.75C64.0001 50.545 62.5992 52 60.8712 52H3.12894C1.40091 52 6.10352e-05 50.545 6.10352e-05 48.75V3.25001Z" fill="#88C0D0"/>
<path d="M6.10352e-05 3.25001C6.10352e-05 1.45508 1.40091 0 3.12894 0H18.9387C21.2994 0 23.5384 1.08774 25.0516 2.96972L27.4271 5.92425C28.0218 6.66359 28.9014 7.09093 29.8287 7.09093H60.8712C62.5992 7.09093 64.0001 8.54601 64.0001 10.3409V48.75C64.0001 50.545 62.5992 52 60.8712 52H3.12894C1.40091 52 6.10352e-05 50.545 6.10352e-05 48.75V3.25001Z" fill="black" fill-opacity="0.4"/>
<path d="M0 31H64V48.6029C64 50.4792 62.5992 52 60.8712 52H3.12888C1.40085 52 0 50.4792 0 48.6029V31Z" fill="#88C0D0"/>
<path d="M0 31H64V48.6029C64 50.4792 62.5992 52 60.8712 52H3.12888C1.40085 52 0 50.4792 0 48.6029V31Z" fill="black"/>
<path d="M0 17.7687C0 15.5241 1.76719 13.7044 3.94714 13.7044H20.3407C22.4628 13.7044 24.5284 13 26.231 11.6957L27.3956 10.8035C28.0765 10.2818 28.9029 10 29.7518 10H60.0527C62.2328 10 64 11.8196 64 14.0643V53.9357C64 56.1804 62.2328 58 60.0527 58H3.94714C1.76719 58 1.07551e-06 56.1804 1.07551e-06 53.9357L0 17.7687Z" fill="#88C0D0"/>
<path d="M11 48.3077C11 43.7195 14.8249 40 19.543 40H45.4569C50.175 40 54 43.7195 54 48.3077V58H11V48.3077Z" fill="#88C0D0"/>
<path d="M11 48.3077C11 43.7195 14.8249 40 19.543 40H45.4569C50.175 40 54 43.7195 54 48.3077V58H11V48.3077Z" fill="black" fill-opacity="0.5"/>
<path d="M44.9669 48H19.0331C18.4625 48 18 48.4477 18 49C18 49.5523 18.4625 50 19.0331 50H44.9669C45.5375 50 46 49.5523 46 49C46 48.4477 45.5375 48 44.9669 48Z" fill="#88C0D0"/>
<path d="M44.9669 48H19.0331C18.4625 48 18 48.4477 18 49C18 49.5523 18.4625 50 19.0331 50H44.9669C45.5375 50 46 49.5523 46 49C46 48.4477 45.5375 48 44.9669 48Z" fill="black" fill-opacity="0.7"/>
</svg>
