<svg width="64" height="64" viewBox="0 0 64 64" fill="none" xmlns="http://www.w3.org/2000/svg">
<path d="M60.7669 21.4648C59.4177 18.223 56.6852 14.7231 54.5395 13.6169C56.2859 17.0369 57.2966 20.4676 57.6828 23.028C57.6828 23.0205 57.6842 23.0342 57.6874 23.0572C57.689 23.0681 57.6909 23.0796 57.6926 23.0906C60.6214 31.0222 59.0259 39.0878 56.7266 44.0165C53.1695 51.6423 44.5572 59.4578 31.0773 59.0766C16.5131 58.6646 3.68252 47.8694 1.28739 33.7302C0.850942 31.5006 1.28739 30.3684 1.50698 28.5581C1.23947 29.9537 1.13756 30.3568 1.00323 32.8364C1.00323 32.8893 1 32.9417 1 32.9948C1.00026 50.1184 14.8985 64 32.042 64C47.3953 64 60.1434 52.866 62.6392 38.2412C62.6917 37.8443 62.7338 37.4453 62.7802 37.045C63.3972 31.7275 62.7117 26.1385 60.7669 21.4648Z" fill="#88C0D0"/>
<path d="M60.7669 21.4648C59.4177 18.223 56.6852 14.7231 54.5395 13.6169C56.2859 17.0369 57.2966 20.4676 57.6828 23.028C57.6828 23.0205 57.6842 23.0342 57.6874 23.0572C57.689 23.0681 57.6909 23.0796 57.6926 23.0906C60.6214 31.0222 59.0259 39.0878 56.7266 44.0165C53.1695 51.6423 44.5572 59.4578 31.0773 59.0766C16.5131 58.6646 3.68252 47.8694 1.28739 33.7302C0.850942 31.5006 1.28739 30.3684 1.50698 28.5581C1.23947 29.9537 1.13756 30.3568 1.00323 32.8364C1.00323 32.8893 1 32.9417 1 32.9948C1.00026 50.1184 14.8985 64 32.042 64C47.3953 64 60.1434 52.866 62.6392 38.2412C62.6917 37.8443 62.7338 37.4453 62.7802 37.045C63.3972 31.7275 62.7117 26.1385 60.7669 21.4648Z" fill="black" fill-opacity="0.5"/>
<path d="M45.6817 25.1096C45.7494 25.1571 45.8108 25.2043 45.8745 25.2515C45.0955 23.8703 44.1254 22.6057 42.9928 21.4951C33.3435 11.8569 40.4626 0.59673 41.6632 0.0248574C41.6667 0.0202122 41.6739 0.00976058 41.6761 0.00730896C33.8783 4.56939 31.233 13.0088 30.9899 17.2311C31.3516 17.2061 31.7122 17.1757 32.0804 17.1757C37.8994 17.1757 42.9676 20.3719 45.6817 25.1096Z" fill="#88C0D0"/>
<path d="M45.6817 25.1096C45.7494 25.1571 45.8108 25.2043 45.8745 25.2515C45.0955 23.8703 44.1254 22.6057 42.9928 21.4951C33.3435 11.8569 40.4626 0.59673 41.6632 0.0248574C41.6667 0.0202122 41.6739 0.00976058 41.6761 0.00730896C33.8783 4.56939 31.233 13.0088 30.9899 17.2311C31.3516 17.2061 31.7122 17.1757 32.0804 17.1757C37.8994 17.1757 42.9676 20.3719 45.6817 25.1096Z" fill="black" fill-opacity="0.2"/>
<path d="M32.0999 27.034C32.0491 27.8053 29.321 30.4653 28.367 30.4653C19.5399 30.4653 18.107 35.7989 18.107 35.7989C18.498 40.2905 21.6282 43.9892 25.4193 45.9464C25.5922 46.0357 25.7672 46.1163 25.9424 46.1961C26.2427 46.3289 26.5467 46.4531 26.8542 46.5685C28.154 47.0282 29.5156 47.2905 30.8933 47.3467C46.3648 48.0716 49.3623 28.87 38.197 23.294C41.0564 22.7972 44.0244 23.946 45.6818 25.1091C42.9678 20.3717 37.8995 17.1756 32.0806 17.1756C31.7125 17.1756 31.352 17.2059 30.9902 17.231C27.8763 17.4448 24.8992 18.5909 22.4469 20.5198C22.9201 20.9198 23.4544 21.4545 24.5799 22.5621C26.6856 24.6352 32.0884 26.7821 32.0999 27.034Z" fill="#88C0D0"/>
<path d="M32.0999 27.034C32.0491 27.8053 29.321 30.4653 28.367 30.4653C19.5399 30.4653 18.107 35.7989 18.107 35.7989C18.498 40.2905 21.6282 43.9892 25.4193 45.9464C25.5922 46.0357 25.7672 46.1163 25.9424 46.1961C26.2427 46.3289 26.5467 46.4531 26.8542 46.5685C28.154 47.0282 29.5156 47.2905 30.8933 47.3467C46.3648 48.0716 49.3623 28.87 38.197 23.294C41.0564 22.7972 44.0244 23.946 45.6818 25.1091C42.9678 20.3717 37.8995 17.1756 32.0806 17.1756C31.7125 17.1756 31.352 17.2059 30.9902 17.231C27.8763 17.4448 24.8992 18.5909 22.4469 20.5198C22.9201 20.9198 23.4544 21.4545 24.5799 22.5621C26.6856 24.6352 32.0884 26.7821 32.0999 27.034Z" fill="black" fill-opacity="0.7"/>
<path d="M20.9989 19.4884C21.2151 19.6277 21.4296 19.7697 21.6423 19.9142C20.9348 17.4414 20.9047 14.8242 21.5552 12.3359C18.3664 13.7863 15.8861 16.0791 14.083 18.1036C14.2322 18.0994 18.7348 18.0185 20.9989 19.4884Z" fill="#88C0D0"/>
<path d="M1.2874 33.7302C3.68253 47.8694 16.5131 58.6646 31.0773 59.0766C44.5572 59.4578 53.1695 51.6418 56.7266 44.0165C59.0257 39.0874 60.6215 31.0229 57.6926 23.0906L57.6916 23.0872L57.6874 23.0572C57.6842 23.0342 57.6823 23.0205 57.6828 23.028C57.6828 23.0331 57.6847 23.0456 57.6889 23.0796C58.7899 30.2617 55.1327 37.2195 49.4156 41.9241L49.3985 41.9645C38.2585 51.0255 27.5986 47.4313 25.4402 45.9601C25.2885 45.8872 25.1378 45.8122 24.9881 45.7352C18.4934 42.6347 15.8103 36.7238 16.3856 31.6546C10.9016 31.6546 9.03169 27.0341 9.03169 27.0341C9.03169 27.0341 13.9554 23.5271 20.4446 26.5772C26.4547 29.4021 32.099 27.0344 32.0996 27.0341C32.0881 26.7822 26.6853 24.6354 24.5792 22.5623C23.4537 21.4547 22.9194 20.9207 22.4461 20.52C22.1894 20.3034 21.9212 20.1016 21.6423 19.9142C21.4296 19.7697 21.2151 19.6277 20.9989 19.4884C18.7349 18.0185 14.2319 18.0987 14.0827 18.1026H14.0684C12.8378 16.5456 12.9246 11.4093 12.9948 10.3369C12.98 10.2704 12.0768 10.8053 11.9585 10.8859C10.8726 11.6602 9.85742 12.529 8.92487 13.4821C7.86364 14.5574 6.89403 15.7192 6.02612 16.9555C4.03003 19.7812 2.61435 22.9741 1.86089 26.3497C1.84604 26.4169 0.743607 31.2326 1.2874 33.7302Z" fill="#88C0D0"/>
<path d="M20.9989 19.4884C21.2151 19.6277 21.4296 19.7697 21.6423 19.9142C20.9348 17.4414 20.9047 14.8242 21.5552 12.3359C18.3664 13.7863 15.8861 16.0791 14.083 18.1036C14.2322 18.0994 18.7348 18.0185 20.9989 19.4884Z" fill="black" fill-opacity="0.2"/>
<path d="M1.2874 33.7302C3.68253 47.8694 16.5131 58.6646 31.0773 59.0766C44.5572 59.4578 53.1695 51.6418 56.7266 44.0165C59.0257 39.0874 60.6215 31.0229 57.6926 23.0906L57.6916 23.0872L57.6874 23.0572C57.6842 23.0342 57.6823 23.0205 57.6828 23.028C57.6828 23.0331 57.6847 23.0456 57.6889 23.0796C58.7899 30.2617 55.1327 37.2195 49.4156 41.9241L49.3985 41.9645C38.2585 51.0255 27.5986 47.4313 25.4402 45.9601C25.2885 45.8872 25.1378 45.8122 24.9881 45.7352C18.4934 42.6347 15.8103 36.7238 16.3856 31.6546C10.9016 31.6546 9.03169 27.0341 9.03169 27.0341C9.03169 27.0341 13.9554 23.5271 20.4446 26.5772C26.4547 29.4021 32.099 27.0344 32.0996 27.0341C32.0881 26.7822 26.6853 24.6354 24.5792 22.5623C23.4537 21.4547 22.9194 20.9207 22.4461 20.52C22.1894 20.3034 21.9212 20.1016 21.6423 19.9142C21.4296 19.7697 21.2151 19.6277 20.9989 19.4884C18.7349 18.0185 14.2319 18.0987 14.0827 18.1026H14.0684C12.8378 16.5456 12.9246 11.4093 12.9948 10.3369C12.98 10.2704 12.0768 10.8053 11.9585 10.8859C10.8726 11.6602 9.85742 12.529 8.92487 13.4821C7.86364 14.5574 6.89403 15.7192 6.02612 16.9555C4.03003 19.7812 2.61435 22.9741 1.86089 26.3497C1.84604 26.4169 0.743607 31.2326 1.2874 33.7302Z" fill="black" fill-opacity="0.2"/>
<path d="M42.9928 21.495C44.1254 22.6056 45.0955 23.8702 45.8745 25.2514C46.0454 25.3796 46.2051 25.5075 46.3406 25.6323C53.3778 32.1097 49.6906 41.271 49.4156 41.9239C55.1326 37.2194 58.7899 30.2616 57.6889 23.0795C54.1788 14.3399 48.2269 10.8157 43.3668 3.14242C43.1214 2.75442 42.8753 2.36539 42.6356 1.95532C42.5135 1.7459 42.3995 1.53189 42.2938 1.31377C42.0919 0.924331 41.9361 0.512687 41.8297 0.0871868C41.8304 0.0670428 41.8236 0.0473488 41.8106 0.0319734C41.7975 0.0165979 41.7792 0.0066522 41.7592 0.00408984C41.7401 -0.00136328 41.7199 -0.00136328 41.7009 0.00408984C41.6965 0.00563823 41.6901 0.0106705 41.6854 0.012477C41.6786 0.0151866 41.6699 0.0213802 41.6627 0.0253802C40.4626 0.596736 33.3435 11.8569 42.9928 21.495Z" fill="#88C0D0"/>
<path d="M46.3406 25.6323C46.2051 25.5075 46.0454 25.3796 45.8745 25.2514C45.8114 25.2039 45.7494 25.1567 45.6817 25.1094C44.0242 23.9463 41.0562 22.7976 38.1969 23.2943C49.3622 28.8704 46.3647 48.072 30.8932 47.3471C29.5154 47.2909 28.1539 47.0286 26.854 46.5689C26.5466 46.4534 26.2426 46.3292 25.9423 46.1965C25.7671 46.1167 25.5921 46.0361 25.4191 45.9468C25.4253 45.951 25.4339 45.9558 25.4402 45.9597C27.5985 47.4307 38.2585 51.0251 49.3984 41.9641L49.4156 41.9239C49.6906 41.271 53.3778 32.1097 46.3406 25.6323Z" fill="#88C0D0"/>
<path d="M18.1069 35.799C18.1069 35.799 19.5397 30.4654 28.3668 30.4654C29.3211 30.4654 32.0492 27.8054 32.0997 27.0341C32.1502 26.2627 26.4552 29.4021 20.4447 26.5772C13.9555 23.5271 9.0318 27.0341 9.0318 27.0341C9.0318 27.0341 10.9017 31.6546 16.3857 31.6546C15.8106 36.7238 18.4936 42.6353 24.9882 45.7352C25.1334 45.8045 25.2698 45.8802 25.4189 45.9466C21.6281 43.9894 18.4979 40.2906 18.1069 35.799Z" fill="#88C0D0"/>
<path d="M18.1069 35.799C18.1069 35.799 19.5397 30.4654 28.3668 30.4654C29.3211 30.4654 32.0492 27.8054 32.0997 27.0341C32.1502 26.2627 26.4552 29.4021 20.4447 26.5772C13.9555 23.5271 9.0318 27.0341 9.0318 27.0341C9.0318 27.0341 10.9017 31.6546 16.3857 31.6546C15.8106 36.7238 18.4936 42.6353 24.9882 45.7352C25.1334 45.8045 25.2698 45.8802 25.4189 45.9466C21.6281 43.9894 18.4979 40.2906 18.1069 35.799Z" fill="black" fill-opacity="0.4"/>
</svg>
