<svg width="64" height="64" viewBox="0 0 64 64" fill="none" xmlns="http://www.w3.org/2000/svg">
<g clip-path="url(#clip0_28_1510)">
<circle cx="32" cy="32" r="32" fill="#88C0D0"/>
<circle cx="32" cy="32" r="32" fill="black" fill-opacity="0.6"/>
<path d="M44.2029 22.134C43.2377 23.7913 41.9448 25.2407 40.4007 26.3961C38.8567 27.5514 37.093 28.3893 35.2144 28.8601C33.3357 29.3308 31.3803 29.4247 29.4641 29.1363C27.5479 28.8479 25.71 28.183 24.0593 27.181C22.8442 26.4399 21.7449 25.5284 20.796 24.4752C18.2985 21.6992 16.9978 18.0722 17.1706 14.3654C17.1912 13.9507 17.2264 13.5371 17.2815 13.1254C17.3358 12.7197 17.4084 12.3158 17.4979 11.9167C17.5897 11.507 17.6999 11.102 17.8282 10.7016C17.9528 10.3119 18.0948 9.92815 18.2543 9.55024C18.4195 9.15732 18.6038 8.77272 18.8026 8.39535C19.0119 7.99795 19.2438 7.61132 19.4915 7.23602C19.7198 6.88985 19.9631 6.55408 20.2212 6.2287C20.5013 5.87405 20.7989 5.5319 21.1128 5.20605C21.4297 4.87712 21.7607 4.56284 22.106 4.26319C22.4575 3.95784 22.8262 3.67222 23.206 3.40201C23.4018 3.2627 23.6013 3.1287 23.8044 3C19.6774 5.07892 16.5383 8.66627 15.0575 12.996C13.5767 17.3257 13.8715 22.0547 15.879 26.173C15.9187 26.2544 15.9591 26.3355 16.0001 26.4162C16.0187 26.4529 16.0375 26.4895 16.0564 26.5261C16.0653 26.5492 16.0767 26.5712 16.0905 26.5918C16.1141 26.6175 16.12 26.6132 16.1559 26.6125C16.3432 26.6092 16.5307 26.61 16.718 26.614C17.0641 26.6214 17.4096 26.6409 17.7545 26.6724C20.9445 26.9697 23.9448 28.3004 26.2867 30.4565C28.6286 32.6127 30.1802 35.4728 30.6992 38.5902C30.9336 40.0165 30.9493 41.4693 30.7458 42.9002C30.3592 45.5988 29.1951 48.1312 27.3918 50.1968C26.3579 51.3803 25.1365 52.3911 23.7752 53.19C21.0575 54.7723 17.8908 55.4386 14.7547 55.0879C14.1876 55.0239 13.6247 54.9275 13.0689 54.7992C12.7089 54.7159 12.3525 54.6179 12 54.5076C13.5834 55.1994 15.2616 55.6574 16.9805 55.8667C18.5841 56.0619 20.2072 56.0426 21.8056 55.8095C24.6644 55.3896 27.3753 54.2856 29.7013 52.5941C31.4084 51.3537 32.878 49.8238 34.0414 48.0758C34.0918 48 34.1417 47.9238 34.1909 47.8473C34.21 47.8176 34.2527 47.7707 34.2472 47.7392C34.228 47.6897 34.2023 47.6428 34.1708 47.5999C34.0738 47.4204 33.9807 47.239 33.8916 47.0556C33.7124 46.6871 33.5496 46.3114 33.4032 45.9286C33.1065 45.153 32.8794 44.3532 32.7245 43.5384C32.3927 41.787 32.3937 39.99 32.7275 38.2389C33.0115 36.7514 33.5354 35.3183 34.2792 33.9942C35.5201 31.7721 37.3397 29.9165 39.5503 28.6188C41.761 27.3211 44.2827 26.6282 46.8555 26.6116C47.2109 26.6091 47.566 26.6193 47.9209 26.642C48.2631 26.6644 48.6043 26.6983 48.9445 26.7435C49.2812 26.7889 49.6161 26.8461 49.9491 26.915C50.2751 26.9829 50.5986 27.0614 50.9195 27.1507C51.2338 27.2386 51.5448 27.337 51.8526 27.4457C52.1646 27.5562 52.4724 27.6771 52.7759 27.8085C53.0854 27.9417 53.3896 28.0861 53.6886 28.2416C53.9872 28.3964 54.2803 28.5614 54.5677 28.7363C54.8376 28.9009 55.1028 29.0734 55.3606 29.2558C55.6266 29.4439 55.8863 29.6399 56.14 29.8438C56.4018 30.0537 56.6544 30.2749 56.9001 30.5029C57.1617 30.7457 57.4138 30.9979 57.6563 31.2596C57.8984 31.5198 58.1302 31.7889 58.3517 32.0669C58.5987 32.3763 58.834 32.6953 59.0536 33.0242C59.2791 33.362 59.4924 33.7087 59.6892 34.064C59.9634 34.5595 60.2076 35.0706 60.4207 35.5945C60.6502 36.1641 60.8437 36.7471 61 37.3403C60.5772 34.1678 59.2783 31.1709 57.2452 28.6768C55.7505 26.8404 53.8972 25.3184 51.795 24.201C49.6391 23.0555 47.265 22.365 44.8237 22.1734C44.617 22.1571 44.41 22.1444 44.2029 22.1352L44.2029 22.134Z" fill="#88C0D0"/>
</g>
<defs>
<clipPath id="clip0_28_1510">
<rect width="64" height="64" fill="white"/>
</clipPath>
</defs>
</svg>
