<svg width="64" height="64" viewBox="0 0 64 64" fill="none" xmlns="http://www.w3.org/2000/svg">
<g clip-path="url(#clip0_23_186)">
<path d="M11.3333 5.07914e-06H52.6667C54.1554 -0.00141188 55.6297 0.293657 57.0054 0.868326C58.3811 1.44299 59.631 2.28598 60.6837 3.34904C61.7363 4.4121 62.5711 5.67436 63.1402 7.06358C63.7092 8.4528 64.0014 9.94171 64 11.4451V51.5703C64.0014 53.0737 63.7092 54.5626 63.1402 55.9518C62.5711 57.341 61.7363 58.6033 60.6837 59.6663C59.631 60.7294 58.3811 61.5724 57.0054 62.1471C55.6297 62.7217 54.1554 63.0168 52.6667 63.0154H11.3333C9.84463 63.0168 8.37026 62.7217 6.9946 62.1471C5.61894 61.5724 4.36901 60.7294 3.31633 59.6663C2.26366 58.6033 1.4289 57.341 0.859846 55.9518C0.29079 54.5626 -0.00139809 53.0737 5.02953e-06 51.5703V11.4451C-0.00139809 9.94171 0.29079 8.4528 0.859846 7.06358C1.4289 5.67436 2.26366 4.4121 3.31633 3.34904C4.36901 2.28598 5.61894 1.44299 6.9946 0.868326C8.37026 0.293657 9.84463 -0.00141188 11.3333 5.07914e-06Z" fill="#88C0D0"/>
<path d="M11.3333 5.07914e-06H52.6667C54.1554 -0.00141188 55.6297 0.293657 57.0054 0.868326C58.3811 1.44299 59.631 2.28598 60.6837 3.34904C61.7363 4.4121 62.5711 5.67436 63.1402 7.06358C63.7092 8.4528 64.0014 9.94171 64 11.4451V51.5703C64.0014 53.0737 63.7092 54.5626 63.1402 55.9518C62.5711 57.341 61.7363 58.6033 60.6837 59.6663C59.631 60.7294 58.3811 61.5724 57.0054 62.1471C55.6297 62.7217 54.1554 63.0168 52.6667 63.0154H11.3333C9.84463 63.0168 8.37026 62.7217 6.9946 62.1471C5.61894 61.5724 4.36901 60.7294 3.31633 59.6663C2.26366 58.6033 1.4289 57.341 0.859846 55.9518C0.29079 54.5626 -0.00139809 53.0737 5.02953e-06 51.5703V11.4451C-0.00139809 9.94171 0.29079 8.4528 0.859846 7.06358C1.4289 5.67436 2.26366 4.4121 3.31633 3.34904C4.36901 2.28598 5.61894 1.44299 6.9946 0.868326C8.37026 0.293657 9.84463 -0.00141188 11.3333 5.07914e-06Z" fill="black" fill-opacity="0.7"/>
<path d="M13 45.7145V18.4504C13 18.265 13.08 18.159 13.2667 18.159C13.72 18.159 14.1467 18.159 14.76 18.1325C15.3733 18.106 16.0667 18.106 16.7867 18.0795C17.5067 18.053 18.28 18.053 19.1067 18.0265C19.9333 18 20.7333 18 21.5333 18C23.72 18 25.5333 18.265 27.0267 18.8214C28.3653 19.2731 29.586 20.0152 30.6 20.994C31.4593 21.8506 32.1232 22.8807 32.5467 24.0145C32.9503 25.1187 33.1579 26.2842 33.16 27.459C33.16 29.7376 32.6267 31.6188 31.56 33.1026C30.4884 34.5843 28.9922 35.7108 27.2667 36.335C25.4533 36.9974 23.4533 37.2359 21.2667 37.2359C20.6267 37.2359 20.2 37.2359 19.9333 37.2094C19.6667 37.1829 19.2933 37.1829 18.7867 37.1829V45.688C18.7926 45.7316 18.7897 45.776 18.7781 45.8184C18.7665 45.8609 18.7464 45.9006 18.719 45.9352C18.6917 45.9698 18.6576 45.9986 18.6188 46.0198C18.58 46.0411 18.5374 46.0544 18.4933 46.059H13.32C13.1067 46.059 13 45.953 13 45.7145ZM18.8133 23.2727V32.1752C19.1867 32.2017 19.5333 32.2282 19.8533 32.2282H21.2667C22.3077 32.2294 23.3425 32.0685 24.3333 31.7513C25.1834 31.5029 25.9429 31.0151 26.52 30.347C27.08 29.6846 27.3467 28.7838 27.3467 27.618C27.3718 26.79 27.159 25.972 26.7333 25.2598C26.2887 24.5719 25.6348 24.0428 24.8667 23.7496C23.8656 23.36 22.7944 23.1796 21.72 23.2197C21.0267 23.2197 20.4133 23.2197 19.9067 23.2462C19.5422 23.2225 19.1762 23.2313 18.8133 23.2727Z" fill="#88C0D0"/>
<path d="M49.8 30.559C48.9949 30.1376 48.1326 29.8342 47.24 29.6581C46.2597 29.4375 45.2584 29.3221 44.2534 29.3137C43.7137 29.2952 43.1743 29.3577 42.6534 29.4991C42.3212 29.5678 42.0266 29.7567 41.8267 30.0291C41.692 30.244 41.6182 30.4912 41.6134 30.7444C41.6258 30.9965 41.7192 31.238 41.88 31.4333C42.1328 31.7279 42.4407 31.9708 42.7867 32.1487C43.4 32.4667 44.04 32.7581 44.68 33.0231C46.1207 33.505 47.4992 34.1542 48.7867 34.9573C49.6624 35.5044 50.3866 36.2604 50.8934 37.1564C51.3219 38.0017 51.5326 38.9394 51.5067 39.8855C51.5283 41.1378 51.1656 42.367 50.4667 43.4094C49.7229 44.4671 48.685 45.2865 47.48 45.7675C46.1734 46.3239 44.5734 46.6154 42.6534 46.6154C41.436 46.6203 40.2211 46.5049 39.0267 46.2709C38.0862 46.1095 37.1715 45.8243 36.3067 45.4231C36.2137 45.3767 36.1364 45.3044 36.0843 45.2149C36.0322 45.1255 36.0075 45.0229 36.0134 44.9197V40.3094C36.011 40.2641 36.0195 40.2189 36.038 40.1775C36.0566 40.1361 36.0847 40.0996 36.12 40.0709C36.1576 40.0492 36.2012 40.04 36.2444 40.0448C36.2876 40.0496 36.3282 40.068 36.36 40.0974C37.3872 40.6991 38.503 41.1372 39.6667 41.3957C40.6942 41.6614 41.7517 41.7949 42.8134 41.7932C43.8267 41.7932 44.5467 41.6607 45.0267 41.4222C45.2408 41.324 45.4222 41.1671 45.5498 40.97C45.6773 40.7729 45.7456 40.5437 45.7467 40.3094C45.7467 39.9385 45.5334 39.594 45.1067 39.2496C44.68 38.9051 43.8 38.5077 42.4934 38.0043C41.1529 37.535 39.8799 36.8936 38.7067 36.0966C37.8711 35.5048 37.1787 34.7355 36.68 33.8444C36.2544 33.0076 36.0437 32.0792 36.0667 31.1419C36.0706 30.0113 36.384 28.9031 36.9734 27.9359C37.6508 26.8723 38.6231 26.0258 39.7734 25.4983C41.0267 24.8624 42.6 24.5709 44.4934 24.5709C45.5999 24.5713 46.705 24.6509 47.8 24.8094C48.5873 24.9153 49.358 25.12 50.0934 25.4188C50.2105 25.4601 50.3064 25.5458 50.36 25.6573C50.3908 25.7607 50.4087 25.8675 50.4134 25.9752V30.294C50.4138 30.3455 50.4019 30.3964 50.3787 30.4424C50.3556 30.4885 50.3217 30.5284 50.28 30.559C50.1249 30.6144 49.9552 30.6144 49.8 30.559Z" fill="#88C0D0"/>
</g>
<defs>
<clipPath id="clip0_23_186">
<rect width="64" height="64" fill="white"/>
</clipPath>
</defs>
</svg>
