<svg width="64" height="64" viewBox="0 0 64 64" fill="none" xmlns="http://www.w3.org/2000/svg">
<path d="M34.613 34.04L43.81 34.007L35.836 26.194H26.613V35.264L34.613 43.162V34.04Z" fill="#88C0D0"/>
<path d="M34.613 34.04L43.81 34.007L35.836 26.194H26.613V35.264L34.613 43.162V34.04Z" fill="black" fill-opacity="0.4"/>
<path d="M63.613 53.413L47.819 37.936L38.613 37.923V47.257L53.553 62.194H63.613V53.413Z" fill="#88C0D0"/>
<path d="M38.613 37.923L47.819 37.936L43.81 34.007L34.613 34.04V43.162L38.613 47.257V37.923Z" fill="#88C0D0"/>
<path d="M38.613 37.923L47.819 37.936L43.81 34.007L34.613 34.04V43.162L38.613 47.257V37.923Z" fill="black" fill-opacity="0.2"/>
<path d="M35.553 49.428C34.194 49.741 33.565 49.74 32.107 49.74C21.678 49.74 12.808 41.165 12.808 30.044C12.808 18.924 21.58 10.538 32.107 10.538C42.634 10.538 51.018 18.925 51.018 30.044C51.018 31.853 50.791 33.592 50.374 35.242L60.027 44.893C62.515 40.533 63.908 35.463 63.908 29.971C63.908 12.833 50.23 0 31.911 0C13.677 0 0 12.748 0 29.97C0 47.276 13.677 60.278 31.912 60.278C36.62 60.278 40.306 59.692 44.246 58.117L35.553 49.428Z" fill="#88C0D0"/>
<path d="M35.553 49.428C34.194 49.741 33.565 49.74 32.107 49.74C21.678 49.74 12.808 41.165 12.808 30.044C12.808 18.924 21.58 10.538 32.107 10.538C42.634 10.538 51.018 18.925 51.018 30.044C51.018 31.853 50.791 33.592 50.374 35.242L60.027 44.893C62.515 40.533 63.908 35.463 63.908 29.971C63.908 12.833 50.23 0 31.911 0C13.677 0 0 12.748 0 29.97C0 47.276 13.677 60.278 31.912 60.278C36.62 60.278 40.306 59.692 44.246 58.117L35.553 49.428Z" fill="black" fill-opacity="0.1"/>
<path opacity="0.15" d="M26.532 26.194H35.836L63.613 53.413V62.194L26.532 26.194Z" fill="white"/>
</svg>
