<svg width="64" height="64" viewBox="0 0 64 64" fill="none" xmlns="http://www.w3.org/2000/svg">
<g clip-path="url(#clip0_7_462)">
<path d="M32 0C14.3355 0 0 14.3355 0 32C0 49.6645 14.3355 64 32 64C49.6645 64 64 49.6645 64 32C64 14.3355 49.6645 0 32 0Z" fill="#88C0D0"/>
<path d="M52.9128 28.9363C52.2208 28.9363 51.795 28.7707 51.1962 28.4395C41.7217 23.0255 24.782 21.7261 13.8171 24.6561C13.3381 24.7834 12.7392 24.9873 12.1005 24.9873C10.344 24.9873 9 23.6752 9 21.9809C9 20.2484 10.1178 19.2675 11.3154 18.9363C15.9994 17.6242 21.2424 17 26.951 17C36.6651 17 46.8448 18.9363 54.2834 23.0892C55.3213 23.6624 56 24.4522 56 25.9682C56 27.7006 54.5362 28.9363 52.9128 28.9363ZM48.7877 38.6433C48.0957 38.6433 47.63 38.3503 47.1509 38.1083C38.8341 33.3949 26.4321 31.4968 15.4006 34.3631C14.7619 34.5287 14.4159 34.6943 13.8171 34.6943C12.3933 34.6943 11.2356 33.586 11.2356 32.2229C11.2356 30.8599 11.9275 29.9554 13.2981 29.586C16.9975 28.5924 20.7766 27.8535 26.3123 27.8535C34.9485 27.8535 43.2919 29.9045 49.8655 33.6497C50.9434 34.2611 51.3692 35.051 51.3692 36.1592C51.3559 37.535 50.2381 38.6433 48.7877 38.6433ZM45.2081 47C44.6492 47 44.3032 46.8344 43.7843 46.5414C35.4807 41.7516 25.8199 41.5478 16.2789 43.4204C15.7599 43.5478 15.0813 43.7516 14.6954 43.7516C13.4046 43.7516 12.5929 42.7707 12.5929 41.7389C12.5929 40.4268 13.4046 39.8025 14.4026 39.5987C25.301 37.293 36.4388 37.4968 45.94 42.9363C46.7517 43.4331 47.2307 43.879 47.2307 45.0382C47.2307 46.1975 46.286 47 45.2081 47Z" fill="#88C0D0"/>
<path d="M52.9128 28.9363C52.2208 28.9363 51.795 28.7707 51.1962 28.4395C41.7217 23.0255 24.782 21.7261 13.8171 24.6561C13.3381 24.7834 12.7392 24.9873 12.1005 24.9873C10.344 24.9873 9 23.6752 9 21.9809C9 20.2484 10.1178 19.2675 11.3154 18.9363C15.9994 17.6242 21.2424 17 26.951 17C36.6651 17 46.8448 18.9363 54.2834 23.0892C55.3213 23.6624 56 24.4522 56 25.9682C56 27.7006 54.5362 28.9363 52.9128 28.9363ZM48.7877 38.6433C48.0957 38.6433 47.63 38.3503 47.1509 38.1083C38.8341 33.3949 26.4321 31.4968 15.4006 34.3631C14.7619 34.5287 14.4159 34.6943 13.8171 34.6943C12.3933 34.6943 11.2356 33.586 11.2356 32.2229C11.2356 30.8599 11.9275 29.9554 13.2981 29.586C16.9975 28.5924 20.7766 27.8535 26.3123 27.8535C34.9485 27.8535 43.2919 29.9045 49.8655 33.6497C50.9434 34.2611 51.3692 35.051 51.3692 36.1592C51.3559 37.535 50.2381 38.6433 48.7877 38.6433ZM45.2081 47C44.6492 47 44.3032 46.8344 43.7843 46.5414C35.4807 41.7516 25.8199 41.5478 16.2789 43.4204C15.7599 43.5478 15.0813 43.7516 14.6954 43.7516C13.4046 43.7516 12.5929 42.7707 12.5929 41.7389C12.5929 40.4268 13.4046 39.8025 14.4026 39.5987C25.301 37.293 36.4388 37.4968 45.94 42.9363C46.7517 43.4331 47.2307 43.879 47.2307 45.0382C47.2307 46.1975 46.286 47 45.2081 47Z" fill="black"/>
</g>
<defs>
<clipPath id="clip0_7_462">
<rect width="64" height="64" fill="white"/>
</clipPath>
</defs>
</svg>
