<svg width="64" height="64" viewBox="0 0 64 64" fill="none" xmlns="http://www.w3.org/2000/svg">
<g clip-path="url(#clip0_7_535)">
<circle cx="32" cy="32" r="32" fill="#88C0D0"/>
<circle cx="32" cy="32" r="32" fill="black" fill-opacity="0.7"/>
<path d="M30.5264 24.0355L30.5294 24.1917L22.6435 35.4374C21.3664 35.38 20.0853 35.6005 18.8687 36.0918C18.3391 36.3031 17.8334 36.5682 17.36 36.8827L0.0421746 29.8763C0.0421746 29.8763 -0.358669 36.3479 1.31118 41.1704L13.554 46.1293C14.1583 48.8263 16.0517 51.1911 18.8335 52.328C21.0219 53.2206 23.4818 53.2241 25.6729 52.3377C27.864 51.4513 29.6071 49.7474 30.5194 47.6004C31.006 46.4568 31.2408 45.225 31.2082 43.986L42.4812 36.072L42.7582 36.077C49.5111 36.077 55 30.6732 55 24.0355C55 17.3979 49.5211 12.0138 42.7582 12C36.0083 12 30.5163 17.3979 30.5163 24.0355H30.5264ZM28.633 46.8234C27.1686 50.2835 23.1279 51.9118 19.616 50.4753C18.0576 49.8324 16.7944 48.6494 16.0668 47.1516L20.0521 48.7729C20.6678 49.0245 21.3279 49.1545 21.9947 49.1555C22.6616 49.1566 23.3221 49.0286 23.9385 48.779C24.555 48.5294 25.1153 48.1629 25.5874 47.7007C26.0596 47.2384 26.4343 46.6893 26.6902 46.0848C27.2084 44.8634 27.2114 43.4901 26.6987 42.2665C26.186 41.0428 25.1995 40.069 23.9558 39.5589L19.8265 37.8832C21.4158 37.29 23.2226 37.2703 24.9126 37.9593C26.6247 38.6543 27.934 39.9633 28.635 41.637C29.336 43.3108 29.3319 45.1565 28.6249 46.8234M42.7692 32.0582C40.6054 32.0525 38.532 31.2051 37.0033 29.7018C35.4746 28.1984 34.6152 26.1616 34.6134 24.0375C34.6158 21.9137 35.4754 19.8775 37.004 18.3745C38.5327 16.8716 40.6057 16.0245 42.7692 16.0188C44.9331 16.024 47.0067 16.8708 48.5358 18.3738C50.0648 19.8768 50.9247 21.9134 50.9271 24.0375C50.9253 26.1619 50.0656 28.199 48.5365 29.7025C47.0073 31.2059 44.9335 32.053 42.7692 32.0582ZM36.6579 24.0247C36.6566 22.4287 37.3008 20.8975 38.449 19.7677C39.5972 18.6378 41.1555 18.0016 42.7813 17.999C46.1603 17.999 48.9088 20.6979 48.9088 24.0247C48.9096 25.6209 48.2646 27.1522 47.1155 28.2818C45.9665 29.4114 44.4075 30.0468 42.7813 30.0484C41.1557 30.046 39.5975 29.4102 38.4491 28.2807C37.3007 27.1512 36.6571 25.6204 36.6579 24.0247Z" fill="#88C0D0"/>
</g>
<defs>
<clipPath id="clip0_7_535">
<rect width="64" height="64" fill="white"/>
</clipPath>
</defs>
</svg>
