<svg width="64" height="64" viewBox="0 0 64 64" fill="none" xmlns="http://www.w3.org/2000/svg">
<g clip-path="url(#clip0_7_280)">
<path d="M12 54L1.0913 45.8674C0.751174 45.6163 0.475167 45.2889 0.285606 44.9125C0.0960442 44.5356 -0.00178194 44.1201 2.45723e-05 43.699V19.301C-0.00178194 18.8799 0.0960442 18.4642 0.285606 18.0875C0.475167 17.7109 0.751174 17.3838 1.0913 17.1327L12 9C11.707 9.27351 11.4855 9.61397 11.3548 9.99186C11.2242 10.3697 11.1883 10.7736 11.2503 11.1684V51.8316C11.1883 52.2265 11.2242 52.6303 11.3548 53.0082C11.4855 53.3861 11.707 53.7264 12 54Z" fill="#88C0D0"/>
<path d="M12 54L1.0913 45.8674C0.751174 45.6163 0.475167 45.2889 0.285606 44.9125C0.0960442 44.5356 -0.00178194 44.1201 2.45723e-05 43.699V19.301C-0.00178194 18.8799 0.0960442 18.4642 0.285606 18.0875C0.475167 17.7109 0.751174 17.3838 1.0913 17.1327L12 9C11.707 9.27351 11.4855 9.61397 11.3548 9.99186C11.2242 10.3697 11.1883 10.7736 11.2503 11.1684V51.8316C11.1883 52.2265 11.2242 52.6303 11.3548 53.0082C11.4855 53.3861 11.707 53.7264 12 54Z" fill="black" fill-opacity="0.5"/>
<path d="M63 11.1747C62.559 10.8842 62.0422 10.7303 61.5141 10.732C61.1721 10.7292 60.8327 10.7941 60.5155 10.9229C60.1987 11.0517 59.9102 11.2419 59.6666 11.4825L59.4798 11.6707L48.0989 22.6039L38.1122 32.1949L26.2897 43.5569L15.3518 54.0603L15.1641 54.2486C14.9207 54.4894 14.6322 54.6799 14.3152 54.8091C13.9981 54.9379 13.6587 55.0028 13.3165 54.9999C12.7372 54.9988 12.1738 54.8105 11.7099 54.4628L1 46.4141C1.5441 46.8235 2.22356 47.01 2.9 46.9352C3.57644 46.8604 4.19898 46.5301 4.64093 46.0116L10.6395 39.0365L16.5297 32.1819L26.2897 20.8332L43.3867 0.938685C43.6351 0.644062 43.9446 0.407392 44.2939 0.245244C44.6428 0.0830953 45.0234 -0.000602632 45.4079 1.40549e-05C45.936 -0.00169369 46.4528 0.152259 46.8942 0.442697L63 11.1747Z" fill="#88C0D0"/>
<path d="M63 11.1747C62.559 10.8842 62.0422 10.7303 61.5141 10.732C61.1721 10.7292 60.8327 10.7941 60.5155 10.9229C60.1987 11.0517 59.9102 11.2419 59.6666 11.4825L59.4798 11.6707L48.0989 22.6039L38.1122 32.1949L26.2897 43.5569L15.3518 54.0603L15.1641 54.2486C14.9207 54.4894 14.6322 54.6799 14.3152 54.8091C13.9981 54.9379 13.6587 55.0028 13.3165 54.9999C12.7372 54.9988 12.1738 54.8105 11.7099 54.4628L1 46.4141C1.5441 46.8235 2.22356 47.01 2.9 46.9352C3.57644 46.8604 4.19898 46.5301 4.64093 46.0116L10.6395 39.0365L16.5297 32.1819L26.2897 20.8332L43.3867 0.938685C43.6351 0.644062 43.9446 0.407392 44.2939 0.245244C44.6428 0.0830953 45.0234 -0.000602632 45.4079 1.40549e-05C45.936 -0.00169369 46.4528 0.152259 46.8942 0.442697L63 11.1747Z" fill="black" fill-opacity="0.4"/>
<path d="M63 52.8259L46.9342 63.5582C46.388 63.9158 45.731 64.0636 45.0842 63.9749C44.4374 63.8862 43.8445 63.5669 43.414 63.075L26.2897 43.1675L16.5297 31.7923L10.6395 24.9508L4.64093 17.9745C4.19505 17.4612 3.57189 17.1359 2.89658 17.0639C2.22127 16.9918 1.54373 17.1784 1 17.5862L11.7099 9.53735C12.1738 9.18966 12.7372 9.00123 13.3165 9.00009C13.6587 8.99717 13.9981 9.06209 14.3152 9.19109C14.6322 9.32005 14.9207 9.51056 15.1641 9.75166L15.3518 9.93977L26.2897 20.4435L38.1122 31.8054L48.1131 41.4108L59.4798 52.3299L59.6666 52.5182C59.9102 52.7587 60.1987 52.9488 60.5155 53.0776C60.8327 53.2065 61.1721 53.2714 61.5141 53.2685C62.0422 53.2703 62.559 53.1163 63 52.8259Z" fill="#88C0D0"/>
<path d="M63 52.8259L46.9342 63.5582C46.388 63.9158 45.731 64.0636 45.0842 63.9749C44.4374 63.8862 43.8445 63.5669 43.414 63.075L26.2897 43.1675L16.5297 31.7923L10.6395 24.9508L4.64093 17.9745C4.19505 17.4612 3.57189 17.1359 2.89658 17.0639C2.22127 16.9918 1.54373 17.1784 1 17.5862L11.7099 9.53735C12.1738 9.18966 12.7372 9.00123 13.3165 9.00009C13.6587 8.99717 13.9981 9.06209 14.3152 9.19109C14.6322 9.32005 14.9207 9.51056 15.1641 9.75166L15.3518 9.93977L26.2897 20.4435L38.1122 31.8054L48.1131 41.4108L59.4798 52.3299L59.6666 52.5182C59.9102 52.7587 60.1987 52.9488 60.5155 53.0776C60.8327 53.2065 61.1721 53.2714 61.5141 53.2685C62.0422 53.2703 62.559 53.1163 63 52.8259Z" fill="black" fill-opacity="0.2"/>
<path d="M64 13.0728V50.9272C64.0004 51.3736 63.8937 51.8127 63.6893 52.2066C63.485 52.6001 63.1893 52.9362 62.8286 53.1844L47.0394 64C47.4005 63.7518 47.6961 63.4156 47.9001 63.0218C48.1045 62.6279 48.2112 62.1885 48.2108 61.742V2.25804C48.2051 1.80846 48.0916 1.36723 47.8805 0.973408C47.6693 0.579583 47.3669 0.245261 47 0L62.8286 10.8157C63.1883 11.0649 63.4832 11.401 63.6875 11.7945C63.8916 12.1879 63.9989 12.6269 64 13.0728Z" fill="#88C0D0"/>
</g>
<defs>
<clipPath id="clip0_7_280">
<rect width="64" height="64" fill="white"/>
</clipPath>
</defs>
</svg>
