<svg width="64" height="64" viewBox="0 0 64 64" fill="none" xmlns="http://www.w3.org/2000/svg">
<g clip-path="url(#clip0_7_237)">
<path d="M61.7367 6.69234L48.5578 0.391757C47.0323 -0.337536 45.2093 -0.0299044 44.0121 1.15882L0.869463 40.2173C-0.290967 41.2678 -0.289633 43.0819 0.872341 44.1307L4.39637 47.3118C5.34632 48.1693 6.77699 48.2324 7.79979 47.462L59.7536 8.3269C61.4966 7.01396 64 8.24833 64 10.4207V10.2688C64 8.7439 63.1203 7.35386 61.7367 6.69234Z" fill="#88C0D0"/>
<path d="M61.7367 6.69234L48.5578 0.391757C47.0323 -0.337536 45.2093 -0.0299044 44.0121 1.15882L0.869463 40.2173C-0.290967 41.2678 -0.289633 43.0819 0.872341 44.1307L4.39637 47.3118C5.34632 48.1693 6.77699 48.2324 7.79979 47.462L59.7536 8.3269C61.4966 7.01396 64 8.24833 64 10.4207V10.2688C64 8.7439 63.1203 7.35386 61.7367 6.69234Z" fill="black" fill-opacity="0.4"/>
<path d="M61.7367 57.3076L48.5578 63.6082C47.0323 64.3376 45.2093 64.0298 44.0121 62.8411L0.869463 23.7828C-0.290967 22.7322 -0.289633 20.9181 0.872341 19.8693L4.39637 16.6882C5.34633 15.8307 6.77699 15.7676 7.79979 16.538L59.7536 55.673C61.4966 56.986 64 55.7516 64 53.5793V53.7312C64 55.256 63.1203 56.6461 61.7367 57.3076Z" fill="#88C0D0"/>
<path d="M61.7367 57.3076L48.5578 63.6082C47.0323 64.3376 45.2093 64.0298 44.0121 62.8411L0.869463 23.7828C-0.290967 22.7322 -0.289633 20.9181 0.872341 19.8693L4.39637 16.6882C5.34633 15.8307 6.77699 15.7676 7.79979 16.538L59.7536 55.673C61.4966 56.986 64 55.7516 64 53.5793V53.7312C64 55.256 63.1203 56.6461 61.7367 57.3076Z" fill="black" fill-opacity="0.3"/>
<path d="M48.549 63.6037C47.0221 64.342 45.198 64.0297 44 62.8255C45.4761 64.3092 48 63.2584 48 61.16V2.83984C48 0.741511 45.4761 -0.309343 44 1.1744C45.198 -0.029817 47.0221 -0.341869 48.549 0.396207L61.7336 6.76958C63.119 7.43927 64 8.84781 64 10.3931V53.6071C64 55.1523 63.119 56.5609 61.7335 57.2305L48.549 63.6037Z" fill="#88C0D0"/>
</g>
<defs>
<clipPath id="clip0_7_237">
<rect width="64" height="64" fill="white"/>
</clipPath>
</defs>
</svg>
