<svg width="64" height="64" viewBox="0 0 64 64" fill="none" xmlns="http://www.w3.org/2000/svg">
<path d="M0 17H22V8H2.75C1.2375 8 0 9.15714 0 10.5714V17Z" fill="#88C0D0"/>
<path d="M42 8H22V17H42V8Z" fill="#88C0D0"/>
<path d="M42 8H22V17H42V8Z" fill="black" fill-opacity="0.25"/>
<path d="M64 17H42V8H61.25C62.7625 8 64 9.15714 64 10.5714V17Z" fill="#88C0D0"/>
<path d="M64 17H42V8H61.25C62.7625 8 64 9.15714 64 10.5714V17Z" fill="black" fill-opacity="0.5"/>
<path d="M61.3333 56H2.66667C1.2 56 0 54.83 0 53.4V17H64V53.4C64 54.83 62.8 56 61.3333 56Z" fill="#88C0D0"/>
<path d="M61.3333 56H2.66667C1.2 56 0 54.83 0 53.4V17H64V53.4C64 54.83 62.8 56 61.3333 56Z" fill="black" fill-opacity="0.65"/>
<path d="M20.3359 33.3728L9.46332 44.3087C8.84556 44.9301 8.84556 45.8 9.46332 46.2971L11.6873 48.534C12.305 49.1553 13.1699 49.1553 13.6641 48.534L24.5367 37.5981C25.1544 36.9767 25.1544 36.1068 24.5367 35.6097L22.3127 33.3728C21.8185 32.8757 20.8301 32.8757 20.3359 33.3728Z" fill="#88C0D0"/>
<path d="M20.3359 33.3728L9.46332 44.3087C8.84556 44.9301 8.84556 45.8 9.46332 46.2971L11.6873 48.534C12.305 49.1553 13.1699 49.1553 13.6641 48.534L24.5367 37.5981C25.1544 36.9767 25.1544 36.1068 24.5367 35.6097L22.3127 33.3728C21.8185 32.8757 20.8301 32.8757 20.3359 33.3728Z" fill="black" fill-opacity="0.25"/>
<path d="M13.6641 23.3961L24.5367 35.0155C25.1544 35.6757 25.1544 36.6 24.5367 37.1282L22.3127 39.5049C21.695 40.165 20.8301 40.165 20.3359 39.5049L9.46332 27.8854C8.84556 27.2252 8.84556 26.301 9.46332 25.7728L11.6873 23.3961C12.1815 22.868 13.1699 22.868 13.6641 23.3961Z" fill="#88C0D0"/>
<path d="M53.6667 43H32.3333C31.5333 43 31 43.48 31 44.2V47.8C31 48.52 31.5333 49 32.3333 49H53.6667C54.4667 49 55 48.52 55 47.8V44.2C55 43.48 54.4667 43 53.6667 43Z" fill="#88C0D0"/>
</svg>
